<svg width="476" height="772" viewBox="0 0 476 772" fill="none" xmlns="http://www.w3.org/2000/svg">
<path d="M40 42C40 40.8954 40.8954 40 42 40H434C435.105 40 436 40.8954 436 42V730C436 731.105 435.105 732 434 732H42C40.8954 732 40 731.105 40 730V42Z" fill="black"/>
<path d="M316.387 117.296H343.298L354.607 131.869V163.082L330.449 204.517L342.782 165.755L339.911 163.489L311 163.508V110H314.395L316.387 117.296Z" stroke="#FDFCF8" stroke-miterlimit="10"/>
<path d="M252.943 116.71H277.624L288 130.104V158.818L278.172 239L277.159 161.268L274.517 159.193L248 159.21V110H251.115L252.943 116.71Z" stroke="#FDFCF8" stroke-miterlimit="10"/>
<path d="M316.387 290.296H343.298L354.607 304.869V336.082L330.449 377.517L342.782 338.755L339.911 336.489L311 336.508V283H314.395L316.387 290.296Z" stroke="#FDFCF8" stroke-miterlimit="10"/>
<path d="M252.943 289.71H277.624L288 303.104V331.818L278.172 412L277.159 334.268L274.517 332.193L248 332.21V283H251.115L252.943 289.71Z" stroke="#FDFCF8" stroke-miterlimit="10"/>
<path d="M189.943 289.71H214.624L225 303.104V331.818L215.172 412L214.159 334.268L211.517 332.193L185 332.21V283H188.115L189.943 289.71Z" stroke="#FDFCF8" stroke-miterlimit="10"/>
<path d="M126.943 289.71H151.624L162 303.104V331.818L152.172 412L151.159 334.268L148.517 332.193L122 332.21V283H125.115L126.943 289.71Z" stroke="#FDFCF8" stroke-miterlimit="10"/>
<path d="M147.45 109.381H174.868L186.108 124.125V155.703L175.097 248.777L174.153 158.408L171.24 156.115L142 156.134V102H145.435L147.45 109.381Z" stroke="#FDFCF8" stroke-miterlimit="10"/>
<path d="M202.716 109.381H175.289L164.049 124.125V155.703L175.097 248.777L176.013 158.408L178.917 156.115L208.166 156.134V102H204.731L202.716 109.381Z" stroke="#FDFCF8" stroke-miterlimit="10"/>
<rect x="40" y="4" width="49.2109" height="30" rx="3" fill="black"/>
<rect x="40.5" y="4.5" width="48.2109" height="29" rx="2.5" stroke="black" stroke-opacity="0.2"/>
</svg>
