<svg width="2850" height="1603" viewBox="0 0 2850 1603" fill="none" xmlns="http://www.w3.org/2000/svg">
<g clip-path="url(#clip0_435_2322)">
<rect width="2850" height="1603" fill="#FDFCF8"/>
<line x1="2726.5" y1="124" x2="2726.5" y2="1603" stroke="#101010"/>
<rect x="124" y="124" width="1476" height="1479" fill="#101010"/>
<path d="M1411.67 306.024H1419.15L1418.89 307.3H1414.84L1407.8 343.38H1411.85L1411.54 344.656H1404.02L1411.67 306.024ZM1434.37 327.848C1434.37 329.608 1433.78 331.251 1432.61 332.776C1431.46 334.272 1429.95 335.46 1428.08 336.34C1426.2 337.22 1424.26 337.66 1422.27 337.66C1420.66 337.66 1419.31 337.323 1418.22 336.648C1417.14 335.973 1416.59 335.093 1416.59 334.008C1416.59 333.392 1416.77 332.835 1417.12 332.336C1417.47 331.837 1418.07 331.383 1418.92 330.972C1420.04 334.316 1421.9 335.988 1424.51 335.988C1425.51 335.988 1426.45 335.753 1427.33 335.284C1428.24 334.815 1428.97 334.14 1429.53 333.26C1430.09 332.38 1430.36 331.353 1430.36 330.18C1430.36 328.185 1429.6 326.616 1428.08 325.472C1426.58 324.299 1424.72 323.565 1422.49 323.272L1422.8 322.04C1425.91 320.397 1428.06 319.019 1429.26 317.904C1430.47 316.76 1431.07 315.557 1431.07 314.296C1431.07 313.416 1430.73 312.712 1430.06 312.184C1429.41 311.627 1428.59 311.348 1427.59 311.348C1426.39 311.348 1425.29 311.729 1424.29 312.492C1423.3 313.255 1422.22 314.369 1421.08 315.836L1420.16 315.308C1421.27 312.991 1422.53 311.245 1423.94 310.072C1425.35 308.899 1427.05 308.312 1429.04 308.312C1430.83 308.312 1432.26 308.781 1433.31 309.72C1434.4 310.629 1434.94 311.817 1434.94 313.284C1434.94 315.073 1434.27 316.525 1432.92 317.64C1431.57 318.725 1429.66 319.781 1427.2 320.808V320.896C1429.37 321.365 1431.1 322.201 1432.39 323.404C1433.71 324.577 1434.37 326.059 1434.37 327.848ZM1453.2 308.312C1455.96 308.312 1458.1 309.383 1459.63 311.524C1461.15 313.665 1461.92 316.467 1461.92 319.928C1461.92 322.509 1461.34 325.193 1460.2 327.98C1459.06 330.737 1457.4 333.055 1455.23 334.932C1453.09 336.78 1450.58 337.704 1447.7 337.704C1445.92 337.704 1444.36 337.22 1443.04 336.252C1441.72 335.284 1440.71 333.949 1440 332.248C1439.33 330.547 1438.99 328.611 1438.99 326.44C1438.99 323.741 1439.56 320.984 1440.71 318.168C1441.85 315.352 1443.5 313.005 1445.64 311.128C1447.81 309.251 1450.33 308.312 1453.2 308.312ZM1447.57 336.56C1449.39 336.56 1451.05 335.533 1452.54 333.48C1454.07 331.397 1455.26 328.831 1456.11 325.78C1456.96 322.729 1457.38 319.855 1457.38 317.156C1457.38 312.052 1456.02 309.5 1453.29 309.5C1451.44 309.5 1449.76 310.497 1448.23 312.492C1446.74 314.487 1445.56 316.965 1444.71 319.928C1443.86 322.891 1443.44 325.707 1443.44 328.376C1443.44 333.832 1444.82 336.56 1447.57 336.56ZM1480.32 308.312C1483.07 308.312 1485.22 309.383 1486.74 311.524C1488.27 313.665 1489.03 316.467 1489.03 319.928C1489.03 322.509 1488.46 325.193 1487.31 327.98C1486.17 330.737 1484.51 333.055 1482.34 334.932C1480.2 336.78 1477.69 337.704 1474.82 337.704C1473.03 337.704 1471.47 337.22 1470.15 336.252C1468.83 335.284 1467.82 333.949 1467.12 332.248C1466.44 330.547 1466.11 328.611 1466.11 326.44C1466.11 323.741 1466.68 320.984 1467.82 318.168C1468.97 315.352 1470.61 313.005 1472.75 311.128C1474.92 309.251 1477.44 308.312 1480.32 308.312ZM1474.69 336.56C1476.5 336.56 1478.16 335.533 1479.66 333.48C1481.18 331.397 1482.37 328.831 1483.22 325.78C1484.07 322.729 1484.5 319.855 1484.5 317.156C1484.5 312.052 1483.13 309.5 1480.41 309.5C1478.56 309.5 1476.87 310.497 1475.35 312.492C1473.85 314.487 1472.68 316.965 1471.83 319.928C1470.97 322.891 1470.55 325.707 1470.55 328.376C1470.55 333.832 1471.93 336.56 1474.69 336.56ZM1494.95 344.656H1487.51L1487.73 343.38H1491.78L1498.91 307.3H1494.81L1495.08 306.024H1502.56L1494.95 344.656Z" fill="#FDFCF8"/>
<rect x="312.5" y="306.5" width="1068" height="1120" stroke="#FDFCF8"/>
<line x1="123.5" y1="124" x2="123.5" y2="1603" stroke="#101010"/>
<line x1="4.37114e-08" y1="123.5" x2="2850" y2="123.5" stroke="#101010"/>
<path d="M1696.6 1427V1411.46H1685.41V1409.21H1702.69V1411.46H1699.42V1427H1696.6ZM1706.96 1427V1409.21H1709.81V1427H1706.96ZM1724.67 1427V1411.46H1713.48V1409.21H1730.76V1411.46H1727.49V1427H1724.67ZM1734.78 1420.4V1409.21H1737.63V1418.9L1734.78 1420.4ZM1742.85 1427V1409.21H1752.27C1757.43 1409.21 1761.15 1411.46 1761.15 1416.53V1427H1758.3V1417.16C1758.3 1412.9 1755.72 1411.46 1751.58 1411.46H1745.7V1427H1742.85ZM1778.12 1427L1786.16 1411.46H1772.93V1403.39H1775.75V1409.21H1789.22V1411.46L1781.18 1427H1778.12ZM1804.72 1427.36C1796.35 1427.36 1793.08 1422.89 1793.08 1416.74V1409.21H1795.9V1416.74C1795.9 1417.46 1795.96 1418.12 1796.08 1418.78C1796.41 1418.81 1796.77 1418.84 1797.16 1418.84C1800.04 1418.84 1803.4 1417.73 1803.4 1413.86V1409.21H1806.25V1413.68C1806.25 1418.51 1802.59 1420.7 1797.4 1420.7C1797.19 1420.7 1796.92 1420.7 1796.62 1420.67C1797.85 1423.52 1800.58 1425.14 1804.72 1425.14C1810.45 1425.14 1813.48 1421.96 1813.48 1416.74V1409.21H1816.33V1416.74C1816.33 1422.89 1813.03 1427.36 1804.72 1427.36ZM1829.57 1433V1409.21H1832.42V1433H1829.57ZM1837.08 1427V1424.72H1848.81V1416.8C1848.81 1413.38 1846.59 1411.46 1843.17 1411.46H1837.08V1409.21H1843.38C1848.24 1409.21 1851.66 1411.64 1851.66 1416.74V1424.72H1854.45V1427H1837.08ZM1858.31 1427V1409.21H1861.16V1427H1858.31ZM1877.52 1427.51C1876.08 1427.51 1875.09 1427.27 1874.13 1427V1424.72C1875 1425.08 1876.59 1425.23 1877.61 1425.23C1880.97 1425.23 1883.7 1422.74 1883.7 1418.09C1883.7 1413.86 1881.54 1411.16 1878.06 1411.16C1874.4 1411.16 1871.46 1414.16 1870.41 1419.32L1868.79 1427H1866.03L1867.62 1419.59C1867.86 1418.57 1867.95 1417.91 1867.95 1416.86C1867.95 1415.03 1866.75 1412.15 1865.52 1409.21H1868.25C1868.94 1410.86 1869.66 1412.96 1870.02 1414.19H1870.14C1871.25 1411.7 1874.1 1408.82 1878.24 1408.82C1883.34 1408.82 1886.58 1412.75 1886.58 1418.09C1886.58 1424.51 1882.23 1427.51 1877.52 1427.51ZM1888.99 1427V1424.72H1900.72V1416.8C1900.72 1413.38 1898.5 1411.46 1895.08 1411.46H1888.99V1409.21H1895.29C1900.15 1409.21 1903.57 1411.64 1903.57 1416.74V1424.72H1906.36V1427H1888.99ZM1918.45 1427V1409.21H1927.72C1932.82 1409.21 1936.75 1411.46 1936.75 1416.2V1427H1918.45ZM1921.3 1424.72H1933.9V1416.38C1933.9 1412.63 1930.66 1411.46 1927.6 1411.46H1921.3V1424.72ZM1941.62 1420.4V1409.21H1944.47V1418.9L1941.62 1420.4ZM1949.44 1420.4V1409.21H1952.29V1418.9L1949.44 1420.4ZM1956.7 1427V1424.72H1963.39V1415.27C1963.39 1412.9 1962.37 1411.46 1960 1411.46H1957V1409.21H1959.94C1964.05 1409.21 1966.24 1411.19 1966.24 1415.21V1427H1956.7ZM1971.09 1420.4V1409.21H1973.94V1418.9L1971.09 1420.4ZM1990.35 1427.36C1981.98 1427.36 1978.71 1422.89 1978.71 1416.74V1409.21H1981.53V1416.74C1981.53 1417.46 1981.59 1418.12 1981.71 1418.78C1982.04 1418.81 1982.4 1418.84 1982.79 1418.84C1985.67 1418.84 1989.03 1417.73 1989.03 1413.86V1409.21H1991.88V1413.68C1991.88 1418.51 1988.22 1420.7 1983.03 1420.7C1982.82 1420.7 1982.55 1420.7 1982.25 1420.67C1983.48 1423.52 1986.21 1425.14 1990.35 1425.14C1996.08 1425.14 1999.11 1421.96 1999.11 1416.74V1409.21H2001.96V1416.74C2001.96 1422.89 1998.66 1427.36 1990.35 1427.36ZM2010.59 1427L2018.63 1411.46H2005.4V1403.39H2008.22V1409.21H2021.69V1411.46L2013.65 1427H2010.59ZM2032.04 1432.31L2034.74 1424.3H2037.14L2033.66 1432.31H2032.04ZM2059.52 1416.71C2059.52 1413.02 2057 1411.46 2053.19 1411.46H2047.88V1422.26C2047.88 1425.53 2046.17 1427.39 2043.23 1427.39C2041.7 1427.39 2040.98 1427.18 2040.5 1427V1424.72C2041.1 1425.02 2041.85 1425.2 2042.63 1425.2C2044.04 1425.2 2045.06 1424.39 2045.06 1422.26V1411.46H2041.16V1409.21H2053.22C2058.92 1409.21 2062.37 1411.52 2062.37 1416.71V1427H2059.52V1416.71ZM2067.46 1427V1409.21H2070.31V1427H2067.46ZM2085.17 1427.45C2078.33 1427.45 2075.33 1423.34 2075.33 1418.09V1409.21H2078.15V1418.09C2078.15 1422.38 2080.67 1425.23 2085.17 1425.23C2089.49 1425.23 2092.19 1422.38 2092.19 1418.09C2092.19 1412.66 2088.74 1410.98 2086.16 1410.98C2084.72 1410.98 2083.46 1411.19 2082.5 1411.46V1409.21C2083.49 1408.97 2084.96 1408.7 2086.46 1408.7C2089.76 1408.7 2095.04 1410.5 2095.04 1418.09C2095.04 1423.34 2091.89 1427.45 2085.17 1427.45ZM2108.69 1417.4C2108.69 1413.47 2106.92 1411.46 2102.48 1411.46H2096.21V1409.21H2102.48C2108.93 1409.21 2111.51 1411.94 2111.51 1417.4V1427H2108.69V1417.4ZM2116.59 1427V1424.72H2125.56C2129.91 1424.72 2131.65 1421.9 2131.65 1418.09C2131.65 1414.31 2129.91 1411.46 2125.56 1411.46H2119.11V1414.67C2119.11 1416.8 2119.74 1417.61 2121.99 1417.61H2123.34V1419.77H2121.3C2118.24 1419.77 2116.26 1418.54 2116.26 1414.61V1409.21H2124.78C2131.56 1409.21 2134.47 1412.75 2134.47 1418.09C2134.47 1423.46 2131.56 1427 2124.78 1427H2116.59ZM2155.26 1416.71C2155.26 1413.02 2152.74 1411.46 2148.93 1411.46H2143.62V1422.26C2143.62 1425.53 2141.91 1427.39 2138.97 1427.39C2137.44 1427.39 2136.72 1427.18 2136.24 1427V1424.72C2136.84 1425.02 2137.59 1425.2 2138.37 1425.2C2139.78 1425.2 2140.8 1424.39 2140.8 1422.26V1411.46H2136.9V1409.21H2148.96C2154.66 1409.21 2158.11 1411.52 2158.11 1416.71V1427H2155.26V1416.71ZM2177.24 1417.16C2177.24 1412.63 2174.39 1411.46 2170.94 1411.46H2162.78V1409.21H2171.15C2176.61 1409.21 2180.06 1411.46 2180.06 1416.92V1427H2177.24V1417.16ZM2162.84 1427V1417.19L2165.69 1415.72V1427H2162.84ZM2187.6 1427L2195.64 1411.46H2182.41V1403.39H2185.23V1409.21H2198.7V1411.46L2190.66 1427H2187.6ZM2209.06 1432.31L2211.76 1424.3H2214.16L2210.68 1432.31H2209.06ZM2236.53 1416.71C2236.53 1413.02 2234.01 1411.46 2230.2 1411.46H2224.89V1422.26C2224.89 1425.53 2223.18 1427.39 2220.24 1427.39C2218.71 1427.39 2217.99 1427.18 2217.51 1427V1424.72C2218.11 1425.02 2218.86 1425.2 2219.64 1425.2C2221.05 1425.2 2222.07 1424.39 2222.07 1422.26V1411.46H2218.17V1409.21H2230.23C2235.93 1409.21 2239.38 1411.52 2239.38 1416.71V1427H2236.53V1416.71ZM2244.47 1427V1409.21H2247.32V1427H2244.47ZM2263.47 1417.4C2263.47 1413.47 2261.7 1411.46 2257.26 1411.46H2250.99V1409.21H2257.26C2263.71 1409.21 2266.29 1411.94 2266.29 1417.4V1427H2263.47V1417.4ZM2271.39 1427V1409.21H2274.24V1427H2271.39ZM2295.04 1427C2291.62 1422.77 2289.25 1420.13 2285.8 1416.71C2283.07 1418.21 2281.66 1419.83 2281.66 1423.46V1427H2278.84V1423.82C2278.84 1419.41 2281.39 1416.8 2284.27 1415.18C2282.26 1413.05 2280.43 1411.22 2278.21 1409.21H2281.99C2285.14 1412.18 2288.05 1415.36 2290.72 1418.33C2293.27 1416.89 2293.9 1415.84 2293.9 1413.08V1409.21H2296.78V1412.63C2296.78 1416.65 2294.65 1418.51 2292.16 1419.83C2294.35 1422.2 2296.36 1424.42 2298.4 1427H2295.04ZM2309.94 1420.4V1409.21H2312.79V1418.9L2309.94 1420.4ZM2318 1427V1409.21H2320.85V1427H2318ZM2325.51 1427V1424.72H2337.24V1416.8C2337.24 1413.38 2335.02 1411.46 2331.6 1411.46H2325.51V1409.21H2331.81C2336.67 1409.21 2340.09 1411.64 2340.09 1416.74V1424.72H2342.88V1427H2325.51ZM2345.13 1420.4V1409.21H2347.98V1418.9L2345.13 1420.4ZM2363.87 1417.4C2363.87 1413.47 2362.1 1411.46 2357.66 1411.46H2351.39V1409.21H2357.66C2364.11 1409.21 2366.69 1411.94 2366.69 1417.4V1427H2363.87V1417.4ZM2374.22 1427L2382.26 1411.46H2369.03V1403.39H2371.85V1409.21H2385.32V1411.46L2377.28 1427H2374.22ZM2408.55 1417.4C2408.55 1413.47 2406.78 1411.46 2402.34 1411.46H2396.07V1409.21H2402.34C2408.79 1409.21 2411.37 1411.94 2411.37 1417.4V1427H2408.55V1417.4ZM2416.44 1427V1424.72H2425.41C2429.76 1424.72 2431.5 1421.9 2431.5 1418.09C2431.5 1414.31 2429.76 1411.46 2425.41 1411.46H2418.96V1414.67C2418.96 1416.8 2419.59 1417.61 2421.84 1417.61H2423.19V1419.77H2421.15C2418.09 1419.77 2416.11 1418.54 2416.11 1414.61V1409.21H2424.63C2431.41 1409.21 2434.32 1412.75 2434.32 1418.09C2434.32 1423.46 2431.41 1427 2424.63 1427H2416.44ZM2447.8 1427.51C2440.42 1427.51 2438.05 1422.92 2438.05 1418.09V1409.21H2448.91C2454.19 1409.21 2457.61 1412.9 2457.61 1418.15C2457.61 1422.92 2455.21 1427.51 2447.8 1427.51ZM2447.8 1425.23C2452.84 1425.23 2454.76 1421.96 2454.76 1418.15C2454.76 1414.07 2452.48 1411.46 2448.22 1411.46H2440.87V1418.09C2440.87 1421.96 2442.76 1425.23 2447.8 1425.23ZM2460.05 1427V1424.72H2471.78V1416.8C2471.78 1413.38 2469.56 1411.46 2466.14 1411.46H2460.05V1409.21H2466.35C2471.21 1409.21 2474.63 1411.64 2474.63 1416.74V1424.72H2477.42V1427H2460.05ZM2503.55 1417.16C2503.55 1412.63 2500.7 1411.46 2497.25 1411.46H2489.09V1409.21H2497.46C2502.92 1409.21 2506.37 1411.46 2506.37 1416.92V1427H2503.55V1417.16ZM2489.15 1427V1417.19L2492 1415.72V1427H2489.15ZM2521.13 1417.4C2521.13 1413.47 2519.36 1411.46 2514.92 1411.46H2508.65V1409.21H2514.92C2521.37 1409.21 2523.95 1411.94 2523.95 1417.4V1427H2521.13V1417.4ZM2529.06 1427V1409.21H2531.91V1427H2529.06ZM2548.57 1427.36C2540.2 1427.36 2536.93 1422.89 2536.93 1416.74V1409.21H2539.75V1416.74C2539.75 1417.46 2539.81 1418.12 2539.93 1418.78C2540.26 1418.81 2540.62 1418.84 2541.01 1418.84C2543.89 1418.84 2547.25 1417.73 2547.25 1413.86V1409.21H2550.1V1413.68C2550.1 1418.51 2546.44 1420.7 2541.25 1420.7C2541.04 1420.7 2540.77 1420.7 2540.47 1420.67C2541.7 1423.52 2544.43 1425.14 2548.57 1425.14C2554.3 1425.14 2557.33 1421.96 2557.33 1416.74V1409.21H2560.18V1416.74C2560.18 1422.89 2556.88 1427.36 2548.57 1427.36ZM2573.1 1427L2581.17 1411.46H2564.76V1409.21H2584.29V1411.46L2576.16 1427H2573.1ZM2565.33 1433V1416.62L2568.18 1415.15V1433H2565.33ZM2596.85 1433V1409.21H2599.7V1433H2596.85ZM2602.44 1413.95L2605.14 1405.94H2607.54L2604.06 1413.95H2602.44ZM2607.3 1413.95L2610 1405.94H2612.4L2608.92 1413.95H2607.3ZM2614.89 1420.4V1409.21H2617.74V1418.9L2614.89 1420.4ZM2634.14 1427.36C2625.77 1427.36 2622.5 1422.89 2622.5 1416.74V1409.21H2625.32V1416.74C2625.32 1417.46 2625.38 1418.12 2625.5 1418.78C2625.83 1418.81 2626.19 1418.84 2626.58 1418.84C2629.46 1418.84 2632.82 1417.73 2632.82 1413.86V1409.21H2635.67V1413.68C2635.67 1418.51 2632.01 1420.7 2626.82 1420.7C2626.61 1420.7 2626.34 1420.7 2626.04 1420.67C2627.27 1423.52 2630 1425.14 2634.14 1425.14C2639.87 1425.14 2642.9 1421.96 2642.9 1416.74V1409.21H2645.75V1416.74C2645.75 1422.89 2642.45 1427.36 2634.14 1427.36ZM2664.8 1417.16C2664.8 1412.63 2661.95 1411.46 2658.5 1411.46H2650.34V1409.21H2658.71C2664.17 1409.21 2667.62 1411.46 2667.62 1416.92V1427H2664.8V1417.16ZM2650.4 1427V1417.19L2653.25 1415.72V1427H2650.4ZM1814.05 1452.16C1814.05 1447.63 1811.2 1446.46 1807.75 1446.46H1799.59V1444.21H1807.96C1813.42 1444.21 1816.87 1446.46 1816.87 1451.92V1462H1814.05V1452.16ZM1799.65 1462V1452.19L1802.5 1450.72V1462H1799.65ZM1832.87 1462.51C1831.43 1462.51 1830.44 1462.27 1829.48 1462V1459.72C1830.35 1460.08 1831.94 1460.23 1832.96 1460.23C1836.32 1460.23 1839.05 1457.74 1839.05 1453.09C1839.05 1448.86 1836.89 1446.16 1833.41 1446.16C1829.75 1446.16 1826.81 1449.16 1825.76 1454.32L1824.14 1462H1821.38L1822.97 1454.59C1823.21 1453.57 1823.3 1452.91 1823.3 1451.86C1823.3 1450.03 1822.1 1447.15 1820.87 1444.21H1823.6C1824.29 1445.86 1825.01 1447.96 1825.37 1449.19H1825.49C1826.6 1446.7 1829.45 1443.82 1833.59 1443.82C1838.69 1443.82 1841.93 1447.75 1841.93 1453.09C1841.93 1459.51 1837.58 1462.51 1832.87 1462.51ZM1844.34 1462V1459.72H1850.04C1855.14 1459.72 1857.18 1457.05 1857.18 1453.09C1857.18 1449.16 1855.14 1446.46 1850.04 1446.46H1844.34V1444.21H1850.67C1856.13 1444.21 1860.03 1447.24 1860.03 1453.09C1860.03 1458.97 1856.13 1462 1850.67 1462H1844.34ZM1870.24 1467.31L1872.94 1459.3H1875.34L1871.86 1467.31H1870.24ZM1879.84 1462V1444.21H1889.11C1894.21 1444.21 1898.14 1446.46 1898.14 1451.2V1462H1879.84ZM1882.69 1459.72H1895.29V1451.38C1895.29 1447.63 1892.05 1446.46 1888.99 1446.46H1882.69V1459.72ZM1903.01 1455.4V1444.21H1905.86V1453.9L1903.01 1455.4ZM1922.26 1462.36C1913.89 1462.36 1910.62 1457.89 1910.62 1451.74V1444.21H1913.44V1451.74C1913.44 1452.46 1913.5 1453.12 1913.62 1453.78C1913.95 1453.81 1914.31 1453.84 1914.7 1453.84C1917.58 1453.84 1920.94 1452.73 1920.94 1448.86V1444.21H1923.79V1448.68C1923.79 1453.51 1920.13 1455.7 1914.94 1455.7C1914.73 1455.7 1914.46 1455.7 1914.16 1455.67C1915.39 1458.52 1918.12 1460.14 1922.26 1460.14C1927.99 1460.14 1931.02 1456.96 1931.02 1451.74V1444.21H1933.87V1451.74C1933.87 1457.89 1930.57 1462.36 1922.26 1462.36ZM1954.2 1462C1950.78 1457.77 1948.41 1455.13 1944.96 1451.71C1942.23 1453.21 1940.82 1454.83 1940.82 1458.46V1462H1938V1458.82C1938 1454.41 1940.55 1451.8 1943.43 1450.18C1941.42 1448.05 1939.59 1446.22 1937.37 1444.21H1941.15C1944.3 1447.18 1947.21 1450.36 1949.88 1453.33C1952.43 1451.89 1953.06 1450.84 1953.06 1448.08V1444.21H1955.94V1447.63C1955.94 1451.65 1953.81 1453.51 1951.32 1454.83C1953.51 1457.2 1955.52 1459.42 1957.56 1462H1954.2ZM1971.79 1452.4C1971.79 1448.47 1970.02 1446.46 1965.58 1446.46H1959.31V1444.21H1965.58C1972.03 1444.21 1974.61 1446.94 1974.61 1452.4V1462H1971.79V1452.4ZM2001.98 1452.16C2001.98 1447.63 1999.13 1446.46 1995.68 1446.46H1987.52V1444.21H1995.89C2001.35 1444.21 2004.8 1446.46 2004.8 1451.92V1462H2001.98V1452.16ZM1987.58 1462V1452.19L1990.43 1450.72V1462H1987.58ZM2020.81 1462.51C2019.37 1462.51 2018.38 1462.27 2017.42 1462V1459.72C2018.29 1460.08 2019.88 1460.23 2020.9 1460.23C2024.26 1460.23 2026.99 1457.74 2026.99 1453.09C2026.99 1448.86 2024.83 1446.16 2021.35 1446.16C2017.69 1446.16 2014.75 1449.16 2013.7 1454.32L2012.08 1462H2009.32L2010.91 1454.59C2011.15 1453.57 2011.24 1452.91 2011.24 1451.86C2011.24 1450.03 2010.04 1447.15 2008.81 1444.21H2011.54C2012.23 1445.86 2012.95 1447.96 2013.31 1449.19H2013.43C2014.54 1446.7 2017.39 1443.82 2021.53 1443.82C2026.63 1443.82 2029.87 1447.75 2029.87 1453.09C2029.87 1459.51 2025.52 1462.51 2020.81 1462.51ZM2032.28 1462V1459.72H2037.98C2043.08 1459.72 2045.12 1457.05 2045.12 1453.09C2045.12 1449.16 2043.08 1446.46 2037.98 1446.46H2032.28V1444.21H2038.61C2044.07 1444.21 2047.97 1447.24 2047.97 1453.09C2047.97 1458.97 2044.07 1462 2038.61 1462H2032.28ZM2054.74 1462L2062.78 1446.46H2049.55V1438.39H2052.37V1444.21H2065.84V1446.46L2057.8 1462H2054.74ZM2078.14 1455.4V1444.21H2080.99V1453.9L2078.14 1455.4ZM2086.21 1462V1444.21H2095.63C2100.79 1444.21 2104.51 1446.46 2104.51 1451.53V1462H2101.66V1452.16C2101.66 1447.9 2099.08 1446.46 2094.94 1446.46H2089.06V1462H2086.21ZM2116.89 1465.33V1462.81L2122.62 1460.32L2117.25 1444.21H2120.19L2124.24 1456.12C2124.57 1457.02 2124.9 1458.16 2125.17 1459.21C2130.06 1456.93 2131.23 1454.89 2131.23 1451.32V1444.21H2134.02V1450.39C2134.02 1456.18 2132.25 1458.55 2124.06 1462.18L2116.89 1465.33ZM2139.06 1462V1459.72H2148.03C2152.38 1459.72 2154.12 1456.9 2154.12 1453.09C2154.12 1449.31 2152.38 1446.46 2148.03 1446.46H2141.58V1449.67C2141.58 1451.8 2142.21 1452.61 2144.46 1452.61H2145.81V1454.77H2143.77C2140.71 1454.77 2138.73 1453.54 2138.73 1449.61V1444.21H2147.25C2154.03 1444.21 2156.94 1447.75 2156.94 1453.09C2156.94 1458.46 2154.03 1462 2147.25 1462H2139.06ZM2172.31 1462.36C2163.94 1462.36 2160.67 1457.89 2160.67 1451.74V1444.21H2163.49V1451.74C2163.49 1452.46 2163.55 1453.12 2163.67 1453.78C2164 1453.81 2164.36 1453.84 2164.75 1453.84C2167.63 1453.84 2170.99 1452.73 2170.99 1448.86V1444.21H2173.84V1448.68C2173.84 1453.51 2170.18 1455.7 2164.99 1455.7C2164.78 1455.7 2164.51 1455.7 2164.21 1455.67C2165.44 1458.52 2168.17 1460.14 2172.31 1460.14C2178.04 1460.14 2181.07 1456.96 2181.07 1451.74V1444.21H2183.92V1451.74C2183.92 1457.89 2180.62 1462.36 2172.31 1462.36ZM2200.78 1462L2208.82 1446.46H2195.59V1438.39H2198.41V1444.21H2211.88V1446.46L2203.84 1462H2200.78ZM2227.39 1462.36C2219.02 1462.36 2215.75 1457.89 2215.75 1451.74V1444.21H2218.57V1451.74C2218.57 1452.46 2218.63 1453.12 2218.75 1453.78C2219.08 1453.81 2219.44 1453.84 2219.83 1453.84C2222.71 1453.84 2226.07 1452.73 2226.07 1448.86V1444.21H2228.92V1448.68C2228.92 1453.51 2225.26 1455.7 2220.07 1455.7C2219.86 1455.7 2219.59 1455.7 2219.29 1455.67C2220.52 1458.52 2223.25 1460.14 2227.39 1460.14C2233.12 1460.14 2236.15 1456.96 2236.15 1451.74V1444.21H2239V1451.74C2239 1457.89 2235.7 1462.36 2227.39 1462.36ZM2269.78 1451.71C2269.78 1448.02 2267.26 1446.46 2263.45 1446.46H2258.14V1457.26C2258.14 1460.53 2256.43 1462.39 2253.49 1462.39C2251.96 1462.39 2251.24 1462.18 2250.76 1462V1459.72C2251.36 1460.02 2252.11 1460.2 2252.89 1460.2C2254.3 1460.2 2255.32 1459.39 2255.32 1457.26V1446.46H2251.42V1444.21H2263.48C2269.18 1444.21 2272.63 1446.52 2272.63 1451.71V1462H2269.78V1451.71ZM2277.72 1462V1444.21H2280.57V1462H2277.72ZM2285.2 1462V1459.72H2298.34L2283.97 1444.21H2287.42L2295.79 1453.15C2298.01 1452.07 2298.91 1450.93 2298.91 1448.32V1444.21H2301.73V1447.54C2301.73 1451.86 2299.39 1453.6 2297.14 1454.71L2301.91 1459.84V1462H2285.2ZM2317.14 1452.4C2317.14 1448.47 2315.37 1446.46 2310.93 1446.46H2304.66V1444.21H2310.93C2317.38 1444.21 2319.96 1446.94 2319.96 1452.4V1462H2317.14V1452.4ZM2325.03 1462V1459.72H2334C2338.35 1459.72 2340.09 1456.9 2340.09 1453.09C2340.09 1449.31 2338.35 1446.46 2334 1446.46H2327.55V1449.67C2327.55 1451.8 2328.18 1452.61 2330.43 1452.61H2331.78V1454.77H2329.74C2326.68 1454.77 2324.7 1453.54 2324.7 1449.61V1444.21H2333.22C2340 1444.21 2342.91 1447.75 2342.91 1453.09C2342.91 1458.46 2340 1462 2333.22 1462H2325.03ZM2363.71 1451.71C2363.71 1448.02 2361.19 1446.46 2357.38 1446.46H2352.07V1457.26C2352.07 1460.53 2350.36 1462.39 2347.42 1462.39C2345.89 1462.39 2345.17 1462.18 2344.69 1462V1459.72C2345.29 1460.02 2346.04 1460.2 2346.82 1460.2C2348.23 1460.2 2349.25 1459.39 2349.25 1457.26V1446.46H2345.35V1444.21H2357.41C2363.11 1444.21 2366.56 1446.52 2366.56 1451.71V1462H2363.71V1451.71ZM2385.69 1452.16C2385.69 1447.63 2382.84 1446.46 2379.39 1446.46H2371.23V1444.21H2379.6C2385.06 1444.21 2388.51 1446.46 2388.51 1451.92V1462H2385.69V1452.16ZM2371.29 1462V1452.19L2374.14 1450.72V1462H2371.29ZM2419.4 1451.71C2419.4 1448.02 2416.88 1446.46 2413.07 1446.46H2407.76V1457.26C2407.76 1460.53 2406.05 1462.39 2403.11 1462.39C2401.58 1462.39 2400.86 1462.18 2400.38 1462V1459.72C2400.98 1460.02 2401.73 1460.2 2402.51 1460.2C2403.92 1460.2 2404.94 1459.39 2404.94 1457.26V1446.46H2401.04V1444.21H2413.1C2418.8 1444.21 2422.25 1446.52 2422.25 1451.71V1462H2419.4V1451.71ZM2442.67 1462C2439.25 1457.77 2436.88 1455.13 2433.43 1451.71C2430.7 1453.21 2429.29 1454.83 2429.29 1458.46V1462H2426.47V1458.82C2426.47 1454.41 2429.02 1451.8 2431.9 1450.18C2429.89 1448.05 2428.06 1446.22 2425.84 1444.21H2429.62C2432.77 1447.18 2435.68 1450.36 2438.35 1453.33C2440.9 1451.89 2441.53 1450.84 2441.53 1448.08V1444.21H2444.41V1447.63C2444.41 1451.65 2442.28 1453.51 2439.79 1454.83C2441.98 1457.2 2443.99 1459.42 2446.03 1462H2442.67ZM2458.97 1462.45C2452.13 1462.45 2449.13 1458.34 2449.13 1453.09V1444.21H2451.95V1453.09C2451.95 1457.38 2454.47 1460.23 2458.97 1460.23C2463.29 1460.23 2465.99 1457.38 2465.99 1453.09C2465.99 1447.66 2462.54 1445.98 2459.96 1445.98C2458.52 1445.98 2457.26 1446.19 2456.3 1446.46V1444.21C2457.29 1443.97 2458.76 1443.7 2460.26 1443.7C2463.56 1443.7 2468.84 1445.5 2468.84 1453.09C2468.84 1458.34 2465.69 1462.45 2458.97 1462.45ZM2471.27 1462V1459.72H2483V1451.8C2483 1448.38 2480.78 1446.46 2477.36 1446.46H2471.27V1444.21H2477.57C2482.43 1444.21 2485.85 1446.64 2485.85 1451.74V1459.72H2488.64V1462H2471.27ZM2503.39 1462.51C2501.95 1462.51 2500.96 1462.27 2500 1462V1459.72C2500.87 1460.08 2502.46 1460.23 2503.48 1460.23C2506.84 1460.23 2509.57 1457.74 2509.57 1453.09C2509.57 1448.86 2507.41 1446.16 2503.93 1446.16C2500.27 1446.16 2497.33 1449.16 2496.28 1454.32L2494.66 1462H2491.9L2493.49 1454.59C2493.73 1453.57 2493.82 1452.91 2493.82 1451.86C2493.82 1450.03 2492.62 1447.15 2491.39 1444.21H2494.12C2494.81 1445.86 2495.53 1447.96 2495.89 1449.19H2496.01C2497.12 1446.7 2499.97 1443.82 2504.11 1443.82C2509.21 1443.82 2512.45 1447.75 2512.45 1453.09C2512.45 1459.51 2508.1 1462.51 2503.39 1462.51ZM2540.17 1462C2536.75 1457.77 2534.38 1455.13 2530.93 1451.71C2528.2 1453.21 2526.79 1454.83 2526.79 1458.46V1462H2523.97V1458.82C2523.97 1454.41 2526.52 1451.8 2529.4 1450.18C2527.39 1448.05 2525.56 1446.22 2523.34 1444.21H2527.12C2530.27 1447.18 2533.18 1450.36 2535.85 1453.33C2538.4 1451.89 2539.03 1450.84 2539.03 1448.08V1444.21H2541.91V1447.63C2541.91 1451.65 2539.78 1453.51 2537.29 1454.83C2539.48 1457.2 2541.49 1459.42 2543.53 1462H2540.17ZM2546.84 1455.4V1444.21H2549.69V1453.9L2546.84 1455.4ZM2568.94 1452.16C2568.94 1447.63 2566.09 1446.46 2562.64 1446.46H2554.48V1444.21H2562.85C2568.31 1444.21 2571.76 1446.46 2571.76 1451.92V1462H2568.94V1452.16ZM2554.54 1462V1452.19L2557.39 1450.72V1462H2554.54ZM2586.87 1462.12C2586 1462.12 2585.07 1461.61 2585.07 1460.62C2585.07 1459.72 2585.94 1459.18 2586.87 1459.18C2587.8 1459.18 2588.64 1459.72 2588.64 1460.62C2588.64 1461.61 2587.8 1462.12 2586.87 1462.12ZM2601.32 1452.4C2601.32 1448.47 2599.55 1446.46 2595.11 1446.46H2588.84V1444.21H2595.11C2601.56 1444.21 2604.14 1446.94 2604.14 1452.4V1462H2601.32V1452.4ZM2609.24 1462V1444.21H2612.09V1462H2609.24ZM2628.24 1452.4C2628.24 1448.47 2626.47 1446.46 2622.03 1446.46H2615.76V1444.21H2622.03C2628.48 1444.21 2631.06 1446.94 2631.06 1452.4V1462H2628.24V1452.4ZM2635.93 1455.4V1444.21H2638.78V1453.9L2635.93 1455.4ZM2643.18 1462V1459.72H2654.91V1451.8C2654.91 1448.38 2652.69 1446.46 2649.27 1446.46H2643.18V1444.21H2649.48C2654.34 1444.21 2657.76 1446.64 2657.76 1451.74V1459.72H2660.55V1462H2643.18ZM2664.41 1462V1444.21H2667.26V1462H2664.41ZM1750.47 1486.71C1750.47 1483.02 1747.95 1481.46 1744.14 1481.46H1738.83V1492.26C1738.83 1495.53 1737.12 1497.39 1734.18 1497.39C1732.65 1497.39 1731.93 1497.18 1731.45 1497V1494.72C1732.05 1495.02 1732.8 1495.2 1733.58 1495.2C1734.99 1495.2 1736.01 1494.39 1736.01 1492.26V1481.46H1732.11V1479.21H1744.17C1749.87 1479.21 1753.32 1481.52 1753.32 1486.71V1497H1750.47V1486.71ZM1758.4 1497V1479.21H1761.25V1497H1758.4ZM1782.05 1497C1778.63 1492.77 1776.26 1490.13 1772.81 1486.71C1770.08 1488.21 1768.67 1489.83 1768.67 1493.46V1497H1765.85V1493.82C1765.85 1489.41 1768.4 1486.8 1771.28 1485.18C1769.27 1483.05 1767.44 1481.22 1765.22 1479.21H1769C1772.15 1482.18 1775.06 1485.36 1777.73 1488.33C1780.28 1486.89 1780.91 1485.84 1780.91 1483.08V1479.21H1783.79V1482.63C1783.79 1486.65 1781.66 1488.51 1779.17 1489.83C1781.36 1492.2 1783.37 1494.42 1785.41 1497H1782.05ZM1812.52 1497C1809.1 1492.77 1806.73 1490.13 1803.28 1486.71C1800.55 1488.21 1799.14 1489.83 1799.14 1493.46V1497H1796.32V1493.82C1796.32 1489.41 1798.87 1486.8 1801.75 1485.18C1799.74 1483.05 1797.91 1481.22 1795.69 1479.21H1799.47C1802.62 1482.18 1805.53 1485.36 1808.2 1488.33C1810.75 1486.89 1811.38 1485.84 1811.38 1483.08V1479.21H1814.26V1482.63C1814.26 1486.65 1812.13 1488.51 1809.64 1489.83C1811.83 1492.2 1813.84 1494.42 1815.88 1497H1812.52ZM1819.19 1490.4V1479.21H1822.04V1488.9L1819.19 1490.4ZM1841.29 1487.16C1841.29 1482.63 1838.44 1481.46 1834.99 1481.46H1826.83V1479.21H1835.2C1840.66 1479.21 1844.11 1481.46 1844.11 1486.92V1497H1841.29V1487.16ZM1826.89 1497V1487.19L1829.74 1485.72V1497H1826.89ZM1857.46 1503V1479.21H1860.31V1503H1857.46ZM1864.97 1497V1494.72H1870.67C1875.77 1494.72 1877.81 1492.05 1877.81 1488.09C1877.81 1484.16 1875.77 1481.46 1870.67 1481.46H1864.97V1479.21H1871.3C1876.76 1479.21 1880.66 1482.24 1880.66 1488.09C1880.66 1493.97 1876.76 1497 1871.3 1497H1864.97ZM1887.42 1497L1895.46 1481.46H1882.23V1473.39H1885.05V1479.21H1898.52V1481.46L1890.48 1497H1887.42ZM1912.84 1497.12C1911.97 1497.12 1911.04 1496.61 1911.04 1495.62C1911.04 1494.72 1911.91 1494.18 1912.84 1494.18C1913.77 1494.18 1914.61 1494.72 1914.61 1495.62C1914.61 1496.61 1913.77 1497.12 1912.84 1497.12ZM1937.58 1486.71C1937.58 1483.02 1935.06 1481.46 1931.25 1481.46H1925.94V1492.26C1925.94 1495.53 1924.23 1497.39 1921.29 1497.39C1919.76 1497.39 1919.04 1497.18 1918.56 1497V1494.72C1919.16 1495.02 1919.91 1495.2 1920.69 1495.2C1922.1 1495.2 1923.12 1494.39 1923.12 1492.26V1481.46H1919.22V1479.21H1931.28C1936.98 1479.21 1940.43 1481.52 1940.43 1486.71V1497H1937.58V1486.71ZM1945.52 1497V1479.21H1954.94C1960.1 1479.21 1963.82 1481.46 1963.82 1486.53V1497H1960.97V1487.16C1960.97 1482.9 1958.39 1481.46 1954.25 1481.46H1948.37V1497H1945.52ZM1984.26 1497C1980.84 1492.77 1978.47 1490.13 1975.02 1486.71C1972.29 1488.21 1970.88 1489.83 1970.88 1493.46V1497H1968.06V1493.82C1968.06 1489.41 1970.61 1486.8 1973.49 1485.18C1971.48 1483.05 1969.65 1481.22 1967.43 1479.21H1971.21C1974.36 1482.18 1977.27 1485.36 1979.94 1488.33C1982.49 1486.89 1983.12 1485.84 1983.12 1483.08V1479.21H1986V1482.63C1986 1486.65 1983.87 1488.51 1981.38 1489.83C1983.57 1492.2 1985.58 1494.42 1987.62 1497H1984.26ZM2016.95 1486.71C2016.95 1483.02 2014.43 1481.46 2010.62 1481.46H2005.31V1492.26C2005.31 1495.53 2003.6 1497.39 2000.66 1497.39C1999.13 1497.39 1998.41 1497.18 1997.93 1497V1494.72C1998.53 1495.02 1999.28 1495.2 2000.06 1495.2C2001.47 1495.2 2002.49 1494.39 2002.49 1492.26V1481.46H1998.59V1479.21H2010.65C2016.35 1479.21 2019.8 1481.52 2019.8 1486.71V1497H2016.95V1486.71ZM2024.89 1497V1479.21H2027.74V1497H2024.89ZM2042.6 1497V1481.46H2031.41V1479.21H2048.69V1481.46H2045.42V1497H2042.6ZM2052.95 1497V1479.21H2062.37C2067.53 1479.21 2071.25 1481.46 2071.25 1486.53V1497H2068.4V1487.16C2068.4 1482.9 2065.82 1481.46 2061.68 1481.46H2055.8V1497H2052.95ZM2091.69 1497C2088.27 1492.77 2085.9 1490.13 2082.45 1486.71C2079.72 1488.21 2078.31 1489.83 2078.31 1493.46V1497H2075.49V1493.82C2075.49 1489.41 2078.04 1486.8 2080.92 1485.18C2078.91 1483.05 2077.08 1481.22 2074.86 1479.21H2078.64C2081.79 1482.18 2084.7 1485.36 2087.37 1488.33C2089.92 1486.89 2090.55 1485.84 2090.55 1483.08V1479.21H2093.43V1482.63C2093.43 1486.65 2091.3 1488.51 2088.81 1489.83C2091 1492.2 2093.01 1494.42 2095.05 1497H2091.69ZM2117.45 1487.4C2117.45 1483.47 2115.68 1481.46 2111.21 1481.46H2105.03V1479.21H2111.21C2117.66 1479.21 2120.27 1481.94 2120.27 1487.4V1503H2117.45V1487.4ZM2125.38 1497V1479.21H2128.23V1497H2125.38ZM2151.25 1486.71C2151.25 1483.02 2148.73 1481.46 2144.92 1481.46H2139.61V1492.26C2139.61 1495.53 2137.9 1497.39 2134.96 1497.39C2133.43 1497.39 2132.71 1497.18 2132.23 1497V1494.72C2132.83 1495.02 2133.58 1495.2 2134.36 1495.2C2135.77 1495.2 2136.79 1494.39 2136.79 1492.26V1481.46H2132.89V1479.21H2144.95C2150.65 1479.21 2154.1 1481.52 2154.1 1486.71V1497H2151.25V1486.71ZM2170.08 1497.51C2168.64 1497.51 2167.65 1497.27 2166.69 1497V1494.72C2167.56 1495.08 2169.15 1495.23 2170.17 1495.23C2173.53 1495.23 2176.26 1492.74 2176.26 1488.09C2176.26 1483.86 2174.1 1481.16 2170.62 1481.16C2166.96 1481.16 2164.02 1484.16 2162.97 1489.32L2161.35 1497H2158.59L2160.18 1489.59C2160.42 1488.57 2160.51 1487.91 2160.51 1486.86C2160.51 1485.03 2159.31 1482.15 2158.08 1479.21H2160.81C2161.5 1480.86 2162.22 1482.96 2162.58 1484.19H2162.7C2163.81 1481.7 2166.66 1478.82 2170.8 1478.82C2175.9 1478.82 2179.14 1482.75 2179.14 1488.09C2179.14 1494.51 2174.79 1497.51 2170.08 1497.51ZM2191.53 1503V1479.21H2194.38V1503H2191.53ZM2199.61 1490.4V1479.21H2202.46V1488.9L2199.61 1490.4ZM2207.43 1490.4V1479.21H2210.28V1488.9L2207.43 1490.4ZM2224.88 1497V1481.46H2213.69V1479.21H2230.97V1481.46H2227.7V1497H2224.88ZM2233.58 1500.33V1497.81L2239.31 1495.32L2233.94 1479.21H2236.88L2240.93 1491.12C2241.26 1492.02 2241.59 1493.16 2241.86 1494.21C2246.75 1491.93 2247.92 1489.89 2247.92 1486.32V1479.21H2250.71V1485.39C2250.71 1491.18 2248.94 1493.55 2240.75 1497.18L2233.58 1500.33ZM2255.78 1497V1479.21H2258.63V1497H2255.78ZM2270.14 1502.31L2272.84 1494.3H2275.24L2271.76 1502.31H2270.14ZM2293.78 1487.16C2293.78 1482.63 2290.93 1481.46 2287.48 1481.46H2279.32V1479.21H2287.69C2293.15 1479.21 2296.6 1481.46 2296.6 1486.92V1497H2293.78V1487.16ZM2279.38 1497V1487.19L2282.23 1485.72V1497H2279.38ZM2300.2 1500.33V1497.81L2305.93 1495.32L2300.56 1479.21H2303.5L2307.55 1491.12C2307.88 1492.02 2308.21 1493.16 2308.48 1494.21C2313.37 1491.93 2314.54 1489.89 2314.54 1486.32V1479.21H2317.33V1485.39C2317.33 1491.18 2315.56 1493.55 2307.37 1497.18L2300.2 1500.33ZM2322.37 1497V1494.72H2331.34C2335.69 1494.72 2337.43 1491.9 2337.43 1488.09C2337.43 1484.31 2335.69 1481.46 2331.34 1481.46H2324.89V1484.67C2324.89 1486.8 2325.52 1487.61 2327.77 1487.61H2329.12V1489.77H2327.08C2324.02 1489.77 2322.04 1488.54 2322.04 1484.61V1479.21H2330.56C2337.34 1479.21 2340.25 1482.75 2340.25 1488.09C2340.25 1493.46 2337.34 1497 2330.56 1497H2322.37ZM2344.43 1497V1479.21H2347.28V1497H2344.43ZM2366.79 1487.16C2366.79 1482.63 2363.94 1481.46 2360.49 1481.46H2352.33V1479.21H2360.7C2366.16 1479.21 2369.61 1481.46 2369.61 1486.92V1497H2366.79V1487.16ZM2352.39 1497V1487.19L2355.24 1485.72V1497H2352.39ZM2382.71 1490.4V1479.21H2385.56V1488.9L2382.71 1490.4ZM2389.97 1497V1494.72H2396.66V1485.27C2396.66 1482.9 2395.64 1481.46 2393.27 1481.46H2390.27V1479.21H2393.21C2397.32 1479.21 2399.51 1481.19 2399.51 1485.21V1497H2389.97ZM2404.61 1497V1479.21H2407.46V1497H2404.61ZM2412.93 1497V1479.21H2415.78V1497H2412.93ZM2421.01 1490.4V1479.21H2423.86V1488.9L2421.01 1490.4ZM2428.26 1497V1494.72H2433.96C2439.06 1494.72 2441.1 1492.05 2441.1 1488.09C2441.1 1484.16 2439.06 1481.46 2433.96 1481.46H2428.26V1479.21H2434.59C2440.05 1479.21 2443.95 1482.24 2443.95 1488.09C2443.95 1493.97 2440.05 1497 2434.59 1497H2428.26ZM2470.38 1487.16C2470.38 1482.63 2467.53 1481.46 2464.08 1481.46H2455.92V1479.21H2464.29C2469.75 1479.21 2473.2 1481.46 2473.2 1486.92V1497H2470.38V1487.16ZM2455.98 1497V1487.19L2458.83 1485.72V1497H2455.98ZM2489.21 1497.51C2487.77 1497.51 2486.78 1497.27 2485.82 1497V1494.72C2486.69 1495.08 2488.28 1495.23 2489.3 1495.23C2492.66 1495.23 2495.39 1492.74 2495.39 1488.09C2495.39 1483.86 2493.23 1481.16 2489.75 1481.16C2486.09 1481.16 2483.15 1484.16 2482.1 1489.32L2480.48 1497H2477.72L2479.31 1489.59C2479.55 1488.57 2479.64 1487.91 2479.64 1486.86C2479.64 1485.03 2478.44 1482.15 2477.21 1479.21H2479.94C2480.63 1480.86 2481.35 1482.96 2481.71 1484.19H2481.83C2482.94 1481.7 2485.79 1478.82 2489.93 1478.82C2495.03 1478.82 2498.27 1482.75 2498.27 1488.09C2498.27 1494.51 2493.92 1497.51 2489.21 1497.51ZM2500.68 1497V1494.72H2506.38C2511.48 1494.72 2513.52 1492.05 2513.52 1488.09C2513.52 1484.16 2511.48 1481.46 2506.38 1481.46H2500.68V1479.21H2507.01C2512.47 1479.21 2516.37 1482.24 2516.37 1488.09C2516.37 1493.97 2512.47 1497 2507.01 1497H2500.68ZM2526.58 1502.31L2529.28 1494.3H2531.68L2528.2 1502.31H2526.58ZM2544.45 1487.4C2544.45 1483.47 2542.68 1481.46 2538.24 1481.46H2531.97V1479.21H2538.24C2544.69 1479.21 2547.27 1481.94 2547.27 1487.4V1497H2544.45V1487.4ZM2552.38 1497V1479.21H2555.23V1497H2552.38ZM2576.03 1497C2572.61 1492.77 2570.24 1490.13 2566.79 1486.71C2564.06 1488.21 2562.65 1489.83 2562.65 1493.46V1497H2559.83V1493.82C2559.83 1489.41 2562.38 1486.8 2565.26 1485.18C2563.25 1483.05 2561.42 1481.22 2559.2 1479.21H2562.98C2566.13 1482.18 2569.04 1485.36 2571.71 1488.33C2574.26 1486.89 2574.89 1485.84 2574.89 1483.08V1479.21H2577.77V1482.63C2577.77 1486.65 2575.64 1488.51 2573.15 1489.83C2575.34 1492.2 2577.35 1494.42 2579.39 1497H2576.03ZM2581.59 1481.52V1479.21H2590.95V1481.52H2581.59ZM2612.61 1486.71C2612.61 1483.02 2610.09 1481.46 2606.28 1481.46H2600.97V1492.26C2600.97 1495.53 2599.26 1497.39 2596.32 1497.39C2594.79 1497.39 2594.07 1497.18 2593.59 1497V1494.72C2594.19 1495.02 2594.94 1495.2 2595.72 1495.2C2597.13 1495.2 2598.15 1494.39 2598.15 1492.26V1481.46H2594.25V1479.21H2606.31C2612.01 1479.21 2615.46 1481.52 2615.46 1486.71V1497H2612.61V1486.71ZM2620.55 1497V1479.21H2623.4V1497H2620.55ZM2628.03 1497V1494.72H2641.17L2626.8 1479.21H2630.25L2638.62 1488.15C2640.84 1487.07 2641.74 1485.93 2641.74 1483.32V1479.21H2644.56V1482.54C2644.56 1486.86 2642.22 1488.6 2639.97 1489.71L2644.74 1494.84V1497H2628.03ZM2657.21 1497L2665.28 1481.46H2648.87V1479.21H2668.4V1481.46L2660.27 1497H2657.21ZM2649.44 1503V1486.62L2652.29 1485.15V1503H2649.44ZM1726.28 1532.12C1725.41 1532.12 1724.48 1531.61 1724.48 1530.62C1724.48 1529.72 1725.35 1529.18 1726.28 1529.18C1727.21 1529.18 1728.05 1529.72 1728.05 1530.62C1728.05 1531.61 1727.21 1532.12 1726.28 1532.12ZM1733.47 1538V1514.21H1736.32V1538H1733.47ZM1740.92 1529.45C1743.14 1527.95 1744.64 1526.78 1745.9 1525.34C1747.37 1523.66 1747.85 1522.4 1747.85 1520.63V1520.36C1747.85 1518.02 1746.53 1516.46 1743.74 1516.46H1741.28V1514.21H1744.13C1747.61 1514.21 1750.4 1515.65 1750.4 1519.58V1522.85C1750.4 1526.99 1750.7 1529.03 1751.27 1532H1748.36C1748.15 1530.68 1747.82 1528.31 1747.76 1525.64H1747.64C1746.47 1528.64 1742.75 1531.76 1740.92 1532.75V1529.45ZM1765.95 1522.4C1765.95 1518.47 1764.18 1516.46 1759.74 1516.46H1753.47V1514.21H1759.74C1766.19 1514.21 1768.77 1516.94 1768.77 1522.4V1532H1765.95V1522.4ZM1773.87 1532V1514.21H1776.72V1532H1773.87ZM1797.52 1532C1794.1 1527.77 1791.73 1525.13 1788.28 1521.71C1785.55 1523.21 1784.14 1524.83 1784.14 1528.46V1532H1781.32V1528.82C1781.32 1524.41 1783.87 1521.8 1786.75 1520.18C1784.74 1518.05 1782.91 1516.22 1780.69 1514.21H1784.47C1787.62 1517.18 1790.53 1520.36 1793.2 1523.33C1795.75 1521.89 1796.38 1520.84 1796.38 1518.08V1514.21H1799.26V1517.63C1799.26 1521.65 1797.13 1523.51 1794.64 1524.83C1796.83 1527.2 1798.84 1529.42 1800.88 1532H1797.52ZM1815.64 1532.51C1814.2 1532.51 1813.21 1532.27 1812.25 1532V1529.72C1813.12 1530.08 1814.71 1530.23 1815.73 1530.23C1819.09 1530.23 1821.82 1527.74 1821.82 1523.09C1821.82 1518.86 1819.66 1516.16 1816.18 1516.16C1812.52 1516.16 1809.58 1519.16 1808.53 1524.32L1806.91 1532H1804.15L1805.74 1524.59C1805.98 1523.57 1806.07 1522.91 1806.07 1521.86C1806.07 1520.03 1804.87 1517.15 1803.64 1514.21H1806.37C1807.06 1515.86 1807.78 1517.96 1808.14 1519.19H1808.26C1809.37 1516.7 1812.22 1513.82 1816.36 1513.82C1821.46 1513.82 1824.7 1517.75 1824.7 1523.09C1824.7 1529.51 1820.35 1532.51 1815.64 1532.51ZM1836.86 1525.4V1514.21H1839.71V1523.9L1836.86 1525.4ZM1844.92 1532V1514.21H1847.77V1532H1844.92ZM1852.43 1532V1529.72H1864.16V1521.8C1864.16 1518.38 1861.94 1516.46 1858.52 1516.46H1852.43V1514.21H1858.73C1863.59 1514.21 1867.01 1516.64 1867.01 1521.74V1529.72H1869.8V1532H1852.43ZM1872.04 1525.4V1514.21H1874.89V1523.9L1872.04 1525.4ZM1890.78 1522.4C1890.78 1518.47 1889.01 1516.46 1884.57 1516.46H1878.3V1514.21H1884.57C1891.02 1514.21 1893.6 1516.94 1893.6 1522.4V1532H1890.78V1522.4ZM1906.94 1532V1514.21H1916.21C1921.31 1514.21 1925.24 1516.46 1925.24 1521.2V1532H1906.94ZM1909.79 1529.72H1922.39V1521.38C1922.39 1517.63 1919.15 1516.46 1916.09 1516.46H1909.79V1529.72ZM1929.48 1529.45C1931.7 1527.95 1933.2 1526.78 1934.46 1525.34C1935.93 1523.66 1936.41 1522.4 1936.41 1520.63V1520.36C1936.41 1518.02 1935.09 1516.46 1932.3 1516.46H1929.84V1514.21H1932.69C1936.17 1514.21 1938.96 1515.65 1938.96 1519.58V1522.85C1938.96 1526.99 1939.26 1529.03 1939.83 1532H1936.92C1936.71 1530.68 1936.38 1528.31 1936.32 1525.64H1936.2C1935.03 1528.64 1931.31 1531.76 1929.48 1532.75V1529.45ZM1944.53 1532V1514.21H1947.38V1532H1944.53ZM1971.76 1522.4C1971.76 1518.47 1969.99 1516.46 1965.55 1516.46H1959.28V1514.21H1965.55C1972 1514.21 1974.58 1516.94 1974.58 1522.4V1532H1971.76V1522.4ZM1989.34 1522.4C1989.34 1518.47 1987.57 1516.46 1983.13 1516.46H1976.86V1514.21H1983.13C1989.58 1514.21 1992.16 1516.94 1992.16 1522.4V1532H1989.34V1522.4ZM1996.45 1532V1529.72H2008.18V1521.8C2008.18 1518.38 2005.96 1516.46 2002.54 1516.46H1996.45V1514.21H2002.75C2007.61 1514.21 2011.03 1516.64 2011.03 1521.74V1529.72H2013.82V1532H1996.45ZM2028.57 1532.51C2027.13 1532.51 2026.14 1532.27 2025.18 1532V1529.72C2026.05 1530.08 2027.64 1530.23 2028.66 1530.23C2032.02 1530.23 2034.75 1527.74 2034.75 1523.09C2034.75 1518.86 2032.59 1516.16 2029.11 1516.16C2025.45 1516.16 2022.51 1519.16 2021.46 1524.32L2019.84 1532H2017.08L2018.67 1524.59C2018.91 1523.57 2019 1522.91 2019 1521.86C2019 1520.03 2017.8 1517.15 2016.57 1514.21H2019.3C2019.99 1515.86 2020.71 1517.96 2021.07 1519.19H2021.19C2022.3 1516.7 2025.15 1513.82 2029.29 1513.82C2034.39 1513.82 2037.63 1517.75 2037.63 1523.09C2037.63 1529.51 2033.28 1532.51 2028.57 1532.51ZM2041.79 1532V1514.21H2044.64V1532H2041.79ZM2069.03 1522.4C2069.03 1518.47 2067.26 1516.46 2062.82 1516.46H2056.55V1514.21H2062.82C2069.27 1514.21 2071.85 1516.94 2071.85 1522.4V1532H2069.03V1522.4ZM2085.31 1532V1516.46H2074.12V1514.21H2091.4V1516.46H2088.13V1532H2085.31ZM2095.67 1532V1514.21H2098.52V1532H2095.67ZM2103.99 1532V1514.21H2113.41C2118.57 1514.21 2122.29 1516.46 2122.29 1521.53V1532H2119.44V1522.16C2119.44 1517.9 2116.86 1516.46 2112.72 1516.46H2106.84V1532H2103.99ZM2135.63 1532V1514.21H2145.05C2150.21 1514.21 2153.93 1516.46 2153.93 1521.53V1532H2151.08V1522.16C2151.08 1517.9 2148.5 1516.46 2144.36 1516.46H2138.48V1532H2135.63ZM2159.04 1532V1514.21H2161.89V1532H2159.04ZM2166.55 1532V1529.72H2172.25C2177.35 1529.72 2179.39 1527.05 2179.39 1523.09C2179.39 1519.16 2177.35 1516.46 2172.25 1516.46H2166.55V1514.21H2172.88C2178.34 1514.21 2182.24 1517.24 2182.24 1523.09C2182.24 1528.97 2178.34 1532 2172.88 1532H2166.55ZM2194.63 1532V1514.21H2203.9C2209 1514.21 2212.93 1516.46 2212.93 1521.2V1532H2194.63ZM2197.48 1529.72H2210.08V1521.38C2210.08 1517.63 2206.84 1516.46 2203.78 1516.46H2197.48V1529.72ZM2217.17 1529.45C2219.39 1527.95 2220.89 1526.78 2222.15 1525.34C2223.62 1523.66 2224.1 1522.4 2224.1 1520.63V1520.36C2224.1 1518.02 2222.78 1516.46 2219.99 1516.46H2217.53V1514.21H2220.38C2223.86 1514.21 2226.65 1515.65 2226.65 1519.58V1522.85C2226.65 1526.99 2226.95 1529.03 2227.52 1532H2224.61C2224.4 1530.68 2224.07 1528.31 2224.01 1525.64H2223.89C2222.72 1528.64 2219 1531.76 2217.17 1532.75V1529.45ZM2238.26 1537.31L2240.96 1529.3H2243.36L2239.88 1537.31H2238.26ZM2261.91 1522.16C2261.91 1517.63 2259.06 1516.46 2255.61 1516.46H2247.45V1514.21H2255.82C2261.28 1514.21 2264.73 1516.46 2264.73 1521.92V1532H2261.91V1522.16ZM2247.51 1532V1522.19L2250.36 1520.72V1532H2247.51ZM2269.03 1532V1529.72H2275.72V1520.27C2275.72 1517.9 2274.7 1516.46 2272.33 1516.46H2269.33V1514.21H2272.27C2276.38 1514.21 2278.57 1516.19 2278.57 1520.21V1532H2269.03ZM2283.67 1532V1514.21H2286.52V1532H2283.67ZM2291.18 1532V1529.72H2302.91V1521.8C2302.91 1518.38 2300.69 1516.46 2297.27 1516.46H2291.18V1514.21H2297.48C2302.34 1514.21 2305.76 1516.64 2305.76 1521.74V1529.72H2308.55V1532H2291.18ZM2320.64 1532V1514.21H2330.06C2335.22 1514.21 2338.94 1516.46 2338.94 1521.53V1532H2336.09V1522.16C2336.09 1517.9 2333.51 1516.46 2329.37 1516.46H2323.49V1532H2320.64ZM2344.05 1532V1514.21H2346.9V1532H2344.05ZM2351.56 1532V1529.72H2357.26C2362.36 1529.72 2364.4 1527.05 2364.4 1523.09C2364.4 1519.16 2362.36 1516.46 2357.26 1516.46H2351.56V1514.21H2357.89C2363.35 1514.21 2367.25 1517.24 2367.25 1523.09C2367.25 1528.97 2363.35 1532 2357.89 1532H2351.56ZM2379.64 1532V1514.21H2388.91C2394.01 1514.21 2397.94 1516.46 2397.94 1521.2V1532H2379.64ZM2382.49 1529.72H2395.09V1521.38C2395.09 1517.63 2391.85 1516.46 2388.79 1516.46H2382.49V1529.72ZM2402.18 1529.45C2404.4 1527.95 2405.9 1526.78 2407.16 1525.34C2408.63 1523.66 2409.11 1522.4 2409.11 1520.63V1520.36C2409.11 1518.02 2407.79 1516.46 2405 1516.46H2402.54V1514.21H2405.39C2408.87 1514.21 2411.66 1515.65 2411.66 1519.58V1522.85C2411.66 1526.99 2411.96 1529.03 2412.53 1532H2409.62C2409.41 1530.68 2409.08 1528.31 2409.02 1525.64H2408.9C2407.73 1528.64 2404.01 1531.76 2402.18 1532.75V1529.45ZM2439.5 1522.16C2439.5 1517.63 2436.65 1516.46 2433.2 1516.46H2425.04V1514.21H2433.41C2438.87 1514.21 2442.32 1516.46 2442.32 1521.92V1532H2439.5V1522.16ZM2425.1 1532V1522.19L2427.95 1520.72V1532H2425.1ZM2446.63 1532V1529.72H2458.36V1521.8C2458.36 1518.38 2456.14 1516.46 2452.72 1516.46H2446.63V1514.21H2452.93C2457.79 1514.21 2461.21 1516.64 2461.21 1521.74V1529.72H2464V1532H2446.63ZM2487.28 1532.36C2478.91 1532.36 2475.64 1527.89 2475.64 1521.74V1514.21H2478.46V1521.74C2478.46 1522.46 2478.52 1523.12 2478.64 1523.78C2478.97 1523.81 2479.33 1523.84 2479.72 1523.84C2482.6 1523.84 2485.96 1522.73 2485.96 1518.86V1514.21H2488.81V1518.68C2488.81 1523.51 2485.15 1525.7 2479.96 1525.7C2479.75 1525.7 2479.48 1525.7 2479.18 1525.67C2480.41 1528.52 2483.14 1530.14 2487.28 1530.14C2493.01 1530.14 2496.04 1526.96 2496.04 1521.74V1514.21H2498.89V1521.74C2498.89 1527.89 2495.59 1532.36 2487.28 1532.36ZM2503.65 1525.4V1514.21H2506.5V1523.9L2503.65 1525.4ZM2523.25 1532.12C2522.38 1532.12 2521.45 1531.61 2521.45 1530.62C2521.45 1529.72 2522.32 1529.18 2523.25 1529.18C2524.18 1529.18 2525.02 1529.72 2525.02 1530.62C2525.02 1531.61 2524.18 1532.12 2523.25 1532.12ZM2523.25 1520.81C2522.38 1520.81 2521.45 1520.3 2521.45 1519.31C2521.45 1518.41 2522.32 1517.87 2523.25 1517.87C2524.18 1517.87 2525.02 1518.41 2525.02 1519.31C2525.02 1520.3 2524.18 1520.81 2523.25 1520.81ZM2531.99 1532V1514.21H2541.26C2546.36 1514.21 2550.29 1516.46 2550.29 1521.2V1532H2531.99ZM2534.84 1529.72H2547.44V1521.38C2547.44 1517.63 2544.2 1516.46 2541.14 1516.46H2534.84V1529.72ZM2555.16 1525.4V1514.21H2558.01V1523.9L2555.16 1525.4ZM2562.41 1532V1529.72H2569.1V1520.27C2569.1 1517.9 2568.08 1516.46 2565.71 1516.46H2562.71V1514.21H2565.65C2569.76 1514.21 2571.95 1516.19 2571.95 1520.21V1532H2562.41ZM2577.02 1532V1529.72H2585.99C2590.34 1529.72 2592.08 1526.9 2592.08 1523.09C2592.08 1519.31 2590.34 1516.46 2585.99 1516.46H2579.54V1519.67C2579.54 1521.8 2580.17 1522.61 2582.42 1522.61H2583.77V1524.77H2581.73C2578.67 1524.77 2576.69 1523.54 2576.69 1519.61V1514.21H2585.21C2591.99 1514.21 2594.9 1517.75 2594.9 1523.09C2594.9 1528.46 2591.99 1532 2585.21 1532H2577.02ZM2596.03 1516.52V1514.21H2605.39V1516.52H2596.03ZM2627.06 1521.71C2627.06 1518.02 2624.54 1516.46 2620.73 1516.46H2615.42V1527.26C2615.42 1530.53 2613.71 1532.39 2610.77 1532.39C2609.24 1532.39 2608.52 1532.18 2608.04 1532V1529.72C2608.64 1530.02 2609.39 1530.2 2610.17 1530.2C2611.58 1530.2 2612.6 1529.39 2612.6 1527.26V1516.46H2608.7V1514.21H2620.76C2626.46 1514.21 2629.91 1516.52 2629.91 1521.71V1532H2627.06V1521.71ZM2634.19 1532V1529.72H2645.92V1521.8C2645.92 1518.38 2643.7 1516.46 2640.28 1516.46H2634.19V1514.21H2640.49C2645.35 1514.21 2648.77 1516.64 2648.77 1521.74V1529.72H2651.56V1532H2634.19ZM2664.81 1522.4C2664.81 1518.47 2663.04 1516.46 2658.6 1516.46H2652.33V1514.21H2658.6C2665.05 1514.21 2667.63 1516.94 2667.63 1522.4V1532H2664.81V1522.4Z" fill="#101010"/>
<path d="M2246.87 326V246.7H2259.07V326H2246.87ZM2268.05 262.9L2277.15 235.8H2286.65L2274.65 262.9H2268.05ZM2285.75 262.9L2294.85 235.8H2304.35L2292.35 262.9H2285.75ZM2311.69 284.2V246.7H2323.99V279.2L2311.69 284.2ZM2379.92 307.3C2352.72 307.3 2338.92 293.7 2338.92 271.8V246.7H2351.02V271.6C2351.02 273.8 2351.22 275.9 2351.52 277.8C2352.62 277.9 2353.42 277.9 2354.42 277.9C2364.32 277.9 2374.22 273.9 2374.22 262.4V246.7H2386.42V261.6C2386.42 278 2373.62 285.1 2355.42 285.1H2353.92C2358.12 293.5 2366.82 298.3 2379.92 298.3C2398.92 298.3 2408.72 288 2408.72 271.6V246.7H2420.82V271.8C2420.82 293.7 2407.12 307.3 2379.92 307.3ZM2461.46 235.6H2478.46L2477.86 238.5H2468.66L2452.66 320.5H2461.86L2461.16 323.4H2444.06L2461.46 235.6ZM2513.04 285.2C2513.04 289.2 2511.71 292.933 2509.04 296.4C2506.44 299.8 2503.01 302.5 2498.74 304.5C2494.48 306.5 2490.08 307.5 2485.54 307.5C2481.88 307.5 2478.81 306.733 2476.34 305.2C2473.88 303.667 2472.64 301.667 2472.64 299.2C2472.64 297.8 2473.04 296.533 2473.84 295.4C2474.64 294.267 2476.01 293.233 2477.94 292.3C2480.48 299.9 2484.71 303.7 2490.64 303.7C2492.91 303.7 2495.04 303.167 2497.04 302.1C2499.11 301.033 2500.78 299.5 2502.04 297.5C2503.31 295.5 2503.94 293.167 2503.94 290.5C2503.94 285.967 2502.21 282.4 2498.74 279.8C2495.34 277.133 2491.11 275.467 2486.04 274.8L2486.74 272C2493.81 268.267 2498.71 265.133 2501.44 262.6C2504.18 260 2505.54 257.267 2505.54 254.4C2505.54 252.4 2504.78 250.8 2503.24 249.6C2501.78 248.333 2499.91 247.7 2497.64 247.7C2494.91 247.7 2492.41 248.567 2490.14 250.3C2487.88 252.033 2485.44 254.567 2482.84 257.9L2480.74 256.7C2483.28 251.433 2486.14 247.467 2489.34 244.8C2492.54 242.133 2496.41 240.8 2500.94 240.8C2505.01 240.8 2508.24 241.867 2510.64 244C2513.11 246.067 2514.34 248.767 2514.34 252.1C2514.34 256.167 2512.81 259.467 2509.74 262C2506.68 264.467 2502.34 266.867 2496.74 269.2V269.4C2501.68 270.467 2505.61 272.367 2508.54 275.1C2511.54 277.767 2513.04 281.133 2513.04 285.2ZM2555.85 240.8C2562.12 240.8 2566.98 243.233 2570.45 248.1C2573.92 252.967 2575.65 259.333 2575.65 267.2C2575.65 273.067 2574.35 279.167 2571.75 285.5C2569.15 291.767 2565.38 297.033 2560.45 301.3C2555.58 305.5 2549.88 307.6 2543.35 307.6C2539.28 307.6 2535.75 306.5 2532.75 304.3C2529.75 302.1 2527.45 299.067 2525.85 295.2C2524.32 291.333 2523.55 286.933 2523.55 282C2523.55 275.867 2524.85 269.6 2527.45 263.2C2530.05 256.8 2533.78 251.467 2538.65 247.2C2543.58 242.933 2549.32 240.8 2555.85 240.8ZM2543.05 305C2547.18 305 2550.95 302.667 2554.35 298C2557.82 293.267 2560.52 287.433 2562.45 280.5C2564.38 273.567 2565.35 267.033 2565.35 260.9C2565.35 249.3 2562.25 243.5 2556.05 243.5C2551.85 243.5 2548.02 245.767 2544.55 250.3C2541.15 254.833 2538.48 260.467 2536.55 267.2C2534.62 273.933 2533.65 280.333 2533.65 286.4C2533.65 298.8 2536.78 305 2543.05 305ZM2617.47 240.8C2623.74 240.8 2628.61 243.233 2632.07 248.1C2635.54 252.967 2637.27 259.333 2637.27 267.2C2637.27 273.067 2635.97 279.167 2633.37 285.5C2630.77 291.767 2627.01 297.033 2622.07 301.3C2617.21 305.5 2611.51 307.6 2604.97 307.6C2600.91 307.6 2597.37 306.5 2594.37 304.3C2591.37 302.1 2589.07 299.067 2587.47 295.2C2585.94 291.333 2585.17 286.933 2585.17 282C2585.17 275.867 2586.47 269.6 2589.07 263.2C2591.67 256.8 2595.41 251.467 2600.27 247.2C2605.21 242.933 2610.94 240.8 2617.47 240.8ZM2604.67 305C2608.81 305 2612.57 302.667 2615.97 298C2619.44 293.267 2622.14 287.433 2624.07 280.5C2626.01 273.567 2626.97 267.033 2626.97 260.9C2626.97 249.3 2623.87 243.5 2617.67 243.5C2613.47 243.5 2609.64 245.767 2606.17 250.3C2602.77 254.833 2600.11 260.467 2598.17 267.2C2596.24 273.933 2595.27 280.333 2595.27 286.4C2595.27 298.8 2598.41 305 2604.67 305ZM2651.69 323.4H2634.79L2635.29 320.5H2644.49L2660.69 238.5H2651.39L2651.99 235.6H2668.99L2651.69 323.4Z" fill="#101010"/>
<path d="M80.2 1470.2L80.2 1478.7L78.75 1478.4L78.75 1473.8L37.75 1465.8L37.75 1470.4L36.3 1470.05L36.3 1461.5L80.2 1470.2ZM45 1478.29C48.6 1479.43 51.8167 1480.29 54.65 1480.89C57.4833 1481.53 60.1 1481.84 62.5 1481.84C63.9 1481.84 65.1333 1481.68 66.2 1481.34C67.2667 1481.01 68.3667 1480.41 69.5 1479.54L75.25 1481.54L75.25 1482.59C74.0833 1483.63 72.8 1484.44 71.4 1485.04C70 1485.64 68.2667 1485.94 66.2 1485.94C63.2 1485.94 59.7667 1485.34 55.9 1484.14C52.0333 1482.94 48.4 1481.43 45 1479.59L45 1478.29ZM54.7 1491.01C57.0333 1492.31 58.9167 1493.2 60.35 1493.66C61.8167 1494.16 63.1667 1494.41 64.4 1494.41C65.3 1494.41 66.1667 1494.18 67 1493.71C67.8667 1493.25 68.85 1492.41 69.95 1491.21L75.25 1493.26L75.25 1494.06C72.85 1496.9 70.2167 1498.31 67.35 1498.31C65.25 1498.31 63.1667 1497.76 61.1 1496.66C59.0333 1495.6 56.7333 1494 54.2 1491.86L54.7 1491.01ZM45 1516.45C51.8667 1519.21 57.3 1520.6 61.3 1520.6C63.6333 1520.6 65.3167 1520.08 66.35 1519.05C67.3833 1518.05 67.9 1516.23 67.9 1513.6L67.9 1509.25L64 1509.35C52.3 1509.35 45.7833 1505.23 44.45 1497L51.15 1499.2C51.4833 1501.26 52.0833 1502.83 52.95 1503.9C53.8167 1505 54.9667 1505.73 56.4 1506.1C57.8333 1506.46 59.75 1506.65 62.15 1506.65C63.95 1506.65 65.8667 1506.51 67.9 1506.25L67.9 1502.8L76.5 1505.7L76.5 1506.55L73.6 1507.9L73.6 1515.2C73.6 1518.36 72.7833 1520.68 71.15 1522.15C69.55 1523.65 67.3333 1524.4 64.5 1524.4C58.4333 1524.4 51.9333 1522.2 45 1517.8L45 1516.45ZM36.3 1530.85L36.3 1522.4L37.75 1522.65L37.75 1527.25L78.75 1535.35L78.75 1530.7L80.2 1531L80.2 1539.5L36.3 1530.85Z" fill="#101010"/>
<path d="M2811.2 1448.92L2811.2 1457.42L2809.75 1457.12L2809.75 1452.52L2768.75 1444.52L2768.75 1449.12L2767.3 1448.77L2767.3 1440.22L2811.2 1448.92ZM2775.45 1456.26L2790.3 1459.41L2795.35 1458.96L2795.75 1460.36L2806.25 1462.66L2806.25 1463.51L2796.4 1463.71C2796.87 1465.95 2797.72 1467.6 2798.95 1468.66C2800.22 1469.73 2802.07 1470.26 2804.5 1470.26C2804.8 1470.26 2805.38 1470.23 2806.25 1470.16L2806.25 1471.26C2804.25 1471.76 2802.48 1472.01 2800.95 1472.01C2797.82 1472.01 2795.42 1471.1 2793.75 1469.26C2792.12 1467.43 2790.88 1464.8 2790.05 1461.36L2781.5 1461.16C2782.2 1465.63 2783.13 1469.15 2784.3 1471.71C2785.47 1474.31 2786.85 1476.13 2788.45 1477.16C2790.05 1478.23 2791.95 1478.76 2794.15 1478.76C2795.85 1478.76 2797.75 1478.38 2799.85 1477.61L2806.25 1480.06L2806.25 1480.96C2803.72 1482.1 2801.12 1482.66 2798.45 1482.66C2794.62 1482.66 2791.03 1481.58 2787.7 1479.41C2784.4 1477.28 2781.62 1474.26 2779.35 1470.36C2777.08 1466.46 2775.57 1461.95 2774.8 1456.81L2775.45 1456.26ZM2785.7 1486.87C2788.03 1488.17 2789.92 1489.05 2791.35 1489.52C2792.82 1490.02 2794.17 1490.27 2795.4 1490.27C2796.3 1490.27 2797.17 1490.04 2798 1489.57C2798.87 1489.1 2799.85 1488.27 2800.95 1487.07L2806.25 1489.12L2806.25 1489.92C2803.85 1492.75 2801.22 1494.17 2798.35 1494.17C2796.25 1494.17 2794.17 1493.62 2792.1 1492.52C2790.03 1491.45 2787.73 1489.85 2785.2 1487.72L2785.7 1486.87ZM2776 1508.42C2782.87 1511.19 2788.3 1512.57 2792.3 1512.57C2794.6 1512.57 2796.27 1512.04 2797.3 1510.97C2798.37 1509.94 2798.9 1508.12 2798.9 1505.52L2798.9 1498.42L2807.5 1501.37L2807.5 1502.22L2804.6 1503.42L2804.6 1507.17C2804.6 1510.34 2803.78 1512.66 2802.15 1514.12C2800.52 1515.62 2798.28 1516.37 2795.45 1516.37C2792.02 1516.37 2788.85 1515.81 2785.95 1514.67C2783.05 1513.57 2779.73 1511.96 2776 1509.82L2776 1508.42ZM2767.3 1522.85L2767.3 1514.4L2768.75 1514.65L2768.75 1519.25L2809.75 1527.35L2809.75 1522.7L2811.2 1523L2811.2 1531.5L2767.3 1522.85Z" fill="#101010"/>
<path d="M2381.16 384V364.175H2384.21V384H2381.16ZM2386.46 368.225L2388.73 361.45H2391.11L2388.11 368.225H2386.46ZM2390.88 368.225L2393.16 361.45H2395.53L2392.53 368.225H2390.88ZM2397.37 373.55V364.175H2400.44V372.3L2397.37 373.55ZM2406 372.8C2406 369.35 2407.07 367.775 2408.87 366.525V366.475H2403.37V364.175H2412.82V366.425C2410.32 366.7 2409.07 368.475 2409.07 371.7V379H2406V372.8ZM2416.1 379V364.175H2419.15V379H2416.1ZM2430.35 379V364.175H2433.4V379H2430.35ZM2435.65 368.225L2437.92 361.45H2440.3L2437.3 368.225H2435.65ZM2440.07 368.225L2442.35 361.45H2444.72L2441.72 368.225H2440.07ZM2446.56 373.55V364.175H2449.63V372.3L2446.56 373.55ZM2453.77 379V364.175H2456.82V379H2453.77ZM2466.28 383.225L2468.55 376.45H2470.93L2467.93 383.225H2466.28ZM2480.22 379V366.475H2471.07V364.175H2485.97V366.475H2483.29V379H2480.22ZM2487.41 368.225L2489.68 361.45H2492.06L2489.06 368.225H2487.41ZM2491.83 368.225L2494.11 361.45H2496.48L2493.48 368.225H2491.83ZM2498.42 379V364.175H2501.47V379H2498.42ZM2505.62 373.55V364.175H2508.69V372.3L2505.62 373.55ZM2522.24 379.125C2521.36 379.125 2520.51 378.625 2520.51 377.7C2520.51 376.85 2521.34 376.325 2522.24 376.325C2523.14 376.325 2523.94 376.85 2523.94 377.7C2523.94 378.625 2523.14 379.125 2522.24 379.125ZM2522.24 369.85C2521.36 369.85 2520.51 369.35 2520.51 368.425C2520.51 367.575 2521.34 367.05 2522.24 367.05C2523.14 367.05 2523.94 367.575 2523.94 368.425C2523.94 369.35 2523.14 369.85 2522.24 369.85ZM2536.86 379V366.475H2527.71V364.175H2542.61V366.475H2539.93V379H2536.86ZM2545.98 379V364.175H2549.03V379H2545.98ZM2561.55 379.425C2555.38 379.425 2553.03 375.775 2553.03 371.6V364.175H2562.15C2567.28 364.175 2570.1 367.125 2570.1 371.625C2570.1 375.775 2567.73 379.425 2561.55 379.425ZM2561.55 377.125C2565.35 377.125 2567.03 374.825 2567.03 371.625C2567.03 368.325 2565.33 366.475 2561.7 366.475H2556.08V371.6C2556.08 374.825 2557.7 377.125 2561.55 377.125ZM2573.2 373.55V364.175H2576.27V372.3L2573.2 373.55ZM2602.01 370.925C2602.01 367.7 2600.24 366.475 2597.06 366.475H2593.01V374.675C2593.01 377.65 2591.56 379.325 2588.69 379.325C2587.44 379.325 2586.69 379.175 2586.19 379V376.7C2586.71 376.95 2587.31 377.1 2587.96 377.1C2589.14 377.1 2589.99 376.45 2589.99 374.8V366.475H2586.71V364.175H2597.26C2602.44 364.175 2605.09 366.175 2605.09 370.55V379H2602.01V370.925ZM2609.14 379V364.175H2612.19V379H2609.14ZM2616.33 373.55V364.175H2619.41V372.3L2616.33 373.55ZM2638.34 370.925C2638.34 367.7 2636.57 366.475 2633.39 366.475H2629.34V374.675C2629.34 377.65 2627.89 379.325 2625.02 379.325C2623.77 379.325 2623.02 379.175 2622.52 379V376.7C2623.04 376.95 2623.64 377.1 2624.29 377.1C2625.47 377.1 2626.32 376.45 2626.32 374.8V366.475H2623.04V364.175H2633.59C2638.77 364.175 2641.42 366.175 2641.42 370.55V379H2638.34V370.925ZM2645.47 379V364.175H2648.52V379H2645.47ZM2665.79 379C2663.16 375.775 2661.06 373.5 2658.26 370.7C2656.19 371.825 2655.24 373.225 2655.24 375.85V379H2652.19V376.275C2652.19 372.75 2654.14 370.625 2656.69 369.175C2655.14 367.55 2653.41 365.875 2651.54 364.175H2655.51C2657.96 366.475 2660.41 369.075 2662.56 371.425C2664.46 370.35 2664.91 369.5 2664.91 367.35V364.175H2667.99V367.075C2667.99 370.125 2666.29 371.725 2664.06 372.9C2665.91 374.9 2667.54 376.725 2669.39 379H2665.79Z" fill="#101010"/>
<path d="M2378.96 385.05H2669.99V386.9H2378.96V385.05Z" fill="#101010"/>
<rect x="38.5" y="38.5" width="259" height="47" rx="23.5" stroke="#101010"/>
<path d="M59.4878 71.5V53.71H68.7578C73.8578 53.71 77.7878 55.96 77.7878 60.7V71.5H59.4878ZM62.3378 69.22H74.9378V60.88C74.9378 57.13 71.6978 55.96 68.6378 55.96H62.3378V69.22ZM82.656 64.9V53.71H85.506V63.4L82.656 64.9ZM98.6383 71.5L106.708 55.96H90.2983V53.71H109.828V55.96L101.698 71.5H98.6383ZM90.8683 77.5V61.12L93.7183 59.65V77.5H90.8683ZM114.156 71.5V53.71H123.576C128.736 53.71 132.456 55.96 132.456 61.03V71.5H129.606V61.66C129.606 57.4 127.026 55.96 122.886 55.96H117.006V71.5H114.156ZM148.754 71.86C140.384 71.86 137.114 67.39 137.114 61.24V53.71H139.934V61.24C139.934 61.96 139.994 62.62 140.114 63.28C140.444 63.31 140.804 63.34 141.194 63.34C144.074 63.34 147.434 62.23 147.434 58.36V53.71H150.284V58.18C150.284 63.01 146.624 65.2 141.434 65.2C141.224 65.2 140.954 65.2 140.654 65.17C141.884 68.02 144.614 69.64 148.754 69.64C154.484 69.64 157.514 66.46 157.514 61.24V53.71H160.364V61.24C160.364 67.39 157.064 71.86 148.754 71.86ZM176.257 72.01C174.817 72.01 173.827 71.77 172.867 71.5V69.22C173.737 69.58 175.327 69.73 176.347 69.73C179.707 69.73 182.437 67.24 182.437 62.59C182.437 58.36 180.277 55.66 176.797 55.66C173.137 55.66 170.197 58.66 169.147 63.82L167.527 71.5H164.767L166.357 64.09C166.597 63.07 166.687 62.41 166.687 61.36C166.687 59.53 165.487 56.65 164.257 53.71H166.987C167.677 55.36 168.397 57.46 168.757 58.69H168.877C169.987 56.2 172.837 53.32 176.977 53.32C182.077 53.32 185.317 57.25 185.317 62.59C185.317 69.01 180.967 72.01 176.257 72.01ZM208.9 71.86C200.53 71.86 197.26 67.39 197.26 61.24V53.71H200.08V61.24C200.08 61.96 200.14 62.62 200.26 63.28C200.59 63.31 200.95 63.34 201.34 63.34C204.22 63.34 207.58 62.23 207.58 58.36V53.71H210.43V58.18C210.43 63.01 206.77 65.2 201.58 65.2C201.37 65.2 201.1 65.2 200.8 65.17C202.03 68.02 204.76 69.64 208.9 69.64C214.63 69.64 217.66 66.46 217.66 61.24V53.71H220.51V61.24C220.51 67.39 217.21 71.86 208.9 71.86ZM236.193 61.9C236.193 57.97 234.423 55.96 229.983 55.96H223.713V53.71H229.983C236.433 53.71 239.013 56.44 239.013 61.9V71.5H236.193V61.9ZM243.247 68.95C245.467 67.45 246.967 66.28 248.227 64.84C249.697 63.16 250.177 61.9 250.177 60.13V59.86C250.177 57.52 248.857 55.96 246.067 55.96H243.607V53.71H246.457C249.937 53.71 252.727 55.15 252.727 59.08V62.35C252.727 66.49 253.027 68.53 253.597 71.5H250.687C250.477 70.18 250.147 67.81 250.087 65.14H249.967C248.797 68.14 245.077 71.26 243.247 72.25V68.95ZM269.509 72.01C268.069 72.01 267.079 71.77 266.119 71.5V69.22C266.989 69.58 268.579 69.73 269.599 69.73C272.959 69.73 275.689 67.24 275.689 62.59C275.689 58.36 273.529 55.66 270.049 55.66C266.389 55.66 263.449 58.66 262.399 63.82L260.779 71.5H258.019L259.609 64.09C259.849 63.07 259.939 62.41 259.939 61.36C259.939 59.53 258.739 56.65 257.509 53.71H260.239C260.929 55.36 261.649 57.46 262.009 58.69H262.129C263.239 56.2 266.089 53.32 270.229 53.32C275.329 53.32 278.569 57.25 278.569 62.59C278.569 69.01 274.219 72.01 269.509 72.01Z" fill="#101010"/>
<rect x="331.5" y="38.5" width="259" height="47" rx="23.5" stroke="#101010"/>
<path d="M386.302 71.95C379.462 71.95 376.462 67.84 376.462 62.59V53.71H379.282V62.59C379.282 66.88 381.802 69.73 386.302 69.73C390.622 69.73 393.322 66.88 393.322 62.59C393.322 57.16 389.872 55.48 387.292 55.48C385.852 55.48 384.592 55.69 383.632 55.96V53.71C384.622 53.47 386.092 53.2 387.592 53.2C390.892 53.2 396.172 55 396.172 62.59C396.172 67.84 393.022 71.95 386.302 71.95ZM408.269 71.5L416.339 55.96H399.929V53.71H419.459V55.96L411.329 71.5H408.269ZM400.499 77.5V61.12L403.349 59.65V77.5H400.499ZM423.547 64.9V53.71H426.397V63.4L423.547 64.9ZM431.609 71.5V53.71H434.459V71.5H431.609ZM450.609 61.9C450.609 57.97 448.839 55.96 444.399 55.96H438.129V53.71H444.399C450.849 53.71 453.429 56.44 453.429 61.9V71.5H450.609V61.9ZM458.503 71.5V69.22H467.473C471.823 69.22 473.563 66.4 473.563 62.59C473.563 58.81 471.823 55.96 467.473 55.96H461.023V59.17C461.023 61.3 461.653 62.11 463.903 62.11H465.253V64.27H463.213C460.153 64.27 458.173 63.04 458.173 59.11V53.71H466.693C473.473 53.71 476.383 57.25 476.383 62.59C476.383 67.96 473.473 71.5 466.693 71.5H458.503ZM494.604 61.66C494.604 57.13 491.754 55.96 488.304 55.96H480.144V53.71H488.514C493.974 53.71 497.424 55.96 497.424 61.42V71.5H494.604V61.66ZM480.204 71.5V61.69L483.054 60.22V71.5H480.204ZM514.399 71.5L522.439 55.96H509.209V47.89H512.029V53.71H525.499V55.96L517.459 71.5H514.399ZM528.53 74.83V72.31L534.26 69.82L528.89 53.71H531.83L535.88 65.62C536.21 66.52 536.54 67.66 536.81 68.71C541.7 66.43 542.87 64.39 542.87 60.82V53.71H545.66V59.89C545.66 65.68 543.89 68.05 535.7 71.68L528.53 74.83Z" fill="#101010"/>
<path d="M2813.71 194.707C2814.1 194.317 2814.1 193.683 2813.71 193.293L2807.34 186.929C2806.95 186.538 2806.32 186.538 2805.93 186.929C2805.54 187.319 2805.54 187.953 2805.93 188.343L2811.59 194L2805.93 199.657C2805.54 200.047 2805.54 200.681 2805.93 201.071C2806.32 201.462 2806.95 201.462 2807.34 201.071L2813.71 194.707ZM2765 194V195H2813V194V193H2765V194Z" fill="black"/>
<path d="M37.2929 193.293C36.9024 193.683 36.9024 194.317 37.2929 194.707L43.6569 201.071C44.0474 201.462 44.6805 201.462 45.0711 201.071C45.4616 200.681 45.4616 200.047 45.0711 199.657L39.4142 194L45.0711 188.343C45.4616 187.953 45.4616 187.319 45.0711 186.929C44.6805 186.538 44.0474 186.538 43.6569 186.929L37.2929 193.293ZM86 194L86 193L38 193L38 194L38 195L86 195L86 194Z" fill="black"/>
<path d="M1178.48 559.581L1172.55 598.967L1172.49 599.344L1172.84 599.498L1303.79 657.235L1327.47 752.022L1260.54 903.603L1046.62 1044.74L1197.91 891.855L1198.17 891.594L1197.99 891.269L1188.88 874.11L1188.79 873.957L1188.64 873.888L1048.13 812.059L1162.69 552.658L1178.48 559.581Z" stroke="#FDFCF8"/>
<path d="M910.7 561.533L899.9 599.869L899.797 600.236L900.124 600.434L1022.69 674.194L1034.22 771.235L948.601 913.239L725.581 1181.45L888.178 893.484L888.293 893.28L888.21 893.062L881.312 874.843L881.25 874.681L881.102 874.592L749.539 795.564L895.969 552.686L910.7 561.533Z" stroke="#FDFCF8"/>
<path d="M383.758 564.503L394.271 602.934L394.371 603.302H541.3L597.835 680.467V846.401L597.877 846.497L788.424 1279.58L535.759 860.256L535.712 860.178L535.64 860.121L520.347 848.072L520.211 847.965H520.037L366.5 848.108V564.503H383.758Z" stroke="#FDFCF8"/>
<path d="M718.826 564.503L718.825 848.108L565.289 847.965H565.115L564.979 848.072L549.687 860.121L549.349 860.388L549.561 860.762L786.065 1277.05L487.491 846.14V680.467L543.834 603.302H690.955L691.056 602.934L701.568 564.503H718.826Z" stroke="#FDFCF8"/>
<mask id="path-22-inside-1_435_2322" fill="white">
<path d="M630 1051.24L792.831 1287L971.773 1218.67L1261 903L923.047 1125.95L739.06 1161.09"/>
</mask>
<path d="M792.831 1287L792.008 1287.57L792.454 1288.21L793.188 1287.93L792.831 1287ZM971.773 1218.67L972.13 1219.61L972.351 1219.52L972.511 1219.35L971.773 1218.67ZM1261 903L1261.74 903.676L1260.45 902.165L1261 903ZM923.047 1125.95L923.234 1126.93L923.43 1126.89L923.597 1126.78L923.047 1125.95ZM630 1051.24L629.177 1051.81L792.008 1287.57L792.831 1287L793.654 1286.43L630.823 1050.67L630 1051.24ZM792.831 1287L793.188 1287.93L972.13 1219.61L971.773 1218.67L971.417 1217.74L792.474 1286.07L792.831 1287ZM971.773 1218.67L972.511 1219.35L1261.74 903.676L1261 903L1260.26 902.324L971.036 1218L971.773 1218.67ZM1261 903L1260.45 902.165L922.496 1125.11L923.047 1125.95L923.597 1126.78L1261.55 903.835L1261 903ZM923.047 1125.95L922.859 1124.97L738.872 1160.11L739.06 1161.09L739.248 1162.08L923.234 1126.93L923.047 1125.95Z" fill="#FDFCF8" mask="url(#path-22-inside-1_435_2322)"/>
<path d="M528.501 712.024H535.981L535.717 713.3H531.669L524.629 749.38H528.677L528.369 750.656H520.845L528.501 712.024ZM554.872 715.324C554.11 716.527 548.61 725.752 538.372 743H535.556L551.44 718.932H537.096L537.888 714.972H554.96L554.872 715.324ZM556.945 750.656H549.509L549.729 749.38H553.777L560.905 713.3H556.813L557.077 712.024H564.557L556.945 750.656Z" fill="#FDFCF8"/>
<path d="M1172.34 712.024H1179.82L1179.56 713.3H1175.51L1168.47 749.38H1172.52L1172.21 750.656H1164.68L1172.34 712.024ZM1189.33 742.076L1189.15 743H1176.39L1176.52 742.076L1181.14 741.152L1185.72 718.14L1180.4 718.316L1180.53 717.26L1190.34 714.224H1190.6L1185.28 741.152L1189.33 742.076ZM1209.32 714.312C1212.07 714.312 1214.22 715.383 1215.74 717.524C1217.27 719.665 1218.03 722.467 1218.03 725.928C1218.03 728.509 1217.46 731.193 1216.31 733.98C1215.17 736.737 1213.51 739.055 1211.34 740.932C1209.2 742.78 1206.69 743.704 1203.82 743.704C1202.03 743.704 1200.47 743.22 1199.15 742.252C1197.83 741.284 1196.82 739.949 1196.12 738.248C1195.44 736.547 1195.11 734.611 1195.11 732.44C1195.11 729.741 1195.68 726.984 1196.82 724.168C1197.97 721.352 1199.61 719.005 1201.75 717.128C1203.92 715.251 1206.44 714.312 1209.32 714.312ZM1203.69 742.56C1205.5 742.56 1207.16 741.533 1208.66 739.48C1210.18 737.397 1211.37 734.831 1212.22 731.78C1213.07 728.729 1213.5 725.855 1213.5 723.156C1213.5 718.052 1212.13 715.5 1209.41 715.5C1207.56 715.5 1205.87 716.497 1204.35 718.492C1202.85 720.487 1201.68 722.965 1200.83 725.928C1199.97 728.891 1199.55 731.707 1199.55 734.376C1199.55 739.832 1200.93 742.56 1203.69 742.56ZM1223.95 750.656H1216.51L1216.73 749.38H1220.78L1227.91 713.3H1223.81L1224.08 712.024H1231.56L1223.95 750.656Z" fill="#FDFCF8"/>
<path d="M879.321 712.024H886.801L886.537 713.3H882.489L875.449 749.38H879.497L879.189 750.656H871.665L879.321 712.024ZM906.79 714.972C903.241 716.409 900.058 718.301 897.242 720.648C894.426 722.995 892.373 725.679 891.082 728.7H891.17C892.871 726.647 894.895 725.62 897.242 725.62C898.503 725.62 899.677 725.928 900.762 726.544C901.877 727.131 902.757 727.996 903.402 729.14C904.047 730.255 904.37 731.545 904.37 733.012C904.37 734.889 903.915 736.649 903.006 738.292C902.097 739.935 900.806 741.255 899.134 742.252C897.491 743.22 895.585 743.704 893.414 743.704C891.947 743.704 890.598 743.367 889.366 742.692C888.134 741.988 887.151 740.961 886.418 739.612C885.714 738.233 885.362 736.576 885.362 734.64C885.362 731.296 886.374 728.216 888.398 725.4C890.422 722.555 893.047 720.164 896.274 718.228C899.501 716.292 902.933 714.899 906.57 714.048L906.79 714.972ZM889.674 735.52C889.674 737.867 890.026 739.641 890.73 740.844C891.463 742.017 892.475 742.604 893.766 742.604C894.969 742.604 896.039 742.193 896.978 741.372C897.917 740.521 898.635 739.407 899.134 738.028C899.662 736.649 899.926 735.183 899.926 733.628C899.926 731.897 899.515 730.475 898.694 729.36C897.873 728.245 896.773 727.688 895.394 727.688C893.575 727.688 891.859 728.773 890.246 730.944C889.865 732.528 889.674 734.053 889.674 735.52ZM910.945 750.656H903.509L903.729 749.38H907.777L914.905 713.3H910.813L911.077 712.024H918.557L910.945 750.656Z" fill="#FDFCF8"/>
</g>
<defs>
<clipPath id="clip0_435_2322">
<rect width="2850" height="1603" fill="white"/>
</clipPath>
</defs>
</svg>
