<svg width="2850" height="1603" viewBox="0 0 2850 1603" fill="none" xmlns="http://www.w3.org/2000/svg">
<g clip-path="url(#clip0_435_2442)">
<rect width="2850" height="1603" fill="#FDFCF8"/>
<line x1="2726.5" y1="124" x2="2726.5" y2="1603" stroke="#101010"/>
<rect x="124" y="124" width="1476" height="1479" fill="#101010"/>
<path d="M1411.67 306.024H1419.15L1418.89 307.3H1414.84L1407.8 343.38H1411.85L1411.54 344.656H1404.02L1411.67 306.024ZM1434.37 327.848C1434.37 329.608 1433.78 331.251 1432.61 332.776C1431.46 334.272 1429.95 335.46 1428.08 336.34C1426.2 337.22 1424.26 337.66 1422.27 337.66C1420.66 337.66 1419.31 337.323 1418.22 336.648C1417.14 335.973 1416.59 335.093 1416.59 334.008C1416.59 333.392 1416.77 332.835 1417.12 332.336C1417.47 331.837 1418.07 331.383 1418.92 330.972C1420.04 334.316 1421.9 335.988 1424.51 335.988C1425.51 335.988 1426.45 335.753 1427.33 335.284C1428.24 334.815 1428.97 334.14 1429.53 333.26C1430.09 332.38 1430.36 331.353 1430.36 330.18C1430.36 328.185 1429.6 326.616 1428.08 325.472C1426.58 324.299 1424.72 323.565 1422.49 323.272L1422.8 322.04C1425.91 320.397 1428.06 319.019 1429.26 317.904C1430.47 316.76 1431.07 315.557 1431.07 314.296C1431.07 313.416 1430.73 312.712 1430.06 312.184C1429.41 311.627 1428.59 311.348 1427.59 311.348C1426.39 311.348 1425.29 311.729 1424.29 312.492C1423.3 313.255 1422.22 314.369 1421.08 315.836L1420.16 315.308C1421.27 312.991 1422.53 311.245 1423.94 310.072C1425.35 308.899 1427.05 308.312 1429.04 308.312C1430.83 308.312 1432.26 308.781 1433.31 309.72C1434.4 310.629 1434.94 311.817 1434.94 313.284C1434.94 315.073 1434.27 316.525 1432.92 317.64C1431.57 318.725 1429.66 319.781 1427.2 320.808V320.896C1429.37 321.365 1431.1 322.201 1432.39 323.404C1433.71 324.577 1434.37 326.059 1434.37 327.848ZM1453.2 308.312C1455.96 308.312 1458.1 309.383 1459.63 311.524C1461.15 313.665 1461.92 316.467 1461.92 319.928C1461.92 322.509 1461.34 325.193 1460.2 327.98C1459.06 330.737 1457.4 333.055 1455.23 334.932C1453.09 336.78 1450.58 337.704 1447.7 337.704C1445.92 337.704 1444.36 337.22 1443.04 336.252C1441.72 335.284 1440.71 333.949 1440 332.248C1439.33 330.547 1438.99 328.611 1438.99 326.44C1438.99 323.741 1439.56 320.984 1440.71 318.168C1441.85 315.352 1443.5 313.005 1445.64 311.128C1447.81 309.251 1450.33 308.312 1453.2 308.312ZM1447.57 336.56C1449.39 336.56 1451.05 335.533 1452.54 333.48C1454.07 331.397 1455.26 328.831 1456.11 325.78C1456.96 322.729 1457.38 319.855 1457.38 317.156C1457.38 312.052 1456.02 309.5 1453.29 309.5C1451.44 309.5 1449.76 310.497 1448.23 312.492C1446.74 314.487 1445.56 316.965 1444.71 319.928C1443.86 322.891 1443.44 325.707 1443.44 328.376C1443.44 333.832 1444.82 336.56 1447.57 336.56ZM1480.32 308.312C1483.07 308.312 1485.22 309.383 1486.74 311.524C1488.27 313.665 1489.03 316.467 1489.03 319.928C1489.03 322.509 1488.46 325.193 1487.31 327.98C1486.17 330.737 1484.51 333.055 1482.34 334.932C1480.2 336.78 1477.69 337.704 1474.82 337.704C1473.03 337.704 1471.47 337.22 1470.15 336.252C1468.83 335.284 1467.82 333.949 1467.12 332.248C1466.44 330.547 1466.11 328.611 1466.11 326.44C1466.11 323.741 1466.68 320.984 1467.82 318.168C1468.97 315.352 1470.61 313.005 1472.75 311.128C1474.92 309.251 1477.44 308.312 1480.32 308.312ZM1474.69 336.56C1476.5 336.56 1478.16 335.533 1479.66 333.48C1481.18 331.397 1482.37 328.831 1483.22 325.78C1484.07 322.729 1484.5 319.855 1484.5 317.156C1484.5 312.052 1483.13 309.5 1480.41 309.5C1478.56 309.5 1476.87 310.497 1475.35 312.492C1473.85 314.487 1472.68 316.965 1471.83 319.928C1470.97 322.891 1470.55 325.707 1470.55 328.376C1470.55 333.832 1471.93 336.56 1474.69 336.56ZM1494.95 344.656H1487.51L1487.73 343.38H1491.78L1498.91 307.3H1494.81L1495.08 306.024H1502.56L1494.95 344.656Z" fill="#FDFCF8"/>
<rect x="312.5" y="306.5" width="1068" height="1120" stroke="#FDFCF8"/>
<line x1="123.5" y1="124" x2="123.5" y2="1603" stroke="#101010"/>
<line x1="4.37114e-08" y1="123.5" x2="2850" y2="123.5" stroke="#101010"/>
<path d="M2246.87 326V246.7H2259.07V326H2246.87ZM2268.05 262.9L2277.15 235.8H2286.65L2274.65 262.9H2268.05ZM2285.75 262.9L2294.85 235.8H2304.35L2292.35 262.9H2285.75ZM2311.69 284.2V246.7H2323.99V279.2L2311.69 284.2ZM2379.92 307.3C2352.72 307.3 2338.92 293.7 2338.92 271.8V246.7H2351.02V271.6C2351.02 273.8 2351.22 275.9 2351.52 277.8C2352.62 277.9 2353.42 277.9 2354.42 277.9C2364.32 277.9 2374.22 273.9 2374.22 262.4V246.7H2386.42V261.6C2386.42 278 2373.62 285.1 2355.42 285.1H2353.92C2358.12 293.5 2366.82 298.3 2379.92 298.3C2398.92 298.3 2408.72 288 2408.72 271.6V246.7H2420.82V271.8C2420.82 293.7 2407.12 307.3 2379.92 307.3ZM2461.46 235.6H2478.46L2477.86 238.5H2468.66L2452.66 320.5H2461.86L2461.16 323.4H2444.06L2461.46 235.6ZM2513.04 285.2C2513.04 289.2 2511.71 292.933 2509.04 296.4C2506.44 299.8 2503.01 302.5 2498.74 304.5C2494.48 306.5 2490.08 307.5 2485.54 307.5C2481.88 307.5 2478.81 306.733 2476.34 305.2C2473.88 303.667 2472.64 301.667 2472.64 299.2C2472.64 297.8 2473.04 296.533 2473.84 295.4C2474.64 294.267 2476.01 293.233 2477.94 292.3C2480.48 299.9 2484.71 303.7 2490.64 303.7C2492.91 303.7 2495.04 303.167 2497.04 302.1C2499.11 301.033 2500.78 299.5 2502.04 297.5C2503.31 295.5 2503.94 293.167 2503.94 290.5C2503.94 285.967 2502.21 282.4 2498.74 279.8C2495.34 277.133 2491.11 275.467 2486.04 274.8L2486.74 272C2493.81 268.267 2498.71 265.133 2501.44 262.6C2504.18 260 2505.54 257.267 2505.54 254.4C2505.54 252.4 2504.78 250.8 2503.24 249.6C2501.78 248.333 2499.91 247.7 2497.64 247.7C2494.91 247.7 2492.41 248.567 2490.14 250.3C2487.88 252.033 2485.44 254.567 2482.84 257.9L2480.74 256.7C2483.28 251.433 2486.14 247.467 2489.34 244.8C2492.54 242.133 2496.41 240.8 2500.94 240.8C2505.01 240.8 2508.24 241.867 2510.64 244C2513.11 246.067 2514.34 248.767 2514.34 252.1C2514.34 256.167 2512.81 259.467 2509.74 262C2506.68 264.467 2502.34 266.867 2496.74 269.2V269.4C2501.68 270.467 2505.61 272.367 2508.54 275.1C2511.54 277.767 2513.04 281.133 2513.04 285.2ZM2555.85 240.8C2562.12 240.8 2566.98 243.233 2570.45 248.1C2573.92 252.967 2575.65 259.333 2575.65 267.2C2575.65 273.067 2574.35 279.167 2571.75 285.5C2569.15 291.767 2565.38 297.033 2560.45 301.3C2555.58 305.5 2549.88 307.6 2543.35 307.6C2539.28 307.6 2535.75 306.5 2532.75 304.3C2529.75 302.1 2527.45 299.067 2525.85 295.2C2524.32 291.333 2523.55 286.933 2523.55 282C2523.55 275.867 2524.85 269.6 2527.45 263.2C2530.05 256.8 2533.78 251.467 2538.65 247.2C2543.58 242.933 2549.32 240.8 2555.85 240.8ZM2543.05 305C2547.18 305 2550.95 302.667 2554.35 298C2557.82 293.267 2560.52 287.433 2562.45 280.5C2564.38 273.567 2565.35 267.033 2565.35 260.9C2565.35 249.3 2562.25 243.5 2556.05 243.5C2551.85 243.5 2548.02 245.767 2544.55 250.3C2541.15 254.833 2538.48 260.467 2536.55 267.2C2534.62 273.933 2533.65 280.333 2533.65 286.4C2533.65 298.8 2536.78 305 2543.05 305ZM2617.47 240.8C2623.74 240.8 2628.61 243.233 2632.07 248.1C2635.54 252.967 2637.27 259.333 2637.27 267.2C2637.27 273.067 2635.97 279.167 2633.37 285.5C2630.77 291.767 2627.01 297.033 2622.07 301.3C2617.21 305.5 2611.51 307.6 2604.97 307.6C2600.91 307.6 2597.37 306.5 2594.37 304.3C2591.37 302.1 2589.07 299.067 2587.47 295.2C2585.94 291.333 2585.17 286.933 2585.17 282C2585.17 275.867 2586.47 269.6 2589.07 263.2C2591.67 256.8 2595.41 251.467 2600.27 247.2C2605.21 242.933 2610.94 240.8 2617.47 240.8ZM2604.67 305C2608.81 305 2612.57 302.667 2615.97 298C2619.44 293.267 2622.14 287.433 2624.07 280.5C2626.01 273.567 2626.97 267.033 2626.97 260.9C2626.97 249.3 2623.87 243.5 2617.67 243.5C2613.47 243.5 2609.64 245.767 2606.17 250.3C2602.77 254.833 2600.11 260.467 2598.17 267.2C2596.24 273.933 2595.27 280.333 2595.27 286.4C2595.27 298.8 2598.41 305 2604.67 305ZM2651.69 323.4H2634.79L2635.29 320.5H2644.49L2660.69 238.5H2651.39L2651.99 235.6H2668.99L2651.69 323.4Z" fill="#101010"/>
<path d="M80.2 1470.2L80.2 1478.7L78.75 1478.4L78.75 1473.8L37.75 1465.8L37.75 1470.4L36.3 1470.05L36.3 1461.5L80.2 1470.2ZM45 1478.29C48.6 1479.43 51.8167 1480.29 54.65 1480.89C57.4833 1481.53 60.1 1481.84 62.5 1481.84C63.9 1481.84 65.1333 1481.68 66.2 1481.34C67.2667 1481.01 68.3667 1480.41 69.5 1479.54L75.25 1481.54L75.25 1482.59C74.0833 1483.63 72.8 1484.44 71.4 1485.04C70 1485.64 68.2667 1485.94 66.2 1485.94C63.2 1485.94 59.7667 1485.34 55.9 1484.14C52.0333 1482.94 48.4 1481.43 45 1479.59L45 1478.29ZM54.7 1491.01C57.0333 1492.31 58.9167 1493.2 60.35 1493.66C61.8167 1494.16 63.1667 1494.41 64.4 1494.41C65.3 1494.41 66.1667 1494.18 67 1493.71C67.8667 1493.25 68.85 1492.41 69.95 1491.21L75.25 1493.26L75.25 1494.06C72.85 1496.9 70.2167 1498.31 67.35 1498.31C65.25 1498.31 63.1667 1497.76 61.1 1496.66C59.0333 1495.6 56.7333 1494 54.2 1491.86L54.7 1491.01ZM45 1516.45C51.8667 1519.21 57.3 1520.6 61.3 1520.6C63.6333 1520.6 65.3167 1520.08 66.35 1519.05C67.3833 1518.05 67.9 1516.23 67.9 1513.6L67.9 1509.25L64 1509.35C52.3 1509.35 45.7833 1505.23 44.45 1497L51.15 1499.2C51.4833 1501.26 52.0833 1502.83 52.95 1503.9C53.8167 1505 54.9667 1505.73 56.4 1506.1C57.8333 1506.46 59.75 1506.65 62.15 1506.65C63.95 1506.65 65.8667 1506.51 67.9 1506.25L67.9 1502.8L76.5 1505.7L76.5 1506.55L73.6 1507.9L73.6 1515.2C73.6 1518.36 72.7833 1520.68 71.15 1522.15C69.55 1523.65 67.3333 1524.4 64.5 1524.4C58.4333 1524.4 51.9333 1522.2 45 1517.8L45 1516.45ZM36.3 1530.85L36.3 1522.4L37.75 1522.65L37.75 1527.25L78.75 1535.35L78.75 1530.7L80.2 1531L80.2 1539.5L36.3 1530.85Z" fill="#101010"/>
<path d="M2811.2 1448.92L2811.2 1457.42L2809.75 1457.12L2809.75 1452.52L2768.75 1444.52L2768.75 1449.12L2767.3 1448.77L2767.3 1440.22L2811.2 1448.92ZM2775.45 1456.26L2790.3 1459.41L2795.35 1458.96L2795.75 1460.36L2806.25 1462.66L2806.25 1463.51L2796.4 1463.71C2796.87 1465.95 2797.72 1467.6 2798.95 1468.66C2800.22 1469.73 2802.07 1470.26 2804.5 1470.26C2804.8 1470.26 2805.38 1470.23 2806.25 1470.16L2806.25 1471.26C2804.25 1471.76 2802.48 1472.01 2800.95 1472.01C2797.82 1472.01 2795.42 1471.1 2793.75 1469.26C2792.12 1467.43 2790.88 1464.8 2790.05 1461.36L2781.5 1461.16C2782.2 1465.63 2783.13 1469.15 2784.3 1471.71C2785.47 1474.31 2786.85 1476.13 2788.45 1477.16C2790.05 1478.23 2791.95 1478.76 2794.15 1478.76C2795.85 1478.76 2797.75 1478.38 2799.85 1477.61L2806.25 1480.06L2806.25 1480.96C2803.72 1482.1 2801.12 1482.66 2798.45 1482.66C2794.62 1482.66 2791.03 1481.58 2787.7 1479.41C2784.4 1477.28 2781.62 1474.26 2779.35 1470.36C2777.08 1466.46 2775.57 1461.95 2774.8 1456.81L2775.45 1456.26ZM2785.7 1486.87C2788.03 1488.17 2789.92 1489.05 2791.35 1489.52C2792.82 1490.02 2794.17 1490.27 2795.4 1490.27C2796.3 1490.27 2797.17 1490.04 2798 1489.57C2798.87 1489.1 2799.85 1488.27 2800.95 1487.07L2806.25 1489.12L2806.25 1489.92C2803.85 1492.75 2801.22 1494.17 2798.35 1494.17C2796.25 1494.17 2794.17 1493.62 2792.1 1492.52C2790.03 1491.45 2787.73 1489.85 2785.2 1487.72L2785.7 1486.87ZM2776 1508.42C2782.87 1511.19 2788.3 1512.57 2792.3 1512.57C2794.6 1512.57 2796.27 1512.04 2797.3 1510.97C2798.37 1509.94 2798.9 1508.12 2798.9 1505.52L2798.9 1498.42L2807.5 1501.37L2807.5 1502.22L2804.6 1503.42L2804.6 1507.17C2804.6 1510.34 2803.78 1512.66 2802.15 1514.12C2800.52 1515.62 2798.28 1516.37 2795.45 1516.37C2792.02 1516.37 2788.85 1515.81 2785.95 1514.67C2783.05 1513.57 2779.73 1511.96 2776 1509.82L2776 1508.42ZM2767.3 1522.85L2767.3 1514.4L2768.75 1514.65L2768.75 1519.25L2809.75 1527.35L2809.75 1522.7L2811.2 1523L2811.2 1531.5L2767.3 1522.85Z" fill="#101010"/>
<path d="M2381.16 384V364.175H2384.21V384H2381.16ZM2386.46 368.225L2388.73 361.45H2391.11L2388.11 368.225H2386.46ZM2390.88 368.225L2393.16 361.45H2395.53L2392.53 368.225H2390.88ZM2397.37 373.55V364.175H2400.44V372.3L2397.37 373.55ZM2406 372.8C2406 369.35 2407.07 367.775 2408.87 366.525V366.475H2403.37V364.175H2412.82V366.425C2410.32 366.7 2409.07 368.475 2409.07 371.7V379H2406V372.8ZM2416.1 379V364.175H2419.15V379H2416.1ZM2430.35 379V364.175H2433.4V379H2430.35ZM2435.65 368.225L2437.92 361.45H2440.3L2437.3 368.225H2435.65ZM2440.07 368.225L2442.35 361.45H2444.72L2441.72 368.225H2440.07ZM2446.56 373.55V364.175H2449.63V372.3L2446.56 373.55ZM2453.77 379V364.175H2456.82V379H2453.77ZM2466.28 383.225L2468.55 376.45H2470.93L2467.93 383.225H2466.28ZM2480.22 379V366.475H2471.07V364.175H2485.97V366.475H2483.29V379H2480.22ZM2487.41 368.225L2489.68 361.45H2492.06L2489.06 368.225H2487.41ZM2491.83 368.225L2494.11 361.45H2496.48L2493.48 368.225H2491.83ZM2498.42 379V364.175H2501.47V379H2498.42ZM2505.62 373.55V364.175H2508.69V372.3L2505.62 373.55ZM2522.24 379.125C2521.36 379.125 2520.51 378.625 2520.51 377.7C2520.51 376.85 2521.34 376.325 2522.24 376.325C2523.14 376.325 2523.94 376.85 2523.94 377.7C2523.94 378.625 2523.14 379.125 2522.24 379.125ZM2522.24 369.85C2521.36 369.85 2520.51 369.35 2520.51 368.425C2520.51 367.575 2521.34 367.05 2522.24 367.05C2523.14 367.05 2523.94 367.575 2523.94 368.425C2523.94 369.35 2523.14 369.85 2522.24 369.85ZM2536.86 379V366.475H2527.71V364.175H2542.61V366.475H2539.93V379H2536.86ZM2545.98 379V364.175H2549.03V379H2545.98ZM2561.55 379.425C2555.38 379.425 2553.03 375.775 2553.03 371.6V364.175H2562.15C2567.28 364.175 2570.1 367.125 2570.1 371.625C2570.1 375.775 2567.73 379.425 2561.55 379.425ZM2561.55 377.125C2565.35 377.125 2567.03 374.825 2567.03 371.625C2567.03 368.325 2565.33 366.475 2561.7 366.475H2556.08V371.6C2556.08 374.825 2557.7 377.125 2561.55 377.125ZM2573.2 373.55V364.175H2576.27V372.3L2573.2 373.55ZM2602.01 370.925C2602.01 367.7 2600.24 366.475 2597.06 366.475H2593.01V374.675C2593.01 377.65 2591.56 379.325 2588.69 379.325C2587.44 379.325 2586.69 379.175 2586.19 379V376.7C2586.71 376.95 2587.31 377.1 2587.96 377.1C2589.14 377.1 2589.99 376.45 2589.99 374.8V366.475H2586.71V364.175H2597.26C2602.44 364.175 2605.09 366.175 2605.09 370.55V379H2602.01V370.925ZM2609.14 379V364.175H2612.19V379H2609.14ZM2616.33 373.55V364.175H2619.41V372.3L2616.33 373.55ZM2638.34 370.925C2638.34 367.7 2636.57 366.475 2633.39 366.475H2629.34V374.675C2629.34 377.65 2627.89 379.325 2625.02 379.325C2623.77 379.325 2623.02 379.175 2622.52 379V376.7C2623.04 376.95 2623.64 377.1 2624.29 377.1C2625.47 377.1 2626.32 376.45 2626.32 374.8V366.475H2623.04V364.175H2633.59C2638.77 364.175 2641.42 366.175 2641.42 370.55V379H2638.34V370.925ZM2645.47 379V364.175H2648.52V379H2645.47ZM2665.79 379C2663.16 375.775 2661.06 373.5 2658.26 370.7C2656.19 371.825 2655.24 373.225 2655.24 375.85V379H2652.19V376.275C2652.19 372.75 2654.14 370.625 2656.69 369.175C2655.14 367.55 2653.41 365.875 2651.54 364.175H2655.51C2657.96 366.475 2660.41 369.075 2662.56 371.425C2664.46 370.35 2664.91 369.5 2664.91 367.35V364.175H2667.99V367.075C2667.99 370.125 2666.29 371.725 2664.06 372.9C2665.91 374.9 2667.54 376.725 2669.39 379H2665.79Z" fill="#101010"/>
<path d="M2378.96 385.05H2669.99V386.9H2378.96V385.05Z" fill="#101010"/>
<rect x="38.5" y="38.5" width="259" height="47" rx="23.5" stroke="#101010"/>
<path d="M59.4878 71.5V53.71H68.7578C73.8578 53.71 77.7878 55.96 77.7878 60.7V71.5H59.4878ZM62.3378 69.22H74.9378V60.88C74.9378 57.13 71.6978 55.96 68.6378 55.96H62.3378V69.22ZM82.656 64.9V53.71H85.506V63.4L82.656 64.9ZM98.6383 71.5L106.708 55.96H90.2983V53.71H109.828V55.96L101.698 71.5H98.6383ZM90.8683 77.5V61.12L93.7183 59.65V77.5H90.8683ZM114.156 71.5V53.71H123.576C128.736 53.71 132.456 55.96 132.456 61.03V71.5H129.606V61.66C129.606 57.4 127.026 55.96 122.886 55.96H117.006V71.5H114.156ZM148.754 71.86C140.384 71.86 137.114 67.39 137.114 61.24V53.71H139.934V61.24C139.934 61.96 139.994 62.62 140.114 63.28C140.444 63.31 140.804 63.34 141.194 63.34C144.074 63.34 147.434 62.23 147.434 58.36V53.71H150.284V58.18C150.284 63.01 146.624 65.2 141.434 65.2C141.224 65.2 140.954 65.2 140.654 65.17C141.884 68.02 144.614 69.64 148.754 69.64C154.484 69.64 157.514 66.46 157.514 61.24V53.71H160.364V61.24C160.364 67.39 157.064 71.86 148.754 71.86ZM176.257 72.01C174.817 72.01 173.827 71.77 172.867 71.5V69.22C173.737 69.58 175.327 69.73 176.347 69.73C179.707 69.73 182.437 67.24 182.437 62.59C182.437 58.36 180.277 55.66 176.797 55.66C173.137 55.66 170.197 58.66 169.147 63.82L167.527 71.5H164.767L166.357 64.09C166.597 63.07 166.687 62.41 166.687 61.36C166.687 59.53 165.487 56.65 164.257 53.71H166.987C167.677 55.36 168.397 57.46 168.757 58.69H168.877C169.987 56.2 172.837 53.32 176.977 53.32C182.077 53.32 185.317 57.25 185.317 62.59C185.317 69.01 180.967 72.01 176.257 72.01ZM208.9 71.86C200.53 71.86 197.26 67.39 197.26 61.24V53.71H200.08V61.24C200.08 61.96 200.14 62.62 200.26 63.28C200.59 63.31 200.95 63.34 201.34 63.34C204.22 63.34 207.58 62.23 207.58 58.36V53.71H210.43V58.18C210.43 63.01 206.77 65.2 201.58 65.2C201.37 65.2 201.1 65.2 200.8 65.17C202.03 68.02 204.76 69.64 208.9 69.64C214.63 69.64 217.66 66.46 217.66 61.24V53.71H220.51V61.24C220.51 67.39 217.21 71.86 208.9 71.86ZM236.193 61.9C236.193 57.97 234.423 55.96 229.983 55.96H223.713V53.71H229.983C236.433 53.71 239.013 56.44 239.013 61.9V71.5H236.193V61.9ZM243.247 68.95C245.467 67.45 246.967 66.28 248.227 64.84C249.697 63.16 250.177 61.9 250.177 60.13V59.86C250.177 57.52 248.857 55.96 246.067 55.96H243.607V53.71H246.457C249.937 53.71 252.727 55.15 252.727 59.08V62.35C252.727 66.49 253.027 68.53 253.597 71.5H250.687C250.477 70.18 250.147 67.81 250.087 65.14H249.967C248.797 68.14 245.077 71.26 243.247 72.25V68.95ZM269.509 72.01C268.069 72.01 267.079 71.77 266.119 71.5V69.22C266.989 69.58 268.579 69.73 269.599 69.73C272.959 69.73 275.689 67.24 275.689 62.59C275.689 58.36 273.529 55.66 270.049 55.66C266.389 55.66 263.449 58.66 262.399 63.82L260.779 71.5H258.019L259.609 64.09C259.849 63.07 259.939 62.41 259.939 61.36C259.939 59.53 258.739 56.65 257.509 53.71H260.239C260.929 55.36 261.649 57.46 262.009 58.69H262.129C263.239 56.2 266.089 53.32 270.229 53.32C275.329 53.32 278.569 57.25 278.569 62.59C278.569 69.01 274.219 72.01 269.509 72.01Z" fill="#101010"/>
<rect x="331.5" y="38.5" width="259" height="47" rx="23.5" stroke="#101010"/>
<path d="M386.302 71.95C379.462 71.95 376.462 67.84 376.462 62.59V53.71H379.282V62.59C379.282 66.88 381.802 69.73 386.302 69.73C390.622 69.73 393.322 66.88 393.322 62.59C393.322 57.16 389.872 55.48 387.292 55.48C385.852 55.48 384.592 55.69 383.632 55.96V53.71C384.622 53.47 386.092 53.2 387.592 53.2C390.892 53.2 396.172 55 396.172 62.59C396.172 67.84 393.022 71.95 386.302 71.95ZM408.269 71.5L416.339 55.96H399.929V53.71H419.459V55.96L411.329 71.5H408.269ZM400.499 77.5V61.12L403.349 59.65V77.5H400.499ZM423.547 64.9V53.71H426.397V63.4L423.547 64.9ZM431.609 71.5V53.71H434.459V71.5H431.609ZM450.609 61.9C450.609 57.97 448.839 55.96 444.399 55.96H438.129V53.71H444.399C450.849 53.71 453.429 56.44 453.429 61.9V71.5H450.609V61.9ZM458.503 71.5V69.22H467.473C471.823 69.22 473.563 66.4 473.563 62.59C473.563 58.81 471.823 55.96 467.473 55.96H461.023V59.17C461.023 61.3 461.653 62.11 463.903 62.11H465.253V64.27H463.213C460.153 64.27 458.173 63.04 458.173 59.11V53.71H466.693C473.473 53.71 476.383 57.25 476.383 62.59C476.383 67.96 473.473 71.5 466.693 71.5H458.503ZM494.604 61.66C494.604 57.13 491.754 55.96 488.304 55.96H480.144V53.71H488.514C493.974 53.71 497.424 55.96 497.424 61.42V71.5H494.604V61.66ZM480.204 71.5V61.69L483.054 60.22V71.5H480.204ZM514.399 71.5L522.439 55.96H509.209V47.89H512.029V53.71H525.499V55.96L517.459 71.5H514.399ZM528.53 74.83V72.31L534.26 69.82L528.89 53.71H531.83L535.88 65.62C536.21 66.52 536.54 67.66 536.81 68.71C541.7 66.43 542.87 64.39 542.87 60.82V53.71H545.66V59.89C545.66 65.68 543.89 68.05 535.7 71.68L528.53 74.83Z" fill="#101010"/>
<path d="M2813.71 194.707C2814.1 194.317 2814.1 193.683 2813.71 193.293L2807.34 186.929C2806.95 186.538 2806.32 186.538 2805.93 186.929C2805.54 187.319 2805.54 187.953 2805.93 188.343L2811.59 194L2805.93 199.657C2805.54 200.047 2805.54 200.681 2805.93 201.071C2806.32 201.462 2806.95 201.462 2807.34 201.071L2813.71 194.707ZM2765 194V195H2813V194V193H2765V194Z" fill="black"/>
<path d="M37.2929 193.293C36.9024 193.683 36.9024 194.317 37.2929 194.707L43.6569 201.071C44.0474 201.462 44.6805 201.462 45.0711 201.071C45.4616 200.681 45.4616 200.047 45.0711 199.657L39.4142 194L45.0711 188.343C45.4616 187.953 45.4616 187.319 45.0711 186.929C44.6805 186.538 44.0474 186.538 43.6569 186.929L37.2929 193.293ZM86 194L86 193L38 193L38 194L38 195L86 195L86 194Z" fill="black"/>
<path d="M1178.48 559.581L1172.55 598.967L1172.49 599.344L1172.84 599.498L1303.79 657.235L1327.47 752.022L1260.54 903.603L1046.62 1044.74L1197.91 891.855L1198.17 891.594L1197.99 891.269L1188.88 874.11L1188.79 873.957L1188.64 873.888L1048.13 812.059L1162.69 552.658L1178.48 559.581Z" fill="#FDFCF8" stroke="#FDFCF8"/>
<path d="M910.7 561.533L899.9 599.869L899.797 600.236L900.124 600.434L1022.69 674.194L1034.22 771.235L948.601 913.239L725.581 1181.45L888.178 893.484L888.293 893.28L888.21 893.062L881.312 874.843L881.25 874.681L881.102 874.592L749.539 795.564L895.969 552.686L910.7 561.533Z" fill="#FDFCF8" stroke="#FDFCF8"/>
<path d="M383.758 564.503L394.271 602.934L394.371 603.302H541.3L597.835 680.467V846.401L597.877 846.497L788.424 1279.58L535.759 860.256L535.712 860.178L535.64 860.121L520.347 848.072L520.211 847.965H520.037L366.5 848.108V564.503H383.758Z" fill="#FDFCF8" stroke="#FDFCF8"/>
<path d="M718.826 564.503L718.825 848.108L565.289 847.965H565.115L564.979 848.072L549.687 860.121L549.349 860.388L549.561 860.762L786.065 1277.05L487.491 846.14V680.467L543.834 603.302H690.955L691.056 602.934L701.568 564.503H718.826Z" fill="#FDFCF8" stroke="#FDFCF8"/>
<mask id="path-21-inside-1_435_2442" fill="white">
<path d="M630 1051.24L792.831 1287L971.773 1218.67L1261 903L923.047 1125.95L739.06 1161.09"/>
</mask>
<path d="M792.831 1287L792.008 1287.57L792.454 1288.21L793.188 1287.93L792.831 1287ZM971.773 1218.67L972.13 1219.61L972.351 1219.52L972.511 1219.35L971.773 1218.67ZM1261 903L1261.74 903.676L1260.45 902.165L1261 903ZM923.047 1125.95L923.234 1126.93L923.43 1126.89L923.597 1126.78L923.047 1125.95ZM630 1051.24L629.177 1051.81L792.008 1287.57L792.831 1287L793.654 1286.43L630.823 1050.67L630 1051.24ZM792.831 1287L793.188 1287.93L972.13 1219.61L971.773 1218.67L971.417 1217.74L792.474 1286.07L792.831 1287ZM971.773 1218.67L972.511 1219.35L1261.74 903.676L1261 903L1260.26 902.324L971.036 1218L971.773 1218.67ZM1261 903L1260.45 902.165L922.496 1125.11L923.047 1125.95L923.597 1126.78L1261.55 903.835L1261 903ZM923.047 1125.95L922.859 1124.97L738.872 1160.11L739.06 1161.09L739.248 1162.08L923.234 1126.93L923.047 1125.95Z" fill="#FDFCF8" mask="url(#path-21-inside-1_435_2442)"/>
<path d="M522.837 712.024H530.317L530.053 713.3H526.005L518.965 749.38H523.013L522.705 750.656H515.181L522.837 712.024ZM528.109 750.48C529.312 747.195 530.25 744.525 530.925 742.472C531.6 740.419 532.142 738.321 532.553 736.18C532.964 734.039 533.169 731.883 533.169 729.712C533.169 728.245 533.008 726.911 532.685 725.708C532.362 724.505 531.805 723.127 531.013 721.572L532.993 715.984H533.917C535.648 718.859 536.513 722.364 536.513 726.5C536.513 730.079 535.853 733.892 534.533 737.94C533.213 741.959 531.453 746.139 529.253 750.48H528.109ZM541.107 734.464C542.251 732.411 543.028 730.753 543.439 729.492C543.879 728.201 544.099 727.013 544.099 725.928C544.099 725.136 543.893 724.373 543.483 723.64C543.072 722.877 542.339 722.012 541.283 721.044L543.087 716.38H543.791C546.284 718.492 547.531 720.809 547.531 723.332C547.531 725.18 547.047 727.013 546.079 728.832C545.14 730.651 543.732 732.675 541.855 734.904L541.107 734.464ZM549.791 743C551.023 740.712 551.903 738.615 552.431 736.708C552.988 734.772 553.267 732.88 553.267 731.032C553.267 729.595 553.15 728.216 552.915 726.896C552.68 725.547 552.255 723.933 551.639 722.056L553.047 717.92C554.543 717.656 555.775 717.524 556.743 717.524C558.21 717.524 559.266 717.817 559.911 718.404C560.556 718.961 560.879 719.695 560.879 720.604C560.879 721.924 560.439 723.156 559.559 724.3C558.679 723.625 557.77 723.171 556.831 722.936C555.892 722.701 554.778 722.584 553.487 722.584L553.443 722.76C554.646 724.931 555.511 726.823 556.039 728.436C556.596 730.02 556.875 731.487 556.875 732.836C556.875 734.801 556.303 736.723 555.159 738.6C554.044 740.448 552.402 742.047 550.231 743.396L549.791 743ZM564.945 750.656H557.509L557.729 749.38H561.777L568.905 713.3H564.813L565.077 712.024H572.557L564.945 750.656Z" fill="#101010"/>
<path d="M1173.03 712.024H1180.51L1180.24 713.3H1176.2L1169.16 749.38H1173.2L1172.9 750.656H1165.37L1173.03 712.024ZM1192.2 722.848H1180.32L1182.88 715.28H1183.62L1184.68 717.832H1199.68L1198.06 722.848H1194.27L1194.8 727.204L1188.95 743H1187.54L1192.2 722.848ZM1201.55 743C1202.54 739.832 1203.31 737.001 1203.83 734.508C1204.39 732.015 1204.67 729.712 1204.67 727.6C1204.67 726.368 1204.52 725.283 1204.23 724.344C1203.94 723.405 1203.41 722.437 1202.65 721.44L1204.41 716.38H1205.33C1206.24 717.407 1206.96 718.536 1207.49 719.768C1208.01 721 1208.28 722.525 1208.28 724.344C1208.28 726.984 1207.75 730.005 1206.69 733.408C1205.64 736.811 1204.3 740.008 1202.69 743H1201.55ZM1212.74 734.464C1213.88 732.411 1214.66 730.753 1215.07 729.492C1215.51 728.201 1215.73 727.013 1215.73 725.928C1215.73 725.136 1215.53 724.373 1215.12 723.64C1214.7 722.877 1213.97 722.012 1212.92 721.044L1214.72 716.38H1215.42C1217.92 718.492 1219.16 720.809 1219.16 723.332C1219.16 725.18 1218.68 727.013 1217.71 728.832C1216.77 730.651 1215.36 732.675 1213.49 734.904L1212.74 734.464ZM1223.95 750.656H1216.51L1216.73 749.38H1220.78L1227.91 713.3H1223.81L1224.08 712.024H1231.56L1223.95 750.656Z" fill="#101010"/>
<path d="M882.114 712.024H889.594L889.33 713.3H885.282L878.242 749.38H882.29L881.982 750.656H874.458L882.114 712.024ZM889.234 743C890.232 739.832 890.994 737.001 891.522 734.508C892.08 732.015 892.358 729.712 892.358 727.6C892.358 726.368 892.212 725.283 891.918 724.344C891.625 723.405 891.097 722.437 890.334 721.44L892.094 716.38H893.018C893.928 717.407 894.646 718.536 895.174 719.768C895.702 721 895.966 722.525 895.966 724.344C895.966 726.984 895.438 730.005 894.382 733.408C893.326 736.811 891.992 740.008 890.378 743H889.234ZM900.427 734.464C901.571 732.411 902.348 730.753 902.759 729.492C903.199 728.201 903.419 727.013 903.419 725.928C903.419 725.136 903.214 724.373 902.803 723.64C902.392 722.877 901.659 722.012 900.603 721.044L902.407 716.38H903.111C905.604 718.492 906.851 720.809 906.851 723.332C906.851 725.18 906.367 727.013 905.399 728.832C904.46 730.651 903.052 732.675 901.175 734.904L900.427 734.464ZM909.301 743C910.298 739.832 911.061 737.001 911.589 734.508C912.146 732.015 912.425 729.712 912.425 727.6C912.425 726.368 912.278 725.283 911.985 724.344C911.691 723.405 911.163 722.437 910.401 721.44L912.161 716.38H913.085C913.994 717.407 914.713 718.536 915.241 719.768C915.769 721 916.033 722.525 916.033 724.344C916.033 726.984 915.505 730.005 914.449 733.408C913.393 736.811 912.058 740.008 910.445 743H909.301ZM921.945 750.656H914.509L914.729 749.38H918.777L925.905 713.3H921.813L922.077 712.024H929.557L921.945 750.656Z" fill="#101010"/>
<path d="M1697.6 924V908.46H1686.41V906.21H1703.69V908.46H1700.42V924H1697.6ZM1707.96 924V906.21H1710.81V924H1707.96ZM1725.67 924V908.46H1714.48V906.21H1731.76V908.46H1728.49V924H1725.67ZM1735.78 917.4V906.21H1738.63V915.9L1735.78 917.4ZM1743.85 924V906.21H1753.27C1758.43 906.21 1762.15 908.46 1762.15 913.53V924H1759.3V914.16C1759.3 909.9 1756.72 908.46 1752.58 908.46H1746.7V924H1743.85ZM1779.12 924L1787.16 908.46H1773.93V900.39H1776.75V906.21H1790.22V908.46L1782.18 924H1779.12ZM1805.72 924.36C1797.35 924.36 1794.08 919.89 1794.08 913.74V906.21H1796.9V913.74C1796.9 914.46 1796.96 915.12 1797.08 915.78C1797.41 915.81 1797.77 915.84 1798.16 915.84C1801.04 915.84 1804.4 914.73 1804.4 910.86V906.21H1807.25V910.68C1807.25 915.51 1803.59 917.7 1798.4 917.7C1798.19 917.7 1797.92 917.7 1797.62 917.67C1798.85 920.52 1801.58 922.14 1805.72 922.14C1811.45 922.14 1814.48 918.96 1814.48 913.74V906.21H1817.33V913.74C1817.33 919.89 1814.03 924.36 1805.72 924.36ZM1830.57 930V906.21H1833.42V930H1830.57ZM1838.08 924V921.72H1849.81V913.8C1849.81 910.38 1847.59 908.46 1844.17 908.46H1838.08V906.21H1844.38C1849.24 906.21 1852.66 908.64 1852.66 913.74V921.72H1855.45V924H1838.08ZM1859.31 924V906.21H1862.16V924H1859.31ZM1878.52 924.51C1877.08 924.51 1876.09 924.27 1875.13 924V921.72C1876 922.08 1877.59 922.23 1878.61 922.23C1881.97 922.23 1884.7 919.74 1884.7 915.09C1884.7 910.86 1882.54 908.16 1879.06 908.16C1875.4 908.16 1872.46 911.16 1871.41 916.32L1869.79 924H1867.03L1868.62 916.59C1868.86 915.57 1868.95 914.91 1868.95 913.86C1868.95 912.03 1867.75 909.15 1866.52 906.21H1869.25C1869.94 907.86 1870.66 909.96 1871.02 911.19H1871.14C1872.25 908.7 1875.1 905.82 1879.24 905.82C1884.34 905.82 1887.58 909.75 1887.58 915.09C1887.58 921.51 1883.23 924.51 1878.52 924.51ZM1889.99 924V921.72H1901.72V913.8C1901.72 910.38 1899.5 908.46 1896.08 908.46H1889.99V906.21H1896.29C1901.15 906.21 1904.57 908.64 1904.57 913.74V921.72H1907.36V924H1889.99ZM1919.45 924V906.21H1928.72C1933.82 906.21 1937.75 908.46 1937.75 913.2V924H1919.45ZM1922.3 921.72H1934.9V913.38C1934.9 909.63 1931.66 908.46 1928.6 908.46H1922.3V921.72ZM1942.62 917.4V906.21H1945.47V915.9L1942.62 917.4ZM1950.44 917.4V906.21H1953.29V915.9L1950.44 917.4ZM1957.7 924V921.72H1964.39V912.27C1964.39 909.9 1963.37 908.46 1961 908.46H1958V906.21H1960.94C1965.05 906.21 1967.24 908.19 1967.24 912.21V924H1957.7ZM1972.09 917.4V906.21H1974.94V915.9L1972.09 917.4ZM1991.35 924.36C1982.98 924.36 1979.71 919.89 1979.71 913.74V906.21H1982.53V913.74C1982.53 914.46 1982.59 915.12 1982.71 915.78C1983.04 915.81 1983.4 915.84 1983.79 915.84C1986.67 915.84 1990.03 914.73 1990.03 910.86V906.21H1992.88V910.68C1992.88 915.51 1989.22 917.7 1984.03 917.7C1983.82 917.7 1983.55 917.7 1983.25 917.67C1984.48 920.52 1987.21 922.14 1991.35 922.14C1997.08 922.14 2000.11 918.96 2000.11 913.74V906.21H2002.96V913.74C2002.96 919.89 1999.66 924.36 1991.35 924.36ZM2011.59 924L2019.63 908.46H2006.4V900.39H2009.22V906.21H2022.69V908.46L2014.65 924H2011.59ZM2033.04 929.31L2035.74 921.3H2038.14L2034.66 929.31H2033.04ZM2060.52 913.71C2060.52 910.02 2058 908.46 2054.19 908.46H2048.88V919.26C2048.88 922.53 2047.17 924.39 2044.23 924.39C2042.7 924.39 2041.98 924.18 2041.5 924V921.72C2042.1 922.02 2042.85 922.2 2043.63 922.2C2045.04 922.2 2046.06 921.39 2046.06 919.26V908.46H2042.16V906.21H2054.22C2059.92 906.21 2063.37 908.52 2063.37 913.71V924H2060.52V913.71ZM2068.46 924V906.21H2071.31V924H2068.46ZM2086.17 924.45C2079.33 924.45 2076.33 920.34 2076.33 915.09V906.21H2079.15V915.09C2079.15 919.38 2081.67 922.23 2086.17 922.23C2090.49 922.23 2093.19 919.38 2093.19 915.09C2093.19 909.66 2089.74 907.98 2087.16 907.98C2085.72 907.98 2084.46 908.19 2083.5 908.46V906.21C2084.49 905.97 2085.96 905.7 2087.46 905.7C2090.76 905.7 2096.04 907.5 2096.04 915.09C2096.04 920.34 2092.89 924.45 2086.17 924.45ZM2109.69 914.4C2109.69 910.47 2107.92 908.46 2103.48 908.46H2097.21V906.21H2103.48C2109.93 906.21 2112.51 908.94 2112.51 914.4V924H2109.69V914.4ZM2117.59 924V921.72H2126.56C2130.91 921.72 2132.65 918.9 2132.65 915.09C2132.65 911.31 2130.91 908.46 2126.56 908.46H2120.11V911.67C2120.11 913.8 2120.74 914.61 2122.99 914.61H2124.34V916.77H2122.3C2119.24 916.77 2117.26 915.54 2117.26 911.61V906.21H2125.78C2132.56 906.21 2135.47 909.75 2135.47 915.09C2135.47 920.46 2132.56 924 2125.78 924H2117.59ZM2156.26 913.71C2156.26 910.02 2153.74 908.46 2149.93 908.46H2144.62V919.26C2144.62 922.53 2142.91 924.39 2139.97 924.39C2138.44 924.39 2137.72 924.18 2137.24 924V921.72C2137.84 922.02 2138.59 922.2 2139.37 922.2C2140.78 922.2 2141.8 921.39 2141.8 919.26V908.46H2137.9V906.21H2149.96C2155.66 906.21 2159.11 908.52 2159.11 913.71V924H2156.26V913.71ZM2178.24 914.16C2178.24 909.63 2175.39 908.46 2171.94 908.46H2163.78V906.21H2172.15C2177.61 906.21 2181.06 908.46 2181.06 913.92V924H2178.24V914.16ZM2163.84 924V914.19L2166.69 912.72V924H2163.84ZM2188.6 924L2196.64 908.46H2183.41V900.39H2186.23V906.21H2199.7V908.46L2191.66 924H2188.6ZM2210.06 929.31L2212.76 921.3H2215.16L2211.68 929.31H2210.06ZM2237.53 913.71C2237.53 910.02 2235.01 908.46 2231.2 908.46H2225.89V919.26C2225.89 922.53 2224.18 924.39 2221.24 924.39C2219.71 924.39 2218.99 924.18 2218.51 924V921.72C2219.11 922.02 2219.86 922.2 2220.64 922.2C2222.05 922.2 2223.07 921.39 2223.07 919.26V908.46H2219.17V906.21H2231.23C2236.93 906.21 2240.38 908.52 2240.38 913.71V924H2237.53V913.71ZM2245.47 924V906.21H2248.32V924H2245.47ZM2264.47 914.4C2264.47 910.47 2262.7 908.46 2258.26 908.46H2251.99V906.21H2258.26C2264.71 906.21 2267.29 908.94 2267.29 914.4V924H2264.47V914.4ZM2272.39 924V906.21H2275.24V924H2272.39ZM2296.04 924C2292.62 919.77 2290.25 917.13 2286.8 913.71C2284.07 915.21 2282.66 916.83 2282.66 920.46V924H2279.84V920.82C2279.84 916.41 2282.39 913.8 2285.27 912.18C2283.26 910.05 2281.43 908.22 2279.21 906.21H2282.99C2286.14 909.18 2289.05 912.36 2291.72 915.33C2294.27 913.89 2294.9 912.84 2294.9 910.08V906.21H2297.78V909.63C2297.78 913.65 2295.65 915.51 2293.16 916.83C2295.35 919.2 2297.36 921.42 2299.4 924H2296.04ZM2310.94 917.4V906.21H2313.79V915.9L2310.94 917.4ZM2319 924V906.21H2321.85V924H2319ZM2326.51 924V921.72H2338.24V913.8C2338.24 910.38 2336.02 908.46 2332.6 908.46H2326.51V906.21H2332.81C2337.67 906.21 2341.09 908.64 2341.09 913.74V921.72H2343.88V924H2326.51ZM2346.13 917.4V906.21H2348.98V915.9L2346.13 917.4ZM2364.87 914.4C2364.87 910.47 2363.1 908.46 2358.66 908.46H2352.39V906.21H2358.66C2365.11 906.21 2367.69 908.94 2367.69 914.4V924H2364.87V914.4ZM2375.22 924L2383.26 908.46H2370.03V900.39H2372.85V906.21H2386.32V908.46L2378.28 924H2375.22ZM2409.55 914.4C2409.55 910.47 2407.78 908.46 2403.34 908.46H2397.07V906.21H2403.34C2409.79 906.21 2412.37 908.94 2412.37 914.4V924H2409.55V914.4ZM2417.44 924V921.72H2426.41C2430.76 921.72 2432.5 918.9 2432.5 915.09C2432.5 911.31 2430.76 908.46 2426.41 908.46H2419.96V911.67C2419.96 913.8 2420.59 914.61 2422.84 914.61H2424.19V916.77H2422.15C2419.09 916.77 2417.11 915.54 2417.11 911.61V906.21H2425.63C2432.41 906.21 2435.32 909.75 2435.32 915.09C2435.32 920.46 2432.41 924 2425.63 924H2417.44ZM2448.8 924.51C2441.42 924.51 2439.05 919.92 2439.05 915.09V906.21H2449.91C2455.19 906.21 2458.61 909.9 2458.61 915.15C2458.61 919.92 2456.21 924.51 2448.8 924.51ZM2448.8 922.23C2453.84 922.23 2455.76 918.96 2455.76 915.15C2455.76 911.07 2453.48 908.46 2449.22 908.46H2441.87V915.09C2441.87 918.96 2443.76 922.23 2448.8 922.23ZM2461.05 924V921.72H2472.78V913.8C2472.78 910.38 2470.56 908.46 2467.14 908.46H2461.05V906.21H2467.35C2472.21 906.21 2475.63 908.64 2475.63 913.74V921.72H2478.42V924H2461.05ZM2504.55 914.16C2504.55 909.63 2501.7 908.46 2498.25 908.46H2490.09V906.21H2498.46C2503.92 906.21 2507.37 908.46 2507.37 913.92V924H2504.55V914.16ZM2490.15 924V914.19L2493 912.72V924H2490.15ZM2522.13 914.4C2522.13 910.47 2520.36 908.46 2515.92 908.46H2509.65V906.21H2515.92C2522.37 906.21 2524.95 908.94 2524.95 914.4V924H2522.13V914.4ZM2530.06 924V906.21H2532.91V924H2530.06ZM2549.57 924.36C2541.2 924.36 2537.93 919.89 2537.93 913.74V906.21H2540.75V913.74C2540.75 914.46 2540.81 915.12 2540.93 915.78C2541.26 915.81 2541.62 915.84 2542.01 915.84C2544.89 915.84 2548.25 914.73 2548.25 910.86V906.21H2551.1V910.68C2551.1 915.51 2547.44 917.7 2542.25 917.7C2542.04 917.7 2541.77 917.7 2541.47 917.67C2542.7 920.52 2545.43 922.14 2549.57 922.14C2555.3 922.14 2558.33 918.96 2558.33 913.74V906.21H2561.18V913.74C2561.18 919.89 2557.88 924.36 2549.57 924.36ZM2574.1 924L2582.17 908.46H2565.76V906.21H2585.29V908.46L2577.16 924H2574.1ZM2566.33 930V913.62L2569.18 912.15V930H2566.33ZM2597.85 930V906.21H2600.7V930H2597.85ZM2603.44 910.95L2606.14 902.94H2608.54L2605.06 910.95H2603.44ZM2608.3 910.95L2611 902.94H2613.4L2609.92 910.95H2608.3ZM2615.89 917.4V906.21H2618.74V915.9L2615.89 917.4ZM2635.14 924.36C2626.77 924.36 2623.5 919.89 2623.5 913.74V906.21H2626.32V913.74C2626.32 914.46 2626.38 915.12 2626.5 915.78C2626.83 915.81 2627.19 915.84 2627.58 915.84C2630.46 915.84 2633.82 914.73 2633.82 910.86V906.21H2636.67V910.68C2636.67 915.51 2633.01 917.7 2627.82 917.7C2627.61 917.7 2627.34 917.7 2627.04 917.67C2628.27 920.52 2631 922.14 2635.14 922.14C2640.87 922.14 2643.9 918.96 2643.9 913.74V906.21H2646.75V913.74C2646.75 919.89 2643.45 924.36 2635.14 924.36ZM2665.8 914.16C2665.8 909.63 2662.95 908.46 2659.5 908.46H2651.34V906.21H2659.71C2665.17 906.21 2668.62 908.46 2668.62 913.92V924H2665.8V914.16ZM2651.4 924V914.19L2654.25 912.72V924H2651.4ZM1815.05 949.16C1815.05 944.63 1812.2 943.46 1808.75 943.46H1800.59V941.21H1808.96C1814.42 941.21 1817.87 943.46 1817.87 948.92V959H1815.05V949.16ZM1800.65 959V949.19L1803.5 947.72V959H1800.65ZM1833.87 959.51C1832.43 959.51 1831.44 959.27 1830.48 959V956.72C1831.35 957.08 1832.94 957.23 1833.96 957.23C1837.32 957.23 1840.05 954.74 1840.05 950.09C1840.05 945.86 1837.89 943.16 1834.41 943.16C1830.75 943.16 1827.81 946.16 1826.76 951.32L1825.14 959H1822.38L1823.97 951.59C1824.21 950.57 1824.3 949.91 1824.3 948.86C1824.3 947.03 1823.1 944.15 1821.87 941.21H1824.6C1825.29 942.86 1826.01 944.96 1826.37 946.19H1826.49C1827.6 943.7 1830.45 940.82 1834.59 940.82C1839.69 940.82 1842.93 944.75 1842.93 950.09C1842.93 956.51 1838.58 959.51 1833.87 959.51ZM1845.34 959V956.72H1851.04C1856.14 956.72 1858.18 954.05 1858.18 950.09C1858.18 946.16 1856.14 943.46 1851.04 943.46H1845.34V941.21H1851.67C1857.13 941.21 1861.03 944.24 1861.03 950.09C1861.03 955.97 1857.13 959 1851.67 959H1845.34ZM1871.24 964.31L1873.94 956.3H1876.34L1872.86 964.31H1871.24ZM1880.84 959V941.21H1890.11C1895.21 941.21 1899.14 943.46 1899.14 948.2V959H1880.84ZM1883.69 956.72H1896.29V948.38C1896.29 944.63 1893.05 943.46 1889.99 943.46H1883.69V956.72ZM1904.01 952.4V941.21H1906.86V950.9L1904.01 952.4ZM1923.26 959.36C1914.89 959.36 1911.62 954.89 1911.62 948.74V941.21H1914.44V948.74C1914.44 949.46 1914.5 950.12 1914.62 950.78C1914.95 950.81 1915.31 950.84 1915.7 950.84C1918.58 950.84 1921.94 949.73 1921.94 945.86V941.21H1924.79V945.68C1924.79 950.51 1921.13 952.7 1915.94 952.7C1915.73 952.7 1915.46 952.7 1915.16 952.67C1916.39 955.52 1919.12 957.14 1923.26 957.14C1928.99 957.14 1932.02 953.96 1932.02 948.74V941.21H1934.87V948.74C1934.87 954.89 1931.57 959.36 1923.26 959.36ZM1955.2 959C1951.78 954.77 1949.41 952.13 1945.96 948.71C1943.23 950.21 1941.82 951.83 1941.82 955.46V959H1939V955.82C1939 951.41 1941.55 948.8 1944.43 947.18C1942.42 945.05 1940.59 943.22 1938.37 941.21H1942.15C1945.3 944.18 1948.21 947.36 1950.88 950.33C1953.43 948.89 1954.06 947.84 1954.06 945.08V941.21H1956.94V944.63C1956.94 948.65 1954.81 950.51 1952.32 951.83C1954.51 954.2 1956.52 956.42 1958.56 959H1955.2ZM1972.79 949.4C1972.79 945.47 1971.02 943.46 1966.58 943.46H1960.31V941.21H1966.58C1973.03 941.21 1975.61 943.94 1975.61 949.4V959H1972.79V949.4ZM2002.98 949.16C2002.98 944.63 2000.13 943.46 1996.68 943.46H1988.52V941.21H1996.89C2002.35 941.21 2005.8 943.46 2005.8 948.92V959H2002.98V949.16ZM1988.58 959V949.19L1991.43 947.72V959H1988.58ZM2021.81 959.51C2020.37 959.51 2019.38 959.27 2018.42 959V956.72C2019.29 957.08 2020.88 957.23 2021.9 957.23C2025.26 957.23 2027.99 954.74 2027.99 950.09C2027.99 945.86 2025.83 943.16 2022.35 943.16C2018.69 943.16 2015.75 946.16 2014.7 951.32L2013.08 959H2010.32L2011.91 951.59C2012.15 950.57 2012.24 949.91 2012.24 948.86C2012.24 947.03 2011.04 944.15 2009.81 941.21H2012.54C2013.23 942.86 2013.95 944.96 2014.31 946.19H2014.43C2015.54 943.7 2018.39 940.82 2022.53 940.82C2027.63 940.82 2030.87 944.75 2030.87 950.09C2030.87 956.51 2026.52 959.51 2021.81 959.51ZM2033.28 959V956.72H2038.98C2044.08 956.72 2046.12 954.05 2046.12 950.09C2046.12 946.16 2044.08 943.46 2038.98 943.46H2033.28V941.21H2039.61C2045.07 941.21 2048.97 944.24 2048.97 950.09C2048.97 955.97 2045.07 959 2039.61 959H2033.28ZM2055.74 959L2063.78 943.46H2050.55V935.39H2053.37V941.21H2066.84V943.46L2058.8 959H2055.74ZM2079.14 952.4V941.21H2081.99V950.9L2079.14 952.4ZM2087.21 959V941.21H2096.63C2101.79 941.21 2105.51 943.46 2105.51 948.53V959H2102.66V949.16C2102.66 944.9 2100.08 943.46 2095.94 943.46H2090.06V959H2087.21ZM2117.89 962.33V959.81L2123.62 957.32L2118.25 941.21H2121.19L2125.24 953.12C2125.57 954.02 2125.9 955.16 2126.17 956.21C2131.06 953.93 2132.23 951.89 2132.23 948.32V941.21H2135.02V947.39C2135.02 953.18 2133.25 955.55 2125.06 959.18L2117.89 962.33ZM2140.06 959V956.72H2149.03C2153.38 956.72 2155.12 953.9 2155.12 950.09C2155.12 946.31 2153.38 943.46 2149.03 943.46H2142.58V946.67C2142.58 948.8 2143.21 949.61 2145.46 949.61H2146.81V951.77H2144.77C2141.71 951.77 2139.73 950.54 2139.73 946.61V941.21H2148.25C2155.03 941.21 2157.94 944.75 2157.94 950.09C2157.94 955.46 2155.03 959 2148.25 959H2140.06ZM2173.31 959.36C2164.94 959.36 2161.67 954.89 2161.67 948.74V941.21H2164.49V948.74C2164.49 949.46 2164.55 950.12 2164.67 950.78C2165 950.81 2165.36 950.84 2165.75 950.84C2168.63 950.84 2171.99 949.73 2171.99 945.86V941.21H2174.84V945.68C2174.84 950.51 2171.18 952.7 2165.99 952.7C2165.78 952.7 2165.51 952.7 2165.21 952.67C2166.44 955.52 2169.17 957.14 2173.31 957.14C2179.04 957.14 2182.07 953.96 2182.07 948.74V941.21H2184.92V948.74C2184.92 954.89 2181.62 959.36 2173.31 959.36ZM2201.78 959L2209.82 943.46H2196.59V935.39H2199.41V941.21H2212.88V943.46L2204.84 959H2201.78ZM2228.39 959.36C2220.02 959.36 2216.75 954.89 2216.75 948.74V941.21H2219.57V948.74C2219.57 949.46 2219.63 950.12 2219.75 950.78C2220.08 950.81 2220.44 950.84 2220.83 950.84C2223.71 950.84 2227.07 949.73 2227.07 945.86V941.21H2229.92V945.68C2229.92 950.51 2226.26 952.7 2221.07 952.7C2220.86 952.7 2220.59 952.7 2220.29 952.67C2221.52 955.52 2224.25 957.14 2228.39 957.14C2234.12 957.14 2237.15 953.96 2237.15 948.74V941.21H2240V948.74C2240 954.89 2236.7 959.36 2228.39 959.36ZM2270.78 948.71C2270.78 945.02 2268.26 943.46 2264.45 943.46H2259.14V954.26C2259.14 957.53 2257.43 959.39 2254.49 959.39C2252.96 959.39 2252.24 959.18 2251.76 959V956.72C2252.36 957.02 2253.11 957.2 2253.89 957.2C2255.3 957.2 2256.32 956.39 2256.32 954.26V943.46H2252.42V941.21H2264.48C2270.18 941.21 2273.63 943.52 2273.63 948.71V959H2270.78V948.71ZM2278.72 959V941.21H2281.57V959H2278.72ZM2286.2 959V956.72H2299.34L2284.97 941.21H2288.42L2296.79 950.15C2299.01 949.07 2299.91 947.93 2299.91 945.32V941.21H2302.73V944.54C2302.73 948.86 2300.39 950.6 2298.14 951.71L2302.91 956.84V959H2286.2ZM2318.14 949.4C2318.14 945.47 2316.37 943.46 2311.93 943.46H2305.66V941.21H2311.93C2318.38 941.21 2320.96 943.94 2320.96 949.4V959H2318.14V949.4ZM2326.03 959V956.72H2335C2339.35 956.72 2341.09 953.9 2341.09 950.09C2341.09 946.31 2339.35 943.46 2335 943.46H2328.55V946.67C2328.55 948.8 2329.18 949.61 2331.43 949.61H2332.78V951.77H2330.74C2327.68 951.77 2325.7 950.54 2325.7 946.61V941.21H2334.22C2341 941.21 2343.91 944.75 2343.91 950.09C2343.91 955.46 2341 959 2334.22 959H2326.03ZM2364.71 948.71C2364.71 945.02 2362.19 943.46 2358.38 943.46H2353.07V954.26C2353.07 957.53 2351.36 959.39 2348.42 959.39C2346.89 959.39 2346.17 959.18 2345.69 959V956.72C2346.29 957.02 2347.04 957.2 2347.82 957.2C2349.23 957.2 2350.25 956.39 2350.25 954.26V943.46H2346.35V941.21H2358.41C2364.11 941.21 2367.56 943.52 2367.56 948.71V959H2364.71V948.71ZM2386.69 949.16C2386.69 944.63 2383.84 943.46 2380.39 943.46H2372.23V941.21H2380.6C2386.06 941.21 2389.51 943.46 2389.51 948.92V959H2386.69V949.16ZM2372.29 959V949.19L2375.14 947.72V959H2372.29ZM2420.4 948.71C2420.4 945.02 2417.88 943.46 2414.07 943.46H2408.76V954.26C2408.76 957.53 2407.05 959.39 2404.11 959.39C2402.58 959.39 2401.86 959.18 2401.38 959V956.72C2401.98 957.02 2402.73 957.2 2403.51 957.2C2404.92 957.2 2405.94 956.39 2405.94 954.26V943.46H2402.04V941.21H2414.1C2419.8 941.21 2423.25 943.52 2423.25 948.71V959H2420.4V948.71ZM2443.67 959C2440.25 954.77 2437.88 952.13 2434.43 948.71C2431.7 950.21 2430.29 951.83 2430.29 955.46V959H2427.47V955.82C2427.47 951.41 2430.02 948.8 2432.9 947.18C2430.89 945.05 2429.06 943.22 2426.84 941.21H2430.62C2433.77 944.18 2436.68 947.36 2439.35 950.33C2441.9 948.89 2442.53 947.84 2442.53 945.08V941.21H2445.41V944.63C2445.41 948.65 2443.28 950.51 2440.79 951.83C2442.98 954.2 2444.99 956.42 2447.03 959H2443.67ZM2459.97 959.45C2453.13 959.45 2450.13 955.34 2450.13 950.09V941.21H2452.95V950.09C2452.95 954.38 2455.47 957.23 2459.97 957.23C2464.29 957.23 2466.99 954.38 2466.99 950.09C2466.99 944.66 2463.54 942.98 2460.96 942.98C2459.52 942.98 2458.26 943.19 2457.3 943.46V941.21C2458.29 940.97 2459.76 940.7 2461.26 940.7C2464.56 940.7 2469.84 942.5 2469.84 950.09C2469.84 955.34 2466.69 959.45 2459.97 959.45ZM2472.27 959V956.72H2484V948.8C2484 945.38 2481.78 943.46 2478.36 943.46H2472.27V941.21H2478.57C2483.43 941.21 2486.85 943.64 2486.85 948.74V956.72H2489.64V959H2472.27ZM2504.39 959.51C2502.95 959.51 2501.96 959.27 2501 959V956.72C2501.87 957.08 2503.46 957.23 2504.48 957.23C2507.84 957.23 2510.57 954.74 2510.57 950.09C2510.57 945.86 2508.41 943.16 2504.93 943.16C2501.27 943.16 2498.33 946.16 2497.28 951.32L2495.66 959H2492.9L2494.49 951.59C2494.73 950.57 2494.82 949.91 2494.82 948.86C2494.82 947.03 2493.62 944.15 2492.39 941.21H2495.12C2495.81 942.86 2496.53 944.96 2496.89 946.19H2497.01C2498.12 943.7 2500.97 940.82 2505.11 940.82C2510.21 940.82 2513.45 944.75 2513.45 950.09C2513.45 956.51 2509.1 959.51 2504.39 959.51ZM2541.17 959C2537.75 954.77 2535.38 952.13 2531.93 948.71C2529.2 950.21 2527.79 951.83 2527.79 955.46V959H2524.97V955.82C2524.97 951.41 2527.52 948.8 2530.4 947.18C2528.39 945.05 2526.56 943.22 2524.34 941.21H2528.12C2531.27 944.18 2534.18 947.36 2536.85 950.33C2539.4 948.89 2540.03 947.84 2540.03 945.08V941.21H2542.91V944.63C2542.91 948.65 2540.78 950.51 2538.29 951.83C2540.48 954.2 2542.49 956.42 2544.53 959H2541.17ZM2547.84 952.4V941.21H2550.69V950.9L2547.84 952.4ZM2569.94 949.16C2569.94 944.63 2567.09 943.46 2563.64 943.46H2555.48V941.21H2563.85C2569.31 941.21 2572.76 943.46 2572.76 948.92V959H2569.94V949.16ZM2555.54 959V949.19L2558.39 947.72V959H2555.54ZM2587.87 959.12C2587 959.12 2586.07 958.61 2586.07 957.62C2586.07 956.72 2586.94 956.18 2587.87 956.18C2588.8 956.18 2589.64 956.72 2589.64 957.62C2589.64 958.61 2588.8 959.12 2587.87 959.12ZM2602.32 949.4C2602.32 945.47 2600.55 943.46 2596.11 943.46H2589.84V941.21H2596.11C2602.56 941.21 2605.14 943.94 2605.14 949.4V959H2602.32V949.4ZM2610.24 959V941.21H2613.09V959H2610.24ZM2629.24 949.4C2629.24 945.47 2627.47 943.46 2623.03 943.46H2616.76V941.21H2623.03C2629.48 941.21 2632.06 943.94 2632.06 949.4V959H2629.24V949.4ZM2636.93 952.4V941.21H2639.78V950.9L2636.93 952.4ZM2644.18 959V956.72H2655.91V948.8C2655.91 945.38 2653.69 943.46 2650.27 943.46H2644.18V941.21H2650.48C2655.34 941.21 2658.76 943.64 2658.76 948.74V956.72H2661.55V959H2644.18ZM2665.41 959V941.21H2668.26V959H2665.41ZM1751.47 983.71C1751.47 980.02 1748.95 978.46 1745.14 978.46H1739.83V989.26C1739.83 992.53 1738.12 994.39 1735.18 994.39C1733.65 994.39 1732.93 994.18 1732.45 994V991.72C1733.05 992.02 1733.8 992.2 1734.58 992.2C1735.99 992.2 1737.01 991.39 1737.01 989.26V978.46H1733.11V976.21H1745.17C1750.87 976.21 1754.32 978.52 1754.32 983.71V994H1751.47V983.71ZM1759.4 994V976.21H1762.25V994H1759.4ZM1783.05 994C1779.63 989.77 1777.26 987.13 1773.81 983.71C1771.08 985.21 1769.67 986.83 1769.67 990.46V994H1766.85V990.82C1766.85 986.41 1769.4 983.8 1772.28 982.18C1770.27 980.05 1768.44 978.22 1766.22 976.21H1770C1773.15 979.18 1776.06 982.36 1778.73 985.33C1781.28 983.89 1781.91 982.84 1781.91 980.08V976.21H1784.79V979.63C1784.79 983.65 1782.66 985.51 1780.17 986.83C1782.36 989.2 1784.37 991.42 1786.41 994H1783.05ZM1813.52 994C1810.1 989.77 1807.73 987.13 1804.28 983.71C1801.55 985.21 1800.14 986.83 1800.14 990.46V994H1797.32V990.82C1797.32 986.41 1799.87 983.8 1802.75 982.18C1800.74 980.05 1798.91 978.22 1796.69 976.21H1800.47C1803.62 979.18 1806.53 982.36 1809.2 985.33C1811.75 983.89 1812.38 982.84 1812.38 980.08V976.21H1815.26V979.63C1815.26 983.65 1813.13 985.51 1810.64 986.83C1812.83 989.2 1814.84 991.42 1816.88 994H1813.52ZM1820.19 987.4V976.21H1823.04V985.9L1820.19 987.4ZM1842.29 984.16C1842.29 979.63 1839.44 978.46 1835.99 978.46H1827.83V976.21H1836.2C1841.66 976.21 1845.11 978.46 1845.11 983.92V994H1842.29V984.16ZM1827.89 994V984.19L1830.74 982.72V994H1827.89ZM1858.46 1000V976.21H1861.31V1000H1858.46ZM1865.97 994V991.72H1871.67C1876.77 991.72 1878.81 989.05 1878.81 985.09C1878.81 981.16 1876.77 978.46 1871.67 978.46H1865.97V976.21H1872.3C1877.76 976.21 1881.66 979.24 1881.66 985.09C1881.66 990.97 1877.76 994 1872.3 994H1865.97ZM1888.42 994L1896.46 978.46H1883.23V970.39H1886.05V976.21H1899.52V978.46L1891.48 994H1888.42ZM1913.84 994.12C1912.97 994.12 1912.04 993.61 1912.04 992.62C1912.04 991.72 1912.91 991.18 1913.84 991.18C1914.77 991.18 1915.61 991.72 1915.61 992.62C1915.61 993.61 1914.77 994.12 1913.84 994.12ZM1938.58 983.71C1938.58 980.02 1936.06 978.46 1932.25 978.46H1926.94V989.26C1926.94 992.53 1925.23 994.39 1922.29 994.39C1920.76 994.39 1920.04 994.18 1919.56 994V991.72C1920.16 992.02 1920.91 992.2 1921.69 992.2C1923.1 992.2 1924.12 991.39 1924.12 989.26V978.46H1920.22V976.21H1932.28C1937.98 976.21 1941.43 978.52 1941.43 983.71V994H1938.58V983.71ZM1946.52 994V976.21H1955.94C1961.1 976.21 1964.82 978.46 1964.82 983.53V994H1961.97V984.16C1961.97 979.9 1959.39 978.46 1955.25 978.46H1949.37V994H1946.52ZM1985.26 994C1981.84 989.77 1979.47 987.13 1976.02 983.71C1973.29 985.21 1971.88 986.83 1971.88 990.46V994H1969.06V990.82C1969.06 986.41 1971.61 983.8 1974.49 982.18C1972.48 980.05 1970.65 978.22 1968.43 976.21H1972.21C1975.36 979.18 1978.27 982.36 1980.94 985.33C1983.49 983.89 1984.12 982.84 1984.12 980.08V976.21H1987V979.63C1987 983.65 1984.87 985.51 1982.38 986.83C1984.57 989.2 1986.58 991.42 1988.62 994H1985.26ZM2017.95 983.71C2017.95 980.02 2015.43 978.46 2011.62 978.46H2006.31V989.26C2006.31 992.53 2004.6 994.39 2001.66 994.39C2000.13 994.39 1999.41 994.18 1998.93 994V991.72C1999.53 992.02 2000.28 992.2 2001.06 992.2C2002.47 992.2 2003.49 991.39 2003.49 989.26V978.46H1999.59V976.21H2011.65C2017.35 976.21 2020.8 978.52 2020.8 983.71V994H2017.95V983.71ZM2025.89 994V976.21H2028.74V994H2025.89ZM2043.6 994V978.46H2032.41V976.21H2049.69V978.46H2046.42V994H2043.6ZM2053.95 994V976.21H2063.37C2068.53 976.21 2072.25 978.46 2072.25 983.53V994H2069.4V984.16C2069.4 979.9 2066.82 978.46 2062.68 978.46H2056.8V994H2053.95ZM2092.69 994C2089.27 989.77 2086.9 987.13 2083.45 983.71C2080.72 985.21 2079.31 986.83 2079.31 990.46V994H2076.49V990.82C2076.49 986.41 2079.04 983.8 2081.92 982.18C2079.91 980.05 2078.08 978.22 2075.86 976.21H2079.64C2082.79 979.18 2085.7 982.36 2088.37 985.33C2090.92 983.89 2091.55 982.84 2091.55 980.08V976.21H2094.43V979.63C2094.43 983.65 2092.3 985.51 2089.81 986.83C2092 989.2 2094.01 991.42 2096.05 994H2092.69ZM2118.45 984.4C2118.45 980.47 2116.68 978.46 2112.21 978.46H2106.03V976.21H2112.21C2118.66 976.21 2121.27 978.94 2121.27 984.4V1000H2118.45V984.4ZM2126.38 994V976.21H2129.23V994H2126.38ZM2152.25 983.71C2152.25 980.02 2149.73 978.46 2145.92 978.46H2140.61V989.26C2140.61 992.53 2138.9 994.39 2135.96 994.39C2134.43 994.39 2133.71 994.18 2133.23 994V991.72C2133.83 992.02 2134.58 992.2 2135.36 992.2C2136.77 992.2 2137.79 991.39 2137.79 989.26V978.46H2133.89V976.21H2145.95C2151.65 976.21 2155.1 978.52 2155.1 983.71V994H2152.25V983.71ZM2171.08 994.51C2169.64 994.51 2168.65 994.27 2167.69 994V991.72C2168.56 992.08 2170.15 992.23 2171.17 992.23C2174.53 992.23 2177.26 989.74 2177.26 985.09C2177.26 980.86 2175.1 978.16 2171.62 978.16C2167.96 978.16 2165.02 981.16 2163.97 986.32L2162.35 994H2159.59L2161.18 986.59C2161.42 985.57 2161.51 984.91 2161.51 983.86C2161.51 982.03 2160.31 979.15 2159.08 976.21H2161.81C2162.5 977.86 2163.22 979.96 2163.58 981.19H2163.7C2164.81 978.7 2167.66 975.82 2171.8 975.82C2176.9 975.82 2180.14 979.75 2180.14 985.09C2180.14 991.51 2175.79 994.51 2171.08 994.51ZM2192.53 1000V976.21H2195.38V1000H2192.53ZM2200.61 987.4V976.21H2203.46V985.9L2200.61 987.4ZM2208.43 987.4V976.21H2211.28V985.9L2208.43 987.4ZM2225.88 994V978.46H2214.69V976.21H2231.97V978.46H2228.7V994H2225.88ZM2234.58 997.33V994.81L2240.31 992.32L2234.94 976.21H2237.88L2241.93 988.12C2242.26 989.02 2242.59 990.16 2242.86 991.21C2247.75 988.93 2248.92 986.89 2248.92 983.32V976.21H2251.71V982.39C2251.71 988.18 2249.94 990.55 2241.75 994.18L2234.58 997.33ZM2256.78 994V976.21H2259.63V994H2256.78ZM2271.14 999.31L2273.84 991.3H2276.24L2272.76 999.31H2271.14ZM2294.78 984.16C2294.78 979.63 2291.93 978.46 2288.48 978.46H2280.32V976.21H2288.69C2294.15 976.21 2297.6 978.46 2297.6 983.92V994H2294.78V984.16ZM2280.38 994V984.19L2283.23 982.72V994H2280.38ZM2301.2 997.33V994.81L2306.93 992.32L2301.56 976.21H2304.5L2308.55 988.12C2308.88 989.02 2309.21 990.16 2309.48 991.21C2314.37 988.93 2315.54 986.89 2315.54 983.32V976.21H2318.33V982.39C2318.33 988.18 2316.56 990.55 2308.37 994.18L2301.2 997.33ZM2323.37 994V991.72H2332.34C2336.69 991.72 2338.43 988.9 2338.43 985.09C2338.43 981.31 2336.69 978.46 2332.34 978.46H2325.89V981.67C2325.89 983.8 2326.52 984.61 2328.77 984.61H2330.12V986.77H2328.08C2325.02 986.77 2323.04 985.54 2323.04 981.61V976.21H2331.56C2338.34 976.21 2341.25 979.75 2341.25 985.09C2341.25 990.46 2338.34 994 2331.56 994H2323.37ZM2345.43 994V976.21H2348.28V994H2345.43ZM2367.79 984.16C2367.79 979.63 2364.94 978.46 2361.49 978.46H2353.33V976.21H2361.7C2367.16 976.21 2370.61 978.46 2370.61 983.92V994H2367.79V984.16ZM2353.39 994V984.19L2356.24 982.72V994H2353.39ZM2383.71 987.4V976.21H2386.56V985.9L2383.71 987.4ZM2390.97 994V991.72H2397.66V982.27C2397.66 979.9 2396.64 978.46 2394.27 978.46H2391.27V976.21H2394.21C2398.32 976.21 2400.51 978.19 2400.51 982.21V994H2390.97ZM2405.61 994V976.21H2408.46V994H2405.61ZM2413.93 994V976.21H2416.78V994H2413.93ZM2422.01 987.4V976.21H2424.86V985.9L2422.01 987.4ZM2429.26 994V991.72H2434.96C2440.06 991.72 2442.1 989.05 2442.1 985.09C2442.1 981.16 2440.06 978.46 2434.96 978.46H2429.26V976.21H2435.59C2441.05 976.21 2444.95 979.24 2444.95 985.09C2444.95 990.97 2441.05 994 2435.59 994H2429.26ZM2471.38 984.16C2471.38 979.63 2468.53 978.46 2465.08 978.46H2456.92V976.21H2465.29C2470.75 976.21 2474.2 978.46 2474.2 983.92V994H2471.38V984.16ZM2456.98 994V984.19L2459.83 982.72V994H2456.98ZM2490.21 994.51C2488.77 994.51 2487.78 994.27 2486.82 994V991.72C2487.69 992.08 2489.28 992.23 2490.3 992.23C2493.66 992.23 2496.39 989.74 2496.39 985.09C2496.39 980.86 2494.23 978.16 2490.75 978.16C2487.09 978.16 2484.15 981.16 2483.1 986.32L2481.48 994H2478.72L2480.31 986.59C2480.55 985.57 2480.64 984.91 2480.64 983.86C2480.64 982.03 2479.44 979.15 2478.21 976.21H2480.94C2481.63 977.86 2482.35 979.96 2482.71 981.19H2482.83C2483.94 978.7 2486.79 975.82 2490.93 975.82C2496.03 975.82 2499.27 979.75 2499.27 985.09C2499.27 991.51 2494.92 994.51 2490.21 994.51ZM2501.68 994V991.72H2507.38C2512.48 991.72 2514.52 989.05 2514.52 985.09C2514.52 981.16 2512.48 978.46 2507.38 978.46H2501.68V976.21H2508.01C2513.47 976.21 2517.37 979.24 2517.37 985.09C2517.37 990.97 2513.47 994 2508.01 994H2501.68ZM2527.58 999.31L2530.28 991.3H2532.68L2529.2 999.31H2527.58ZM2545.45 984.4C2545.45 980.47 2543.68 978.46 2539.24 978.46H2532.97V976.21H2539.24C2545.69 976.21 2548.27 978.94 2548.27 984.4V994H2545.45V984.4ZM2553.38 994V976.21H2556.23V994H2553.38ZM2577.03 994C2573.61 989.77 2571.24 987.13 2567.79 983.71C2565.06 985.21 2563.65 986.83 2563.65 990.46V994H2560.83V990.82C2560.83 986.41 2563.38 983.8 2566.26 982.18C2564.25 980.05 2562.42 978.22 2560.2 976.21H2563.98C2567.13 979.18 2570.04 982.36 2572.71 985.33C2575.26 983.89 2575.89 982.84 2575.89 980.08V976.21H2578.77V979.63C2578.77 983.65 2576.64 985.51 2574.15 986.83C2576.34 989.2 2578.35 991.42 2580.39 994H2577.03ZM2582.59 978.52V976.21H2591.95V978.52H2582.59ZM2613.61 983.71C2613.61 980.02 2611.09 978.46 2607.28 978.46H2601.97V989.26C2601.97 992.53 2600.26 994.39 2597.32 994.39C2595.79 994.39 2595.07 994.18 2594.59 994V991.72C2595.19 992.02 2595.94 992.2 2596.72 992.2C2598.13 992.2 2599.15 991.39 2599.15 989.26V978.46H2595.25V976.21H2607.31C2613.01 976.21 2616.46 978.52 2616.46 983.71V994H2613.61V983.71ZM2621.55 994V976.21H2624.4V994H2621.55ZM2629.03 994V991.72H2642.17L2627.8 976.21H2631.25L2639.62 985.15C2641.84 984.07 2642.74 982.93 2642.74 980.32V976.21H2645.56V979.54C2645.56 983.86 2643.22 985.6 2640.97 986.71L2645.74 991.84V994H2629.03ZM2658.21 994L2666.28 978.46H2649.87V976.21H2669.4V978.46L2661.27 994H2658.21ZM2650.44 1000V983.62L2653.29 982.15V1000H2650.44ZM1727.28 1029.12C1726.41 1029.12 1725.48 1028.61 1725.48 1027.62C1725.48 1026.72 1726.35 1026.18 1727.28 1026.18C1728.21 1026.18 1729.05 1026.72 1729.05 1027.62C1729.05 1028.61 1728.21 1029.12 1727.28 1029.12ZM1734.47 1035V1011.21H1737.32V1035H1734.47ZM1741.92 1026.45C1744.14 1024.95 1745.64 1023.78 1746.9 1022.34C1748.37 1020.66 1748.85 1019.4 1748.85 1017.63V1017.36C1748.85 1015.02 1747.53 1013.46 1744.74 1013.46H1742.28V1011.21H1745.13C1748.61 1011.21 1751.4 1012.65 1751.4 1016.58V1019.85C1751.4 1023.99 1751.7 1026.03 1752.27 1029H1749.36C1749.15 1027.68 1748.82 1025.31 1748.76 1022.64H1748.64C1747.47 1025.64 1743.75 1028.76 1741.92 1029.75V1026.45ZM1766.95 1019.4C1766.95 1015.47 1765.18 1013.46 1760.74 1013.46H1754.47V1011.21H1760.74C1767.19 1011.21 1769.77 1013.94 1769.77 1019.4V1029H1766.95V1019.4ZM1774.87 1029V1011.21H1777.72V1029H1774.87ZM1798.52 1029C1795.1 1024.77 1792.73 1022.13 1789.28 1018.71C1786.55 1020.21 1785.14 1021.83 1785.14 1025.46V1029H1782.32V1025.82C1782.32 1021.41 1784.87 1018.8 1787.75 1017.18C1785.74 1015.05 1783.91 1013.22 1781.69 1011.21H1785.47C1788.62 1014.18 1791.53 1017.36 1794.2 1020.33C1796.75 1018.89 1797.38 1017.84 1797.38 1015.08V1011.21H1800.26V1014.63C1800.26 1018.65 1798.13 1020.51 1795.64 1021.83C1797.83 1024.2 1799.84 1026.42 1801.88 1029H1798.52ZM1816.64 1029.51C1815.2 1029.51 1814.21 1029.27 1813.25 1029V1026.72C1814.12 1027.08 1815.71 1027.23 1816.73 1027.23C1820.09 1027.23 1822.82 1024.74 1822.82 1020.09C1822.82 1015.86 1820.66 1013.16 1817.18 1013.16C1813.52 1013.16 1810.58 1016.16 1809.53 1021.32L1807.91 1029H1805.15L1806.74 1021.59C1806.98 1020.57 1807.07 1019.91 1807.07 1018.86C1807.07 1017.03 1805.87 1014.15 1804.64 1011.21H1807.37C1808.06 1012.86 1808.78 1014.96 1809.14 1016.19H1809.26C1810.37 1013.7 1813.22 1010.82 1817.36 1010.82C1822.46 1010.82 1825.7 1014.75 1825.7 1020.09C1825.7 1026.51 1821.35 1029.51 1816.64 1029.51ZM1837.86 1022.4V1011.21H1840.71V1020.9L1837.86 1022.4ZM1845.92 1029V1011.21H1848.77V1029H1845.92ZM1853.43 1029V1026.72H1865.16V1018.8C1865.16 1015.38 1862.94 1013.46 1859.52 1013.46H1853.43V1011.21H1859.73C1864.59 1011.21 1868.01 1013.64 1868.01 1018.74V1026.72H1870.8V1029H1853.43ZM1873.04 1022.4V1011.21H1875.89V1020.9L1873.04 1022.4ZM1891.78 1019.4C1891.78 1015.47 1890.01 1013.46 1885.57 1013.46H1879.3V1011.21H1885.57C1892.02 1011.21 1894.6 1013.94 1894.6 1019.4V1029H1891.78V1019.4ZM1907.94 1029V1011.21H1917.21C1922.31 1011.21 1926.24 1013.46 1926.24 1018.2V1029H1907.94ZM1910.79 1026.72H1923.39V1018.38C1923.39 1014.63 1920.15 1013.46 1917.09 1013.46H1910.79V1026.72ZM1930.48 1026.45C1932.7 1024.95 1934.2 1023.78 1935.46 1022.34C1936.93 1020.66 1937.41 1019.4 1937.41 1017.63V1017.36C1937.41 1015.02 1936.09 1013.46 1933.3 1013.46H1930.84V1011.21H1933.69C1937.17 1011.21 1939.96 1012.65 1939.96 1016.58V1019.85C1939.96 1023.99 1940.26 1026.03 1940.83 1029H1937.92C1937.71 1027.68 1937.38 1025.31 1937.32 1022.64H1937.2C1936.03 1025.64 1932.31 1028.76 1930.48 1029.75V1026.45ZM1945.53 1029V1011.21H1948.38V1029H1945.53ZM1972.76 1019.4C1972.76 1015.47 1970.99 1013.46 1966.55 1013.46H1960.28V1011.21H1966.55C1973 1011.21 1975.58 1013.94 1975.58 1019.4V1029H1972.76V1019.4ZM1990.34 1019.4C1990.34 1015.47 1988.57 1013.46 1984.13 1013.46H1977.86V1011.21H1984.13C1990.58 1011.21 1993.16 1013.94 1993.16 1019.4V1029H1990.34V1019.4ZM1997.45 1029V1026.72H2009.18V1018.8C2009.18 1015.38 2006.96 1013.46 2003.54 1013.46H1997.45V1011.21H2003.75C2008.61 1011.21 2012.03 1013.64 2012.03 1018.74V1026.72H2014.82V1029H1997.45ZM2029.57 1029.51C2028.13 1029.51 2027.14 1029.27 2026.18 1029V1026.72C2027.05 1027.08 2028.64 1027.23 2029.66 1027.23C2033.02 1027.23 2035.75 1024.74 2035.75 1020.09C2035.75 1015.86 2033.59 1013.16 2030.11 1013.16C2026.45 1013.16 2023.51 1016.16 2022.46 1021.32L2020.84 1029H2018.08L2019.67 1021.59C2019.91 1020.57 2020 1019.91 2020 1018.86C2020 1017.03 2018.8 1014.15 2017.57 1011.21H2020.3C2020.99 1012.86 2021.71 1014.96 2022.07 1016.19H2022.19C2023.3 1013.7 2026.15 1010.82 2030.29 1010.82C2035.39 1010.82 2038.63 1014.75 2038.63 1020.09C2038.63 1026.51 2034.28 1029.51 2029.57 1029.51ZM2042.79 1029V1011.21H2045.64V1029H2042.79ZM2070.03 1019.4C2070.03 1015.47 2068.26 1013.46 2063.82 1013.46H2057.55V1011.21H2063.82C2070.27 1011.21 2072.85 1013.94 2072.85 1019.4V1029H2070.03V1019.4ZM2086.31 1029V1013.46H2075.12V1011.21H2092.4V1013.46H2089.13V1029H2086.31ZM2096.67 1029V1011.21H2099.52V1029H2096.67ZM2104.99 1029V1011.21H2114.41C2119.57 1011.21 2123.29 1013.46 2123.29 1018.53V1029H2120.44V1019.16C2120.44 1014.9 2117.86 1013.46 2113.72 1013.46H2107.84V1029H2104.99ZM2136.63 1029V1011.21H2146.05C2151.21 1011.21 2154.93 1013.46 2154.93 1018.53V1029H2152.08V1019.16C2152.08 1014.9 2149.5 1013.46 2145.36 1013.46H2139.48V1029H2136.63ZM2160.04 1029V1011.21H2162.89V1029H2160.04ZM2167.55 1029V1026.72H2173.25C2178.35 1026.72 2180.39 1024.05 2180.39 1020.09C2180.39 1016.16 2178.35 1013.46 2173.25 1013.46H2167.55V1011.21H2173.88C2179.34 1011.21 2183.24 1014.24 2183.24 1020.09C2183.24 1025.97 2179.34 1029 2173.88 1029H2167.55ZM2195.63 1029V1011.21H2204.9C2210 1011.21 2213.93 1013.46 2213.93 1018.2V1029H2195.63ZM2198.48 1026.72H2211.08V1018.38C2211.08 1014.63 2207.84 1013.46 2204.78 1013.46H2198.48V1026.72ZM2218.17 1026.45C2220.39 1024.95 2221.89 1023.78 2223.15 1022.34C2224.62 1020.66 2225.1 1019.4 2225.1 1017.63V1017.36C2225.1 1015.02 2223.78 1013.46 2220.99 1013.46H2218.53V1011.21H2221.38C2224.86 1011.21 2227.65 1012.65 2227.65 1016.58V1019.85C2227.65 1023.99 2227.95 1026.03 2228.52 1029H2225.61C2225.4 1027.68 2225.07 1025.31 2225.01 1022.64H2224.89C2223.72 1025.64 2220 1028.76 2218.17 1029.75V1026.45ZM2239.26 1034.31L2241.96 1026.3H2244.36L2240.88 1034.31H2239.26ZM2262.91 1019.16C2262.91 1014.63 2260.06 1013.46 2256.61 1013.46H2248.45V1011.21H2256.82C2262.28 1011.21 2265.73 1013.46 2265.73 1018.92V1029H2262.91V1019.16ZM2248.51 1029V1019.19L2251.36 1017.72V1029H2248.51ZM2270.03 1029V1026.72H2276.72V1017.27C2276.72 1014.9 2275.7 1013.46 2273.33 1013.46H2270.33V1011.21H2273.27C2277.38 1011.21 2279.57 1013.19 2279.57 1017.21V1029H2270.03ZM2284.67 1029V1011.21H2287.52V1029H2284.67ZM2292.18 1029V1026.72H2303.91V1018.8C2303.91 1015.38 2301.69 1013.46 2298.27 1013.46H2292.18V1011.21H2298.48C2303.34 1011.21 2306.76 1013.64 2306.76 1018.74V1026.72H2309.55V1029H2292.18ZM2321.64 1029V1011.21H2331.06C2336.22 1011.21 2339.94 1013.46 2339.94 1018.53V1029H2337.09V1019.16C2337.09 1014.9 2334.51 1013.46 2330.37 1013.46H2324.49V1029H2321.64ZM2345.05 1029V1011.21H2347.9V1029H2345.05ZM2352.56 1029V1026.72H2358.26C2363.36 1026.72 2365.4 1024.05 2365.4 1020.09C2365.4 1016.16 2363.36 1013.46 2358.26 1013.46H2352.56V1011.21H2358.89C2364.35 1011.21 2368.25 1014.24 2368.25 1020.09C2368.25 1025.97 2364.35 1029 2358.89 1029H2352.56ZM2380.64 1029V1011.21H2389.91C2395.01 1011.21 2398.94 1013.46 2398.94 1018.2V1029H2380.64ZM2383.49 1026.72H2396.09V1018.38C2396.09 1014.63 2392.85 1013.46 2389.79 1013.46H2383.49V1026.72ZM2403.18 1026.45C2405.4 1024.95 2406.9 1023.78 2408.16 1022.34C2409.63 1020.66 2410.11 1019.4 2410.11 1017.63V1017.36C2410.11 1015.02 2408.79 1013.46 2406 1013.46H2403.54V1011.21H2406.39C2409.87 1011.21 2412.66 1012.65 2412.66 1016.58V1019.85C2412.66 1023.99 2412.96 1026.03 2413.53 1029H2410.62C2410.41 1027.68 2410.08 1025.31 2410.02 1022.64H2409.9C2408.73 1025.64 2405.01 1028.76 2403.18 1029.75V1026.45ZM2440.5 1019.16C2440.5 1014.63 2437.65 1013.46 2434.2 1013.46H2426.04V1011.21H2434.41C2439.87 1011.21 2443.32 1013.46 2443.32 1018.92V1029H2440.5V1019.16ZM2426.1 1029V1019.19L2428.95 1017.72V1029H2426.1ZM2447.63 1029V1026.72H2459.36V1018.8C2459.36 1015.38 2457.14 1013.46 2453.72 1013.46H2447.63V1011.21H2453.93C2458.79 1011.21 2462.21 1013.64 2462.21 1018.74V1026.72H2465V1029H2447.63ZM2488.28 1029.36C2479.91 1029.36 2476.64 1024.89 2476.64 1018.74V1011.21H2479.46V1018.74C2479.46 1019.46 2479.52 1020.12 2479.64 1020.78C2479.97 1020.81 2480.33 1020.84 2480.72 1020.84C2483.6 1020.84 2486.96 1019.73 2486.96 1015.86V1011.21H2489.81V1015.68C2489.81 1020.51 2486.15 1022.7 2480.96 1022.7C2480.75 1022.7 2480.48 1022.7 2480.18 1022.67C2481.41 1025.52 2484.14 1027.14 2488.28 1027.14C2494.01 1027.14 2497.04 1023.96 2497.04 1018.74V1011.21H2499.89V1018.74C2499.89 1024.89 2496.59 1029.36 2488.28 1029.36ZM2504.65 1022.4V1011.21H2507.5V1020.9L2504.65 1022.4ZM2524.25 1029.12C2523.38 1029.12 2522.45 1028.61 2522.45 1027.62C2522.45 1026.72 2523.32 1026.18 2524.25 1026.18C2525.18 1026.18 2526.02 1026.72 2526.02 1027.62C2526.02 1028.61 2525.18 1029.12 2524.25 1029.12ZM2524.25 1017.81C2523.38 1017.81 2522.45 1017.3 2522.45 1016.31C2522.45 1015.41 2523.32 1014.87 2524.25 1014.87C2525.18 1014.87 2526.02 1015.41 2526.02 1016.31C2526.02 1017.3 2525.18 1017.81 2524.25 1017.81ZM2532.99 1029V1011.21H2542.26C2547.36 1011.21 2551.29 1013.46 2551.29 1018.2V1029H2532.99ZM2535.84 1026.72H2548.44V1018.38C2548.44 1014.63 2545.2 1013.46 2542.14 1013.46H2535.84V1026.72ZM2556.16 1022.4V1011.21H2559.01V1020.9L2556.16 1022.4ZM2563.41 1029V1026.72H2570.1V1017.27C2570.1 1014.9 2569.08 1013.46 2566.71 1013.46H2563.71V1011.21H2566.65C2570.76 1011.21 2572.95 1013.19 2572.95 1017.21V1029H2563.41ZM2578.02 1029V1026.72H2586.99C2591.34 1026.72 2593.08 1023.9 2593.08 1020.09C2593.08 1016.31 2591.34 1013.46 2586.99 1013.46H2580.54V1016.67C2580.54 1018.8 2581.17 1019.61 2583.42 1019.61H2584.77V1021.77H2582.73C2579.67 1021.77 2577.69 1020.54 2577.69 1016.61V1011.21H2586.21C2592.99 1011.21 2595.9 1014.75 2595.9 1020.09C2595.9 1025.46 2592.99 1029 2586.21 1029H2578.02ZM2597.03 1013.52V1011.21H2606.39V1013.52H2597.03ZM2628.06 1018.71C2628.06 1015.02 2625.54 1013.46 2621.73 1013.46H2616.42V1024.26C2616.42 1027.53 2614.71 1029.39 2611.77 1029.39C2610.24 1029.39 2609.52 1029.18 2609.04 1029V1026.72C2609.64 1027.02 2610.39 1027.2 2611.17 1027.2C2612.58 1027.2 2613.6 1026.39 2613.6 1024.26V1013.46H2609.7V1011.21H2621.76C2627.46 1011.21 2630.91 1013.52 2630.91 1018.71V1029H2628.06V1018.71ZM2635.19 1029V1026.72H2646.92V1018.8C2646.92 1015.38 2644.7 1013.46 2641.28 1013.46H2635.19V1011.21H2641.49C2646.35 1011.21 2649.77 1013.64 2649.77 1018.74V1026.72H2652.56V1029H2635.19ZM2665.81 1019.4C2665.81 1015.47 2664.04 1013.46 2659.6 1013.46H2653.33V1011.21H2659.6C2666.05 1011.21 2668.63 1013.94 2668.63 1019.4V1029H2665.81V1019.4Z" fill="#101010"/>
<line x1="2727" y1="1083.5" x2="1597" y2="1083.5" stroke="#101010"/>
<path d="M2528.69 1188V1162.95H2510.39V1158.35H2540.19V1162.95H2534.84V1188H2528.69ZM2543.07 1166.45L2547.62 1152.9H2552.37L2546.37 1166.45H2543.07ZM2551.92 1166.45L2556.47 1152.9H2561.22L2555.22 1166.45H2551.92ZM2565.09 1188V1158.35H2571.19V1188H2565.09ZM2579.49 1177.1V1158.35H2585.64V1174.6L2579.49 1177.1ZM2606.23 1152.8H2614.73L2614.43 1154.25H2609.83L2601.83 1195.25H2606.43L2606.08 1196.7H2597.53L2606.23 1152.8ZM2626.02 1186.95L2625.82 1188H2611.32L2611.47 1186.95L2616.72 1185.9L2621.92 1159.75L2615.87 1159.95L2616.02 1158.75L2627.17 1155.3H2627.47L2621.42 1185.9L2626.02 1186.95ZM2648.74 1155.4C2651.87 1155.4 2654.3 1156.62 2656.04 1159.05C2657.77 1161.48 2658.64 1164.67 2658.64 1168.6C2658.64 1171.53 2657.99 1174.58 2656.69 1177.75C2655.39 1180.88 2653.5 1183.52 2651.04 1185.65C2648.6 1187.75 2645.75 1188.8 2642.49 1188.8C2640.45 1188.8 2638.69 1188.25 2637.19 1187.15C2635.69 1186.05 2634.54 1184.53 2633.74 1182.6C2632.97 1180.67 2632.59 1178.47 2632.59 1176C2632.59 1172.93 2633.24 1169.8 2634.54 1166.6C2635.84 1163.4 2637.7 1160.73 2640.14 1158.6C2642.6 1156.47 2645.47 1155.4 2648.74 1155.4ZM2642.34 1187.5C2644.4 1187.5 2646.29 1186.33 2647.99 1184C2649.72 1181.63 2651.07 1178.72 2652.04 1175.25C2653 1171.78 2653.49 1168.52 2653.49 1165.45C2653.49 1159.65 2651.94 1156.75 2648.84 1156.75C2646.74 1156.75 2644.82 1157.88 2643.09 1160.15C2641.39 1162.42 2640.05 1165.23 2639.09 1168.6C2638.12 1171.97 2637.64 1175.17 2637.64 1178.2C2637.64 1184.4 2639.2 1187.5 2642.34 1187.5ZM2665.85 1196.7H2657.4L2657.65 1195.25H2662.25L2670.35 1154.25H2665.7L2666 1152.8H2674.5L2665.85 1196.7Z" fill="#101010"/>
<path d="M1672.33 1138.04L1673.58 1142.48L1673.68 1142.84L1674.06 1142.84L1691.6 1142.74L1698.89 1152L1699.02 1172.31L1685.56 1195.72L1692.2 1174.39L1692.3 1174.06L1692.03 1173.85L1690.12 1172.37L1689.98 1172.26L1689.81 1172.26L1671.2 1172.39L1670.97 1138.05L1672.33 1138.04Z" stroke="#101010"/>
<path d="M2554.4 1351V1321.35H2560.5V1351H2554.4ZM2564.99 1329.45L2569.54 1315.9H2574.29L2568.29 1329.45H2564.99ZM2573.84 1329.45L2578.39 1315.9H2583.14L2577.14 1329.45H2573.84ZM2586.81 1340.1V1321.35H2592.96V1337.6L2586.81 1340.1ZM2601.23 1351V1321.35H2607.33V1351H2601.23ZM2628.45 1315.8H2636.95L2636.65 1317.25H2632.05L2624.05 1358.25H2628.65L2628.3 1359.7H2619.75L2628.45 1315.8ZM2660.64 1319.15C2656.6 1320.78 2652.99 1322.93 2649.79 1325.6C2646.59 1328.27 2644.25 1331.32 2642.79 1334.75H2642.89C2644.82 1332.42 2647.12 1331.25 2649.79 1331.25C2651.22 1331.25 2652.55 1331.6 2653.79 1332.3C2655.05 1332.97 2656.05 1333.95 2656.79 1335.25C2657.52 1336.52 2657.89 1337.98 2657.89 1339.65C2657.89 1341.78 2657.37 1343.78 2656.34 1345.65C2655.3 1347.52 2653.84 1349.02 2651.94 1350.15C2650.07 1351.25 2647.9 1351.8 2645.44 1351.8C2643.77 1351.8 2642.24 1351.42 2640.84 1350.65C2639.44 1349.85 2638.32 1348.68 2637.49 1347.15C2636.69 1345.58 2636.29 1343.7 2636.29 1341.5C2636.29 1337.7 2637.44 1334.2 2639.74 1331C2642.04 1327.77 2645.02 1325.05 2648.69 1322.85C2652.35 1320.65 2656.25 1319.07 2660.39 1318.1L2660.64 1319.15ZM2641.19 1342.5C2641.19 1345.17 2641.59 1347.18 2642.39 1348.55C2643.22 1349.88 2644.37 1350.55 2645.84 1350.55C2647.2 1350.55 2648.42 1350.08 2649.49 1349.15C2650.55 1348.18 2651.37 1346.92 2651.94 1345.35C2652.54 1343.78 2652.84 1342.12 2652.84 1340.35C2652.84 1338.38 2652.37 1336.77 2651.44 1335.5C2650.5 1334.23 2649.25 1333.6 2647.69 1333.6C2645.62 1333.6 2643.67 1334.83 2641.84 1337.3C2641.4 1339.1 2641.19 1340.83 2641.19 1342.5ZM2665.85 1359.7H2657.4L2657.65 1358.25H2662.25L2670.35 1317.25H2665.7L2666 1315.8H2674.5L2665.85 1359.7Z" fill="#101010"/>
<path d="M1674.46 1296.68H1691.74L1699 1306.03V1326.06L1692.12 1382L1691.41 1327.77L1689.56 1326.32L1671 1326.33V1292H1673.18L1674.46 1296.68Z" stroke="black" stroke-miterlimit="10"/>
<line x1="2727" y1="1428.5" x2="1597" y2="1428.5" stroke="#101010"/>
<path d="M2550.54 1543V1503.35H2556.64V1543H2550.54ZM2561.13 1511.45L2565.68 1497.9H2570.43L2564.43 1511.45H2561.13ZM2569.98 1511.45L2574.53 1497.9H2579.28L2573.28 1511.45H2569.98ZM2582.95 1522.1V1503.35H2589.1V1519.6L2582.95 1522.1ZM2600.22 1520.6C2600.22 1513.7 2602.37 1510.55 2605.97 1508.05V1507.95H2594.97V1503.35H2613.87V1507.85C2608.87 1508.4 2606.37 1511.95 2606.37 1518.4V1533H2600.22V1520.6ZM2632.74 1497.8H2641.24L2640.94 1499.25H2636.34L2628.34 1540.25H2632.94L2632.59 1541.7H2624.04L2632.74 1497.8ZM2661.73 1501.55C2660.87 1502.92 2654.62 1513.4 2642.98 1533H2639.78L2657.83 1505.65H2641.53L2642.43 1501.15H2661.83L2661.73 1501.55ZM2665.85 1541.7H2657.4L2657.65 1540.25H2662.25L2670.35 1499.25H2665.7L2666 1497.8H2674.5L2665.85 1541.7Z" fill="#101010"/>
<path d="M1674.34 1478.53H1691.15L1698.05 1487.57V1506.93L1691.29 1564L1690.72 1508.59L1688.93 1507.18L1671 1507.19V1474H1673.11L1674.34 1478.53Z" stroke="#101010" stroke-miterlimit="10"/>
<path d="M1708.23 1478.53H1691.41L1684.52 1487.57V1506.93L1691.29 1564L1691.86 1508.59L1693.64 1507.18L1711.57 1507.19V1474H1709.47L1708.23 1478.53Z" stroke="#101010" stroke-miterlimit="10"/>
<line x1="1600" y1="1258.5" x2="2727" y2="1258.5" stroke="#101010"/>
</g>
<defs>
<clipPath id="clip0_435_2442">
<rect width="2850" height="1603" fill="white"/>
</clipPath>
</defs>
</svg>
