<svg width="1920" height="1080" viewBox="0 0 1920 1080" fill="none" xmlns="http://www.w3.org/2000/svg">
<rect width="1920" height="1080" fill="#FDFCF8"/>
<path d="M998.461 84.1865L999.945 86.0723L1000.25 86.4561L999.871 86.7676L997.583 88.6523L997.378 88.8203L997.457 88.9199L998.942 90.8057L999.245 91.1895L998.867 91.501L996.579 93.3857L996.185 93.7109L995.869 93.3096L994.384 91.4238L994.081 91.04L994.458 90.7285L996.746 88.8438L996.95 88.6748L996.872 88.5762L995.387 86.6914L995.084 86.3066L995.462 85.9961L997.75 84.1104L998.145 83.7852L998.461 84.1865ZM983.526 84.1865L985.012 86.0723L985.314 86.4561L984.937 86.7676L982.649 88.6523L982.255 88.9775L981.938 88.5762L980.453 86.6914L980.15 86.3066L980.528 85.9961L982.815 84.1104L983.21 83.7852L983.526 84.1865ZM1011.45 84.7988L1011.29 85.4199L1010.89 87.0244L1010.79 87.4033H1002.94L1003.1 86.7812L1003.5 85.1768L1003.59 84.7988H1011.45ZM913.965 54.7148L914.107 54.9736L915.29 57.1211H920.935C923.704 57.1211 925.816 57.6159 927.229 58.8896C928.656 60.175 929.262 62.1516 929.262 64.8418C929.262 70.5366 927.132 76.4454 923.844 81.5576L923.696 81.7871H921.741L921.894 81.168C923.177 75.9592 923.927 71.2749 923.927 69.0527C923.927 67.2719 923.57 66.323 922.86 65.7725C922.11 65.19 920.834 64.9404 918.687 64.9404H916.738V66.6064C916.738 75.5337 912.039 81.4996 905.068 82.4648L904.216 82.583L904.536 81.7832L907.506 74.3623L907.597 74.1367L907.831 74.0684C909.071 73.7085 910.023 73.403 910.756 73.1104C911.491 72.8166 911.977 72.5472 912.304 72.2715C912.899 71.7689 913.049 71.1842 913.049 69.9756C913.049 68.7294 912.875 67.0522 912.151 64.9404H908.94L909.187 64.2686L912.558 55.043L912.678 54.7148H913.965ZM934.47 56.1982L934.612 56.3262C935.795 57.3841 936.63 58.4536 937.162 59.6953C937.694 60.9349 937.91 62.3112 937.91 63.959C937.91 66.3049 937.248 69.2532 936.213 72.3174C935.175 75.3896 933.748 78.6139 932.191 81.5234L932.05 81.7871H929.848L930.024 81.1523C930.645 78.9327 931.264 76.5173 931.728 74.3203C932.193 72.1128 932.495 70.1604 932.495 68.8525C932.495 67.8491 932.379 67.0526 932.092 66.3105C931.804 65.5676 931.333 64.8473 930.577 64.0146L930.374 63.79L930.479 63.5059L933.048 56.5264L933.168 56.1982H934.47ZM945.586 55.4922L948.707 60.0107L953.638 65.8457C954.414 64.452 954.829 62.9212 954.829 61.4316C954.829 60.0022 954.415 58.5737 953.627 57.374L953.391 57.0156L953.71 56.7285L954.111 56.3672L954.267 56.2275L954.475 56.2393C956.616 56.3627 958.27 56.87 959.401 57.7178C960.552 58.5804 961.127 59.7723 961.127 61.1514C961.127 64.187 958.803 66.215 955.562 67.8203C956.478 68.9128 957.19 69.8263 957.68 70.7734C958.253 71.8816 958.519 73.016 958.519 74.5088C958.518 77.3201 956.915 79.9089 954.2 81.7041L954.074 81.7871H952.195L952.453 81.1094C952.757 80.312 952.902 79.8107 952.902 78.6797C952.902 77.3676 952.391 75.8676 951.226 74.0566C950.112 72.3259 948.419 70.3447 946.073 68.0107L942.567 81.4141L942.47 81.7871H936.895L937.163 81.1045L943.358 65.3682L940.008 61.1826L939.676 60.7676L940.109 60.4619L942.76 58.5908L944.754 55.5049L945.16 54.876L945.586 55.4922ZM981.87 67.3896L981.901 67.8555L982.464 76.0381L982.48 76.2764L982.305 76.4395L976.686 81.6543L976.542 81.7871H974.41L974.578 81.1582C975.83 76.4764 977.65 71.6218 979.883 67.6455L980.026 67.3896H981.87ZM982.113 54.7148L982.251 54.9912L983.316 57.1211H987.544C990.469 57.1211 992.695 57.6145 994.188 58.874C995.701 60.1515 996.353 62.1216 996.353 64.8018C996.352 70.5063 994.056 76.4622 990.399 81.5781L990.249 81.7871H988.246L988.428 81.1504C989.831 76.2228 990.616 72.1483 990.616 69.6953C990.616 67.8756 990.26 66.7341 989.525 66.0293C988.785 65.3189 987.545 64.9405 985.497 64.9404H977.291L977.519 64.2773L980.689 55.0518L980.806 54.7148H982.113ZM1011.06 56.1982L1011.2 56.3262C1012.39 57.384 1013.22 58.4536 1013.75 59.6953C1014.28 60.9349 1014.5 62.3112 1014.5 63.959C1014.5 66.3049 1013.84 69.2532 1012.8 72.3174C1011.76 75.3896 1010.34 78.6139 1008.78 81.5234L1008.64 81.7871H1006.44L1006.62 81.1523C1007.24 78.9327 1007.85 76.5173 1008.32 74.3203C1008.78 72.1128 1009.08 70.1604 1009.08 68.8525C1009.08 67.8491 1008.97 67.0526 1008.68 66.3105C1008.39 65.5677 1007.92 64.8471 1007.17 64.0146L1006.96 63.79L1007.07 63.5059L1009.64 56.5264L1009.76 56.1982H1011.06ZM971.428 56.1982L971.527 56.2451C972.959 56.9088 974.034 57.6974 974.748 58.6875C975.467 59.6851 975.791 60.846 975.791 62.1943C975.791 63.8391 975.229 65.839 974.291 67.9014C973.35 69.9721 972.013 72.1426 970.424 74.1377L970.154 74.4766L969.781 74.2588L968.817 73.6973L968.412 73.4609L968.622 73.041C969.907 70.4726 970.496 68.7228 970.496 67.5693C970.496 66.824 970.344 66.2142 969.959 65.6416C969.566 65.0565 968.904 64.4707 967.812 63.8281L967.451 63.6162L967.598 63.2236L970.086 56.5244L970.207 56.1982H971.428ZM1001.29 56.1982L1001.4 56.2451C1002.83 56.9088 1003.9 57.6975 1004.62 58.6875C1005.34 59.6851 1005.66 60.846 1005.66 62.1943C1005.66 63.8391 1005.1 65.8391 1004.16 67.9014C1003.22 69.972 1001.88 72.1427 1000.29 74.1377L1000.02 74.4766L999.648 74.2588L998.686 73.6973L998.28 73.4609L998.49 73.041C999.775 70.4727 1000.36 68.7228 1000.36 67.5693C1000.36 66.824 1000.21 66.2142 999.827 65.6416C999.434 65.0565 998.771 64.4707 997.68 63.8281L997.319 63.6162L997.465 63.2236L999.953 56.5244L1000.07 56.1982H1001.29ZM935.996 49.6904L937.481 51.5762L937.784 51.96L937.407 52.2715L935.119 54.1562L934.725 54.4814L934.408 54.0801L932.923 52.1943L932.62 51.8105L932.998 51.499L935.286 49.6143L935.681 49.2891L935.996 49.6904Z" fill="#101010" stroke="#FDFCF8"/>
<circle cx="1843.5" cy="73.5" r="7.5" fill="#101010"/>
<path d="M791.615 483H781.995L782.355 481.7H788.555V475.92C788.555 474.4 787.775 473.58 786.295 473.58H782.495V472.42C783.755 472.32 784.795 472.26 785.795 472.26H786.755C788.855 472.26 789.995 473.46 789.995 475.64V481.7H791.615V483ZM800.518 483H799.078V475.9C799.078 474.4 798.258 473.58 796.778 473.58H792.958V472.42C794.078 472.3 795.098 472.26 796.258 472.26H797.218C799.358 472.26 800.518 473.46 800.518 475.64V483ZM812.857 483H811.417V475.92C811.417 474.38 810.637 473.58 809.117 473.58H803.677V472.42C805.397 472.32 806.917 472.26 807.957 472.26H809.577C811.697 472.26 812.857 473.46 812.857 475.64V483ZM805.277 483H803.837V477.28C804.397 477.24 804.717 477.2 805.277 477.18V483ZM824.843 483H823.383L825.903 473.58H820.003V468.88H821.403V472.28H827.323V473.54L824.843 483ZM840.059 472.32L841.379 472.2C841.439 472.58 841.459 473 841.459 473.8C841.459 479.58 838.079 483.04 832.199 483.26C831.819 483.26 830.859 482.98 830.759 482.84L830.399 472.32L831.739 472.2L831.899 476.68C832.959 476.8 834.499 476.94 834.979 476.92C835.059 476.44 835.119 475.74 835.139 475.06C835.179 474.2 835.199 473.2 835.199 472.32L836.559 472.22C836.579 472.38 836.579 472.52 836.579 473.02C836.579 474.48 836.439 476.2 836.239 477.04C835.859 477.46 835.199 477.84 834.759 477.9C834.519 477.94 834.139 477.96 833.619 477.96C833.139 477.96 832.599 477.92 831.939 477.88L832.079 482L832.259 482.06C837.539 481.66 840.099 478.88 840.099 473.52C840.099 472.72 840.099 472.64 840.059 472.32ZM852.784 478.52H851.344V473.58H848.364V472.28H852.784V478.52ZM860.253 483H858.793L861.313 473.58H855.413V468.88H856.813V472.28H862.733V473.54L860.253 483ZM874.271 483H864.651L865.011 481.7H871.211V475.92C871.211 474.4 870.431 473.58 868.951 473.58H865.151V472.42C866.411 472.32 867.451 472.26 868.451 472.26H869.411C871.511 472.26 872.651 473.46 872.651 475.64V481.7H874.271V483ZM884.108 483H882.628L884.328 473.58H876.668V472.28H885.828V473.48L884.108 483ZM876.988 485.66C876.948 485.16 876.948 484.68 876.948 484.12V477.22C877.468 477.18 877.908 477.14 878.388 477.12V483.76C878.388 484.24 878.388 484.88 878.448 485.46C877.828 485.58 877.428 485.64 876.988 485.66ZM893.825 473.58H888.225V472.28H894.125L893.825 473.58ZM900.831 478.52H899.391V473.58H896.411V472.28H900.831V478.52ZM905.847 483.22C905.507 483.2 904.967 483.1 904.767 483.02L904.127 472.3L905.507 472.22L906.087 481.84L906.267 481.88C909.807 481.32 911.947 479.02 911.947 475.76C911.947 474.18 911.307 473.46 909.927 473.46C909.207 473.46 908.707 473.48 907.987 473.5L907.867 472.62C908.747 472.32 909.587 472.18 910.387 472.18C912.287 472.18 913.387 473.46 913.387 475.64C913.387 479.72 910.547 482.56 905.847 483.22ZM917.916 483.22C917.536 483.2 916.976 483.1 916.816 483.02L916.256 473.78C916.236 473.22 916.236 472.86 916.276 472.28H922.216C924.296 472.26 925.436 473.46 925.436 475.64C925.436 479.7 922.596 482.56 917.916 483.22ZM918.136 481.82L918.316 481.86C921.856 481.3 923.996 479 923.996 475.76C923.996 474.3 923.276 473.58 921.756 473.58H917.636L918.136 481.82ZM931.983 478.52H930.543V473.58H927.563V472.28H931.983V478.52ZM936.359 483.2H934.919L937.439 473.56H934.679V472.4C936.879 472.3 938.079 472.26 938.859 472.26H940.579C943.299 472.26 944.399 473.48 944.439 476.54C944.459 478.38 944.379 481.82 944.299 482.54C944.039 482.76 943.519 483.04 943.159 483.12C942.979 483.18 942.679 483.2 942.179 483.2C941.319 483.2 940.019 483.04 939.339 482.84L939.639 481.58C940.779 481.76 942.439 481.98 942.999 481.98C943.059 481.32 943.079 479.9 943.059 477.2C943.039 474.38 942.379 473.56 940.139 473.56H938.879L936.359 483.2ZM959.307 483H957.867V475.9C957.867 474.4 957.047 473.58 955.567 473.58H951.747V472.42C952.867 472.3 953.887 472.26 955.047 472.26H956.007C958.147 472.26 959.307 473.46 959.307 475.64V483ZM965.806 483H964.366V473.58H961.606V472.28H965.806V483ZM978.256 483H968.636L968.996 481.7H975.196V475.92C975.196 474.4 974.416 473.58 972.936 473.58H969.136V472.42C970.396 472.32 971.436 472.26 972.436 472.26H973.396C975.496 472.26 976.636 473.46 976.636 475.64V481.7H978.256V483ZM983.702 478.52H982.262V473.58H979.282V472.28H983.702V478.52ZM988.838 483H987.398V472.42C989.318 472.32 990.678 472.26 991.598 472.26H993.198C995.298 472.26 996.458 473.44 996.458 475.62V483H995.018V475.9C995.018 474.36 994.238 473.58 992.738 473.58H988.838V483ZM1011.74 483.32L1008.04 477.36C1006.94 477.76 1006.36 478.38 1006.2 479.36C1006.06 480.16 1005.98 481.86 1005.94 483.1H1004.46C1004.48 482.08 1004.56 480.9 1004.66 480C1004.88 478.3 1005.56 477.28 1006.96 476.62C1005.88 475.02 1005.1 473.76 1004.56 472.74C1004.84 472.58 1005.22 472.36 1005.76 472.08C1006.7 473.64 1007.66 475.14 1008.68 476.62C1009.12 476.7 1010.4 476.76 1011.24 476.74C1011.42 475.86 1011.64 474.02 1011.78 472.26H1013.24C1013.18 473.58 1012.86 476 1012.66 476.72C1012.44 477.12 1011.62 477.68 1011.16 477.74C1010.78 477.78 1010.38 477.8 1009.96 477.78L1013 482.74C1012.66 482.94 1012.18 483.16 1011.74 483.32ZM1019.81 483H1018.37V473.58H1015.61V472.28H1019.81V483ZM1032.54 483H1031.1V475.92C1031.1 474.38 1030.32 473.58 1028.8 473.58H1023.36V472.42C1025.08 472.32 1026.6 472.26 1027.64 472.26H1029.26C1031.38 472.26 1032.54 473.46 1032.54 475.64V483ZM1024.96 483H1023.52V477.28C1024.08 477.24 1024.4 477.2 1024.96 477.18V483ZM1040.61 474.66H1039.89L1040.49 472.2V469.68H1042.27L1042.23 470.58C1042.17 472.22 1041.67 473.24 1040.61 474.66ZM1044.11 474.66H1043.39L1043.99 472.2V469.68H1045.77L1045.73 470.58C1045.67 472.22 1045.17 473.24 1044.11 474.66ZM1052.21 485.6H1050.77V473.58H1048.09V472.28H1052.21V485.6ZM1059.13 478.52H1057.69V473.58H1054.71V472.28H1059.13V478.52ZM1066.6 483H1065.14L1067.66 473.58H1061.76V468.88H1063.16V472.28H1069.08V473.54L1066.6 483ZM1075.87 478.52H1074.43V473.58H1071.45V472.28H1075.87V478.52ZM1080.25 483.2H1078.81L1081.33 473.56H1078.57V472.4C1080.77 472.3 1081.97 472.26 1082.75 472.26H1084.47C1087.19 472.26 1088.29 473.48 1088.33 476.54C1088.35 478.38 1088.27 481.82 1088.19 482.54C1087.93 482.76 1087.41 483.04 1087.05 483.12C1086.87 483.18 1086.57 483.2 1086.07 483.2C1085.21 483.2 1083.91 483.04 1083.23 482.84L1083.53 481.58C1084.67 481.76 1086.33 481.98 1086.89 481.98C1086.95 481.32 1086.97 479.9 1086.95 477.2C1086.93 474.38 1086.27 473.56 1084.03 473.56H1082.77L1080.25 483.2ZM1106.09 472.32L1107.41 472.2C1107.47 472.58 1107.49 473 1107.49 473.8C1107.49 479.58 1104.11 483.04 1098.23 483.26C1097.85 483.26 1096.89 482.98 1096.79 482.84L1096.43 472.32L1097.77 472.2L1097.93 476.68C1098.99 476.8 1100.53 476.94 1101.01 476.92C1101.09 476.44 1101.15 475.74 1101.17 475.06C1101.21 474.2 1101.23 473.2 1101.23 472.32L1102.59 472.22C1102.61 472.38 1102.61 472.52 1102.61 473.02C1102.61 474.48 1102.47 476.2 1102.27 477.04C1101.89 477.46 1101.23 477.84 1100.79 477.9C1100.55 477.94 1100.17 477.96 1099.65 477.96C1099.17 477.96 1098.63 477.92 1097.97 477.88L1098.11 482L1098.29 482.06C1103.57 481.66 1106.13 478.88 1106.13 473.52C1106.13 472.72 1106.13 472.64 1106.09 472.32ZM1117.48 483.32L1113.78 477.36C1112.68 477.76 1112.1 478.38 1111.94 479.36C1111.8 480.16 1111.72 481.86 1111.68 483.1H1110.2C1110.22 482.08 1110.3 480.9 1110.4 480C1110.62 478.3 1111.3 477.28 1112.7 476.62C1111.62 475.02 1110.84 473.76 1110.3 472.74C1110.58 472.58 1110.96 472.36 1111.5 472.08C1112.44 473.64 1113.4 475.14 1114.42 476.62C1114.86 476.7 1116.14 476.76 1116.98 476.74C1117.16 475.86 1117.38 474.02 1117.52 472.26H1118.98C1118.92 473.58 1118.6 476 1118.4 476.72C1118.18 477.12 1117.36 477.68 1116.9 477.74C1116.52 477.78 1116.12 477.8 1115.7 477.78L1118.74 482.74C1118.4 482.94 1117.92 483.16 1117.48 483.32ZM1129.21 483H1127.77V475.9C1127.77 474.4 1126.95 473.58 1125.47 473.58H1121.65V472.42C1122.77 472.3 1123.79 472.26 1124.95 472.26H1125.91C1128.05 472.26 1129.21 473.46 1129.21 475.64V483ZM1132.37 474.66H1131.65L1132.25 472.2V469.68H1134.03L1133.99 470.58C1133.93 472.22 1133.43 473.24 1132.37 474.66ZM1135.87 474.66H1135.15L1135.75 472.2V469.68H1137.53L1137.49 470.58C1137.43 472.22 1136.93 473.24 1135.87 474.66ZM784.249 502.2C783.589 502.2 782.589 502.04 782.029 501.86L782.329 500.64C783.489 500.88 784.389 501.02 784.649 501C784.689 500.86 784.769 499.88 784.809 498.58C784.929 494.46 784.969 493.18 784.949 492.58H782.349V491.42C784.809 491.32 786.669 491.26 787.849 491.26H789.949C792.069 491.26 793.229 492.46 793.229 494.64V502H791.789V494.92C791.789 493.38 791.009 492.58 789.549 492.58H786.389C786.389 493.86 786.389 494.24 786.229 499C786.189 499.86 786.149 500.76 785.989 501.7C785.769 501.88 785.409 502.06 785.169 502.12C785.009 502.18 784.769 502.2 784.249 502.2ZM799.722 502H798.282V492.58H795.522V491.28H799.722V502ZM810.372 502H808.932V494.9C808.932 493.4 808.112 492.58 806.632 492.58H802.812V491.42C803.932 491.3 804.952 491.26 806.112 491.26H807.072C809.212 491.26 810.372 492.46 810.372 494.64V502ZM816.87 502H815.43V492.58H812.67V491.28H816.87V502ZM823.983 496.78L828.003 500.56L827.683 501.78C827.363 501.94 826.983 502.1 826.703 502.14C826.383 502.24 825.803 502.28 824.942 502.28C823.063 502.28 820.563 502.06 819.663 501.8L819.963 500.5C821.003 500.74 824.563 501.04 826.363 501.04C826.543 501.04 826.723 501.04 826.843 501.02V500.9C825.463 499.84 824.202 499.08 822.183 496.56C821.503 495.54 820.663 493.4 820.203 491.54C820.603 491.34 821.083 491.18 821.543 491.06C822.002 492.62 822.643 494.3 823.263 495.6C824.023 495.72 825.703 495.8 825.943 495.74C826.123 495.04 826.343 493.02 826.463 491.28H827.863C827.823 492.3 827.503 494.84 827.283 495.72C827.063 496.12 826.323 496.68 825.883 496.74C825.343 496.8 824.623 496.8 823.983 496.78ZM834.835 502.28C833.075 502.28 830.595 502.02 829.795 501.8L830.075 500.5C830.935 500.66 834.155 501.04 835.795 501.04C836.175 501.04 836.295 501.04 836.435 501.02C836.515 500.4 836.535 499 836.535 497.42V496.7C836.535 493.46 835.775 492.56 833.035 492.56H830.495V491.4C831.075 491.32 832.475 491.26 833.655 491.26C836.715 491.26 837.975 492.68 837.975 496.12C837.975 498.18 837.915 500.18 837.815 501.46C837.555 501.72 836.875 502.06 836.455 502.14C836.135 502.24 835.535 502.28 834.835 502.28ZM876.924 502.2C876.264 502.2 875.264 502.04 874.704 501.86L875.004 500.64C876.164 500.88 877.064 501.02 877.324 501C877.364 500.86 877.444 499.88 877.484 498.58C877.604 494.46 877.644 493.18 877.624 492.58H875.024V491.42C877.484 491.32 879.344 491.26 880.524 491.26H882.624C884.744 491.26 885.904 492.46 885.904 494.64V502H884.464V494.92C884.464 493.38 883.684 492.58 882.224 492.58H879.064C879.064 493.86 879.064 494.24 878.904 499C878.864 499.86 878.824 500.76 878.664 501.7C878.444 501.88 878.084 502.06 877.844 502.12C877.684 502.18 877.444 502.2 876.924 502.2ZM892.398 502H890.958V492.58H888.198V491.28H892.398V502ZM899.805 497.52H898.365V492.58H895.385V491.28H899.805V497.52ZM910.255 502H908.815V494.9C908.815 493.4 907.995 492.58 906.515 492.58H902.695V491.42C903.815 491.3 904.835 491.26 905.995 491.26H906.955C909.095 491.26 910.255 492.46 910.255 494.64V502ZM922.113 502H912.493L912.853 500.7H919.053V494.92C919.053 493.4 918.273 492.58 916.793 492.58H912.993V491.42C914.253 491.32 915.293 491.26 916.293 491.26H917.253C919.353 491.26 920.493 492.46 920.493 494.64V500.7H922.113V502ZM931.409 491.26L932.829 491.2C932.849 491.26 932.849 491.26 932.849 491.76C932.849 495.44 932.189 499.5 931.309 501.24C931.089 501.54 930.209 502.04 929.689 502.16C929.349 502.22 928.829 502.26 928.289 502.26C926.569 502.26 924.009 502.02 923.349 501.8L923.629 500.52C924.949 500.76 926.389 500.92 927.489 501.02C926.709 497.8 925.289 493.24 924.589 491.76C924.769 491.58 925.529 491.18 925.889 491.08C926.569 492.28 928.229 498.06 928.789 501.06C929.549 501.06 929.949 501.02 930.169 500.92C930.609 500.1 931.069 497.72 931.269 495.24C931.349 494.52 931.429 492.12 931.409 491.26ZM945.054 502H943.614V494.92C943.614 493.38 942.834 492.58 941.314 492.58H935.874V491.42C937.594 491.32 939.114 491.26 940.154 491.26H941.774C943.894 491.26 945.054 492.46 945.054 494.64V502ZM937.474 502H936.034V496.28C936.594 496.24 936.914 496.2 937.474 496.18V502ZM954.6 502.2C953.94 502.2 952.94 502.04 952.38 501.86L952.68 500.64C953.84 500.88 954.74 501.02 955 501C955.04 500.86 955.12 499.88 955.16 498.58C955.28 494.46 955.32 493.18 955.3 492.58H952.7V491.42C955.16 491.32 957.02 491.26 958.2 491.26H960.3C962.42 491.26 963.58 492.46 963.58 494.64V502H962.14V494.92C962.14 493.38 961.36 492.58 959.9 492.58H956.74C956.74 493.86 956.74 494.24 956.58 499C956.54 499.86 956.5 500.76 956.34 501.7C956.12 501.88 955.76 502.06 955.52 502.12C955.36 502.18 955.12 502.2 954.6 502.2ZM970.073 502H968.633V492.58H965.873V491.28H970.073V502ZM977.481 497.52H976.041V492.58H973.061V491.28H977.481V497.52ZM982.217 502.2C981.557 502.2 980.557 502.04 979.997 501.86L980.297 500.64C981.457 500.88 982.357 501.02 982.617 501C982.657 500.86 982.737 499.88 982.777 498.58C982.897 494.46 982.937 493.18 982.917 492.58H980.317V491.42C982.777 491.32 984.637 491.26 985.817 491.26H987.917C990.037 491.26 991.197 492.46 991.197 494.64V502H989.757V494.92C989.757 493.38 988.977 492.58 987.517 492.58H984.357C984.357 493.86 984.357 494.24 984.197 499C984.157 499.86 984.117 500.76 983.957 501.7C983.737 501.88 983.377 502.06 983.137 502.12C982.977 502.18 982.737 502.2 982.217 502.2ZM997.691 502H996.251V492.58H993.491V491.28H997.691V502ZM1008.58 502.32L1004.88 496.36C1003.78 496.76 1003.2 497.38 1003.04 498.36C1002.9 499.16 1002.82 500.86 1002.78 502.1H1001.3C1001.32 501.08 1001.4 499.9 1001.5 499C1001.72 497.3 1002.4 496.28 1003.8 495.62C1002.72 494.02 1001.94 492.76 1001.4 491.74C1001.68 491.58 1002.06 491.36 1002.6 491.08C1003.54 492.64 1004.5 494.14 1005.52 495.62C1005.96 495.7 1007.24 495.76 1008.08 495.74C1008.26 494.86 1008.48 493.02 1008.62 491.26H1010.08C1010.02 492.58 1009.7 495 1009.5 495.72C1009.28 496.12 1008.46 496.68 1008 496.74C1007.62 496.78 1007.22 496.8 1006.8 496.78L1009.84 501.74C1009.5 501.94 1009.02 502.16 1008.58 502.32ZM1021.82 502H1012.2L1012.56 500.7H1018.76V494.92C1018.76 493.4 1017.98 492.58 1016.5 492.58H1012.7V491.42C1013.96 491.32 1015 491.26 1016 491.26H1016.96C1019.06 491.26 1020.2 492.46 1020.2 494.64V500.7H1021.82V502ZM1032.34 504.6H1030.9V492.58H1028.22V491.28H1032.34V504.6ZM1037.54 502.2C1036.56 502.2 1035.2 502.04 1034.5 501.84L1034.8 500.58C1036.22 500.8 1037.88 500.98 1038.4 500.96C1038.46 500.12 1038.48 498.94 1038.48 496.32C1038.48 494.52 1038.44 493.02 1038.38 492.58H1035.5V491.28H1039.82C1039.88 491.62 1039.92 493.26 1039.92 495.36C1039.92 499.32 1039.9 500.56 1039.82 501.54C1039.54 501.76 1038.96 502.04 1038.58 502.12C1038.4 502.18 1038.14 502.2 1037.54 502.2ZM1046.62 502H1045.18V492.58H1042.42V491.28H1046.62V502ZM1059.07 502H1049.45L1049.81 500.7H1056.01V494.92C1056.01 493.4 1055.23 492.58 1053.75 492.58H1049.95V491.42C1051.21 491.32 1052.25 491.26 1053.25 491.26H1054.21C1056.31 491.26 1057.45 492.46 1057.45 494.64V500.7H1059.07V502ZM1062.9 502.2C1062.24 502.2 1061.24 502.04 1060.68 501.86L1060.98 500.64C1062.14 500.88 1063.04 501.02 1063.3 501C1063.34 500.86 1063.42 499.88 1063.46 498.58C1063.58 494.46 1063.62 493.18 1063.6 492.58H1061V491.42C1063.46 491.32 1065.32 491.26 1066.5 491.26H1068.6C1070.72 491.26 1071.88 492.46 1071.88 494.64V502H1070.44V494.92C1070.44 493.38 1069.66 492.58 1068.2 492.58H1065.04C1065.04 493.86 1065.04 494.24 1064.88 499C1064.84 499.86 1064.8 500.76 1064.64 501.7C1064.42 501.88 1064.06 502.06 1063.82 502.12C1063.66 502.18 1063.42 502.2 1062.9 502.2ZM1076.15 502.2H1074.71L1077.23 492.56H1074.47V491.4C1076.67 491.3 1077.87 491.26 1078.65 491.26H1080.37C1083.09 491.26 1084.19 492.48 1084.23 495.54C1084.25 497.38 1084.17 500.82 1084.09 501.54C1083.83 501.76 1083.31 502.04 1082.95 502.12C1082.77 502.18 1082.47 502.2 1081.97 502.2C1081.11 502.2 1079.81 502.04 1079.13 501.84L1079.43 500.58C1080.57 500.76 1082.23 500.98 1082.79 500.98C1082.85 500.32 1082.87 498.9 1082.85 496.2C1082.83 493.38 1082.17 492.56 1079.93 492.56H1078.67L1076.15 502.2ZM1096.48 502H1095.04V494.92C1095.04 493.38 1094.26 492.58 1092.74 492.58H1087.3V491.42C1089.02 491.32 1090.54 491.26 1091.58 491.26H1093.2C1095.32 491.26 1096.48 492.46 1096.48 494.64V502ZM1088.9 502H1087.46V496.28C1088.02 496.24 1088.34 496.2 1088.9 496.18V502ZM1104.35 504.76H1103.63L1104.09 502.5V499.98H1105.83V500.88C1105.83 502.42 1105.31 503.4 1104.35 504.76ZM1116.11 502H1114.63L1116.33 492.58H1108.67V491.28H1117.83V492.48L1116.11 502ZM1108.99 504.66C1108.95 504.16 1108.95 503.68 1108.95 503.12V496.22C1109.47 496.18 1109.91 496.14 1110.39 496.12V502.76C1110.39 503.24 1110.39 503.88 1110.45 504.46C1109.83 504.58 1109.43 504.64 1108.99 504.66ZM1124.43 502H1122.99V492.58H1120.23V491.28H1124.43V502ZM1135.47 502H1133.99L1135.69 492.58H1128.03V491.28H1137.19V492.48L1135.47 502ZM1128.35 504.66C1128.31 504.16 1128.31 503.68 1128.31 503.12V496.22C1128.83 496.18 1129.27 496.14 1129.75 496.12V502.76C1129.75 503.24 1129.75 503.88 1129.81 504.46C1129.19 504.58 1128.79 504.64 1128.35 504.66ZM790.826 521H789.386V513.92C789.386 512.38 788.606 511.58 787.086 511.58H781.646V510.42C783.366 510.32 784.886 510.26 785.926 510.26H787.546C789.666 510.26 790.826 511.46 790.826 513.64V521ZM783.246 521H781.806V515.28C782.366 515.24 782.686 515.2 783.246 515.18V521ZM800.989 510.26L802.409 510.2C802.429 510.26 802.429 510.26 802.429 510.76C802.429 514.44 801.769 518.5 800.889 520.24C800.669 520.54 799.789 521.04 799.269 521.16C798.929 521.22 798.409 521.26 797.869 521.26C796.149 521.26 793.589 521.02 792.929 520.8L793.209 519.52C794.529 519.76 795.969 519.92 797.069 520.02C796.289 516.8 794.869 512.24 794.169 510.76C794.349 510.58 795.109 510.18 795.469 510.08C796.149 511.28 797.809 517.06 798.369 520.06C799.129 520.06 799.529 520.02 799.749 519.92C800.189 519.1 800.649 516.72 800.849 514.24C800.929 513.52 801.009 511.12 800.989 510.26ZM809.185 521H807.745V511.58H804.985V510.28H809.185V521ZM814.777 521.2C813.797 521.2 812.437 521.04 811.737 520.84L812.037 519.58C813.457 519.8 815.117 519.98 815.637 519.96C815.697 519.12 815.717 517.94 815.717 515.32C815.717 513.52 815.677 512.02 815.617 511.58H812.737V510.28H817.057C817.117 510.62 817.157 512.26 817.157 514.36C817.157 518.32 817.137 519.56 817.057 520.54C816.777 520.76 816.197 521.04 815.817 521.12C815.637 521.18 815.377 521.2 814.777 521.2ZM821.895 521.2C821.235 521.2 820.235 521.04 819.675 520.86L819.975 519.64C821.135 519.88 822.035 520.02 822.295 520C822.335 519.86 822.415 518.88 822.455 517.58C822.575 513.46 822.615 512.18 822.595 511.58H819.995V510.42C822.455 510.32 824.315 510.26 825.495 510.26H827.595C829.715 510.26 830.875 511.46 830.875 513.64V521H829.435V513.92C829.435 512.38 828.655 511.58 827.195 511.58H824.035C824.035 512.86 824.035 513.24 823.875 518C823.835 518.86 823.795 519.76 823.635 520.7C823.415 520.88 823.055 521.06 822.815 521.12C822.655 521.18 822.415 521.2 821.895 521.2ZM837.368 521H835.928V511.58H833.168V510.28H837.368V521ZM849.745 521H848.285L850.805 511.58H844.905V506.88H846.305V510.28H852.225V511.54L849.745 521ZM858.696 521H857.256V511.58H854.496V510.28H858.696V521ZM869.733 521H868.253L869.953 511.58H862.293V510.28H871.453V511.48L869.733 521ZM862.613 523.66C862.573 523.16 862.573 522.68 862.573 522.12V515.22C863.093 515.18 863.533 515.14 864.013 515.12V521.76C864.013 522.24 864.013 522.88 864.073 523.46C863.453 523.58 863.053 523.64 862.613 523.66ZM888.926 523.76H888.206L888.666 521.5V518.98H890.406V519.88C890.406 521.42 889.886 522.4 888.926 523.76ZM895.137 521.2C894.477 521.2 893.477 521.04 892.917 520.86L893.217 519.64C894.377 519.88 895.277 520.02 895.537 520C895.577 519.86 895.657 518.88 895.697 517.58C895.817 513.46 895.857 512.18 895.837 511.58H893.237V510.42C895.697 510.32 897.557 510.26 898.737 510.26H900.837C902.957 510.26 904.117 511.46 904.117 513.64V521H902.677V513.92C902.677 512.38 901.897 511.58 900.437 511.58H897.277C897.277 512.86 897.277 513.24 897.117 518C897.077 518.86 897.037 519.76 896.877 520.7C896.657 520.88 896.297 521.06 896.057 521.12C895.897 521.18 895.657 521.2 895.137 521.2ZM910.611 521H909.171V511.58H906.411V510.28H910.611V521ZM921.263 510.26L922.683 510.2C922.703 510.26 922.703 510.26 922.703 510.76C922.703 514.44 922.043 518.5 921.163 520.24C920.943 520.54 920.063 521.04 919.543 521.16C919.203 521.22 918.683 521.26 918.143 521.26C916.423 521.26 913.863 521.02 913.203 520.8L913.483 519.52C914.803 519.76 916.243 519.92 917.343 520.02C916.563 516.8 915.143 512.24 914.443 510.76C914.623 510.58 915.383 510.18 915.743 510.08C916.423 511.28 918.083 517.06 918.643 520.06C919.403 520.06 919.803 520.02 920.023 519.92C920.463 519.1 920.923 516.72 921.123 514.24C921.203 513.52 921.283 511.12 921.263 510.26ZM926.75 521.2H925.31L927.83 511.56H925.07V510.4C927.27 510.3 928.47 510.26 929.25 510.26H930.97C933.69 510.26 934.79 511.48 934.83 514.54C934.85 516.38 934.77 519.82 934.69 520.54C934.43 520.76 933.91 521.04 933.55 521.12C933.37 521.18 933.07 521.2 932.57 521.2C931.71 521.2 930.41 521.04 929.73 520.84L930.03 519.58C931.17 519.76 932.83 519.98 933.39 519.98C933.45 519.32 933.47 517.9 933.45 515.2C933.43 512.38 932.77 511.56 930.53 511.56H929.27L926.75 521.2ZM947.793 510.32L949.113 510.2C949.173 510.58 949.193 511 949.193 511.8C949.193 517.58 945.813 521.04 939.933 521.26C939.553 521.26 938.593 520.98 938.493 520.84L938.133 510.32L939.473 510.2L939.633 514.68C940.693 514.8 942.233 514.94 942.713 514.92C942.793 514.44 942.853 513.74 942.873 513.06C942.913 512.2 942.933 511.2 942.933 510.32L944.293 510.22C944.313 510.38 944.313 510.52 944.313 511.02C944.313 512.48 944.173 514.2 943.973 515.04C943.593 515.46 942.933 515.84 942.493 515.9C942.253 515.94 941.873 515.96 941.353 515.96C940.873 515.96 940.333 515.92 939.673 515.88L939.813 520L939.993 520.06C945.273 519.66 947.833 516.88 947.833 511.52C947.833 510.72 947.833 510.64 947.793 510.32ZM953.254 521.2H951.814L954.334 511.56H951.574V510.4C953.774 510.3 954.974 510.26 955.754 510.26H957.474C960.194 510.26 961.294 511.48 961.334 514.54C961.354 516.38 961.274 519.82 961.194 520.54C960.934 520.76 960.414 521.04 960.054 521.12C959.874 521.18 959.574 521.2 959.074 521.2C958.214 521.2 956.914 521.04 956.234 520.84L956.534 519.58C957.674 519.76 959.334 519.98 959.894 519.98C959.954 519.32 959.974 517.9 959.954 515.2C959.934 512.38 959.274 511.56 957.034 511.56H955.774L953.254 521.2ZM972.662 523.6H971.222V511.58H968.542V510.28H972.662V523.6ZM979.923 521.28C978.163 521.28 975.683 521.02 974.883 520.8L975.163 519.5C976.023 519.66 979.243 520.04 980.883 520.04C981.263 520.04 981.383 520.04 981.523 520.02C981.603 519.4 981.623 518 981.623 516.42V515.7C981.623 512.46 980.863 511.56 978.123 511.56H975.583V510.4C976.163 510.32 977.563 510.26 978.743 510.26C981.803 510.26 983.063 511.68 983.063 515.12C983.063 517.18 983.003 519.18 982.903 520.46C982.643 520.72 981.963 521.06 981.543 521.14C981.223 521.24 980.623 521.28 979.923 521.28ZM989.458 521H988.018V511.58H985.258V510.28H989.458V521ZM994.493 521.2C993.833 521.2 992.833 521.04 992.273 520.86L992.573 519.64C993.733 519.88 994.633 520.02 994.893 520C994.933 519.86 995.013 518.88 995.053 517.58C995.173 513.46 995.213 512.18 995.193 511.58H992.593V510.42C995.053 510.32 996.913 510.26 998.093 510.26H1000.19C1002.31 510.26 1003.47 511.46 1003.47 513.64V521H1002.03V513.92C1002.03 512.38 1001.25 511.58 999.793 511.58H996.633C996.633 512.86 996.633 513.24 996.473 518C996.433 518.86 996.393 519.76 996.233 520.7C996.013 520.88 995.653 521.06 995.413 521.12C995.253 521.18 995.013 521.2 994.493 521.2ZM1015.33 521H1005.71L1006.07 519.7H1012.27V513.92C1012.27 512.4 1011.49 511.58 1010.01 511.58H1006.21V510.42C1007.47 510.32 1008.51 510.26 1009.51 510.26H1010.47C1012.57 510.26 1013.71 511.46 1013.71 513.64V519.7H1015.33V521ZM1023.97 521.2C1023.31 521.2 1022.31 521.04 1021.75 520.86L1022.05 519.64C1023.21 519.88 1024.11 520.02 1024.37 520C1024.41 519.86 1024.49 518.88 1024.53 517.58C1024.65 513.46 1024.69 512.18 1024.67 511.58H1022.07V510.42C1024.53 510.32 1026.39 510.26 1027.57 510.26H1029.67C1031.79 510.26 1032.95 511.46 1032.95 513.64V521H1031.51V513.92C1031.51 512.38 1030.73 511.58 1029.27 511.58H1026.11C1026.11 512.86 1026.11 513.24 1025.95 518C1025.91 518.86 1025.87 519.76 1025.71 520.7C1025.49 520.88 1025.13 521.06 1024.89 521.12C1024.73 521.18 1024.49 521.2 1023.97 521.2ZM1039.44 521H1038V511.58H1035.24V510.28H1039.44V521ZM1050.33 521.32L1046.63 515.36C1045.53 515.76 1044.95 516.38 1044.79 517.36C1044.65 518.16 1044.57 519.86 1044.53 521.1H1043.05C1043.07 520.08 1043.15 518.9 1043.25 518C1043.47 516.3 1044.15 515.28 1045.55 514.62C1044.47 513.02 1043.69 511.76 1043.15 510.74C1043.43 510.58 1043.81 510.36 1044.35 510.08C1045.29 511.64 1046.25 513.14 1047.27 514.62C1047.71 514.7 1048.99 514.76 1049.83 514.74C1050.01 513.86 1050.23 512.02 1050.37 510.26H1051.83C1051.77 511.58 1051.45 514 1051.25 514.72C1051.03 515.12 1050.21 515.68 1049.75 515.74C1049.37 515.78 1048.97 515.8 1048.55 515.78L1051.59 520.74C1051.25 520.94 1050.77 521.16 1050.33 521.32ZM1064.57 510.32L1065.89 510.2C1065.95 510.58 1065.97 511 1065.97 511.8C1065.97 517.58 1062.59 521.04 1056.71 521.26C1056.33 521.26 1055.37 520.98 1055.27 520.84L1054.91 510.32L1056.25 510.2L1056.41 514.68C1057.47 514.8 1059.01 514.94 1059.49 514.92C1059.57 514.44 1059.63 513.74 1059.65 513.06C1059.69 512.2 1059.71 511.2 1059.71 510.32L1061.07 510.22C1061.09 510.38 1061.09 510.52 1061.09 511.02C1061.09 512.48 1060.95 514.2 1060.75 515.04C1060.37 515.46 1059.71 515.84 1059.27 515.9C1059.03 515.94 1058.65 515.96 1058.13 515.96C1057.65 515.96 1057.11 515.92 1056.45 515.88L1056.59 520L1056.77 520.06C1062.05 519.66 1064.61 516.88 1064.61 511.52C1064.61 510.72 1064.61 510.64 1064.57 510.32ZM1072.62 521H1071.18V511.58H1068.42V510.28H1072.62V521ZM1078.21 521.2C1077.23 521.2 1075.87 521.04 1075.17 520.84L1075.47 519.58C1076.89 519.8 1078.55 519.98 1079.07 519.96C1079.13 519.12 1079.15 517.94 1079.15 515.32C1079.15 513.52 1079.11 512.02 1079.05 511.58H1076.17V510.28H1080.49C1080.55 510.62 1080.59 512.26 1080.59 514.36C1080.59 518.32 1080.57 519.56 1080.49 520.54C1080.21 520.76 1079.63 521.04 1079.25 521.12C1079.07 521.18 1078.81 521.2 1078.21 521.2ZM1092.93 521H1091.49V513.92C1091.49 512.38 1090.71 511.58 1089.19 511.58H1083.75V510.42C1085.47 510.32 1086.99 510.26 1088.03 510.26H1089.65C1091.77 510.26 1092.93 511.46 1092.93 513.64V521ZM1085.35 521H1083.91V515.28C1084.47 515.24 1084.79 515.2 1085.35 515.18V521ZM1102.48 521.2C1101.82 521.2 1100.82 521.04 1100.26 520.86L1100.56 519.64C1101.72 519.88 1102.62 520.02 1102.88 520C1102.92 519.86 1103 518.88 1103.04 517.58C1103.16 513.46 1103.2 512.18 1103.18 511.58H1100.58V510.42C1103.04 510.32 1104.9 510.26 1106.08 510.26H1108.18C1110.3 510.26 1111.46 511.46 1111.46 513.64V521H1110.02V513.92C1110.02 512.38 1109.24 511.58 1107.78 511.58H1104.62C1104.62 512.86 1104.62 513.24 1104.46 518C1104.42 518.86 1104.38 519.76 1104.22 520.7C1104 520.88 1103.64 521.06 1103.4 521.12C1103.24 521.18 1103 521.2 1102.48 521.2ZM1117.95 521H1116.51V511.58H1113.75V510.28H1117.95V521ZM1125.36 516.52H1123.92V511.58H1120.94V510.28H1125.36V516.52ZM1130.5 521H1129.06V510.42C1130.98 510.32 1132.34 510.26 1133.26 510.26H1134.86C1136.96 510.26 1138.12 511.44 1138.12 513.62V521H1136.68V513.9C1136.68 512.36 1135.9 511.58 1134.4 511.58H1130.5V521ZM781.68 542.76H780.96L781.42 540.5V537.98H783.16V538.88C783.16 540.42 782.64 541.4 781.68 542.76ZM795.044 540H793.604V532.92C793.604 531.38 792.824 530.58 791.304 530.58H785.864V529.42C787.584 529.32 789.104 529.26 790.144 529.26H791.764C793.884 529.26 795.044 530.46 795.044 532.64V540ZM787.464 540H786.024V534.28C786.584 534.24 786.904 534.2 787.464 534.18V540ZM802.988 540.28C801.068 540.28 798.388 540.02 797.508 539.8L797.808 538.5C798.768 538.66 802.168 539.04 803.988 539.04C804.408 539.04 804.868 539.04 804.908 539.02C804.988 538.7 805.008 538.28 805.028 536.5V534.26C805.028 531.38 804.388 530.58 802.108 530.58H800.768L799.488 533.52C799.588 533.88 801.428 534.82 801.728 534.98L801.208 535.98C800.088 535.56 798.988 534.98 798.568 534.58C798.368 534.36 798.088 533.54 798.128 533.26L799.828 529.4C800.468 529.3 801.288 529.26 802.468 529.26C805.228 529.26 806.368 530.5 806.428 533.6C806.448 534.12 806.428 535.1 806.408 536.32C806.348 538.06 806.288 539.1 806.228 539.46C805.948 539.72 805.208 540.06 804.748 540.14C804.388 540.24 803.748 540.28 802.988 540.28ZM819.473 529.32L820.793 529.2C820.853 529.58 820.873 530 820.873 530.8C820.873 536.58 817.493 540.04 811.613 540.26C811.233 540.26 810.273 539.98 810.173 539.84L809.813 529.32L811.153 529.2L811.313 533.68C812.373 533.8 813.913 533.94 814.393 533.92C814.473 533.44 814.533 532.74 814.553 532.06C814.593 531.2 814.613 530.2 814.613 529.32L815.973 529.22C815.993 529.38 815.993 529.52 815.993 530.02C815.993 531.48 815.853 533.2 815.653 534.04C815.273 534.46 814.613 534.84 814.173 534.9C813.933 534.94 813.553 534.96 813.033 534.96C812.553 534.96 812.013 534.92 811.353 534.88L811.493 539L811.673 539.06C816.953 538.66 819.513 535.88 819.513 530.52C819.513 529.72 819.513 529.64 819.473 529.32ZM832.915 540H831.475V532.92C831.475 531.38 830.695 530.58 829.175 530.58H823.735V529.42C825.455 529.32 826.975 529.26 828.015 529.26H829.635C831.755 529.26 832.915 530.46 832.915 532.64V540ZM825.335 540H823.895V534.28C824.455 534.24 824.775 534.2 825.335 534.18V540ZM844.901 540H843.441L845.961 530.58H840.061V525.88H841.461V529.28H847.381V530.54L844.901 540ZM860.117 529.32L861.437 529.2C861.497 529.58 861.517 530 861.517 530.8C861.517 536.58 858.137 540.04 852.257 540.26C851.877 540.26 850.917 539.98 850.817 539.84L850.457 529.32L851.797 529.2L851.957 533.68C853.017 533.8 854.557 533.94 855.037 533.92C855.117 533.44 855.177 532.74 855.197 532.06C855.237 531.2 855.257 530.2 855.257 529.32L856.617 529.22C856.637 529.38 856.637 529.52 856.637 530.02C856.637 531.48 856.497 533.2 856.297 534.04C855.917 534.46 855.257 534.84 854.817 534.9C854.577 534.94 854.197 534.96 853.677 534.96C853.197 534.96 852.657 534.92 851.997 534.88L852.137 539L852.317 539.06C857.597 538.66 860.157 535.88 860.157 530.52C860.157 529.72 860.157 529.64 860.117 529.32ZM872.642 542.6H871.202V530.58H868.522V529.28H872.642V542.6ZM879.561 535.52H878.121V530.58H875.141V529.28H879.561V535.52ZM886.612 535.52H885.172V530.58H882.192V529.28H886.612V535.52ZM891.574 540.2C890.594 540.2 889.234 540.04 888.534 539.84L888.834 538.58C890.254 538.8 891.914 538.98 892.434 538.96C892.494 538.12 892.514 536.94 892.514 534.32C892.514 532.52 892.474 531.02 892.414 530.58H889.534V529.28H893.854C893.914 529.62 893.954 531.26 893.954 533.36C893.954 537.32 893.934 538.56 893.854 539.54C893.574 539.76 892.994 540.04 892.614 540.12C892.434 540.18 892.174 540.2 891.574 540.2ZM905.814 540H896.194L896.554 538.7H902.754V532.92C902.754 531.4 901.974 530.58 900.494 530.58H896.694V529.42C897.954 529.32 898.994 529.26 899.994 529.26H900.954C903.054 529.26 904.194 530.46 904.194 532.64V538.7H905.814V540ZM917.251 540H915.811V532.92C915.811 531.38 915.031 530.58 913.511 530.58H908.071V529.42C909.791 529.32 911.311 529.26 912.351 529.26H913.971C916.091 529.26 917.251 530.46 917.251 532.64V540ZM909.671 540H908.231V534.28C908.791 534.24 909.111 534.2 909.671 534.18V540ZM928.877 535.52H927.437V530.58H924.457V529.28H928.877V535.52ZM933.839 540.2C932.859 540.2 931.499 540.04 930.799 539.84L931.099 538.58C932.519 538.8 934.179 538.98 934.699 538.96C934.759 538.12 934.779 536.94 934.779 534.32C934.779 532.52 934.739 531.02 934.679 530.58H931.799V529.28H936.119C936.179 529.62 936.219 531.26 936.219 533.36C936.219 537.32 936.199 538.56 936.119 539.54C935.839 539.76 935.259 540.04 934.879 540.12C934.699 540.18 934.439 540.2 933.839 540.2ZM948.08 540H938.46L938.82 538.7H945.02V532.92C945.02 531.4 944.24 530.58 942.76 530.58H938.96V529.42C940.22 529.32 941.26 529.26 942.26 529.26H943.22C945.32 529.26 946.46 530.46 946.46 532.64V538.7H948.08V540ZM957.557 540.32L953.857 534.36C952.757 534.76 952.177 535.38 952.017 536.36C951.877 537.16 951.797 538.86 951.757 540.1H950.277C950.297 539.08 950.377 537.9 950.477 537C950.697 535.3 951.377 534.28 952.777 533.62C951.697 532.02 950.917 530.76 950.377 529.74C950.657 529.58 951.037 529.36 951.577 529.08C952.517 530.64 953.477 532.14 954.497 533.62C954.937 533.7 956.217 533.76 957.057 533.74C957.237 532.86 957.457 531.02 957.597 529.26H959.057C958.997 530.58 958.677 533 958.477 533.72C958.257 534.12 957.437 534.68 956.977 534.74C956.597 534.78 956.197 534.8 955.777 534.78L958.817 539.74C958.477 539.94 957.997 540.16 957.557 540.32ZM970.259 542.6H968.819V530.58H966.139V529.28H970.259V542.6ZM982.701 540H981.261V532.92C981.261 531.38 980.481 530.58 978.961 530.58H973.521V529.42C975.241 529.32 976.761 529.26 977.801 529.26H979.421C981.541 529.26 982.701 530.46 982.701 532.64V540ZM975.121 540H973.681V534.28C974.241 534.24 974.561 534.2 975.121 534.18V540ZM992.247 540.2C991.587 540.2 990.587 540.04 990.027 539.86L990.327 538.64C991.487 538.88 992.387 539.02 992.647 539C992.687 538.86 992.767 537.88 992.807 536.58C992.927 532.46 992.967 531.18 992.947 530.58H990.347V529.42C992.807 529.32 994.667 529.26 995.847 529.26H997.947C1000.07 529.26 1001.23 530.46 1001.23 532.64V540H999.787V532.92C999.787 531.38 999.007 530.58 997.547 530.58H994.387C994.387 531.86 994.387 532.24 994.227 537C994.187 537.86 994.147 538.76 993.987 539.7C993.767 539.88 993.407 540.06 993.167 540.12C993.007 540.18 992.767 540.2 992.247 540.2ZM1007.72 540H1006.28V530.58H1003.52V529.28H1007.72V540ZM1015.13 535.52H1013.69V530.58H1010.71V529.28H1015.13V535.52ZM1019.86 540.2C1019.2 540.2 1018.2 540.04 1017.64 539.86L1017.94 538.64C1019.1 538.88 1020 539.02 1020.26 539C1020.3 538.86 1020.38 537.88 1020.42 536.58C1020.54 532.46 1020.58 531.18 1020.56 530.58H1017.96V529.42C1020.42 529.32 1022.28 529.26 1023.46 529.26H1025.56C1027.68 529.26 1028.84 530.46 1028.84 532.64V540H1027.4V532.92C1027.4 531.38 1026.62 530.58 1025.16 530.58H1022C1022 531.86 1022 532.24 1021.84 537C1021.8 537.86 1021.76 538.76 1021.6 539.7C1021.38 539.88 1021.02 540.06 1020.78 540.12C1020.62 540.18 1020.38 540.2 1019.86 540.2ZM1035.34 540H1033.9V530.58H1031.14V529.28H1035.34V540ZM1046.23 540.32L1042.53 534.36C1041.43 534.76 1040.85 535.38 1040.69 536.36C1040.55 537.16 1040.47 538.86 1040.43 540.1H1038.95C1038.97 539.08 1039.05 537.9 1039.15 537C1039.37 535.3 1040.05 534.28 1041.45 533.62C1040.37 532.02 1039.59 530.76 1039.05 529.74C1039.33 529.58 1039.71 529.36 1040.25 529.08C1041.19 530.64 1042.15 532.14 1043.17 533.62C1043.61 533.7 1044.89 533.76 1045.73 533.74C1045.91 532.86 1046.13 531.02 1046.27 529.26H1047.73C1047.67 530.58 1047.35 533 1047.15 533.72C1046.93 534.12 1046.11 534.68 1045.65 534.74C1045.27 534.78 1044.87 534.8 1044.45 534.78L1047.49 539.74C1047.15 539.94 1046.67 540.16 1046.23 540.32ZM1059.85 540H1058.41V532.92C1058.41 531.38 1057.63 530.58 1056.11 530.58H1050.67V529.42C1052.39 529.32 1053.91 529.26 1054.95 529.26H1056.57C1058.69 529.26 1059.85 530.46 1059.85 532.64V540ZM1052.27 540H1050.83V534.28C1051.39 534.24 1051.71 534.2 1052.27 534.18V540ZM1079.74 540H1077.52V538.18H1079.74V540ZM1084.49 540.2C1083.83 540.2 1082.83 540.04 1082.27 539.86L1082.57 538.64C1083.73 538.88 1084.63 539.02 1084.89 539C1084.93 538.86 1085.01 537.88 1085.05 536.58C1085.17 532.46 1085.21 531.18 1085.19 530.58H1082.59V529.42C1085.05 529.32 1086.91 529.26 1088.09 529.26H1090.19C1092.31 529.26 1093.47 530.46 1093.47 532.64V540H1092.03V532.92C1092.03 531.38 1091.25 530.58 1089.79 530.58H1086.63C1086.63 531.86 1086.63 532.24 1086.47 537C1086.43 537.86 1086.39 538.76 1086.23 539.7C1086.01 539.88 1085.65 540.06 1085.41 540.12C1085.25 540.18 1085.01 540.2 1084.49 540.2ZM1100.19 535.52H1098.75V530.58H1095.77V529.28H1100.19V535.52ZM1104.56 540.2H1103.12L1105.64 530.56H1102.88V529.4C1105.08 529.3 1106.28 529.26 1107.06 529.26H1108.78C1111.5 529.26 1112.6 530.48 1112.64 533.54C1112.66 535.38 1112.58 538.82 1112.5 539.54C1112.24 539.76 1111.72 540.04 1111.36 540.12C1111.18 540.18 1110.88 540.2 1110.38 540.2C1109.52 540.2 1108.22 540.04 1107.54 539.84L1107.84 538.58C1108.98 538.76 1110.64 538.98 1111.2 538.98C1111.26 538.32 1111.28 536.9 1111.26 534.2C1111.24 531.38 1110.58 530.56 1108.34 530.56H1107.08L1104.56 540.2ZM1119.17 535.52H1117.73V530.58H1114.75V529.28H1119.17V535.52ZM1124.13 540.2C1123.15 540.2 1121.79 540.04 1121.09 539.84L1121.39 538.58C1122.81 538.8 1124.47 538.98 1124.99 538.96C1125.05 538.12 1125.07 536.94 1125.07 534.32C1125.07 532.52 1125.03 531.02 1124.97 530.58H1122.09V529.28H1126.41C1126.47 529.62 1126.51 531.26 1126.51 533.36C1126.51 537.32 1126.49 538.56 1126.41 539.54C1126.13 539.76 1125.55 540.04 1125.17 540.12C1124.99 540.18 1124.73 540.2 1124.13 540.2ZM1134.45 540.28C1132.53 540.28 1129.85 540.02 1128.97 539.8L1129.27 538.5C1130.23 538.66 1133.63 539.04 1135.45 539.04C1135.87 539.04 1136.33 539.04 1136.37 539.02C1136.45 538.7 1136.47 538.28 1136.49 536.5V534.26C1136.49 531.38 1135.85 530.58 1133.57 530.58H1132.23L1130.95 533.52C1131.05 533.88 1132.89 534.82 1133.19 534.98L1132.67 535.98C1131.55 535.56 1130.45 534.98 1130.03 534.58C1129.83 534.36 1129.55 533.54 1129.59 533.26L1131.29 529.4C1131.93 529.3 1132.75 529.26 1133.93 529.26C1136.69 529.26 1137.83 530.5 1137.89 533.6C1137.91 534.12 1137.89 535.1 1137.87 536.32C1137.81 538.06 1137.75 539.1 1137.69 539.46C1137.41 539.72 1136.67 540.06 1136.21 540.14C1135.85 540.24 1135.21 540.28 1134.45 540.28ZM786.552 559H785.092L787.612 549.58H781.712V544.88H783.112V548.28H789.032V549.54L786.552 559ZM801.768 548.32L803.088 548.2C803.148 548.58 803.168 549 803.168 549.8C803.168 555.58 799.788 559.04 793.908 559.26C793.528 559.26 792.568 558.98 792.468 558.84L792.108 548.32L793.448 548.2L793.608 552.68C794.668 552.8 796.208 552.94 796.688 552.92C796.768 552.44 796.828 551.74 796.848 551.06C796.888 550.2 796.908 549.2 796.908 548.32L798.268 548.22C798.288 548.38 798.288 548.52 798.288 549.02C798.288 550.48 798.148 552.2 797.948 553.04C797.568 553.46 796.908 553.84 796.468 553.9C796.228 553.94 795.848 553.96 795.328 553.96C794.848 553.96 794.308 553.92 793.648 553.88L793.788 558L793.968 558.06C799.248 557.66 801.808 554.88 801.808 549.52C801.808 548.72 801.808 548.64 801.768 548.32ZM817.453 559H816.013V549.58H810.173V548.28H819.453L819.093 549.58H817.453V559ZM825.601 559H824.161V549.58H821.401V548.28H825.601V559ZM831.071 559.22C830.691 559.2 830.131 559.1 829.971 559.02L829.411 549.78C829.391 549.22 829.391 548.86 829.431 548.28H835.371C837.451 548.26 838.591 549.46 838.591 551.64C838.591 555.7 835.751 558.56 831.071 559.22ZM831.291 557.82L831.471 557.86C835.011 557.3 837.151 555 837.151 551.76C837.151 550.3 836.431 549.58 834.911 549.58H830.791L831.291 557.82ZM845.137 554.52H843.697V549.58H840.717V548.28H845.137V554.52ZM856.856 554.52H855.416V549.58H852.436V548.28H856.856V554.52ZM861.818 559.2C860.838 559.2 859.478 559.04 858.778 558.84L859.078 557.58C860.498 557.8 862.158 557.98 862.678 557.96C862.738 557.12 862.758 555.94 862.758 553.32C862.758 551.52 862.718 550.02 862.658 549.58H859.778V548.28H864.098C864.158 548.62 864.198 550.26 864.198 552.36C864.198 556.32 864.178 557.56 864.098 558.54C863.818 558.76 863.238 559.04 862.858 559.12C862.678 559.18 862.418 559.2 861.818 559.2ZM876.058 559H866.438L866.798 557.7H872.998V551.92C872.998 550.4 872.218 549.58 870.738 549.58H866.938V548.42C868.198 548.32 869.238 548.26 870.238 548.26H871.198C873.298 548.26 874.438 549.46 874.438 551.64V557.7H876.058V559ZM885.535 559.32L881.835 553.36C880.735 553.76 880.155 554.38 879.995 555.36C879.855 556.16 879.775 557.86 879.735 559.1H878.255C878.275 558.08 878.355 556.9 878.455 556C878.675 554.3 879.355 553.28 880.755 552.62C879.675 551.02 878.895 549.76 878.355 548.74C878.635 548.58 879.015 548.36 879.555 548.08C880.495 549.64 881.455 551.14 882.475 552.62C882.915 552.7 884.195 552.76 885.035 552.74C885.215 551.86 885.435 550.02 885.575 548.26H887.035C886.975 549.58 886.655 552 886.455 552.72C886.235 553.12 885.415 553.68 884.955 553.74C884.575 553.78 884.175 553.8 883.755 553.78L886.795 558.74C886.455 558.94 885.975 559.16 885.535 559.32ZM968.288 559H959.048V548.42C960.968 548.32 962.468 548.26 963.428 548.26H965.028C967.128 548.26 968.288 549.44 968.288 551.62V559ZM960.488 549.58V557.7H966.848V551.9C966.848 550.36 966.068 549.58 964.568 549.58H960.488ZM975.5 548.28L976.14 559H974.84L974.72 557.58C973 558.44 971.68 559.08 970.82 559.08C970.62 559.08 970.44 559.06 970.3 558.98L970.34 557.74C971.3 557.58 972.72 557.24 974.66 556.76L974.22 549.58H971.24V548.28H975.5ZM987.554 561.6H986.114V549.58H983.434V548.28H987.554V561.6ZM999.995 559H998.555V551.92C998.555 550.38 997.775 549.58 996.255 549.58H990.815V548.42C992.535 548.32 994.055 548.26 995.095 548.26H996.715C998.835 548.26 999.995 549.46 999.995 551.64V559ZM992.415 559H990.975V553.28C991.535 553.24 991.855 553.2 992.415 553.18V559ZM1015.64 559H1014.16L1015.86 549.58H1008.2V548.28H1017.36V549.48L1015.64 559ZM1008.52 561.66C1008.48 561.16 1008.48 560.68 1008.48 560.12V553.22C1009 553.18 1009.44 553.14 1009.92 553.12V559.76C1009.92 560.24 1009.92 560.88 1009.98 561.46C1009.36 561.58 1008.96 561.64 1008.52 561.66ZM1023.96 559H1022.52V549.58H1019.76V548.28H1023.96V559ZM1035 559H1033.52L1035.22 549.58H1027.56V548.28H1036.72V549.48L1035 559ZM1027.88 561.66C1027.84 561.16 1027.84 560.68 1027.84 560.12V553.22C1028.36 553.18 1028.8 553.14 1029.28 553.12V559.76C1029.28 560.24 1029.28 560.88 1029.34 561.46C1028.72 561.58 1028.32 561.64 1027.88 561.66ZM1053.29 559H1043.67L1044.03 557.7H1050.23V551.92C1050.23 550.4 1049.45 549.58 1047.97 549.58H1044.17V548.42C1045.43 548.32 1046.47 548.26 1047.47 548.26H1048.43C1050.53 548.26 1051.67 549.46 1051.67 551.64V557.7H1053.29V559ZM1062.19 559H1060.75V551.9C1060.75 550.4 1059.93 549.58 1058.45 549.58H1054.63V548.42C1055.75 548.3 1056.77 548.26 1057.93 548.26H1058.89C1061.03 548.26 1062.19 549.46 1062.19 551.64V559ZM1074.53 559H1073.09V551.92C1073.09 550.38 1072.31 549.58 1070.79 549.58H1065.35V548.42C1067.07 548.32 1068.59 548.26 1069.63 548.26H1071.25C1073.37 548.26 1074.53 549.46 1074.53 551.64V559ZM1066.95 559H1065.51V553.28C1066.07 553.24 1066.39 553.2 1066.95 553.18V559ZM1086.51 559H1085.05L1087.57 549.58H1081.67V544.88H1083.07V548.28H1088.99V549.54L1086.51 559ZM1095.39 553.78L1099.41 557.56L1099.09 558.78C1098.77 558.94 1098.39 559.1 1098.11 559.14C1097.79 559.24 1097.21 559.28 1096.35 559.28C1094.47 559.28 1091.97 559.06 1091.07 558.8L1091.37 557.5C1092.41 557.74 1095.97 558.04 1097.77 558.04C1097.95 558.04 1098.13 558.04 1098.25 558.02V557.9C1096.87 556.84 1095.61 556.08 1093.59 553.56C1092.91 552.54 1092.07 550.4 1091.61 548.54C1092.01 548.34 1092.49 548.18 1092.95 548.06C1093.41 549.62 1094.05 551.3 1094.67 552.6C1095.43 552.72 1097.11 552.8 1097.35 552.74C1097.53 552.04 1097.75 550.02 1097.87 548.28H1099.27C1099.23 549.3 1098.91 551.84 1098.69 552.72C1098.47 553.12 1097.73 553.68 1097.29 553.74C1096.75 553.8 1096.03 553.8 1095.39 553.78ZM1109.27 559.32L1105.57 553.36C1104.47 553.76 1103.89 554.38 1103.73 555.36C1103.59 556.16 1103.51 557.86 1103.47 559.1H1101.99C1102.01 558.08 1102.09 556.9 1102.19 556C1102.41 554.3 1103.09 553.28 1104.49 552.62C1103.41 551.02 1102.63 549.76 1102.09 548.74C1102.37 548.58 1102.75 548.36 1103.29 548.08C1104.23 549.64 1105.19 551.14 1106.21 552.62C1106.65 552.7 1107.93 552.76 1108.77 552.74C1108.95 551.86 1109.17 550.02 1109.31 548.26H1110.77C1110.71 549.58 1110.39 552 1110.19 552.72C1109.97 553.12 1109.15 553.68 1108.69 553.74C1108.31 553.78 1107.91 553.8 1107.49 553.78L1110.53 558.74C1110.19 558.94 1109.71 559.16 1109.27 559.32ZM1125.47 561.6H1124.03V551.9C1124.03 550.36 1123.27 549.58 1121.77 549.58H1117.75V548.42C1118.95 548.32 1120.25 548.26 1121.03 548.26H1122.21C1124.31 548.26 1125.47 549.46 1125.47 551.64V561.6ZM1135.85 559.32L1132.15 553.36C1131.05 553.76 1130.47 554.38 1130.31 555.36C1130.17 556.16 1130.09 557.86 1130.05 559.1H1128.57C1128.59 558.08 1128.67 556.9 1128.77 556C1128.99 554.3 1129.67 553.28 1131.07 552.62C1129.99 551.02 1129.21 549.76 1128.67 548.74C1128.95 548.58 1129.33 548.36 1129.87 548.08C1130.81 549.64 1131.77 551.14 1132.79 552.62C1133.23 552.7 1134.51 552.76 1135.35 552.74C1135.53 551.86 1135.75 550.02 1135.89 548.26H1137.35C1137.29 549.58 1136.97 552 1136.77 552.72C1136.55 553.12 1135.73 553.68 1135.27 553.74C1134.89 553.78 1134.49 553.8 1134.07 553.78L1137.11 558.74C1136.77 558.94 1136.29 559.16 1135.85 559.32ZM910.96 578H908.74V576.18H910.96V578ZM922.867 578H921.427V570.92C921.427 569.38 920.647 568.58 919.127 568.58H913.687V567.42C915.407 567.32 916.927 567.26 917.967 567.26H919.587C921.707 567.26 922.867 568.46 922.867 570.64V578ZM915.287 578H913.847V572.28C914.407 572.24 914.727 572.2 915.287 572.18V578ZM933.25 578.32L929.55 572.36C928.45 572.76 927.87 573.38 927.71 574.36C927.57 575.16 927.49 576.86 927.45 578.1H925.97C925.99 577.08 926.07 575.9 926.17 575C926.39 573.3 927.07 572.28 928.47 571.62C927.39 570.02 926.61 568.76 926.07 567.74C926.35 567.58 926.73 567.36 927.27 567.08C928.21 568.64 929.17 570.14 930.19 571.62C930.63 571.7 931.91 571.76 932.75 571.74C932.93 570.86 933.15 569.02 933.29 567.26H934.75C934.69 568.58 934.37 571 934.17 571.72C933.95 572.12 933.13 572.68 932.67 572.74C932.29 572.78 931.89 572.8 931.47 572.78L934.51 577.74C934.17 577.94 933.69 578.16 933.25 578.32ZM941.446 573.52H940.006V568.58H937.026V567.28H941.446V573.52ZM951.895 578H950.455V570.9C950.455 569.4 949.635 568.58 948.155 568.58H944.335V567.42C945.455 567.3 946.475 567.26 947.635 567.26H948.595C950.735 567.26 951.895 568.46 951.895 570.64V578ZM963.754 578H954.134L954.494 576.7H960.694V570.92C960.694 569.4 959.914 568.58 958.434 568.58H954.634V567.42C955.894 567.32 956.934 567.26 957.934 567.26H958.894C960.994 567.26 962.134 568.46 962.134 570.64V576.7H963.754V578ZM969.253 578H967.813V568.58H965.053V567.28H969.253V578ZM986.89 578H985.45V570.92C985.45 569.38 984.67 568.58 983.15 568.58H977.71V567.42C979.43 567.32 980.95 567.26 981.99 567.26H983.61C985.73 567.26 986.89 568.46 986.89 570.64V578ZM979.31 578H977.87V572.28C978.43 572.24 978.75 572.2 979.31 572.18V578ZM996.954 578H995.514V570.9C995.514 569.4 994.694 568.58 993.214 568.58H989.394V567.42C990.514 567.3 991.534 567.26 992.694 567.26H993.654C995.794 567.26 996.954 568.46 996.954 570.64V578ZM1003.45 578H1002.01V568.58H999.252V567.28H1003.45V578ZM1010.56 572.78L1014.58 576.56L1014.26 577.78C1013.94 577.94 1013.56 578.1 1013.28 578.14C1012.96 578.24 1012.38 578.28 1011.52 578.28C1009.64 578.28 1007.14 578.06 1006.24 577.8L1006.54 576.5C1007.58 576.74 1011.14 577.04 1012.94 577.04C1013.12 577.04 1013.3 577.04 1013.42 577.02V576.9C1012.04 575.84 1010.78 575.08 1008.76 572.56C1008.08 571.54 1007.24 569.4 1006.78 567.54C1007.18 567.34 1007.66 567.18 1008.12 567.06C1008.58 568.62 1009.22 570.3 1009.84 571.6C1010.6 571.72 1012.28 571.8 1012.52 571.74C1012.7 571.04 1012.92 569.02 1013.04 567.28H1014.44C1014.4 568.3 1014.08 570.84 1013.86 571.72C1013.64 572.12 1012.9 572.68 1012.46 572.74C1011.92 572.8 1011.2 572.8 1010.56 572.78ZM1022.12 580.76H1021.4L1021.86 578.5V575.98H1023.6V576.88C1023.6 578.42 1023.08 579.4 1022.12 580.76ZM1031.41 578H1029.97V570.9C1029.97 569.4 1029.15 568.58 1027.67 568.58H1023.85V567.42C1024.97 567.3 1025.99 567.26 1027.15 567.26H1028.11C1030.25 567.26 1031.41 568.46 1031.41 570.64V578ZM1037.91 578H1036.47V568.58H1033.71V567.28H1037.91V578ZM1050.36 578H1040.74L1041.1 576.7H1047.3V570.92C1047.3 569.4 1046.52 568.58 1045.04 568.58H1041.24V567.42C1042.5 567.32 1043.54 567.26 1044.54 567.26H1045.5C1047.6 567.26 1048.74 568.46 1048.74 570.64V576.7H1050.36V578ZM1055.8 573.52H1054.36V568.58H1051.38V567.28H1055.8V573.52ZM1065.95 578H1064.51V568.58H1058.67V567.28H1067.95L1067.59 568.58H1065.95V578ZM1075.07 580.76H1074.35L1074.81 578.5V575.98H1076.55V576.88C1076.55 578.42 1076.03 579.4 1075.07 580.76ZM1088.43 578H1086.99V570.92C1086.99 569.38 1086.21 568.58 1084.69 568.58H1079.25V567.42C1080.97 567.32 1082.49 567.26 1083.53 567.26H1085.15C1087.27 567.26 1088.43 568.46 1088.43 570.64V578ZM1080.85 578H1079.41V572.28C1079.97 572.24 1080.29 572.2 1080.85 572.18V578ZM1100.3 578H1090.68L1091.04 576.7H1097.24V570.92C1097.24 569.4 1096.46 568.58 1094.98 568.58H1091.18V567.42C1092.44 567.32 1093.48 567.26 1094.48 567.26H1095.44C1097.54 567.26 1098.68 568.46 1098.68 570.64V576.7H1100.3V578ZM1112.45 567.32L1113.77 567.2C1113.83 567.58 1113.85 568 1113.85 568.8C1113.85 574.58 1110.47 578.04 1104.59 578.26C1104.21 578.26 1103.25 577.98 1103.15 577.84L1102.79 567.32L1104.13 567.2L1104.29 571.68C1105.35 571.8 1106.89 571.94 1107.37 571.92C1107.45 571.44 1107.51 570.74 1107.53 570.06C1107.57 569.2 1107.59 568.2 1107.59 567.32L1108.95 567.22C1108.97 567.38 1108.97 567.52 1108.97 568.02C1108.97 569.48 1108.83 571.2 1108.63 572.04C1108.25 572.46 1107.59 572.84 1107.15 572.9C1106.91 572.94 1106.53 572.96 1106.01 572.96C1105.53 572.96 1104.99 572.92 1104.33 572.88L1104.47 577L1104.65 577.06C1109.93 576.66 1112.49 573.88 1112.49 568.52C1112.49 567.72 1112.49 567.64 1112.45 567.32ZM1118.4 578H1116.96V567.42C1118.88 567.32 1120.24 567.26 1121.16 567.26H1122.76C1124.86 567.26 1126.02 568.44 1126.02 570.62V578H1124.58V570.9C1124.58 569.36 1123.8 568.58 1122.3 568.58H1118.4V578ZM1130.29 578.2H1128.85L1131.37 568.56H1128.61V567.4C1130.81 567.3 1132.01 567.26 1132.79 567.26H1134.51C1137.23 567.26 1138.33 568.48 1138.37 571.54C1138.39 573.38 1138.31 576.82 1138.23 577.54C1137.97 577.76 1137.45 578.04 1137.09 578.12C1136.91 578.18 1136.61 578.2 1136.11 578.2C1135.25 578.2 1133.95 578.04 1133.27 577.84L1133.57 576.58C1134.71 576.76 1136.37 576.98 1136.93 576.98C1136.99 576.32 1137.01 574.9 1136.99 572.2C1136.97 569.38 1136.31 568.56 1134.07 568.56H1132.81L1130.29 578.2Z" fill="#101010"/>
<circle cx="5.5" cy="5.5" r="5" transform="matrix(4.37114e-08 1 1 -4.37114e-08 947 609)" stroke="#101010"/>
<circle cx="5.5" cy="5.5" r="5.5" transform="matrix(4.37114e-08 1 1 -4.37114e-08 962 609)" fill="#101010"/>
<path d="M960 335.5C1205.46 335.5 1427.68 358.443 1588.51 395.53C1668.92 414.075 1733.97 436.149 1778.9 460.644C1801.36 472.891 1818.77 485.731 1830.56 499.018C1842.35 512.301 1848.5 526.005 1848.5 540C1848.5 553.995 1842.35 567.699 1830.56 580.982C1818.77 594.269 1801.36 607.109 1778.9 619.356C1733.97 643.851 1668.92 665.925 1588.51 684.47C1427.68 721.557 1205.46 744.5 960 744.5C714.536 744.5 492.325 721.557 331.494 684.47C251.075 665.925 186.03 643.851 141.102 619.356C118.637 607.109 101.226 594.269 89.4355 580.982C77.6482 567.699 71.5 553.995 71.5 540C71.5 526.005 77.6482 512.301 89.4355 499.018C101.226 485.731 118.637 472.891 141.102 460.644C186.03 436.149 251.075 414.075 331.494 395.53C492.325 358.443 714.536 335.5 960 335.5Z" stroke="#101010"/>
<path d="M1031.83 348.528C1261.65 434.741 1461.65 534.269 1599.21 625.481C1667.99 671.089 1721.14 714.602 1754.6 753.316C1771.33 772.673 1783.12 790.811 1789.5 807.392C1795.87 823.968 1796.81 838.959 1791.89 852.062C1786.98 865.166 1776.41 875.838 1760.71 884.135C1745 892.433 1724.19 898.34 1698.86 901.917C1648.19 909.072 1579.53 906.894 1497.72 896.012C1334.11 874.249 1118 817.685 888.175 731.472C658.349 645.259 458.353 545.731 320.794 454.52C252.012 408.912 198.863 365.398 165.4 326.684C148.669 307.327 136.876 289.189 130.504 272.609C124.133 256.032 123.189 241.041 128.105 227.938C133.02 214.834 143.59 204.162 159.292 195.866C174.997 187.567 195.809 181.66 221.144 178.083C271.813 170.929 340.468 173.106 422.276 183.988C585.887 205.751 801.999 262.315 1031.83 348.528Z" stroke="#101010"/>
</svg>
