<svg width="1920" height="1080" viewBox="0 0 1920 1080" fill="none" xmlns="http://www.w3.org/2000/svg">
<rect width="1920" height="1080" fill="#FDFCF8"/>
<path d="M998.461 84.1865L999.945 86.0723L1000.25 86.4561L999.871 86.7676L997.583 88.6523L997.378 88.8203L997.457 88.9199L998.942 90.8057L999.245 91.1895L998.867 91.501L996.579 93.3857L996.185 93.7109L995.869 93.3096L994.384 91.4238L994.081 91.04L994.458 90.7285L996.746 88.8438L996.95 88.6748L996.872 88.5762L995.387 86.6914L995.084 86.3066L995.462 85.9961L997.75 84.1104L998.145 83.7852L998.461 84.1865ZM983.526 84.1865L985.012 86.0723L985.314 86.4561L984.937 86.7676L982.649 88.6523L982.255 88.9775L981.938 88.5762L980.453 86.6914L980.15 86.3066L980.528 85.9961L982.815 84.1104L983.21 83.7852L983.526 84.1865ZM1011.45 84.7988L1011.29 85.4199L1010.89 87.0244L1010.79 87.4033H1002.94L1003.1 86.7812L1003.5 85.1768L1003.59 84.7988H1011.45ZM913.965 54.7148L914.107 54.9736L915.29 57.1211H920.935C923.704 57.1211 925.816 57.6159 927.229 58.8896C928.656 60.175 929.262 62.1516 929.262 64.8418C929.262 70.5366 927.132 76.4454 923.844 81.5576L923.696 81.7871H921.741L921.894 81.168C923.177 75.9592 923.927 71.2749 923.927 69.0527C923.927 67.2719 923.57 66.323 922.86 65.7725C922.11 65.19 920.834 64.9404 918.687 64.9404H916.738V66.6064C916.738 75.5337 912.039 81.4996 905.068 82.4648L904.216 82.583L904.536 81.7832L907.506 74.3623L907.597 74.1367L907.831 74.0684C909.071 73.7085 910.023 73.403 910.756 73.1104C911.491 72.8166 911.977 72.5472 912.304 72.2715C912.899 71.7689 913.049 71.1842 913.049 69.9756C913.049 68.7294 912.875 67.0522 912.151 64.9404H908.94L909.187 64.2686L912.558 55.043L912.678 54.7148H913.965ZM934.47 56.1982L934.612 56.3262C935.795 57.3841 936.63 58.4536 937.162 59.6953C937.694 60.9349 937.91 62.3112 937.91 63.959C937.91 66.3049 937.248 69.2532 936.213 72.3174C935.175 75.3896 933.748 78.6139 932.191 81.5234L932.05 81.7871H929.848L930.024 81.1523C930.645 78.9327 931.264 76.5173 931.728 74.3203C932.193 72.1128 932.495 70.1604 932.495 68.8525C932.495 67.8491 932.379 67.0526 932.092 66.3105C931.804 65.5676 931.333 64.8473 930.577 64.0146L930.374 63.79L930.479 63.5059L933.048 56.5264L933.168 56.1982H934.47ZM945.586 55.4922L948.707 60.0107L953.638 65.8457C954.414 64.452 954.829 62.9212 954.829 61.4316C954.829 60.0022 954.415 58.5737 953.627 57.374L953.391 57.0156L953.71 56.7285L954.111 56.3672L954.267 56.2275L954.475 56.2393C956.616 56.3627 958.27 56.87 959.401 57.7178C960.552 58.5804 961.127 59.7723 961.127 61.1514C961.127 64.187 958.803 66.215 955.562 67.8203C956.478 68.9128 957.19 69.8263 957.68 70.7734C958.253 71.8816 958.519 73.016 958.519 74.5088C958.518 77.3201 956.915 79.9089 954.2 81.7041L954.074 81.7871H952.195L952.453 81.1094C952.757 80.312 952.902 79.8107 952.902 78.6797C952.902 77.3676 952.391 75.8676 951.226 74.0566C950.112 72.3259 948.419 70.3447 946.073 68.0107L942.567 81.4141L942.47 81.7871H936.895L937.163 81.1045L943.358 65.3682L940.008 61.1826L939.676 60.7676L940.109 60.4619L942.76 58.5908L944.754 55.5049L945.16 54.876L945.586 55.4922ZM981.87 67.3896L981.901 67.8555L982.464 76.0381L982.48 76.2764L982.305 76.4395L976.686 81.6543L976.542 81.7871H974.41L974.578 81.1582C975.83 76.4764 977.65 71.6218 979.883 67.6455L980.026 67.3896H981.87ZM982.113 54.7148L982.251 54.9912L983.316 57.1211H987.544C990.469 57.1211 992.695 57.6145 994.188 58.874C995.701 60.1515 996.353 62.1216 996.353 64.8018C996.352 70.5063 994.056 76.4622 990.399 81.5781L990.249 81.7871H988.246L988.428 81.1504C989.831 76.2228 990.616 72.1483 990.616 69.6953C990.616 67.8756 990.26 66.7341 989.525 66.0293C988.785 65.3189 987.545 64.9405 985.497 64.9404H977.291L977.519 64.2773L980.689 55.0518L980.806 54.7148H982.113ZM1011.06 56.1982L1011.2 56.3262C1012.39 57.384 1013.22 58.4536 1013.75 59.6953C1014.28 60.9349 1014.5 62.3112 1014.5 63.959C1014.5 66.3049 1013.84 69.2532 1012.8 72.3174C1011.76 75.3896 1010.34 78.6139 1008.78 81.5234L1008.64 81.7871H1006.44L1006.62 81.1523C1007.24 78.9327 1007.85 76.5173 1008.32 74.3203C1008.78 72.1128 1009.08 70.1604 1009.08 68.8525C1009.08 67.8491 1008.97 67.0526 1008.68 66.3105C1008.39 65.5677 1007.92 64.8471 1007.17 64.0146L1006.96 63.79L1007.07 63.5059L1009.64 56.5264L1009.76 56.1982H1011.06ZM971.428 56.1982L971.527 56.2451C972.959 56.9088 974.034 57.6974 974.748 58.6875C975.467 59.6851 975.791 60.846 975.791 62.1943C975.791 63.8391 975.229 65.839 974.291 67.9014C973.35 69.9721 972.013 72.1426 970.424 74.1377L970.154 74.4766L969.781 74.2588L968.817 73.6973L968.412 73.4609L968.622 73.041C969.907 70.4726 970.496 68.7228 970.496 67.5693C970.496 66.824 970.344 66.2142 969.959 65.6416C969.566 65.0565 968.904 64.4707 967.812 63.8281L967.451 63.6162L967.598 63.2236L970.086 56.5244L970.207 56.1982H971.428ZM1001.29 56.1982L1001.4 56.2451C1002.83 56.9088 1003.9 57.6975 1004.62 58.6875C1005.34 59.6851 1005.66 60.846 1005.66 62.1943C1005.66 63.8391 1005.1 65.8391 1004.16 67.9014C1003.22 69.972 1001.88 72.1427 1000.29 74.1377L1000.02 74.4766L999.648 74.2588L998.686 73.6973L998.28 73.4609L998.49 73.041C999.775 70.4727 1000.36 68.7228 1000.36 67.5693C1000.36 66.824 1000.21 66.2142 999.827 65.6416C999.434 65.0565 998.771 64.4707 997.68 63.8281L997.319 63.6162L997.465 63.2236L999.953 56.5244L1000.07 56.1982H1001.29ZM935.996 49.6904L937.481 51.5762L937.784 51.96L937.407 52.2715L935.119 54.1562L934.725 54.4814L934.408 54.0801L932.923 52.1943L932.62 51.8105L932.998 51.499L935.286 49.6143L935.681 49.2891L935.996 49.6904Z" fill="#101010" stroke="#FDFCF8"/>
<circle cx="1843.5" cy="73.5" r="7.5" fill="#101010"/>
<circle cx="5.5" cy="5.5" r="5" transform="matrix(-1.19249e-08 -1 -1 1.19249e-08 973 620)" stroke="#101010"/>
<circle cx="5.5" cy="5.5" r="5.5" transform="matrix(-1.19249e-08 -1 -1 1.19249e-08 958 620)" fill="#101010"/>
<path d="M786.026 511.2C785.366 511.2 784.366 511.04 783.806 510.86L784.106 509.64C785.266 509.88 786.166 510.02 786.426 510C786.466 509.86 786.546 508.88 786.586 507.58C786.706 503.46 786.746 502.18 786.726 501.58H784.126V500.42C786.586 500.32 788.446 500.26 789.626 500.26H791.726C793.846 500.26 795.006 501.46 795.006 503.64V511H793.566V503.92C793.566 502.38 792.786 501.58 791.326 501.58H788.166C788.166 502.86 788.166 503.24 788.006 508C787.966 508.86 787.926 509.76 787.766 510.7C787.546 510.88 787.186 511.06 786.946 511.12C786.786 511.18 786.546 511.2 786.026 511.2ZM801.499 511H800.059V501.58H797.299V500.28H801.499V511ZM808.907 506.52H807.467V501.58H804.487V500.28H808.907V506.52ZM813.643 511.2C812.983 511.2 811.983 511.04 811.423 510.86L811.723 509.64C812.883 509.88 813.783 510.02 814.043 510C814.083 509.86 814.163 508.88 814.203 507.58C814.323 503.46 814.363 502.18 814.343 501.58H811.743V500.42C814.203 500.32 816.063 500.26 817.243 500.26H819.343C821.463 500.26 822.623 501.46 822.623 503.64V511H821.183V503.92C821.183 502.38 820.403 501.58 818.943 501.58H815.783C815.783 502.86 815.783 503.24 815.623 508C815.583 508.86 815.543 509.76 815.383 510.7C815.163 510.88 814.803 511.06 814.563 511.12C814.403 511.18 814.163 511.2 813.643 511.2ZM829.116 511H827.676V501.58H824.916V500.28H829.116V511ZM840.008 511.32L836.308 505.36C835.208 505.76 834.628 506.38 834.468 507.36C834.328 508.16 834.248 509.86 834.208 511.1H832.728C832.748 510.08 832.828 508.9 832.928 508C833.148 506.3 833.828 505.28 835.228 504.62C834.148 503.02 833.368 501.76 832.828 500.74C833.108 500.58 833.488 500.36 834.028 500.08C834.968 501.64 835.928 503.14 836.948 504.62C837.388 504.7 838.668 504.76 839.508 504.74C839.688 503.86 839.908 502.02 840.048 500.26H841.508C841.448 501.58 841.128 504 840.928 504.72C840.708 505.12 839.888 505.68 839.428 505.74C839.048 505.78 838.648 505.8 838.228 505.78L841.268 510.74C840.928 510.94 840.448 511.16 840.008 511.32ZM853.628 511H852.188V503.92C852.188 502.38 851.408 501.58 849.888 501.58H844.448V500.42C846.168 500.32 847.688 500.26 848.728 500.26H850.348C852.468 500.26 853.628 501.46 853.628 503.64V511ZM846.048 511H844.608V505.28C845.168 505.24 845.488 505.2 846.048 505.18V511ZM863.174 511.2C862.514 511.2 861.514 511.04 860.954 510.86L861.254 509.64C862.414 509.88 863.314 510.02 863.574 510C863.614 509.86 863.694 508.88 863.734 507.58C863.854 503.46 863.894 502.18 863.874 501.58H861.274V500.42C863.734 500.32 865.594 500.26 866.774 500.26H868.874C870.994 500.26 872.154 501.46 872.154 503.64V511H870.714V503.92C870.714 502.38 869.934 501.58 868.474 501.58H865.314C865.314 502.86 865.314 503.24 865.154 508C865.114 508.86 865.074 509.76 864.914 510.7C864.694 510.88 864.334 511.06 864.094 511.12C863.934 511.18 863.694 511.2 863.174 511.2ZM882.528 511.32L878.828 505.36C877.728 505.76 877.148 506.38 876.988 507.36C876.848 508.16 876.768 509.86 876.728 511.1H875.248C875.268 510.08 875.348 508.9 875.448 508C875.668 506.3 876.348 505.28 877.748 504.62C876.668 503.02 875.888 501.76 875.348 500.74C875.628 500.58 876.008 500.36 876.548 500.08C877.488 501.64 878.448 503.14 879.468 504.62C879.908 504.7 881.188 504.76 882.028 504.74C882.208 503.86 882.428 502.02 882.568 500.26H884.028C883.968 501.58 883.648 504 883.448 504.72C883.228 505.12 882.408 505.68 881.948 505.74C881.568 505.78 881.168 505.8 880.748 505.78L883.788 510.74C883.448 510.94 882.968 511.16 882.528 511.32ZM890.601 511H889.161V501.58H886.401V500.28H890.601V511ZM974.21 511H972.77V501.58H966.93V500.28H976.21L975.85 501.58H974.21V511ZM982.359 511H980.919V501.58H978.159V500.28H982.359V511ZM987.828 511.22C987.448 511.2 986.888 511.1 986.728 511.02L986.168 501.78C986.148 501.22 986.148 500.86 986.188 500.28H992.128C994.208 500.26 995.348 501.46 995.348 503.64C995.348 507.7 992.508 510.56 987.828 511.22ZM988.048 509.82L988.228 509.86C991.768 509.3 993.908 507 993.908 503.76C993.908 502.3 993.188 501.58 991.668 501.58H987.548L988.048 509.82ZM1001.9 506.52H1000.46V501.58H997.475V500.28H1001.9V506.52ZM1014.33 511H1012.89V503.92C1012.89 502.38 1012.11 501.58 1010.59 501.58H1005.15V500.42C1006.87 500.32 1008.39 500.26 1009.43 500.26H1011.05C1013.17 500.26 1014.33 501.46 1014.33 503.64V511ZM1006.75 511H1005.31V505.28C1005.87 505.24 1006.19 505.2 1006.75 505.18V511ZM1023.88 511.2C1023.22 511.2 1022.22 511.04 1021.66 510.86L1021.96 509.64C1023.12 509.88 1024.02 510.02 1024.28 510C1024.32 509.86 1024.4 508.88 1024.44 507.58C1024.56 503.46 1024.6 502.18 1024.58 501.58H1021.98V500.42C1024.44 500.32 1026.3 500.26 1027.48 500.26H1029.58C1031.7 500.26 1032.86 501.46 1032.86 503.64V511H1031.42V503.92C1031.42 502.38 1030.64 501.58 1029.18 501.58H1026.02C1026.02 502.86 1026.02 503.24 1025.86 508C1025.82 508.86 1025.78 509.76 1025.62 510.7C1025.4 510.88 1025.04 511.06 1024.8 511.12C1024.64 511.18 1024.4 511.2 1023.88 511.2ZM1039.35 511H1037.91V501.58H1035.15V500.28H1039.35V511ZM1046.76 506.52H1045.32V501.58H1042.34V500.28H1046.76V506.52ZM1051.49 511.2C1050.83 511.2 1049.83 511.04 1049.27 510.86L1049.57 509.64C1050.73 509.88 1051.63 510.02 1051.89 510C1051.93 509.86 1052.01 508.88 1052.05 507.58C1052.17 503.46 1052.21 502.18 1052.19 501.58H1049.59V500.42C1052.05 500.32 1053.91 500.26 1055.09 500.26H1057.19C1059.31 500.26 1060.47 501.46 1060.47 503.64V511H1059.03V503.92C1059.03 502.38 1058.25 501.58 1056.79 501.58H1053.63C1053.63 502.86 1053.63 503.24 1053.47 508C1053.43 508.86 1053.39 509.76 1053.23 510.7C1053.01 510.88 1052.65 511.06 1052.41 511.12C1052.25 511.18 1052.01 511.2 1051.49 511.2ZM1066.97 511H1065.53V501.58H1062.77V500.28H1066.97V511ZM1077.86 511.32L1074.16 505.36C1073.06 505.76 1072.48 506.38 1072.32 507.36C1072.18 508.16 1072.1 509.86 1072.06 511.1H1070.58C1070.6 510.08 1070.68 508.9 1070.78 508C1071 506.3 1071.68 505.28 1073.08 504.62C1072 503.02 1071.22 501.76 1070.68 500.74C1070.96 500.58 1071.34 500.36 1071.88 500.08C1072.82 501.64 1073.78 503.14 1074.8 504.62C1075.24 504.7 1076.52 504.76 1077.36 504.74C1077.54 503.86 1077.76 502.02 1077.9 500.26H1079.36C1079.3 501.58 1078.98 504 1078.78 504.72C1078.56 505.12 1077.74 505.68 1077.28 505.74C1076.9 505.78 1076.5 505.8 1076.08 505.78L1079.12 510.74C1078.78 510.94 1078.3 511.16 1077.86 511.32ZM1088.68 511.2C1088.02 511.2 1087.02 511.04 1086.46 510.86L1086.76 509.64C1087.92 509.88 1088.82 510.02 1089.08 510C1089.12 509.86 1089.2 508.88 1089.24 507.58C1089.36 503.46 1089.4 502.18 1089.38 501.58H1086.78V500.42C1089.24 500.32 1091.1 500.26 1092.28 500.26H1094.38C1096.5 500.26 1097.66 501.46 1097.66 503.64V511H1096.22V503.92C1096.22 502.38 1095.44 501.58 1093.98 501.58H1090.82C1090.82 502.86 1090.82 503.24 1090.66 508C1090.62 508.86 1090.58 509.76 1090.42 510.7C1090.2 510.88 1089.84 511.06 1089.6 511.12C1089.44 511.18 1089.2 511.2 1088.68 511.2ZM1108.04 511.32L1104.34 505.36C1103.24 505.76 1102.66 506.38 1102.5 507.36C1102.36 508.16 1102.28 509.86 1102.24 511.1H1100.76C1100.78 510.08 1100.86 508.9 1100.96 508C1101.18 506.3 1101.86 505.28 1103.26 504.62C1102.18 503.02 1101.4 501.76 1100.86 500.74C1101.14 500.58 1101.52 500.36 1102.06 500.08C1103 501.64 1103.96 503.14 1104.98 504.62C1105.42 504.7 1106.7 504.76 1107.54 504.74C1107.72 503.86 1107.94 502.02 1108.08 500.26H1109.54C1109.48 501.58 1109.16 504 1108.96 504.72C1108.74 505.12 1107.92 505.68 1107.46 505.74C1107.08 505.78 1106.68 505.8 1106.26 505.78L1109.3 510.74C1108.96 510.94 1108.48 511.16 1108.04 511.32ZM1120.72 511H1119.28V501.58H1116.52V500.28H1120.72V511ZM1128.49 511H1127.03L1129.55 501.58H1123.65V496.88H1125.05V500.28H1130.97V501.54L1128.49 511ZM1137.67 500.28L1138.31 511H1137.01L1136.89 509.58C1135.17 510.44 1133.85 511.08 1132.99 511.08C1132.79 511.08 1132.61 511.06 1132.47 510.98L1132.51 509.74C1133.47 509.58 1134.89 509.24 1136.83 508.76L1136.39 501.58H1133.41V500.28H1137.67ZM788.134 530H786.674L789.194 520.58H783.294V515.88H784.694V519.28H790.614V520.54L788.134 530ZM797.296 530.28C795.536 530.28 793.056 530.02 792.256 529.8L792.536 528.5C793.396 528.66 796.616 529.04 798.256 529.04C798.636 529.04 798.756 529.04 798.896 529.02C798.976 528.4 798.996 527 798.996 525.42V524.7C798.996 521.46 798.236 520.56 795.496 520.56H792.956V519.4C793.536 519.32 794.936 519.26 796.116 519.26C799.176 519.26 800.436 520.68 800.436 524.12C800.436 526.18 800.376 528.18 800.276 529.46C800.016 529.72 799.336 530.06 798.916 530.14C798.596 530.24 797.996 530.28 797.296 530.28ZM811.831 530H810.391V520.58H807.631V519.28H811.831V530ZM824.281 530H814.661L815.021 528.7H821.221V522.92C821.221 521.4 820.441 520.58 818.961 520.58H815.161V519.42C816.421 519.32 817.461 519.26 818.461 519.26H819.421C821.521 519.26 822.661 520.46 822.661 522.64V528.7H824.281V530ZM836.436 519.32L837.756 519.2C837.816 519.58 837.836 520 837.836 520.8C837.836 526.58 834.456 530.04 828.576 530.26C828.196 530.26 827.236 529.98 827.136 529.84L826.776 519.32L828.116 519.2L828.276 523.68C829.336 523.8 830.876 523.94 831.356 523.92C831.436 523.44 831.496 522.74 831.516 522.06C831.556 521.2 831.576 520.2 831.576 519.32L832.936 519.22C832.956 519.38 832.956 519.52 832.956 520.02C832.956 521.48 832.816 523.2 832.616 524.04C832.236 524.46 831.576 524.84 831.136 524.9C830.896 524.94 830.516 524.96 829.996 524.96C829.516 524.96 828.976 524.92 828.316 524.88L828.456 529L828.636 529.06C833.916 528.66 836.476 525.88 836.476 520.52C836.476 519.72 836.476 519.64 836.436 519.32ZM848.961 532.6H847.521V520.58H844.841V519.28H848.961V532.6ZM857.002 530.28C855.082 530.28 852.402 530.02 851.522 529.8L851.822 528.5C852.782 528.66 856.182 529.04 858.002 529.04C858.422 529.04 858.882 529.04 858.922 529.02C859.002 528.7 859.022 528.28 859.042 526.5V524.26C859.042 521.38 858.402 520.58 856.122 520.58H854.782L853.502 523.52C853.602 523.88 855.442 524.82 855.742 524.98L855.222 525.98C854.102 525.56 853.002 524.98 852.582 524.58C852.382 524.36 852.102 523.54 852.142 523.26L853.842 519.4C854.482 519.3 855.302 519.26 856.482 519.26C859.242 519.26 860.382 520.5 860.442 523.6C860.462 524.12 860.442 525.1 860.422 526.32C860.362 528.06 860.302 529.1 860.242 529.46C859.962 529.72 859.222 530.06 858.762 530.14C858.402 530.24 857.762 530.28 857.002 530.28ZM866.831 530H865.391V520.58H862.631V519.28H866.831V530ZM877.723 530.32L874.023 524.36C872.923 524.76 872.343 525.38 872.183 526.36C872.043 527.16 871.963 528.86 871.923 530.1H870.443C870.463 529.08 870.543 527.9 870.643 527C870.863 525.3 871.543 524.28 872.943 523.62C871.863 522.02 871.083 520.76 870.543 519.74C870.823 519.58 871.203 519.36 871.743 519.08C872.683 520.64 873.643 522.14 874.663 523.62C875.103 523.7 876.383 523.76 877.223 523.74C877.403 522.86 877.623 521.02 877.763 519.26H879.223C879.163 520.58 878.843 523 878.643 523.72C878.423 524.12 877.603 524.68 877.143 524.74C876.763 524.78 876.363 524.8 875.943 524.78L878.983 529.74C878.643 529.94 878.163 530.16 877.723 530.32ZM890.961 530H881.341L881.701 528.7H887.901V522.92C887.901 521.4 887.121 520.58 885.641 520.58H881.841V519.42C883.101 519.32 884.141 519.26 885.141 519.26H886.101C888.201 519.26 889.341 520.46 889.341 522.64V528.7H890.961V530ZM901.46 530H900.02V520.58H897.26V519.28H901.46V530ZM907.052 530.2C906.072 530.2 904.712 530.04 904.012 529.84L904.312 528.58C905.732 528.8 907.392 528.98 907.912 528.96C907.972 528.12 907.992 526.94 907.992 524.32C907.992 522.52 907.952 521.02 907.892 520.58H905.012V519.28H909.332C909.392 519.62 909.432 521.26 909.432 523.36C909.432 527.32 909.412 528.56 909.332 529.54C909.052 529.76 908.472 530.04 908.092 530.12C907.912 530.18 907.652 530.2 907.052 530.2ZM914.396 530.2C913.416 530.2 912.056 530.04 911.356 529.84L911.656 528.58C913.076 528.8 914.736 528.98 915.256 528.96C915.316 528.12 915.336 526.94 915.336 524.32C915.336 522.52 915.296 521.02 915.236 520.58H912.356V519.28H916.676C916.736 519.62 916.776 521.26 916.776 523.36C916.776 527.32 916.756 528.56 916.676 529.54C916.396 529.76 915.816 530.04 915.436 530.12C915.256 530.18 914.996 530.2 914.396 530.2ZM923.472 530H922.032V520.58H919.272V519.28H923.472V530ZM935.922 530H926.302L926.662 528.7H932.862V522.92C932.862 521.4 932.082 520.58 930.602 520.58H926.802V519.42C928.062 519.32 929.102 519.26 930.102 519.26H931.062C933.162 519.26 934.302 520.46 934.302 522.64V528.7H935.922V530ZM939.756 530.2C939.096 530.2 938.096 530.04 937.536 529.86L937.836 528.64C938.996 528.88 939.896 529.02 940.156 529C940.196 528.86 940.276 527.88 940.316 526.58C940.436 522.46 940.476 521.18 940.456 520.58H937.856V519.42C940.316 519.32 942.176 519.26 943.356 519.26H945.456C947.576 519.26 948.736 520.46 948.736 522.64V530H947.296V522.92C947.296 521.38 946.516 520.58 945.056 520.58H941.896C941.896 521.86 941.896 522.24 941.736 527C941.696 527.86 941.656 528.76 941.496 529.7C941.276 529.88 940.916 530.06 940.676 530.12C940.516 530.18 940.276 530.2 939.756 530.2ZM961.07 530H959.63V522.92C959.63 521.38 958.85 520.58 957.33 520.58H951.89V519.42C953.61 519.32 955.13 519.26 956.17 519.26H957.79C959.91 519.26 961.07 520.46 961.07 522.64V530ZM953.49 530H952.05V524.28C952.61 524.24 952.93 524.2 953.49 524.18V530ZM1020.18 530H1017.96V528.18H1020.18V530ZM1025.17 532.6H1023.73V520.58H1021.05V519.28H1025.17V532.6ZM1037.61 530H1036.17V522.92C1036.17 521.38 1035.39 520.58 1033.87 520.58H1028.43V519.42C1030.15 519.32 1031.67 519.26 1032.71 519.26H1034.33C1036.45 519.26 1037.61 520.46 1037.61 522.64V530ZM1030.03 530H1028.59V524.28C1029.15 524.24 1029.47 524.2 1030.03 524.18V530ZM1041.9 530.2H1040.46L1042.98 520.56H1040.22V519.4C1042.42 519.3 1043.62 519.26 1044.4 519.26H1046.12C1048.84 519.26 1049.94 520.48 1049.98 523.54C1050 525.38 1049.92 528.82 1049.84 529.54C1049.58 529.76 1049.06 530.04 1048.7 530.12C1048.52 530.18 1048.22 530.2 1047.72 530.2C1046.86 530.2 1045.56 530.04 1044.88 529.84L1045.18 528.58C1046.32 528.76 1047.98 528.98 1048.54 528.98C1048.6 528.32 1048.62 526.9 1048.6 524.2C1048.58 521.38 1047.92 520.56 1045.68 520.56H1044.42L1041.9 530.2ZM1059.42 530.2C1058.76 530.2 1057.76 530.04 1057.2 529.86L1057.5 528.64C1058.66 528.88 1059.56 529.02 1059.82 529C1059.86 528.86 1059.94 527.88 1059.98 526.58C1060.1 522.46 1060.14 521.18 1060.12 520.58H1057.52V519.42C1059.98 519.32 1061.84 519.26 1063.02 519.26H1065.12C1067.24 519.26 1068.4 520.46 1068.4 522.64V530H1066.96V522.92C1066.96 521.38 1066.18 520.58 1064.72 520.58H1061.56C1061.56 521.86 1061.56 522.24 1061.4 527C1061.36 527.86 1061.32 528.76 1061.16 529.7C1060.94 529.88 1060.58 530.06 1060.34 530.12C1060.18 530.18 1059.94 530.2 1059.42 530.2ZM1074.9 530H1073.46V520.58H1070.7V519.28H1074.9V530ZM1087.35 530H1077.73L1078.09 528.7H1084.29V522.92C1084.29 521.4 1083.51 520.58 1082.03 520.58H1078.23V519.42C1079.49 519.32 1080.53 519.26 1081.53 519.26H1082.49C1084.59 519.26 1085.73 520.46 1085.73 522.64V528.7H1087.35V530ZM1093.6 530.28C1091.84 530.28 1089.36 530.02 1088.56 529.8L1088.84 528.5C1089.7 528.66 1092.92 529.04 1094.56 529.04C1094.94 529.04 1095.06 529.04 1095.2 529.02C1095.28 528.4 1095.3 527 1095.3 525.42V524.7C1095.3 521.46 1094.54 520.56 1091.8 520.56H1089.26V519.4C1089.84 519.32 1091.24 519.26 1092.42 519.26C1095.48 519.26 1096.74 520.68 1096.74 524.12C1096.74 526.18 1096.68 528.18 1096.58 529.46C1096.32 529.72 1095.64 530.06 1095.22 530.14C1094.9 530.24 1094.3 530.28 1093.6 530.28ZM1106.6 530H1105.16V522.9C1105.16 521.4 1104.34 520.58 1102.86 520.58H1099.04V519.42C1100.16 519.3 1101.18 519.26 1102.34 519.26H1103.3C1105.44 519.26 1106.6 520.46 1106.6 522.64V530ZM1113.1 530H1111.66V520.58H1108.9V519.28H1113.1V530ZM1117.97 530.2H1116.53L1119.05 520.56H1116.29V519.4C1118.49 519.3 1119.69 519.26 1120.47 519.26H1122.19C1124.91 519.26 1126.01 520.48 1126.05 523.54C1126.07 525.38 1125.99 528.82 1125.91 529.54C1125.65 529.76 1125.13 530.04 1124.77 530.12C1124.59 530.18 1124.29 530.2 1123.79 530.2C1122.93 530.2 1121.63 530.04 1120.95 529.84L1121.25 528.58C1122.39 528.76 1124.05 528.98 1124.61 528.98C1124.67 528.32 1124.69 526.9 1124.67 524.2C1124.65 521.38 1123.99 520.56 1121.75 520.56H1120.49L1117.97 530.2ZM1138.3 530H1136.86V522.92C1136.86 521.38 1136.08 520.58 1134.56 520.58H1129.12V519.42C1130.84 519.32 1132.36 519.26 1133.4 519.26H1135.02C1137.14 519.26 1138.3 520.46 1138.3 522.64V530ZM1130.72 530H1129.28V524.28C1129.84 524.24 1130.16 524.2 1130.72 524.18V530ZM786.729 549.2C786.069 549.2 785.069 549.04 784.509 548.86L784.809 547.64C785.969 547.88 786.869 548.02 787.129 548C787.169 547.86 787.249 546.88 787.289 545.58C787.409 541.46 787.449 540.18 787.429 539.58H784.829V538.42C787.289 538.32 789.149 538.26 790.329 538.26H792.429C794.549 538.26 795.709 539.46 795.709 541.64V549H794.269V541.92C794.269 540.38 793.489 539.58 792.029 539.58H788.869C788.869 540.86 788.869 541.24 788.709 546C788.669 546.86 788.629 547.76 788.469 548.7C788.249 548.88 787.889 549.06 787.649 549.12C787.489 549.18 787.249 549.2 786.729 549.2ZM802.202 549H800.762V539.58H798.002V538.28H802.202V549ZM812.855 538.26L814.275 538.2C814.295 538.26 814.295 538.26 814.295 538.76C814.295 542.44 813.635 546.5 812.755 548.24C812.535 548.54 811.655 549.04 811.135 549.16C810.795 549.22 810.275 549.26 809.735 549.26C808.015 549.26 805.455 549.02 804.795 548.8L805.075 547.52C806.395 547.76 807.835 547.92 808.935 548.02C808.155 544.8 806.735 540.24 806.035 538.76C806.215 538.58 806.975 538.18 807.335 538.08C808.015 539.28 809.675 545.06 810.235 548.06C810.995 548.06 811.395 548.02 811.615 547.92C812.055 547.1 812.515 544.72 812.715 542.24C812.795 541.52 812.875 539.12 812.855 538.26ZM818.342 549.2H816.902L819.422 539.56H816.662V538.4C818.862 538.3 820.062 538.26 820.842 538.26H822.562C825.282 538.26 826.382 539.48 826.422 542.54C826.442 544.38 826.362 547.82 826.282 548.54C826.022 548.76 825.502 549.04 825.142 549.12C824.962 549.18 824.662 549.2 824.162 549.2C823.302 549.2 822.002 549.04 821.322 548.84L821.622 547.58C822.762 547.76 824.422 547.98 824.982 547.98C825.042 547.32 825.062 545.9 825.042 543.2C825.022 540.38 824.362 539.56 822.122 539.56H820.862L818.342 549.2ZM839.385 538.32L840.705 538.2C840.765 538.58 840.785 539 840.785 539.8C840.785 545.58 837.405 549.04 831.525 549.26C831.145 549.26 830.185 548.98 830.085 548.84L829.725 538.32L831.065 538.2L831.225 542.68C832.285 542.8 833.825 542.94 834.305 542.92C834.385 542.44 834.445 541.74 834.465 541.06C834.505 540.2 834.525 539.2 834.525 538.32L835.885 538.22C835.905 538.38 835.905 538.52 835.905 539.02C835.905 540.48 835.765 542.2 835.565 543.04C835.185 543.46 834.525 543.84 834.085 543.9C833.845 543.94 833.465 543.96 832.945 543.96C832.465 543.96 831.925 543.92 831.265 543.88L831.405 548L831.585 548.06C836.865 547.66 839.425 544.88 839.425 539.52C839.425 538.72 839.425 538.64 839.385 538.32ZM844.846 549.2H843.406L845.926 539.56H843.166V538.4C845.366 538.3 846.566 538.26 847.346 538.26H849.066C851.786 538.26 852.886 539.48 852.926 542.54C852.946 544.38 852.866 547.82 852.786 548.54C852.526 548.76 852.006 549.04 851.646 549.12C851.466 549.18 851.166 549.2 850.666 549.2C849.806 549.2 848.506 549.04 847.826 548.84L848.126 547.58C849.266 547.76 850.926 547.98 851.486 547.98C851.546 547.32 851.566 545.9 851.546 543.2C851.526 540.38 850.866 539.56 848.626 539.56H847.366L844.846 549.2ZM899.988 549H890.748V538.42C892.668 538.32 894.168 538.26 895.128 538.26H896.728C898.828 538.26 899.988 539.44 899.988 541.62V549ZM892.188 539.58V547.7H898.548V541.9C898.548 540.36 897.768 539.58 896.268 539.58H892.188ZM907.14 549.28C905.38 549.28 902.9 549.02 902.1 548.8L902.38 547.5C903.24 547.66 906.46 548.04 908.1 548.04C908.48 548.04 908.6 548.04 908.74 548.02C908.82 547.4 908.84 546 908.84 544.42V543.7C908.84 540.46 908.08 539.56 905.34 539.56H902.8V538.4C903.38 538.32 904.78 538.26 905.96 538.26C909.02 538.26 910.28 539.68 910.28 543.12C910.28 545.18 910.22 547.18 910.12 548.46C909.86 548.72 909.18 549.06 908.76 549.14C908.44 549.24 907.84 549.28 907.14 549.28ZM916.675 549H915.235V539.58H912.475V538.28H916.675V549ZM921.71 549.2C921.05 549.2 920.05 549.04 919.49 548.86L919.79 547.64C920.95 547.88 921.85 548.02 922.11 548C922.15 547.86 922.23 546.88 922.27 545.58C922.39 541.46 922.43 540.18 922.41 539.58H919.81V538.42C922.27 538.32 924.13 538.26 925.31 538.26H927.41C929.53 538.26 930.69 539.46 930.69 541.64V549H929.25V541.92C929.25 540.38 928.47 539.58 927.01 539.58H923.85C923.85 540.86 923.85 541.24 923.69 546C923.65 546.86 923.61 547.76 923.45 548.7C923.23 548.88 922.87 549.06 922.63 549.12C922.47 549.18 922.23 549.2 921.71 549.2ZM942.543 549H932.923L933.283 547.7H939.483V541.92C939.483 540.4 938.703 539.58 937.223 539.58H933.423V538.42C934.683 538.32 935.723 538.26 936.723 538.26H937.683C939.783 538.26 940.923 539.46 940.923 541.64V547.7H942.543V549ZM959.382 549H950.142V538.42C952.062 538.32 953.562 538.26 954.522 538.26H956.122C958.222 538.26 959.382 539.44 959.382 541.62V549ZM951.582 539.58V547.7H957.942V541.9C957.942 540.36 957.162 539.58 955.662 539.58H951.582ZM966.094 544.52H964.654V539.58H961.674V538.28H966.094V544.52ZM976.473 549.32L972.773 543.36C971.673 543.76 971.093 544.38 970.933 545.36C970.793 546.16 970.713 547.86 970.673 549.1H969.193C969.213 548.08 969.293 546.9 969.393 546C969.613 544.3 970.293 543.28 971.693 542.62C970.613 541.02 969.833 539.76 969.293 538.74C969.573 538.58 969.953 538.36 970.493 538.08C971.433 539.64 972.393 541.14 973.413 542.62C973.853 542.7 975.133 542.76 975.973 542.74C976.153 541.86 976.373 540.02 976.513 538.26H977.973C977.913 539.58 977.593 542 977.393 542.72C977.173 543.12 976.353 543.68 975.893 543.74C975.513 543.78 975.113 543.8 974.693 543.78L977.733 548.74C977.393 548.94 976.913 549.16 976.473 549.32ZM990.713 538.32L992.033 538.2C992.093 538.58 992.113 539 992.113 539.8C992.113 545.58 988.733 549.04 982.853 549.26C982.473 549.26 981.513 548.98 981.413 548.84L981.053 538.32L982.393 538.2L982.553 542.68C983.613 542.8 985.153 542.94 985.633 542.92C985.713 542.44 985.773 541.74 985.793 541.06C985.833 540.2 985.853 539.2 985.853 538.32L987.213 538.22C987.233 538.38 987.233 538.52 987.233 539.02C987.233 540.48 987.093 542.2 986.893 543.04C986.513 543.46 985.853 543.84 985.413 543.9C985.173 543.94 984.793 543.96 984.273 543.96C983.793 543.96 983.253 543.92 982.593 543.88L982.733 548L982.913 548.06C988.193 547.66 990.753 544.88 990.753 539.52C990.753 538.72 990.753 538.64 990.713 538.32ZM998.765 549H997.325V539.58H994.565V538.28H998.765V549ZM1004.36 549.2C1003.38 549.2 1002.02 549.04 1001.32 548.84L1001.62 547.58C1003.04 547.8 1004.7 547.98 1005.22 547.96C1005.28 547.12 1005.3 545.94 1005.3 543.32C1005.3 541.52 1005.26 540.02 1005.2 539.58H1002.32V538.28H1006.64C1006.7 538.62 1006.74 540.26 1006.74 542.36C1006.74 546.32 1006.72 547.56 1006.64 548.54C1006.36 548.76 1005.78 549.04 1005.4 549.12C1005.22 549.18 1004.96 549.2 1004.36 549.2ZM1021.7 549H1020.26V541.9C1020.26 540.4 1019.44 539.58 1017.96 539.58H1014.14V538.42C1015.26 538.3 1016.28 538.26 1017.44 538.26H1018.4C1020.54 538.26 1021.7 539.46 1021.7 541.64V549ZM1028.2 549H1026.76V539.58H1024V538.28H1028.2V549ZM1040.65 549H1031.03L1031.39 547.7H1037.59V541.92C1037.59 540.4 1036.81 539.58 1035.33 539.58H1031.53V538.42C1032.79 538.32 1033.83 538.26 1034.83 538.26H1035.79C1037.89 538.26 1039.03 539.46 1039.03 541.64V547.7H1040.65V549ZM1046.09 544.52H1044.65V539.58H1041.67V538.28H1046.09V544.52ZM1051.23 549H1049.79V538.42C1051.71 538.32 1053.07 538.26 1053.99 538.26H1055.59C1057.69 538.26 1058.85 539.44 1058.85 541.62V549H1057.41V541.9C1057.41 540.36 1056.63 539.58 1055.13 539.58H1051.23V549ZM1065.35 549H1063.91V539.58H1061.15V538.28H1065.35V549ZM1077.14 549H1075.7V539.58H1072.94V538.28H1077.14V549ZM1088.18 549H1086.7L1088.4 539.58H1080.74V538.28H1089.9V539.48L1088.18 549ZM1081.06 551.66C1081.02 551.16 1081.02 550.68 1081.02 550.12V543.22C1081.54 543.18 1081.98 543.14 1082.46 543.12V549.76C1082.46 550.24 1082.46 550.88 1082.52 551.46C1081.9 551.58 1081.5 551.64 1081.06 551.66ZM1097.57 551.76H1096.85L1097.31 549.5V546.98H1099.05V547.88C1099.05 549.42 1098.53 550.4 1097.57 551.76ZM1110.93 549H1109.49V541.92C1109.49 540.38 1108.71 539.58 1107.19 539.58H1101.75V538.42C1103.47 538.32 1104.99 538.26 1106.03 538.26H1107.65C1109.77 538.26 1110.93 539.46 1110.93 541.64V549ZM1103.35 549H1101.91V543.28C1102.47 543.24 1102.79 543.2 1103.35 543.18V549ZM1121 549H1119.56V541.9C1119.56 540.4 1118.74 539.58 1117.26 539.58H1113.44V538.42C1114.56 538.3 1115.58 538.26 1116.74 538.26H1117.7C1119.84 538.26 1121 539.46 1121 541.64V549ZM1127.5 549H1126.06V539.58H1123.3V538.28H1127.5V549ZM1134.61 543.78L1138.63 547.56L1138.31 548.78C1137.99 548.94 1137.61 549.1 1137.33 549.14C1137.01 549.24 1136.43 549.28 1135.57 549.28C1133.69 549.28 1131.19 549.06 1130.29 548.8L1130.59 547.5C1131.63 547.74 1135.19 548.04 1136.99 548.04C1137.17 548.04 1137.35 548.04 1137.47 548.02V547.9C1136.09 546.84 1134.83 546.08 1132.81 543.56C1132.13 542.54 1131.29 540.4 1130.83 538.54C1131.23 538.34 1131.71 538.18 1132.17 538.06C1132.63 539.62 1133.27 541.3 1133.89 542.6C1134.65 542.72 1136.33 542.8 1136.57 542.74C1136.75 542.04 1136.97 540.02 1137.09 538.28H1138.49C1138.45 539.3 1138.13 541.84 1137.91 542.72C1137.69 543.12 1136.95 543.68 1136.51 543.74C1135.97 543.8 1135.25 543.8 1134.61 543.78ZM1041.62 568H1039.4V566.18H1041.62V568ZM1047.01 563.52H1045.57V558.58H1042.59V557.28H1047.01V563.52ZM1051.97 568.2C1050.99 568.2 1049.63 568.04 1048.93 567.84L1049.23 566.58C1050.65 566.8 1052.31 566.98 1052.83 566.96C1052.89 566.12 1052.91 564.94 1052.91 562.32C1052.91 560.52 1052.87 559.02 1052.81 558.58H1049.93V557.28H1054.25C1054.31 557.62 1054.35 559.26 1054.35 561.36C1054.35 565.32 1054.33 566.56 1054.25 567.54C1053.97 567.76 1053.39 568.04 1053.01 568.12C1052.83 568.18 1052.57 568.2 1051.97 568.2ZM1059.39 568H1057.95V557.42C1059.87 557.32 1061.23 557.26 1062.15 557.26H1063.75C1065.85 557.26 1067.01 558.44 1067.01 560.62V568H1065.57V560.9C1065.57 559.36 1064.79 558.58 1063.29 558.58H1059.39V568ZM1073.51 568H1072.07V558.58H1069.31V557.28H1073.51V568ZM1084.16 568H1082.72V560.9C1082.72 559.4 1081.9 558.58 1080.42 558.58H1076.6V557.42C1077.72 557.3 1078.74 557.26 1079.9 557.26H1080.86C1083 557.26 1084.16 558.46 1084.16 560.64V568ZM1095.58 570.6H1094.14V558.58H1091.46V557.28H1095.58V570.6ZM1102.42 568H1100.98V558.58H1098.22V557.28H1102.42V568ZM1109.82 563.52H1108.38V558.58H1105.4V557.28H1109.82V563.52ZM1119.57 557.26L1120.99 557.2C1121.01 557.26 1121.01 557.26 1121.01 557.76C1121.01 561.44 1120.35 565.5 1119.47 567.24C1119.25 567.54 1118.37 568.04 1117.85 568.16C1117.51 568.22 1116.99 568.26 1116.45 568.26C1114.73 568.26 1112.17 568.02 1111.51 567.8L1111.79 566.52C1113.11 566.76 1114.55 566.92 1115.65 567.02C1114.87 563.8 1113.45 559.24 1112.75 557.76C1112.93 557.58 1113.69 557.18 1114.05 557.08C1114.73 558.28 1116.39 564.06 1116.95 567.06C1117.71 567.06 1118.11 567.02 1118.33 566.92C1118.77 566.1 1119.23 563.72 1119.43 561.24C1119.51 560.52 1119.59 558.12 1119.57 557.26ZM1131.41 568H1129.97V560.9C1129.97 559.4 1129.15 558.58 1127.67 558.58H1123.85V557.42C1124.97 557.3 1125.99 557.26 1127.15 557.26H1128.11C1130.25 557.26 1131.41 558.46 1131.41 560.64V568ZM1137.91 568H1136.47V558.58H1133.71V557.28H1137.91V568Z" fill="#101010"/>
<path d="M960 335.5C1205.46 335.5 1427.68 358.443 1588.51 395.53C1668.92 414.075 1733.97 436.149 1778.9 460.644C1801.36 472.891 1818.77 485.731 1830.56 499.018C1842.35 512.301 1848.5 526.005 1848.5 540C1848.5 553.995 1842.35 567.699 1830.56 580.982C1818.77 594.269 1801.36 607.109 1778.9 619.356C1733.97 643.851 1668.92 665.925 1588.51 684.47C1427.68 721.557 1205.46 744.5 960 744.5C714.536 744.5 492.325 721.557 331.494 684.47C251.075 665.925 186.03 643.851 141.102 619.356C118.637 607.109 101.226 594.269 89.4355 580.982C77.6482 567.699 71.5 553.995 71.5 540C71.5 526.005 77.6482 512.301 89.4355 499.018C101.226 485.731 118.637 472.891 141.102 460.644C186.03 436.149 251.075 414.075 331.494 395.53C492.325 358.443 714.536 335.5 960 335.5Z" stroke="#101010"/>
<path d="M1031.83 348.528C1261.65 434.741 1461.65 534.269 1599.21 625.481C1667.99 671.089 1721.14 714.602 1754.6 753.316C1771.33 772.673 1783.12 790.811 1789.5 807.392C1795.87 823.968 1796.81 838.959 1791.89 852.062C1786.98 865.166 1776.41 875.838 1760.71 884.135C1745 892.433 1724.19 898.34 1698.86 901.917C1648.19 909.072 1579.53 906.894 1497.72 896.012C1334.11 874.249 1118 817.685 888.175 731.472C658.349 645.259 458.353 545.731 320.794 454.52C252.012 408.912 198.863 365.398 165.4 326.684C148.669 307.327 136.876 289.189 130.504 272.609C124.133 256.032 123.189 241.041 128.105 227.938C133.02 214.834 143.59 204.162 159.292 195.866C174.997 187.567 195.809 181.66 221.144 178.083C271.813 170.929 340.468 173.106 422.276 183.988C585.887 205.751 801.999 262.315 1031.83 348.528Z" stroke="#101010"/>
<path d="M854.644 382.353C1086.25 301.028 1302.82 247.078 1465.74 225.591C1547.2 214.847 1615.22 212.224 1664.99 218.341C1689.87 221.4 1710.17 226.64 1725.29 234.125C1740.41 241.607 1750.31 251.311 1754.52 263.281C1758.72 275.252 1757.06 289.02 1749.93 304.313C1742.81 319.608 1730.25 336.385 1712.74 354.331C1677.72 390.22 1622.99 430.699 1552.7 473.244C1412.11 558.33 1209.36 651.624 977.753 732.95C746.15 814.276 529.578 868.226 366.661 889.712C285.199 900.456 217.178 903.079 167.409 896.962C142.524 893.904 122.231 888.663 107.11 881.179C91.9904 873.696 82.0829 863.992 77.8794 852.021C73.6761 840.05 75.3419 826.283 82.4634 810.991C89.5861 795.696 102.148 778.918 119.658 760.973C154.676 725.083 209.404 684.604 279.7 642.059C420.284 556.973 623.041 463.679 854.644 382.353Z" stroke="#101010"/>
<path d="M953.615 930.872H949.897L952.713 910.588H956.497V911.622H954.011L951.503 929.75H953.615V930.872ZM960.873 927.044H959.333L962.699 916.506H956.385L956.979 911.446H958.431L957.991 915.208H964.239V916.484L960.873 927.044ZM969.26 927H967.742L969.194 916.506H966.268L966.422 915.208H970.888L969.26 927ZM977.695 927.044H976.155L979.521 916.506H973.207L973.801 911.446H975.253L974.813 915.208H981.061V916.484L977.695 927.044ZM987.96 915.208L988.114 927.044H986.618L986.596 925.526C984.858 926.428 983.34 927.11 982.196 927.11C981.954 927.11 981.734 927.088 981.536 927.022L981.734 925.636L986.596 924.888L986.486 916.506H983.032L983.186 915.208H987.96ZM992.414 930.872H988.63V929.838H991.116L993.624 911.71H991.512V910.588H995.23L992.414 930.872Z" fill="#101010"/>
<path d="M971.646 998.354C971.842 998.549 972.158 998.549 972.354 998.354L975.536 995.172C975.731 994.976 975.731 994.66 975.536 994.464C975.34 994.269 975.024 994.269 974.828 994.464L972 997.293L969.172 994.464C968.976 994.269 968.66 994.269 968.464 994.464C968.269 994.66 968.269 994.976 968.464 995.172L971.646 998.354ZM972 952L971.5 952L971.5 998L972 998L972.5 998L972.5 952L972 952Z" fill="#101010"/>
</svg>
