<svg width="2880" height="1800" viewBox="0 0 2880 1800" fill="none" xmlns="http://www.w3.org/2000/svg">
<rect width="2880" height="1800" fill="#101010"/>
<path d="M1092.33 1306.33V1294H1080V1306.33H1092.33Z" stroke="#F3F0E9" stroke-miterlimit="10"/>
<path d="M1092.33 1328.45V1316.12H1080V1328.45H1092.33Z" stroke="#F3F0E9" stroke-miterlimit="10"/>
<path d="M1193.45 1306.33H1205.78V1294H1193.45V1306.33Z" stroke="#F3F0E9" stroke-miterlimit="10"/>
<path d="M1171.33 1306.33H1183.66V1294H1171.33V1306.33Z" stroke="#F3F0E9" stroke-miterlimit="10"/>
<path d="M1284.78 1306.33H1297.11V1294H1284.78V1306.33Z" stroke="#F3F0E9" stroke-miterlimit="10"/>
<path d="M1307.18 1315.85H1319.51V1303.52H1307.18V1315.85Z" stroke="#F3F0E9" stroke-miterlimit="10"/>
<path d="M1329.58 1325.37H1341.91V1313.04H1329.58V1325.37Z" stroke="#F3F0E9" stroke-miterlimit="10"/>
<path d="M1434 1306H1446V1294H1434V1306Z" stroke="#FDFCF8" stroke-miterlimit="10"/>
<path d="M1534.03 1306.33H1546.37V1294H1534.03V1306.33Z" stroke="#F3F0E9" stroke-miterlimit="10"/>
<path d="M1511.91 1306.33H1524.25V1294H1511.91V1306.33Z" stroke="#F3F0E9" stroke-miterlimit="10"/>
<path d="M1522.97 1325.93H1535.31V1313.6H1522.97V1325.93Z" stroke="#F3F0E9" stroke-miterlimit="10"/>
<path d="M1674.37 1294H1625.37V1306H1674.37V1294Z" stroke="#F3F0E9" stroke-miterlimit="10"/>
<path d="M1802.37 1294V1306.46H1784.03V1332H1771.7V1306.46H1753.37V1294H1802.37Z" stroke="#F3F0E9" stroke-miterlimit="10"/>
<path d="M1438.5 1207.5C1527.27 1207.5 1607.62 1211.31 1665.78 1217.46C1694.86 1220.53 1718.38 1224.19 1734.61 1228.25C1742.73 1230.28 1749.01 1232.41 1753.24 1234.59C1755.35 1235.69 1756.93 1236.78 1757.98 1237.87C1759.02 1238.96 1759.5 1240 1759.5 1241C1759.5 1242 1759.02 1243.04 1757.98 1244.13C1756.93 1245.22 1755.35 1246.31 1753.24 1247.41C1749.01 1249.59 1742.73 1251.72 1734.61 1253.75C1718.38 1257.81 1694.86 1261.47 1665.78 1264.54C1607.62 1270.69 1527.27 1274.5 1438.5 1274.5C1349.73 1274.5 1269.38 1270.69 1211.22 1264.54C1182.14 1261.47 1158.62 1257.81 1142.39 1253.75C1134.27 1251.72 1127.99 1249.59 1123.76 1247.41C1121.65 1246.31 1120.07 1245.22 1119.02 1244.13C1117.98 1243.04 1117.5 1242 1117.5 1241C1117.5 1240 1117.98 1238.96 1119.02 1237.87C1120.07 1236.78 1121.65 1235.69 1123.76 1234.59C1127.99 1232.41 1134.27 1230.28 1142.39 1228.25C1158.62 1224.19 1182.14 1220.53 1211.22 1217.46C1269.38 1211.31 1349.73 1207.5 1438.5 1207.5Z" stroke="#FDFCF8"/>
<path d="M2607.16 205.15H2601.66V173.47H2594.18V168.52H2607.16V205.15ZM2616.63 176.055H2613.6L2615.8 168.025V161.37H2622.24L2622.18 164.67C2622.07 168.85 2620.53 171.82 2616.63 176.055ZM2627.3 176.055H2624.27L2626.47 168.025V161.37H2632.91L2632.85 164.67C2632.74 168.85 2631.2 171.82 2627.3 176.055ZM2652.49 186.395H2646.88V173.47H2638.52V168.52H2652.49V186.395ZM2686.35 168.795L2691.8 168.41C2692.02 169.455 2692.07 171.49 2691.96 173.305C2691.19 189.365 2682.28 198 2665.73 198.66C2664.41 198.605 2662.48 198.11 2661.44 197.56L2660.45 168.74L2665.62 168.41L2666 179.85C2667.82 180.18 2671.34 180.455 2672.88 180.4C2673.15 179.74 2673.48 175.175 2673.48 171.6V168.74L2678.6 168.465C2678.71 169.015 2678.71 169.345 2678.71 170.885C2678.71 175.175 2678.21 180.07 2677.61 181.72C2677.17 182.545 2674.58 183.975 2673.15 184.195C2672.71 184.305 2671.78 184.36 2670.4 184.36C2668.81 184.36 2667.43 184.305 2666.17 184.25L2666.5 193.545L2667.05 193.82C2680.52 192.445 2686.52 185.845 2686.52 172.48C2686.52 171.27 2686.52 171.27 2686.35 168.795Z" fill="#FDFCF8"/>
<path d="M2381.67 251.28H2379.51V243.87H2375.04V241.92H2381.67V251.28ZM2391.92 258H2389.76V243.87H2385.62V241.92H2391.92V258ZM2410.59 258H2396.16L2396.7 256.05H2406V247.38C2406 245.1 2404.83 243.87 2402.61 243.87H2396.91V242.13C2398.8 241.98 2400.36 241.89 2401.86 241.89H2403.3C2406.45 241.89 2408.16 243.69 2408.16 246.96V256.05H2410.59V258ZM2418.76 251.28H2416.6V243.87H2412.13V241.92H2418.76V251.28ZM2434.43 258H2432.27V247.35C2432.27 245.1 2431.04 243.87 2428.82 243.87H2423.09V242.13C2424.77 241.95 2426.3 241.89 2428.04 241.89H2429.48C2432.69 241.89 2434.43 243.69 2434.43 246.96V258ZM2445.05 258H2442.86L2446.64 243.87H2437.79V236.82H2439.89V241.92H2448.77V243.81L2445.05 258ZM2470.59 258H2468.43V247.35C2468.43 245.1 2467.2 243.87 2464.98 243.87H2459.25V242.13C2460.93 241.95 2462.46 241.89 2464.2 241.89H2465.64C2468.85 241.89 2470.59 243.69 2470.59 246.96V258ZM2482.49 258.42C2479.61 258.42 2475.59 258.03 2474.27 257.7L2474.72 255.75C2476.16 255.99 2481.26 256.56 2483.99 256.56C2484.62 256.56 2485.31 256.56 2485.37 256.53C2485.49 256.05 2485.52 255.42 2485.55 252.75V249.39C2485.55 245.07 2484.59 243.87 2481.17 243.87H2479.16L2477.24 248.28C2477.39 248.82 2480.15 250.23 2480.6 250.47L2479.82 251.97C2478.14 251.34 2476.49 250.47 2475.86 249.87C2475.56 249.54 2475.14 248.31 2475.2 247.89L2477.75 242.1C2478.71 241.95 2479.94 241.89 2481.71 241.89C2485.85 241.89 2487.56 243.75 2487.65 248.4C2487.68 249.18 2487.65 250.65 2487.62 252.48C2487.53 255.09 2487.44 256.65 2487.35 257.19C2486.93 257.58 2485.82 258.09 2485.13 258.21C2484.59 258.36 2483.63 258.42 2482.49 258.42ZM2495.1 258.33C2494.53 258.3 2493.69 258.15 2493.45 258.03L2492.61 244.17C2492.58 243.33 2492.58 242.79 2492.64 241.92H2501.55C2504.67 241.89 2506.38 243.69 2506.38 246.96C2506.38 253.05 2502.12 257.34 2495.1 258.33ZM2495.43 256.23L2495.7 256.29C2501.01 255.45 2504.22 252 2504.22 247.14C2504.22 244.95 2503.14 243.87 2500.86 243.87H2494.68L2495.43 256.23ZM2523.33 258H2508.9L2509.44 256.05H2518.74V247.38C2518.74 245.1 2517.57 243.87 2515.35 243.87H2509.65V242.13C2511.54 241.98 2513.1 241.89 2514.6 241.89H2516.04C2519.19 241.89 2520.9 243.69 2520.9 246.96V256.05H2523.33V258ZM2547.84 258H2545.68V247.38C2545.68 245.07 2544.51 243.87 2542.23 243.87H2534.07V242.13C2536.65 241.98 2538.93 241.89 2540.49 241.89H2542.92C2546.1 241.89 2547.84 243.69 2547.84 246.96V258ZM2536.47 258H2534.31V249.42C2535.15 249.36 2535.62 249.3 2536.47 249.27V258ZM2562.93 258H2560.77V247.35C2560.77 245.1 2559.54 243.87 2557.32 243.87H2551.59V242.13C2553.27 241.95 2554.8 241.89 2556.54 241.89H2557.98C2561.19 241.89 2562.93 243.69 2562.93 246.96V258ZM2572.68 258H2570.52V243.87H2566.38V241.92H2572.68V258ZM2592.71 241.98L2594.69 241.8C2594.78 242.37 2594.81 243 2594.81 244.2C2594.81 252.87 2589.74 258.06 2580.92 258.39C2580.35 258.39 2578.91 257.97 2578.76 257.76L2578.22 241.98L2580.23 241.8L2580.47 248.52C2582.06 248.7 2584.37 248.91 2585.09 248.88C2585.21 248.16 2585.3 247.11 2585.33 246.09C2585.39 244.8 2585.42 243.3 2585.42 241.98L2587.46 241.83C2587.49 242.07 2587.49 242.28 2587.49 243.03C2587.49 245.22 2587.28 247.8 2586.98 249.06C2586.41 249.69 2585.42 250.26 2584.76 250.35C2584.4 250.41 2583.83 250.44 2583.05 250.44C2582.33 250.44 2581.52 250.38 2580.53 250.32L2580.74 256.5L2581.01 256.59C2588.93 255.99 2592.77 251.82 2592.77 243.78C2592.77 242.58 2592.77 242.46 2592.71 241.98ZM2610.33 258H2608.11L2610.66 243.87H2599.17V241.92H2612.91V243.72L2610.33 258ZM2599.65 261.99C2599.59 261.24 2599.59 260.52 2599.59 259.68V249.33C2600.37 249.27 2601.03 249.21 2601.75 249.18V259.14C2601.75 259.86 2601.75 260.82 2601.84 261.69C2600.91 261.87 2600.31 261.96 2599.65 261.99ZM2629.75 261.9H2627.59V243.87H2623.57V241.92H2629.75V261.9ZM2634.93 245.49H2633.85L2634.75 241.8V238.02H2637.42L2637.36 239.37C2637.27 241.83 2636.52 243.36 2634.93 245.49ZM2640.18 245.49H2639.1L2640 241.8V238.02H2642.67L2642.61 239.37C2642.52 241.83 2641.77 243.36 2640.18 245.49ZM2652.64 251.28H2650.48V243.87H2646.01V241.92H2652.64V251.28ZM2672.28 241.98L2674.26 241.8C2674.35 242.37 2674.38 243 2674.38 244.2C2674.38 252.87 2669.31 258.06 2660.49 258.39C2659.92 258.39 2658.48 257.97 2658.33 257.76L2657.79 241.98L2659.8 241.8L2660.04 248.52C2661.63 248.7 2663.94 248.91 2664.66 248.88C2664.78 248.16 2664.87 247.11 2664.9 246.09C2664.96 244.8 2664.99 243.3 2664.99 241.98L2667.03 241.83C2667.06 242.07 2667.06 242.28 2667.06 243.03C2667.06 245.22 2666.85 247.8 2666.55 249.06C2665.98 249.69 2664.99 250.26 2664.33 250.35C2663.97 250.41 2663.4 250.44 2662.62 250.44C2661.9 250.44 2661.09 250.38 2660.1 250.32L2660.31 256.5L2660.58 256.59C2668.5 255.99 2672.34 251.82 2672.34 243.78C2672.34 242.58 2672.34 242.46 2672.28 241.98ZM2692.44 258H2690.28V247.38C2690.28 245.07 2689.11 243.87 2686.83 243.87H2678.67V242.13C2681.25 241.98 2683.53 241.89 2685.09 241.89H2687.52C2690.7 241.89 2692.44 243.69 2692.44 246.96V258ZM2681.07 258H2678.91V249.42C2679.75 249.36 2680.23 249.3 2681.07 249.27V258ZM2378.22 286H2364.36V270.13C2367.24 269.98 2369.49 269.89 2370.93 269.89H2373.33C2376.48 269.89 2378.22 271.66 2378.22 274.93V286ZM2366.52 271.87V284.05H2376.06V275.35C2376.06 273.04 2374.89 271.87 2372.64 271.87H2366.52ZM2388.29 279.28H2386.13V271.87H2381.66V269.92H2388.29V279.28ZM2398.87 279.28H2396.71V271.87H2392.24V269.92H2398.87V279.28ZM2406.31 286.3C2404.84 286.3 2402.8 286.06 2401.75 285.76L2402.2 283.87C2404.33 284.2 2406.82 284.47 2407.6 284.44C2407.69 283.18 2407.72 281.41 2407.72 277.48C2407.72 274.78 2407.66 272.53 2407.57 271.87H2403.25V269.92H2409.73C2409.82 270.43 2409.88 272.89 2409.88 276.04C2409.88 281.98 2409.85 283.84 2409.73 285.31C2409.31 285.64 2408.44 286.06 2407.87 286.18C2407.6 286.27 2407.21 286.3 2406.31 286.3ZM2420.2 279.28H2418.04V271.87H2413.57V269.92H2420.2V279.28ZM2439.84 269.98L2441.82 269.8C2441.91 270.37 2441.94 271 2441.94 272.2C2441.94 280.87 2436.87 286.06 2428.05 286.39C2427.48 286.39 2426.04 285.97 2425.89 285.76L2425.35 269.98L2427.36 269.8L2427.6 276.52C2429.19 276.7 2431.5 276.91 2432.22 276.88C2432.34 276.16 2432.43 275.11 2432.46 274.09C2432.52 272.8 2432.55 271.3 2432.55 269.98L2434.59 269.83C2434.62 270.07 2434.62 270.28 2434.62 271.03C2434.62 273.22 2434.41 275.8 2434.11 277.06C2433.54 277.69 2432.55 278.26 2431.89 278.35C2431.53 278.41 2430.96 278.44 2430.18 278.44C2429.46 278.44 2428.65 278.38 2427.66 278.32L2427.87 284.5L2428.14 284.59C2436.06 283.99 2439.9 279.82 2439.9 271.78C2439.9 270.58 2439.9 270.46 2439.84 269.98ZM2452.85 286H2450.66L2454.44 271.87H2445.59V264.82H2447.69V269.92H2456.57V271.81L2452.85 286ZM2467.73 290.14H2466.65L2467.34 286.75V282.97H2469.95V284.32C2469.95 286.63 2469.17 288.1 2467.73 290.14ZM2477.05 286.3C2476.06 286.3 2474.56 286.06 2473.72 285.79L2474.17 283.96C2475.91 284.32 2477.26 284.53 2477.65 284.5C2477.71 284.29 2477.83 282.82 2477.89 280.87C2478.07 274.69 2478.13 272.77 2478.1 271.87H2474.2V270.13C2477.89 269.98 2480.68 269.89 2482.45 269.89H2485.6C2488.78 269.89 2490.52 271.69 2490.52 274.96V286H2488.36V275.38C2488.36 273.07 2487.19 271.87 2485 271.87H2480.26C2480.26 273.79 2480.26 274.36 2480.02 281.5C2479.96 282.79 2479.9 284.14 2479.66 285.55C2479.33 285.82 2478.79 286.09 2478.43 286.18C2478.19 286.27 2477.83 286.3 2477.05 286.3ZM2500.26 286H2498.1V271.87H2493.96V269.92H2500.26V286ZM2508.37 286.33C2507.86 286.3 2507.05 286.15 2506.75 286.03L2505.79 269.95L2507.86 269.83L2508.73 284.26L2509 284.32C2514.31 283.48 2517.52 280.03 2517.52 275.14C2517.52 272.77 2516.56 271.69 2514.49 271.69C2513.41 271.69 2512.66 271.72 2511.58 271.75L2511.4 270.43C2512.72 269.98 2513.98 269.77 2515.18 269.77C2518.03 269.77 2519.68 271.69 2519.68 274.96C2519.68 281.08 2515.42 285.34 2508.37 286.33ZM2534.45 286H2532.29V275.35C2532.29 273.1 2531.06 271.87 2528.84 271.87H2523.11V270.13C2524.79 269.95 2526.32 269.89 2528.06 269.89H2529.5C2532.71 269.89 2534.45 271.69 2534.45 274.96V286ZM2546.36 286.42C2543.48 286.42 2539.46 286.03 2538.14 285.7L2538.59 283.75C2540.03 283.99 2545.13 284.56 2547.86 284.56C2548.49 284.56 2549.18 284.56 2549.24 284.53C2549.36 284.05 2549.39 283.42 2549.42 280.75V277.39C2549.42 273.07 2548.46 271.87 2545.04 271.87H2543.03L2541.11 276.28C2541.26 276.82 2544.02 278.23 2544.47 278.47L2543.69 279.97C2542.01 279.34 2540.36 278.47 2539.73 277.87C2539.43 277.54 2539.01 276.31 2539.07 275.89L2541.62 270.1C2542.58 269.95 2543.81 269.89 2545.58 269.89C2549.72 269.89 2551.43 271.75 2551.52 276.4C2551.55 277.18 2551.52 278.65 2551.49 280.48C2551.4 283.09 2551.31 284.65 2551.22 285.19C2550.8 285.58 2549.69 286.09 2549 286.21C2548.46 286.36 2547.5 286.42 2546.36 286.42ZM2558.46 286.3C2557.47 286.3 2555.97 286.06 2555.13 285.79L2555.58 283.96C2557.32 284.32 2558.67 284.53 2559.06 284.5C2559.12 284.29 2559.24 282.82 2559.3 280.87C2559.48 274.69 2559.54 272.77 2559.51 271.87H2555.61V270.13C2559.3 269.98 2562.09 269.89 2563.86 269.89H2567.01C2570.19 269.89 2571.93 271.69 2571.93 274.96V286H2569.77V275.38C2569.77 273.07 2568.6 271.87 2566.41 271.87H2561.67C2561.67 273.79 2561.67 274.36 2561.43 281.5C2561.37 282.79 2561.31 284.14 2561.07 285.55C2560.74 285.82 2560.2 286.09 2559.84 286.18C2559.6 286.27 2559.24 286.3 2558.46 286.3ZM2590.43 286H2588.27V275.38C2588.27 273.07 2587.1 271.87 2584.82 271.87H2576.66V270.13C2579.24 269.98 2581.52 269.89 2583.08 269.89H2585.51C2588.69 269.89 2590.43 271.69 2590.43 274.96V286ZM2579.06 286H2576.9V277.42C2577.74 277.36 2578.22 277.3 2579.06 277.27V286ZM2601.06 286H2598.87L2602.65 271.87H2593.8V264.82H2595.9V269.92H2604.78V271.81L2601.06 286ZM2615.94 290.14H2614.86L2615.55 286.75V282.97H2618.16V284.32C2618.16 286.63 2617.38 288.1 2615.94 290.14ZM2625.26 286.3C2624.27 286.3 2622.77 286.06 2621.93 285.79L2622.38 283.96C2624.12 284.32 2625.47 284.53 2625.86 284.5C2625.92 284.29 2626.04 282.82 2626.1 280.87C2626.28 274.69 2626.34 272.77 2626.31 271.87H2622.41V270.13C2626.1 269.98 2628.89 269.89 2630.66 269.89H2633.81C2636.99 269.89 2638.73 271.69 2638.73 274.96V286H2636.57V275.38C2636.57 273.07 2635.4 271.87 2633.21 271.87H2628.47C2628.47 273.79 2628.47 274.36 2628.23 281.5C2628.17 282.79 2628.11 284.14 2627.87 285.55C2627.54 285.82 2627 286.09 2626.64 286.18C2626.4 286.27 2626.04 286.3 2625.26 286.3ZM2648.47 286H2646.31V271.87H2642.17V269.92H2648.47V286ZM2664.44 286H2662.28V275.35C2662.28 273.1 2661.05 271.87 2658.83 271.87H2653.1V270.13C2654.78 269.95 2656.31 269.89 2658.05 269.89H2659.49C2662.7 269.89 2664.44 271.69 2664.44 274.96V286ZM2674.19 286H2672.03V271.87H2667.89V269.92H2674.19V286ZM2690.53 286.48L2684.98 277.54C2683.33 278.14 2682.46 279.07 2682.22 280.54C2682.01 281.74 2681.89 284.29 2681.83 286.15H2679.61C2679.64 284.62 2679.76 282.85 2679.91 281.5C2680.24 278.95 2681.26 277.42 2683.36 276.43C2681.74 274.03 2680.57 272.14 2679.76 270.61C2680.18 270.37 2680.75 270.04 2681.56 269.62C2682.97 271.96 2684.41 274.21 2685.94 276.43C2686.6 276.55 2688.52 276.64 2689.78 276.61C2690.05 275.29 2690.38 272.53 2690.59 269.89H2692.78C2692.69 271.87 2692.21 275.5 2691.91 276.58C2691.58 277.18 2690.35 278.02 2689.66 278.11C2689.09 278.17 2688.49 278.2 2687.86 278.17L2692.42 285.61C2691.91 285.91 2691.19 286.24 2690.53 286.48ZM2368.67 314.48L2363.12 305.54C2361.47 306.14 2360.6 307.07 2360.36 308.54C2360.15 309.74 2360.03 312.29 2359.97 314.15H2357.75C2357.78 312.62 2357.9 310.85 2358.05 309.5C2358.38 306.95 2359.4 305.42 2361.5 304.43C2359.88 302.03 2358.71 300.14 2357.9 298.61C2358.32 298.37 2358.89 298.04 2359.7 297.62C2361.11 299.96 2362.55 302.21 2364.08 304.43C2364.74 304.55 2366.66 304.64 2367.92 304.61C2368.19 303.29 2368.52 300.53 2368.73 297.89H2370.92C2370.83 299.87 2370.35 303.5 2370.05 304.58C2369.72 305.18 2368.49 306.02 2367.8 306.11C2367.23 306.17 2366.63 306.2 2366 306.17L2370.56 313.61C2370.05 313.91 2369.33 314.24 2368.67 314.48ZM2380.97 307.28H2378.81V299.87H2374.34V297.92H2380.97V307.28ZM2399.62 314H2397.46V303.38C2397.46 301.07 2396.29 299.87 2394.01 299.87H2385.85V298.13C2388.43 297.98 2390.71 297.89 2392.27 297.89H2394.7C2397.88 297.89 2399.62 299.69 2399.62 302.96V314ZM2388.25 314H2386.09V305.42C2386.93 305.36 2387.41 305.3 2388.25 305.27V314ZM2414.75 314H2411.42V311.27H2414.75V314ZM2426.5 314H2424.34V303.35C2424.34 301.1 2423.11 299.87 2420.89 299.87H2415.16V298.13C2416.84 297.95 2418.37 297.89 2420.11 297.89H2421.55C2424.76 297.89 2426.5 299.69 2426.5 302.96V314ZM2436.24 314H2434.08V299.87H2429.94V297.92H2436.24V314ZM2452.22 314H2450.06V303.35C2450.06 301.1 2448.83 299.87 2446.61 299.87H2440.88V298.13C2442.56 297.95 2444.09 297.89 2445.83 297.89H2447.27C2450.48 297.89 2452.22 299.69 2452.22 302.96V314ZM2462.3 307.28H2460.14V299.87H2455.67V297.92H2462.3V307.28ZM2480.23 314H2465.8L2466.34 312.05H2475.64V303.38C2475.64 301.1 2474.47 299.87 2472.25 299.87H2466.55V298.13C2468.44 297.98 2470 297.89 2471.5 297.89H2472.94C2476.09 297.89 2477.8 299.69 2477.8 302.96V312.05H2480.23V314ZM2488.48 314H2486.32V299.87H2482.18V297.92H2488.48V314ZM2510.94 314H2508.78V299.87H2500.02V297.92H2513.94L2513.4 299.87H2510.94V314ZM2523.17 314H2521.01V299.87H2516.87V297.92H2523.17V314ZM2538.86 314H2536.7V299.87H2527.94V297.92H2541.86L2541.32 299.87H2538.86V314ZM2551.59 307.28H2549.43V299.87H2544.96V297.92H2551.59V307.28ZM2559.3 314H2557.14V298.13C2560.02 297.98 2562.06 297.89 2563.44 297.89H2565.84C2568.99 297.89 2570.73 299.66 2570.73 302.93V314H2568.57V303.35C2568.57 301.04 2567.4 299.87 2565.15 299.87H2559.3V314ZM2588.7 314H2586.51L2590.29 299.87H2581.44V292.82H2583.54V297.92H2592.42V299.81L2588.7 314ZM2611.52 297.98L2613.5 297.8C2613.59 298.37 2613.62 299 2613.62 300.2C2613.62 308.87 2608.55 314.06 2599.73 314.39C2599.16 314.39 2597.72 313.97 2597.57 313.76L2597.03 297.98L2599.04 297.8L2599.28 304.52C2600.87 304.7 2603.18 304.91 2603.9 304.88C2604.02 304.16 2604.11 303.11 2604.14 302.09C2604.2 300.8 2604.23 299.3 2604.23 297.98L2606.27 297.83C2606.3 298.07 2606.3 298.28 2606.3 299.03C2606.3 301.22 2606.09 303.8 2605.79 305.06C2605.22 305.69 2604.23 306.26 2603.57 306.35C2603.21 306.41 2602.64 306.44 2601.86 306.44C2601.14 306.44 2600.33 306.38 2599.34 306.32L2599.55 312.5L2599.82 312.59C2607.74 311.99 2611.58 307.82 2611.58 299.78C2611.58 298.58 2611.58 298.46 2611.52 297.98ZM2630.31 317.9H2628.15V299.87H2624.13V297.92H2630.31V317.9ZM2648.48 314H2634.05L2634.59 312.05H2643.89V303.38C2643.89 301.1 2642.72 299.87 2640.5 299.87H2634.8V298.13C2636.69 297.98 2638.25 297.89 2639.75 297.89H2641.19C2644.34 297.89 2646.05 299.69 2646.05 302.96V312.05H2648.48V314ZM2656.73 314H2654.57V299.87H2650.43V297.92H2656.73V314ZM2664.04 314.3H2661.88L2665.66 299.84H2661.52V298.1C2664.82 297.95 2666.62 297.89 2667.79 297.89H2670.37C2674.45 297.89 2676.1 299.72 2676.16 304.31C2676.19 307.07 2676.07 312.23 2675.95 313.31C2675.56 313.64 2674.78 314.06 2674.24 314.18C2673.97 314.27 2673.52 314.3 2672.77 314.3C2671.48 314.3 2669.53 314.06 2668.51 313.76L2668.96 311.87C2670.67 312.14 2673.16 312.47 2674 312.47C2674.09 311.48 2674.12 309.35 2674.09 305.3C2674.06 301.07 2673.07 299.84 2669.71 299.84H2667.82L2664.04 314.3ZM2693.8 314H2679.37L2679.91 312.05H2689.21V303.38C2689.21 301.1 2688.04 299.87 2685.82 299.87H2680.12V298.13C2682.01 297.98 2683.57 297.89 2685.07 297.89H2686.51C2689.66 297.89 2691.37 299.69 2691.37 302.96V312.05H2693.8V314ZM2345.08 335.28H2342.92V327.87H2338.45V325.92H2345.08V335.28ZM2352.78 342H2350.62V326.13C2353.5 325.98 2355.54 325.89 2356.92 325.89H2359.32C2362.47 325.89 2364.21 327.66 2364.21 330.93V342H2362.05V331.35C2362.05 329.04 2360.88 327.87 2358.63 327.87H2352.78V342ZM2386.8 325.89L2388.93 325.8C2388.96 325.89 2388.96 325.89 2388.96 326.64C2388.96 332.16 2387.97 338.25 2386.65 340.86C2386.32 341.31 2385 342.06 2384.22 342.24C2383.71 342.33 2382.93 342.39 2382.12 342.39C2379.54 342.39 2375.7 342.03 2374.71 341.7L2375.13 339.78C2377.11 340.14 2379.27 340.38 2380.92 340.53C2379.75 335.7 2377.62 328.86 2376.57 326.64C2376.84 326.37 2377.98 325.77 2378.52 325.62C2379.54 327.42 2382.03 336.09 2382.87 340.59C2384.01 340.59 2384.61 340.53 2384.94 340.38C2385.6 339.15 2386.29 335.58 2386.59 331.86C2386.71 330.78 2386.83 327.18 2386.8 325.89ZM2400.55 342.42C2397.67 342.42 2393.65 342.03 2392.33 341.7L2392.78 339.75C2394.22 339.99 2399.32 340.56 2402.05 340.56C2402.68 340.56 2403.37 340.56 2403.43 340.53C2403.55 340.05 2403.58 339.42 2403.61 336.75V333.39C2403.61 329.07 2402.65 327.87 2399.23 327.87H2397.22L2395.3 332.28C2395.45 332.82 2398.21 334.23 2398.66 334.47L2397.88 335.97C2396.2 335.34 2394.55 334.47 2393.92 333.87C2393.62 333.54 2393.2 332.31 2393.26 331.89L2395.81 326.1C2396.77 325.95 2398 325.89 2399.77 325.89C2403.91 325.89 2405.62 327.75 2405.71 332.4C2405.74 333.18 2405.71 334.65 2405.68 336.48C2405.59 339.09 2405.5 340.65 2405.41 341.19C2404.99 341.58 2403.88 342.09 2403.19 342.21C2402.65 342.36 2401.69 342.42 2400.55 342.42ZM2425.28 325.98L2427.26 325.8C2427.35 326.37 2427.38 327 2427.38 328.2C2427.38 336.87 2422.31 342.06 2413.49 342.39C2412.92 342.39 2411.48 341.97 2411.33 341.76L2410.79 325.98L2412.8 325.8L2413.04 332.52C2414.63 332.7 2416.94 332.91 2417.66 332.88C2417.78 332.16 2417.87 331.11 2417.9 330.09C2417.96 328.8 2417.99 327.3 2417.99 325.98L2420.03 325.83C2420.06 326.07 2420.06 326.28 2420.06 327.03C2420.06 329.22 2419.85 331.8 2419.55 333.06C2418.98 333.69 2417.99 334.26 2417.33 334.35C2416.97 334.41 2416.4 334.44 2415.62 334.44C2414.9 334.44 2414.09 334.38 2413.1 334.32L2413.31 340.5L2413.58 340.59C2421.5 339.99 2425.34 335.82 2425.34 327.78C2425.34 326.58 2425.34 326.46 2425.28 325.98ZM2444.91 342H2442.72L2446.5 327.87H2437.65V320.82H2439.75V325.92H2448.63V327.81L2444.91 342ZM2467.73 325.98L2469.71 325.8C2469.8 326.37 2469.83 327 2469.83 328.2C2469.83 336.87 2464.76 342.06 2455.94 342.39C2455.37 342.39 2453.93 341.97 2453.78 341.76L2453.24 325.98L2455.25 325.8L2455.49 332.52C2457.08 332.7 2459.39 332.91 2460.11 332.88C2460.23 332.16 2460.32 331.11 2460.35 330.09C2460.41 328.8 2460.44 327.3 2460.44 325.98L2462.48 325.83C2462.51 326.07 2462.51 326.28 2462.51 327.03C2462.51 329.22 2462.3 331.8 2462 333.06C2461.43 333.69 2460.44 334.26 2459.78 334.35C2459.42 334.41 2458.85 334.44 2458.07 334.44C2457.35 334.44 2456.54 334.38 2455.55 334.32L2455.76 340.5L2456.03 340.59C2463.95 339.99 2467.79 335.82 2467.79 327.78C2467.79 326.58 2467.79 326.46 2467.73 325.98ZM2483.7 342.3C2482.71 342.3 2481.21 342.06 2480.37 341.79L2480.82 339.96C2482.56 340.32 2483.91 340.53 2484.3 340.5C2484.36 340.29 2484.48 338.82 2484.54 336.87C2484.72 330.69 2484.78 328.77 2484.75 327.87H2480.85V326.13C2484.54 325.98 2487.33 325.89 2489.1 325.89H2492.25C2495.43 325.89 2497.17 327.69 2497.17 330.96V342H2495.01V331.38C2495.01 329.07 2493.84 327.87 2491.65 327.87H2486.91C2486.91 329.79 2486.91 330.36 2486.67 337.5C2486.61 338.79 2486.55 340.14 2486.31 341.55C2485.98 341.82 2485.44 342.09 2485.08 342.18C2484.84 342.27 2484.48 342.3 2483.7 342.3ZM2506.91 342H2504.75V327.87H2500.61V325.92H2506.91V342ZM2517.58 334.17L2523.61 339.84L2523.13 341.67C2522.65 341.91 2522.08 342.15 2521.66 342.21C2521.18 342.36 2520.31 342.42 2519.02 342.42C2516.2 342.42 2512.45 342.09 2511.1 341.7L2511.55 339.75C2513.11 340.11 2518.45 340.56 2521.15 340.56C2521.42 340.56 2521.69 340.56 2521.87 340.53V340.35C2519.8 338.76 2517.91 337.62 2514.88 333.84C2513.86 332.31 2512.6 329.1 2511.91 326.31C2512.51 326.01 2513.23 325.77 2513.92 325.59C2514.61 327.93 2515.57 330.45 2516.5 332.4C2517.64 332.58 2520.16 332.7 2520.52 332.61C2520.79 331.56 2521.12 328.53 2521.3 325.92H2523.4C2523.34 327.45 2522.86 331.26 2522.53 332.58C2522.2 333.18 2521.09 334.02 2520.43 334.11C2519.62 334.2 2518.54 334.2 2517.58 334.17ZM2538.35 342H2536.19V331.35C2536.19 329.1 2534.96 327.87 2532.74 327.87H2527.01V326.13C2528.69 325.95 2530.22 325.89 2531.96 325.89H2533.4C2536.61 325.89 2538.35 327.69 2538.35 330.96V342ZM2550.26 342.42C2547.38 342.42 2543.36 342.03 2542.04 341.7L2542.49 339.75C2543.93 339.99 2549.03 340.56 2551.76 340.56C2552.39 340.56 2553.08 340.56 2553.14 340.53C2553.26 340.05 2553.29 339.42 2553.32 336.75V333.39C2553.32 329.07 2552.36 327.87 2548.94 327.87H2546.93L2545.01 332.28C2545.16 332.82 2547.92 334.23 2548.37 334.47L2547.59 335.97C2545.91 335.34 2544.26 334.47 2543.63 333.87C2543.33 333.54 2542.91 332.31 2542.97 331.89L2545.52 326.1C2546.48 325.95 2547.71 325.89 2549.48 325.89C2553.62 325.89 2555.33 327.75 2555.42 332.4C2555.45 333.18 2555.42 334.65 2555.39 336.48C2555.3 339.09 2555.21 340.65 2555.12 341.19C2554.7 341.58 2553.59 342.09 2552.9 342.21C2552.36 342.36 2551.4 342.42 2550.26 342.42ZM2562.36 342.3C2561.37 342.3 2559.87 342.06 2559.03 341.79L2559.48 339.96C2561.22 340.32 2562.57 340.53 2562.96 340.5C2563.02 340.29 2563.14 338.82 2563.2 336.87C2563.38 330.69 2563.44 328.77 2563.41 327.87H2559.51V326.13C2563.2 325.98 2565.99 325.89 2567.76 325.89H2570.91C2574.09 325.89 2575.83 327.69 2575.83 330.96V342H2573.67V331.38C2573.67 329.07 2572.5 327.87 2570.31 327.87H2565.57C2565.57 329.79 2565.57 330.36 2565.33 337.5C2565.27 338.79 2565.21 340.14 2564.97 341.55C2564.64 341.82 2564.1 342.09 2563.74 342.18C2563.5 342.27 2563.14 342.3 2562.36 342.3ZM2594.33 342H2592.17V331.38C2592.17 329.07 2591 327.87 2588.72 327.87H2580.56V326.13C2583.14 325.98 2585.42 325.89 2586.98 325.89H2589.41C2592.59 325.89 2594.33 327.69 2594.33 330.96V342ZM2582.96 342H2580.8V333.42C2581.64 333.36 2582.12 333.3 2582.96 333.27V342ZM2608.65 342.3C2607.66 342.3 2606.16 342.06 2605.32 341.79L2605.77 339.96C2607.51 340.32 2608.86 340.53 2609.25 340.5C2609.31 340.29 2609.43 338.82 2609.49 336.87C2609.67 330.69 2609.73 328.77 2609.7 327.87H2605.8V326.13C2609.49 325.98 2612.28 325.89 2614.05 325.89H2617.2C2620.38 325.89 2622.12 327.69 2622.12 330.96V342H2619.96V331.38C2619.96 329.07 2618.79 327.87 2616.6 327.87H2611.86C2611.86 329.79 2611.86 330.36 2611.62 337.5C2611.56 338.79 2611.5 340.14 2611.26 341.55C2610.93 341.82 2610.39 342.09 2610.03 342.18C2609.79 342.27 2609.43 342.3 2608.65 342.3ZM2637.68 342.48L2632.13 333.54C2630.48 334.14 2629.61 335.07 2629.37 336.54C2629.16 337.74 2629.04 340.29 2628.98 342.15H2626.76C2626.79 340.62 2626.91 338.85 2627.06 337.5C2627.39 334.95 2628.41 333.42 2630.51 332.43C2628.89 330.03 2627.72 328.14 2626.91 326.61C2627.33 326.37 2627.9 326.04 2628.71 325.62C2630.12 327.96 2631.56 330.21 2633.09 332.43C2633.75 332.55 2635.67 332.64 2636.93 332.61C2637.2 331.29 2637.53 328.53 2637.74 325.89H2639.93C2639.84 327.87 2639.36 331.5 2639.06 332.58C2638.73 333.18 2637.5 334.02 2636.81 334.11C2636.24 334.17 2635.64 334.2 2635.01 334.17L2639.57 341.61C2639.06 341.91 2638.34 342.24 2637.68 342.48ZM2647.12 342.33C2646.61 342.3 2645.8 342.15 2645.5 342.03L2644.54 325.95L2646.61 325.83L2647.48 340.26L2647.75 340.32C2653.06 339.48 2656.27 336.03 2656.27 331.14C2656.27 328.77 2655.31 327.69 2653.24 327.69C2652.16 327.69 2651.41 327.72 2650.33 327.75L2650.15 326.43C2651.47 325.98 2652.73 325.77 2653.93 325.77C2656.78 325.77 2658.43 327.69 2658.43 330.96C2658.43 337.08 2654.17 341.34 2647.12 342.33ZM2675.41 342H2660.98L2661.52 340.05H2670.82V331.38C2670.82 329.1 2669.65 327.87 2667.43 327.87H2661.73V326.13C2663.62 325.98 2665.18 325.89 2666.68 325.89H2668.12C2671.27 325.89 2672.98 327.69 2672.98 330.96V340.05H2675.41V342ZM2680.47 342.3H2678.31L2682.09 327.84H2677.95V326.1C2681.25 325.95 2683.05 325.89 2684.22 325.89H2686.8C2690.88 325.89 2692.53 327.72 2692.59 332.31C2692.62 335.07 2692.5 340.23 2692.38 341.31C2691.99 341.64 2691.21 342.06 2690.67 342.18C2690.4 342.27 2689.95 342.3 2689.2 342.3C2687.91 342.3 2685.96 342.06 2684.94 341.76L2685.39 339.87C2687.1 340.14 2689.59 340.47 2690.43 340.47C2690.52 339.48 2690.55 337.35 2690.52 333.3C2690.49 329.07 2689.5 327.84 2686.14 327.84H2684.25L2680.47 342.3ZM2343.8 374.14H2342.72L2343.41 370.75V366.97H2346.02V368.32C2346.02 370.63 2345.24 372.1 2343.8 374.14ZM2357.74 370H2355.58V359.35C2355.58 357.1 2354.35 355.87 2352.13 355.87H2346.4V354.13C2348.08 353.95 2349.61 353.89 2351.35 353.89H2352.79C2356 353.89 2357.74 355.69 2357.74 358.96V370ZM2367.48 370H2365.32V355.87H2361.18V353.92H2367.48V370ZM2383.82 370.48L2378.27 361.54C2376.62 362.14 2375.75 363.07 2375.51 364.54C2375.3 365.74 2375.18 368.29 2375.12 370.15H2372.9C2372.93 368.62 2373.05 366.85 2373.2 365.5C2373.53 362.95 2374.55 361.42 2376.65 360.43C2375.03 358.03 2373.86 356.14 2373.05 354.61C2373.47 354.37 2374.04 354.04 2374.85 353.62C2376.26 355.96 2377.7 358.21 2379.23 360.43C2379.89 360.55 2381.81 360.64 2383.07 360.61C2383.34 359.29 2383.67 356.53 2383.88 353.89H2386.07C2385.98 355.87 2385.5 359.5 2385.2 360.58C2384.87 361.18 2383.64 362.02 2382.95 362.11C2382.38 362.17 2381.78 362.2 2381.15 362.17L2385.71 369.61C2385.2 369.91 2384.48 370.24 2383.82 370.48ZM2398.03 355.87H2389.63V353.92H2398.48L2398.03 355.87ZM2405.12 370.3C2404.13 370.3 2402.63 370.06 2401.79 369.79L2402.24 367.96C2403.98 368.32 2405.33 368.53 2405.72 368.5C2405.78 368.29 2405.9 366.82 2405.96 364.87C2406.14 358.69 2406.2 356.77 2406.17 355.87H2402.27V354.13C2405.96 353.98 2408.75 353.89 2410.52 353.89H2413.67C2416.85 353.89 2418.59 355.69 2418.59 358.96V370H2416.43V359.38C2416.43 357.07 2415.26 355.87 2413.07 355.87H2408.33C2408.33 357.79 2408.33 358.36 2408.09 365.5C2408.03 366.79 2407.97 368.14 2407.73 369.55C2407.4 369.82 2406.86 370.09 2406.5 370.18C2406.26 370.27 2405.9 370.3 2405.12 370.3ZM2428.33 370H2426.17V355.87H2422.03V353.92H2428.33V370ZM2439 362.17L2445.03 367.84L2444.55 369.67C2444.07 369.91 2443.5 370.15 2443.08 370.21C2442.6 370.36 2441.73 370.42 2440.44 370.42C2437.62 370.42 2433.87 370.09 2432.52 369.7L2432.97 367.75C2434.53 368.11 2439.87 368.56 2442.57 368.56C2442.84 368.56 2443.11 368.56 2443.29 368.53V368.35C2441.22 366.76 2439.33 365.62 2436.3 361.84C2435.28 360.31 2434.02 357.1 2433.33 354.31C2433.93 354.01 2434.65 353.77 2435.34 353.59C2436.03 355.93 2436.99 358.45 2437.92 360.4C2439.06 360.58 2441.58 360.7 2441.94 360.61C2442.21 359.56 2442.54 356.53 2442.72 353.92H2444.82C2444.76 355.45 2444.28 359.26 2443.95 360.58C2443.62 361.18 2442.51 362.02 2441.85 362.11C2441.04 362.2 2439.96 362.2 2439 362.17ZM2460.5 370H2458.28L2460.83 355.87H2449.34V353.92H2463.08V355.72L2460.5 370ZM2449.82 373.99C2449.76 373.24 2449.76 372.52 2449.76 371.68V361.33C2450.54 361.27 2451.2 361.21 2451.92 361.18V371.14C2451.92 371.86 2451.92 372.82 2452.01 373.69C2451.08 373.87 2450.48 373.96 2449.82 373.99ZM2488.66 370H2486.5V359.38C2486.5 357.07 2485.33 355.87 2483.05 355.87H2474.89V354.13C2477.47 353.98 2479.75 353.89 2481.31 353.89H2483.74C2486.92 353.89 2488.66 355.69 2488.66 358.96V370ZM2477.29 370H2475.13V361.42C2475.97 361.36 2476.45 361.3 2477.29 361.27V370ZM2495.08 370.3H2492.92L2496.7 355.84H2492.56V354.1C2495.86 353.95 2497.66 353.89 2498.83 353.89H2501.41C2505.49 353.89 2507.14 355.72 2507.2 360.31C2507.23 363.07 2507.11 368.23 2506.99 369.31C2506.6 369.64 2505.82 370.06 2505.28 370.18C2505.01 370.27 2504.56 370.3 2503.81 370.3C2502.52 370.3 2500.57 370.06 2499.55 369.76L2500 367.87C2501.71 368.14 2504.2 368.47 2505.04 368.47C2505.13 367.48 2505.16 365.35 2505.13 361.3C2505.1 357.07 2504.11 355.84 2500.75 355.84H2498.86L2495.08 370.3ZM2517.65 370.42C2515.01 370.42 2511.29 370.03 2510.09 369.7L2510.51 367.75C2511.8 367.99 2516.63 368.56 2519.09 368.56C2519.66 368.56 2519.84 368.56 2520.05 368.53C2520.17 367.6 2520.2 365.5 2520.2 363.13V362.05C2520.2 357.19 2519.06 355.84 2514.95 355.84H2511.14V354.1C2512.01 353.98 2514.11 353.89 2515.88 353.89C2520.47 353.89 2522.36 356.02 2522.36 361.18C2522.36 364.27 2522.27 367.27 2522.12 369.19C2521.73 369.58 2520.71 370.09 2520.08 370.21C2519.6 370.36 2518.7 370.42 2517.65 370.42ZM2534.15 374.14H2533.07L2533.76 370.75V366.97H2536.37V368.32C2536.37 370.63 2535.59 372.1 2534.15 374.14ZM2554.94 370H2541.08V354.13C2543.96 353.98 2546.21 353.89 2547.65 353.89H2550.05C2553.2 353.89 2554.94 355.66 2554.94 358.93V370ZM2543.24 355.87V368.05H2552.78V359.35C2552.78 357.04 2551.61 355.87 2549.36 355.87H2543.24ZM2565.01 363.28H2562.85V355.87H2558.38V353.92H2565.01V363.28ZM2584.65 353.98L2586.63 353.8C2586.72 354.37 2586.75 355 2586.75 356.2C2586.75 364.87 2581.68 370.06 2572.86 370.39C2572.29 370.39 2570.85 369.97 2570.7 369.76L2570.16 353.98L2572.17 353.8L2572.41 360.52C2574 360.7 2576.31 360.91 2577.03 360.88C2577.15 360.16 2577.24 359.11 2577.27 358.09C2577.33 356.8 2577.36 355.3 2577.36 353.98L2579.4 353.83C2579.43 354.07 2579.43 354.28 2579.43 355.03C2579.43 357.22 2579.22 359.8 2578.92 361.06C2578.35 361.69 2577.36 362.26 2576.7 362.35C2576.34 362.41 2575.77 362.44 2574.99 362.44C2574.27 362.44 2573.46 362.38 2572.47 362.32L2572.68 368.5L2572.95 368.59C2580.87 367.99 2584.71 363.82 2584.71 355.78C2584.71 354.58 2584.71 354.46 2584.65 353.98ZM2601.73 370.48L2596.18 361.54C2594.53 362.14 2593.66 363.07 2593.42 364.54C2593.21 365.74 2593.09 368.29 2593.03 370.15H2590.81C2590.84 368.62 2590.96 366.85 2591.11 365.5C2591.44 362.95 2592.46 361.42 2594.56 360.43C2592.94 358.03 2591.77 356.14 2590.96 354.61C2591.38 354.37 2591.95 354.04 2592.76 353.62C2594.17 355.96 2595.61 358.21 2597.14 360.43C2597.8 360.55 2599.72 360.64 2600.98 360.61C2601.25 359.29 2601.58 356.53 2601.79 353.89H2603.98C2603.89 355.87 2603.41 359.5 2603.11 360.58C2602.78 361.18 2601.55 362.02 2600.86 362.11C2600.29 362.17 2599.69 362.2 2599.06 362.17L2603.62 369.61C2603.11 369.91 2602.39 370.24 2601.73 370.48ZM2619.33 370H2617.17V359.35C2617.17 357.1 2615.94 355.87 2613.72 355.87H2607.99V354.13C2609.67 353.95 2611.2 353.89 2612.94 353.89H2614.38C2617.59 353.89 2619.33 355.69 2619.33 358.96V370ZM2645.19 370H2643.03V359.38C2643.03 357.07 2641.86 355.87 2639.58 355.87H2631.42V354.13C2634 353.98 2636.28 353.89 2637.84 353.89H2640.27C2643.45 353.89 2645.19 355.69 2645.19 358.96V370ZM2633.82 370H2631.66V361.42C2632.5 361.36 2632.98 361.3 2633.82 361.27V370ZM2651.61 370.3H2649.45L2653.23 355.84H2649.09V354.1C2652.39 353.95 2654.19 353.89 2655.36 353.89H2657.94C2662.02 353.89 2663.67 355.72 2663.73 360.31C2663.76 363.07 2663.64 368.23 2663.52 369.31C2663.13 369.64 2662.35 370.06 2661.81 370.18C2661.54 370.27 2661.09 370.3 2660.34 370.3C2659.05 370.3 2657.1 370.06 2656.08 369.76L2656.53 367.87C2658.24 368.14 2660.73 368.47 2661.57 368.47C2661.66 367.48 2661.69 365.35 2661.66 361.3C2661.63 357.07 2660.64 355.84 2657.28 355.84H2655.39L2651.61 370.3ZM2674.19 370.42C2671.55 370.42 2667.83 370.03 2666.63 369.7L2667.05 367.75C2668.34 367.99 2673.17 368.56 2675.63 368.56C2676.2 368.56 2676.38 368.56 2676.59 368.53C2676.71 367.6 2676.74 365.5 2676.74 363.13V362.05C2676.74 357.19 2675.6 355.84 2671.49 355.84H2667.68V354.1C2668.55 353.98 2670.65 353.89 2672.42 353.89C2677.01 353.89 2678.9 356.02 2678.9 361.18C2678.9 364.27 2678.81 367.27 2678.66 369.19C2678.27 369.58 2677.25 370.09 2676.62 370.21C2676.14 370.36 2675.24 370.42 2674.19 370.42ZM2689.36 370H2687.17L2690.95 355.87H2682.1V348.82H2684.2V353.92H2693.08V355.81L2689.36 370ZM2396.78 401.9H2394.62V383.87H2390.6V381.92H2396.78V401.9ZM2407.16 391.28H2405V383.87H2400.53V381.92H2407.16V391.28ZM2417.74 391.28H2415.58V383.87H2411.11V381.92H2417.74V391.28ZM2432.96 398H2430.8V383.87H2422.04V381.92H2435.96L2435.42 383.87H2432.96V398ZM2449.94 381.89L2452.07 381.8C2452.1 381.89 2452.1 381.89 2452.1 382.64C2452.1 388.16 2451.11 394.25 2449.79 396.86C2449.46 397.31 2448.14 398.06 2447.36 398.24C2446.85 398.33 2446.07 398.39 2445.26 398.39C2442.68 398.39 2438.84 398.03 2437.85 397.7L2438.27 395.78C2440.25 396.14 2442.41 396.38 2444.06 396.53C2442.89 391.7 2440.76 384.86 2439.71 382.64C2439.98 382.37 2441.12 381.77 2441.66 381.62C2442.68 383.42 2445.17 392.09 2446.01 396.59C2447.15 396.59 2447.75 396.53 2448.08 396.38C2448.74 395.15 2449.43 391.58 2449.73 387.86C2449.85 386.78 2449.97 383.18 2449.94 381.89ZM2462.23 398H2460.07V383.87H2455.93V381.92H2462.23V398ZM2474.61 402.14H2473.53L2474.22 398.75V394.97H2476.83V396.32C2476.83 398.63 2476.05 400.1 2474.61 402.14ZM2494.66 398H2492.5V387.38C2492.5 385.07 2491.33 383.87 2489.05 383.87H2480.89V382.13C2483.47 381.98 2485.75 381.89 2487.31 381.89H2489.74C2492.92 381.89 2494.66 383.69 2494.66 386.96V398ZM2483.29 398H2481.13V389.42C2481.97 389.36 2482.45 389.3 2483.29 389.27V398ZM2509.91 381.89L2512.04 381.8C2512.07 381.89 2512.07 381.89 2512.07 382.64C2512.07 388.16 2511.08 394.25 2509.76 396.86C2509.43 397.31 2508.11 398.06 2507.33 398.24C2506.82 398.33 2506.04 398.39 2505.23 398.39C2502.65 398.39 2498.81 398.03 2497.82 397.7L2498.24 395.78C2500.22 396.14 2502.38 396.38 2504.03 396.53C2502.86 391.7 2500.73 384.86 2499.68 382.64C2499.95 382.37 2501.09 381.77 2501.63 381.62C2502.65 383.42 2505.14 392.09 2505.98 396.59C2507.12 396.59 2507.72 396.53 2508.05 396.38C2508.71 395.15 2509.4 391.58 2509.7 387.86C2509.82 386.78 2509.94 383.18 2509.91 381.89ZM2523.66 398.42C2520.78 398.42 2516.76 398.03 2515.44 397.7L2515.89 395.75C2517.33 395.99 2522.43 396.56 2525.16 396.56C2525.79 396.56 2526.48 396.56 2526.54 396.53C2526.66 396.05 2526.69 395.42 2526.72 392.75V389.39C2526.72 385.07 2525.76 383.87 2522.34 383.87H2520.33L2518.41 388.28C2518.56 388.82 2521.32 390.23 2521.77 390.47L2520.99 391.97C2519.31 391.34 2517.66 390.47 2517.03 389.87C2516.73 389.54 2516.31 388.31 2516.37 387.89L2518.92 382.1C2519.88 381.95 2521.11 381.89 2522.88 381.89C2527.02 381.89 2528.73 383.75 2528.82 388.4C2528.85 389.18 2528.82 390.65 2528.79 392.48C2528.7 395.09 2528.61 396.65 2528.52 397.19C2528.1 397.58 2526.99 398.09 2526.3 398.21C2525.76 398.36 2524.8 398.42 2523.66 398.42ZM2538.4 398H2536.24V383.87H2532.1V381.92H2538.4V398ZM2557.5 398H2555.34V387.38C2555.34 385.07 2554.17 383.87 2551.89 383.87H2543.73V382.13C2546.31 381.98 2548.59 381.89 2550.15 381.89H2552.58C2555.76 381.89 2557.5 383.69 2557.5 386.96V398ZM2546.13 398H2543.97V389.42C2544.81 389.36 2545.29 389.3 2546.13 389.27V398ZM2574.94 391.28H2572.78V383.87H2568.31V381.92H2574.94V391.28ZM2582.39 398.3C2580.92 398.3 2578.88 398.06 2577.83 397.76L2578.28 395.87C2580.41 396.2 2582.9 396.47 2583.68 396.44C2583.77 395.18 2583.8 393.41 2583.8 389.48C2583.8 386.78 2583.74 384.53 2583.65 383.87H2579.33V381.92H2585.81C2585.9 382.43 2585.96 384.89 2585.96 388.04C2585.96 393.98 2585.93 395.84 2585.81 397.31C2585.39 397.64 2584.52 398.06 2583.95 398.18C2583.68 398.27 2583.29 398.3 2582.39 398.3ZM2596 398H2593.84V383.87H2589.7V381.92H2596V398ZM2606.34 398H2604.18V383.87H2600.04V381.92H2606.34V398ZM2617.45 391.28H2615.29V383.87H2610.82V381.92H2617.45V391.28ZM2628.19 398.42C2625.55 398.42 2621.83 398.03 2620.63 397.7L2621.05 395.75C2622.34 395.99 2627.17 396.56 2629.63 396.56C2630.2 396.56 2630.38 396.56 2630.59 396.53C2630.71 395.6 2630.74 393.5 2630.74 391.13V390.05C2630.74 385.19 2629.6 383.84 2625.49 383.84H2621.68V382.1C2622.55 381.98 2624.65 381.89 2626.42 381.89C2631.01 381.89 2632.9 384.02 2632.9 389.18C2632.9 392.27 2632.81 395.27 2632.66 397.19C2632.27 397.58 2631.25 398.09 2630.62 398.21C2630.14 398.36 2629.24 398.42 2628.19 398.42ZM2658.75 398H2656.59V387.38C2656.59 385.07 2655.42 383.87 2653.14 383.87H2644.98V382.13C2647.56 381.98 2649.84 381.89 2651.4 381.89H2653.83C2657.01 381.89 2658.75 383.69 2658.75 386.96V398ZM2647.38 398H2645.22V389.42C2646.06 389.36 2646.54 389.3 2647.38 389.27V398ZM2665.18 398.3H2663.02L2666.8 383.84H2662.66V382.1C2665.96 381.95 2667.76 381.89 2668.93 381.89H2671.51C2675.59 381.89 2677.24 383.72 2677.3 388.31C2677.33 391.07 2677.21 396.23 2677.09 397.31C2676.7 397.64 2675.92 398.06 2675.38 398.18C2675.11 398.27 2674.66 398.3 2673.91 398.3C2672.62 398.3 2670.67 398.06 2669.65 397.76L2670.1 395.87C2671.81 396.14 2674.3 396.47 2675.14 396.47C2675.23 395.48 2675.26 393.35 2675.23 389.3C2675.2 385.07 2674.21 383.84 2670.85 383.84H2668.96L2665.18 398.3ZM2687.75 398.42C2685.11 398.42 2681.39 398.03 2680.19 397.7L2680.61 395.75C2681.9 395.99 2686.73 396.56 2689.19 396.56C2689.76 396.56 2689.94 396.56 2690.15 396.53C2690.27 395.6 2690.3 393.5 2690.3 391.13V390.05C2690.3 385.19 2689.16 383.84 2685.05 383.84H2681.24V382.1C2682.11 381.98 2684.21 381.89 2685.98 381.89C2690.57 381.89 2692.46 384.02 2692.46 389.18C2692.46 392.27 2692.37 395.27 2692.22 397.19C2691.83 397.58 2690.81 398.09 2690.18 398.21C2689.7 398.36 2688.8 398.42 2687.75 398.42ZM2379.9 426.48L2374.35 417.54C2372.7 418.14 2371.83 419.07 2371.59 420.54C2371.38 421.74 2371.26 424.29 2371.2 426.15H2368.98C2369.01 424.62 2369.13 422.85 2369.28 421.5C2369.61 418.95 2370.62 417.42 2372.73 416.43C2371.11 414.03 2369.94 412.14 2369.13 410.61C2369.55 410.37 2370.12 410.04 2370.93 409.62C2372.34 411.96 2373.78 414.21 2375.31 416.43C2375.97 416.55 2377.89 416.64 2379.15 416.61C2379.42 415.29 2379.75 412.53 2379.96 409.89H2382.15C2382.06 411.87 2381.58 415.5 2381.28 416.58C2380.95 417.18 2379.72 418.02 2379.03 418.11C2378.46 418.17 2377.86 418.2 2377.23 418.17L2381.79 425.61C2381.28 425.91 2380.56 426.24 2379.9 426.48ZM2392.19 419.28H2390.03V411.87H2385.56V409.92H2392.19V419.28ZM2410.84 426H2408.68V415.38C2408.68 413.07 2407.51 411.87 2405.23 411.87H2397.07V410.13C2399.65 409.98 2401.93 409.89 2403.49 409.89H2405.92C2409.1 409.89 2410.84 411.69 2410.84 414.96V426ZM2399.47 426H2397.31V417.42C2398.15 417.36 2398.63 417.3 2399.47 417.27V426ZM2427.98 429.9H2425.82V411.87H2421.8V409.92H2427.98V429.9ZM2438.87 426.42C2436.23 426.42 2432.51 426.03 2431.31 425.7L2431.73 423.75C2433.02 423.99 2437.85 424.56 2440.31 424.56C2440.88 424.56 2441.06 424.56 2441.27 424.53C2441.39 423.6 2441.42 421.5 2441.42 419.13V418.05C2441.42 413.19 2440.28 411.84 2436.17 411.84H2432.36V410.1C2433.23 409.98 2435.33 409.89 2437.1 409.89C2441.69 409.89 2443.58 412.02 2443.58 417.18C2443.58 420.27 2443.49 423.27 2443.34 425.19C2442.95 425.58 2441.93 426.09 2441.3 426.21C2440.82 426.36 2439.92 426.42 2438.87 426.42ZM2454.05 426H2451.86L2455.64 411.87H2446.79V404.82H2448.89V409.92H2457.77V411.81L2454.05 426ZM2472.26 426H2468.93V423.27H2472.26V426ZM2479.39 426.3C2478.4 426.3 2476.9 426.06 2476.06 425.79L2476.51 423.96C2478.25 424.32 2479.6 424.53 2479.99 424.5C2480.05 424.29 2480.17 422.82 2480.23 420.87C2480.41 414.69 2480.47 412.77 2480.44 411.87H2476.54V410.13C2480.23 409.98 2483.02 409.89 2484.79 409.89H2487.94C2491.12 409.89 2492.86 411.69 2492.86 414.96V426H2490.7V415.38C2490.7 413.07 2489.53 411.87 2487.34 411.87H2482.6C2482.6 413.79 2482.6 414.36 2482.36 421.5C2482.3 422.79 2482.24 424.14 2482 425.55C2481.67 425.82 2481.13 426.09 2480.77 426.18C2480.53 426.27 2480.17 426.3 2479.39 426.3ZM2500.41 426H2498.25V410.13C2501.13 409.98 2503.17 409.89 2504.55 409.89H2506.95C2510.1 409.89 2511.84 411.66 2511.84 414.93V426H2509.68V415.35C2509.68 413.04 2508.51 411.87 2506.26 411.87H2500.41V426ZM2527.4 426.48L2521.85 417.54C2520.2 418.14 2519.33 419.07 2519.09 420.54C2518.88 421.74 2518.76 424.29 2518.7 426.15H2516.48C2516.51 424.62 2516.63 422.85 2516.78 421.5C2517.11 418.95 2518.13 417.42 2520.23 416.43C2518.61 414.03 2517.44 412.14 2516.63 410.61C2517.05 410.37 2517.62 410.04 2518.43 409.62C2519.84 411.96 2521.28 414.21 2522.81 416.43C2523.47 416.55 2525.39 416.64 2526.65 416.61C2526.92 415.29 2527.25 412.53 2527.46 409.89H2529.65C2529.56 411.87 2529.08 415.5 2528.78 416.58C2528.45 417.18 2527.22 418.02 2526.53 418.11C2525.96 418.17 2525.36 418.2 2524.73 418.17L2529.29 425.61C2528.78 425.91 2528.06 426.24 2527.4 426.48ZM2543.64 426.3C2542.65 426.3 2541.15 426.06 2540.31 425.79L2540.76 423.96C2542.5 424.32 2543.85 424.53 2544.24 424.5C2544.3 424.29 2544.42 422.82 2544.48 420.87C2544.66 414.69 2544.72 412.77 2544.69 411.87H2540.79V410.13C2544.48 409.98 2547.27 409.89 2549.04 409.89H2552.19C2555.37 409.89 2557.11 411.69 2557.11 414.96V426H2554.95V415.38C2554.95 413.07 2553.78 411.87 2551.59 411.87H2546.85C2546.85 413.79 2546.85 414.36 2546.61 421.5C2546.55 422.79 2546.49 424.14 2546.25 425.55C2545.92 425.82 2545.38 426.09 2545.02 426.18C2544.78 426.27 2544.42 426.3 2543.64 426.3ZM2566.85 426H2564.69V411.87H2560.55V409.92H2566.85V426ZM2582.55 426H2580.39V411.87H2571.63V409.92H2585.55L2585.01 411.87H2582.55V426ZM2591.99 426H2589.83V410.13C2592.71 409.98 2594.75 409.89 2596.13 409.89H2598.53C2601.68 409.89 2603.42 411.66 2603.42 414.93V426H2601.26V415.35C2601.26 413.04 2600.09 411.87 2597.84 411.87H2591.99V426ZM2618.99 426.48L2613.44 417.54C2611.79 418.14 2610.92 419.07 2610.68 420.54C2610.47 421.74 2610.35 424.29 2610.29 426.15H2608.07C2608.1 424.62 2608.22 422.85 2608.37 421.5C2608.7 418.95 2609.72 417.42 2611.82 416.43C2610.2 414.03 2609.03 412.14 2608.22 410.61C2608.64 410.37 2609.21 410.04 2610.02 409.62C2611.43 411.96 2612.87 414.21 2614.4 416.43C2615.06 416.55 2616.98 416.64 2618.24 416.61C2618.51 415.29 2618.84 412.53 2619.05 409.89H2621.24C2621.15 411.87 2620.67 415.5 2620.37 416.58C2620.04 417.18 2618.81 418.02 2618.12 418.11C2617.55 418.17 2616.95 418.2 2616.32 418.17L2620.88 425.61C2620.37 425.91 2619.65 426.24 2618.99 426.48ZM2643.29 429.9H2641.13V415.35C2641.13 413.04 2639.99 411.87 2637.74 411.87H2631.71V410.13C2633.51 409.98 2635.46 409.89 2636.63 409.89H2638.4C2641.55 409.89 2643.29 411.69 2643.29 414.96V429.9ZM2653.04 426H2650.88V411.87H2646.74V409.92H2653.04V426ZM2660.59 426.3C2659.6 426.3 2658.1 426.06 2657.26 425.79L2657.71 423.96C2659.45 424.32 2660.8 424.53 2661.19 424.5C2661.25 424.29 2661.37 422.82 2661.43 420.87C2661.61 414.69 2661.67 412.77 2661.64 411.87H2657.74V410.13C2661.43 409.98 2664.22 409.89 2665.99 409.89H2669.14C2672.32 409.89 2674.06 411.69 2674.06 414.96V426H2671.9V415.38C2671.9 413.07 2670.73 411.87 2668.54 411.87H2663.8C2663.8 413.79 2663.8 414.36 2663.56 421.5C2663.5 422.79 2663.44 424.14 2663.2 425.55C2662.87 425.82 2662.33 426.09 2661.97 426.18C2661.73 426.27 2661.37 426.3 2660.59 426.3ZM2680.47 426.3H2678.31L2682.09 411.84H2677.95V410.1C2681.25 409.95 2683.05 409.89 2684.22 409.89H2686.8C2690.88 409.89 2692.53 411.72 2692.59 416.31C2692.62 419.07 2692.5 424.23 2692.38 425.31C2691.99 425.64 2691.21 426.06 2690.67 426.18C2690.4 426.27 2689.95 426.3 2689.2 426.3C2687.91 426.3 2685.96 426.06 2684.94 425.76L2685.39 423.87C2687.1 424.14 2689.59 424.47 2690.43 424.47C2690.52 423.48 2690.55 421.35 2690.52 417.3C2690.49 413.07 2689.5 411.84 2686.14 411.84H2684.25L2680.47 426.3ZM2343.38 454H2341.22V438.13C2344.1 437.98 2346.14 437.89 2347.52 437.89H2349.92C2353.07 437.89 2354.81 439.66 2354.81 442.93V454H2352.65V443.35C2352.65 441.04 2351.48 439.87 2349.23 439.87H2343.38V454ZM2364.55 454H2362.39V439.87H2358.25V437.92H2364.55V454ZM2375.74 454.42C2373.1 454.42 2369.38 454.03 2368.18 453.7L2368.6 451.75C2369.89 451.99 2374.72 452.56 2377.18 452.56C2377.75 452.56 2377.93 452.56 2378.14 452.53C2378.26 451.6 2378.29 449.5 2378.29 447.13V446.05C2378.29 441.19 2377.15 439.84 2373.04 439.84H2369.23V438.1C2370.1 437.98 2372.2 437.89 2373.97 437.89C2378.56 437.89 2380.45 440.02 2380.45 445.18C2380.45 448.27 2380.36 451.27 2380.21 453.19C2379.82 453.58 2378.8 454.09 2378.17 454.21C2377.69 454.36 2376.79 454.42 2375.74 454.42ZM2407.05 454H2393.19V438.13C2396.07 437.98 2398.32 437.89 2399.76 437.89H2402.16C2405.31 437.89 2407.05 439.66 2407.05 442.93V454ZM2395.35 439.87V452.05H2404.89V443.35C2404.89 441.04 2403.72 439.87 2401.47 439.87H2395.35ZM2417.87 437.92L2418.83 454H2416.88L2416.7 451.87C2414.12 453.16 2412.14 454.12 2410.85 454.12C2410.55 454.12 2410.28 454.09 2410.07 453.97L2410.13 452.11C2411.57 451.87 2413.7 451.36 2416.61 450.64L2415.95 439.87H2411.48V437.92H2417.87ZM2444.68 454H2442.52V443.38C2442.52 441.07 2441.35 439.87 2439.07 439.87H2430.91V438.13C2433.49 437.98 2435.77 437.89 2437.33 437.89H2439.76C2442.94 437.89 2444.68 439.69 2444.68 442.96V454ZM2433.31 454H2431.15V445.42C2431.99 445.36 2432.47 445.3 2433.31 445.27V454ZM2462.48 454H2448.05L2448.59 452.05H2457.89V443.38C2457.89 441.1 2456.72 439.87 2454.5 439.87H2448.8V438.13C2450.69 437.98 2452.25 437.89 2453.75 437.89H2455.19C2458.34 437.89 2460.05 439.69 2460.05 442.96V452.05H2462.48V454ZM2487.92 437.98L2489.9 437.8C2489.99 438.37 2490.02 439 2490.02 440.2C2490.02 448.87 2484.95 454.06 2476.13 454.39C2475.56 454.39 2474.12 453.97 2473.97 453.76L2473.43 437.98L2475.44 437.8L2475.68 444.52C2477.27 444.7 2479.58 444.91 2480.3 444.88C2480.42 444.16 2480.51 443.11 2480.54 442.09C2480.6 440.8 2480.63 439.3 2480.63 437.98L2482.67 437.83C2482.7 438.07 2482.7 438.28 2482.7 439.03C2482.7 441.22 2482.49 443.8 2482.19 445.06C2481.62 445.69 2480.63 446.26 2479.97 446.35C2479.61 446.41 2479.04 446.44 2478.26 446.44C2477.54 446.44 2476.73 446.38 2475.74 446.32L2475.95 452.5L2476.22 452.59C2484.14 451.99 2487.98 447.82 2487.98 439.78C2487.98 438.58 2487.98 438.46 2487.92 437.98ZM2500.24 447.28H2498.08V439.87H2493.61V437.92H2500.24V447.28ZM2516.31 442.87H2513.28V440.47H2516.31V442.87ZM2516.31 454H2513.28V451.6H2516.31V454ZM2535.72 454H2521.86V438.13C2524.74 437.98 2526.99 437.89 2528.43 437.89H2530.83C2533.98 437.89 2535.72 439.66 2535.72 442.93V454ZM2524.02 439.87V452.05H2533.56V443.35C2533.56 441.04 2532.39 439.87 2530.14 439.87H2524.02ZM2545.79 447.28H2543.63V439.87H2539.16V437.92H2545.79V447.28ZM2553.23 454.3C2551.76 454.3 2549.72 454.06 2548.67 453.76L2549.12 451.87C2551.25 452.2 2553.74 452.47 2554.52 452.44C2554.61 451.18 2554.64 449.41 2554.64 445.48C2554.64 442.78 2554.58 440.53 2554.49 439.87H2550.17V437.92H2556.65C2556.74 438.43 2556.8 440.89 2556.8 444.04C2556.8 449.98 2556.77 451.84 2556.65 453.31C2556.23 453.64 2555.36 454.06 2554.79 454.18C2554.52 454.27 2554.13 454.3 2553.23 454.3ZM2568.72 454.42C2565.84 454.42 2561.82 454.03 2560.5 453.7L2560.95 451.75C2562.39 451.99 2567.49 452.56 2570.22 452.56C2570.85 452.56 2571.54 452.56 2571.6 452.53C2571.72 452.05 2571.75 451.42 2571.78 448.75V445.39C2571.78 441.07 2570.82 439.87 2567.4 439.87H2565.39L2563.47 444.28C2563.62 444.82 2566.38 446.23 2566.83 446.47L2566.05 447.97C2564.37 447.34 2562.72 446.47 2562.09 445.87C2561.79 445.54 2561.37 444.31 2561.43 443.89L2563.98 438.1C2564.94 437.95 2566.17 437.89 2567.94 437.89C2572.08 437.89 2573.79 439.75 2573.88 444.4C2573.91 445.18 2573.88 446.65 2573.85 448.48C2573.76 451.09 2573.67 452.65 2573.58 453.19C2573.16 453.58 2572.05 454.09 2571.36 454.21C2570.82 454.36 2569.86 454.42 2568.72 454.42ZM2584.97 439.87H2576.57V437.92H2585.42L2584.97 439.87ZM2592.07 454.3C2591.08 454.3 2589.58 454.06 2588.74 453.79L2589.19 451.96C2590.93 452.32 2592.28 452.53 2592.67 452.5C2592.73 452.29 2592.85 450.82 2592.91 448.87C2593.09 442.69 2593.15 440.77 2593.12 439.87H2589.22V438.13C2592.91 437.98 2595.7 437.89 2597.47 437.89H2600.62C2603.8 437.89 2605.54 439.69 2605.54 442.96V454H2603.38V443.38C2603.38 441.07 2602.21 439.87 2600.02 439.87H2595.28C2595.28 441.79 2595.28 442.36 2595.04 449.5C2594.98 450.79 2594.92 452.14 2594.68 453.55C2594.35 453.82 2593.81 454.09 2593.45 454.18C2593.21 454.27 2592.85 454.3 2592.07 454.3ZM2623.32 454H2608.89L2609.43 452.05H2618.73V443.38C2618.73 441.1 2617.56 439.87 2615.34 439.87H2609.64V438.13C2611.53 437.98 2613.09 437.89 2614.59 437.89H2616.03C2619.18 437.89 2620.89 439.69 2620.89 442.96V452.05H2623.32V454ZM2636.67 454H2634.51V443.35C2634.51 441.1 2633.28 439.87 2631.06 439.87H2625.33V438.13C2627.01 437.95 2628.54 437.89 2630.28 437.89H2631.72C2634.93 437.89 2636.67 439.69 2636.67 442.96V454ZM2650.98 454.3C2649.99 454.3 2648.49 454.06 2647.65 453.79L2648.1 451.96C2649.84 452.32 2651.19 452.53 2651.58 452.5C2651.64 452.29 2651.76 450.82 2651.82 448.87C2652 442.69 2652.06 440.77 2652.03 439.87H2648.13V438.13C2651.82 437.98 2654.61 437.89 2656.38 437.89H2659.53C2662.71 437.89 2664.45 439.69 2664.45 442.96V454H2662.29V443.38C2662.29 441.07 2661.12 439.87 2658.93 439.87H2654.19C2654.19 441.79 2654.19 442.36 2653.95 449.5C2653.89 450.79 2653.83 452.14 2653.59 453.55C2653.26 453.82 2652.72 454.09 2652.36 454.18C2652.12 454.27 2651.76 454.3 2650.98 454.3ZM2674.19 454H2672.03V439.87H2667.89V437.92H2674.19V454ZM2690.53 454.48L2684.98 445.54C2683.33 446.14 2682.46 447.07 2682.22 448.54C2682.01 449.74 2681.89 452.29 2681.83 454.15H2679.61C2679.64 452.62 2679.76 450.85 2679.91 449.5C2680.24 446.95 2681.26 445.42 2683.36 444.43C2681.74 442.03 2680.57 440.14 2679.76 438.61C2680.18 438.37 2680.75 438.04 2681.56 437.62C2682.97 439.96 2684.41 442.21 2685.94 444.43C2686.6 444.55 2688.52 444.64 2689.78 444.61C2690.05 443.29 2690.38 440.53 2690.59 437.89H2692.78C2692.69 439.87 2692.21 443.5 2691.91 444.58C2691.58 445.18 2690.35 446.02 2689.66 446.11C2689.09 446.17 2688.49 446.2 2687.86 446.17L2692.42 453.61C2691.91 453.91 2691.19 454.24 2690.53 454.48ZM2358.1 482H2344.24V466.13C2347.12 465.98 2349.37 465.89 2350.81 465.89H2353.21C2356.36 465.89 2358.1 467.66 2358.1 470.93V482ZM2346.4 467.87V480.05H2355.94V471.35C2355.94 469.04 2354.77 467.87 2352.52 467.87H2346.4ZM2368.91 465.92L2369.87 482H2367.92L2367.74 479.87C2365.16 481.16 2363.18 482.12 2361.89 482.12C2361.59 482.12 2361.32 482.09 2361.11 481.97L2361.17 480.11C2362.61 479.87 2364.74 479.36 2367.65 478.64L2366.99 467.87H2362.52V465.92H2368.91ZM2379.61 482H2377.45V467.87H2373.31V465.92H2379.61V482ZM2402.65 482H2400.49V471.35C2400.49 469.1 2399.26 467.87 2397.04 467.87H2391.31V466.13C2392.99 465.95 2394.52 465.89 2396.26 465.89H2397.7C2400.91 465.89 2402.65 467.69 2402.65 470.96V482ZM2417.74 482H2415.58V471.35C2415.58 469.1 2414.35 467.87 2412.13 467.87H2406.4V466.13C2408.08 465.95 2409.61 465.89 2411.35 465.89H2412.79C2416 465.89 2417.74 467.69 2417.74 470.96V482ZM2435.52 482H2421.09L2421.63 480.05H2430.93V471.38C2430.93 469.1 2429.76 467.87 2427.54 467.87H2421.84V466.13C2423.73 465.98 2425.29 465.89 2426.79 465.89H2428.23C2431.38 465.89 2433.09 467.69 2433.09 470.96V480.05H2435.52V482ZM2440.59 482.3H2438.43L2442.21 467.84H2438.07V466.1C2441.37 465.95 2443.17 465.89 2444.34 465.89H2446.92C2451 465.89 2452.65 467.72 2452.71 472.31C2452.74 475.07 2452.62 480.23 2452.5 481.31C2452.11 481.64 2451.33 482.06 2450.79 482.18C2450.52 482.27 2450.07 482.3 2449.32 482.3C2448.03 482.3 2446.08 482.06 2445.06 481.76L2445.51 479.87C2447.22 480.14 2449.71 480.47 2450.55 480.47C2450.64 479.48 2450.67 477.35 2450.64 473.3C2450.61 469.07 2449.62 467.84 2446.26 467.84H2444.37L2440.59 482.3ZM2462.32 482H2460.16V467.87H2456.02V465.92H2462.32V482ZM2485.35 482H2483.19V471.35C2483.19 469.1 2481.96 467.87 2479.74 467.87H2474.01V466.13C2475.69 465.95 2477.22 465.89 2478.96 465.89H2480.4C2483.61 465.89 2485.35 467.69 2485.35 470.96V482ZM2499.87 482H2497.71V467.87H2488.95V465.92H2502.87L2502.33 467.87H2499.87V482ZM2512.09 482H2509.93V467.87H2505.79V465.92H2512.09V482ZM2520.24 482H2518.08V466.13C2520.96 465.98 2523 465.89 2524.38 465.89H2526.78C2529.93 465.89 2531.67 467.66 2531.67 470.93V482H2529.51V471.35C2529.51 469.04 2528.34 467.87 2526.09 467.87H2520.24V482ZM2546.58 482H2544.42V466.13C2547.3 465.98 2549.34 465.89 2550.72 465.89H2553.12C2556.27 465.89 2558.01 467.66 2558.01 470.93V482H2555.85V471.35C2555.85 469.04 2554.68 467.87 2552.43 467.87H2546.58V482ZM2567.76 482H2565.6V467.87H2561.46V465.92H2567.76V482ZM2578.94 482.42C2576.3 482.42 2572.58 482.03 2571.38 481.7L2571.8 479.75C2573.09 479.99 2577.92 480.56 2580.38 480.56C2580.95 480.56 2581.13 480.56 2581.34 480.53C2581.46 479.6 2581.49 477.5 2581.49 475.13V474.05C2581.49 469.19 2580.35 467.84 2576.24 467.84H2572.43V466.1C2573.3 465.98 2575.4 465.89 2577.17 465.89C2581.76 465.89 2583.65 468.02 2583.65 473.18C2583.65 476.27 2583.56 479.27 2583.41 481.19C2583.02 481.58 2582 482.09 2581.37 482.21C2580.89 482.36 2579.99 482.42 2578.94 482.42ZM2610.25 482H2596.39V466.13C2599.27 465.98 2601.52 465.89 2602.96 465.89H2605.36C2608.51 465.89 2610.25 467.66 2610.25 470.93V482ZM2598.55 467.87V480.05H2608.09V471.35C2608.09 469.04 2606.92 467.87 2604.67 467.87H2598.55ZM2621.07 465.92L2622.03 482H2620.08L2619.9 479.87C2617.32 481.16 2615.34 482.12 2614.05 482.12C2613.75 482.12 2613.48 482.09 2613.27 481.97L2613.33 480.11C2614.77 479.87 2616.9 479.36 2619.81 478.64L2619.15 467.87H2614.68V465.92H2621.07ZM2633.81 486.14H2632.73L2633.42 482.75V478.97H2636.03V480.32C2636.03 482.63 2635.25 484.1 2633.81 486.14ZM2653.86 482H2651.7V471.38C2651.7 469.07 2650.53 467.87 2648.25 467.87H2640.09V466.13C2642.67 465.98 2644.95 465.89 2646.51 465.89H2648.94C2652.12 465.89 2653.86 467.69 2653.86 470.96V482ZM2642.49 482H2640.33V473.42C2641.17 473.36 2641.65 473.3 2642.49 473.27V482ZM2661.52 482.3C2660.05 482.3 2658.01 482.06 2656.96 481.76L2657.41 479.87C2659.54 480.2 2662.03 480.47 2662.81 480.44C2662.9 479.18 2662.93 477.41 2662.93 473.48C2662.93 470.78 2662.87 468.53 2662.78 467.87H2658.46V465.92H2664.94C2665.03 466.43 2665.09 468.89 2665.09 472.04C2665.09 477.98 2665.06 479.84 2664.94 481.31C2664.52 481.64 2663.65 482.06 2663.08 482.18C2662.81 482.27 2662.42 482.3 2661.52 482.3ZM2675.13 482H2672.97V467.87H2668.83V465.92H2675.13V482ZM2693.8 482H2679.37L2679.91 480.05H2689.21V471.38C2689.21 469.1 2688.04 467.87 2685.82 467.87H2680.12V466.13C2682.01 465.98 2683.57 465.89 2685.07 465.89H2686.51C2689.66 465.89 2691.37 467.69 2691.37 470.96V480.05H2693.8V482ZM2541.26 510H2537.93V507.27H2541.26V510ZM2548.74 513.9H2546.58V495.87H2542.56V493.92H2548.74V513.9ZM2559.73 493.92L2560.69 510H2558.74L2558.56 507.87C2555.98 509.16 2554 510.12 2552.71 510.12C2552.41 510.12 2552.14 510.09 2551.93 509.97L2551.99 508.11C2553.43 507.87 2555.56 507.36 2558.47 506.64L2557.81 495.87H2553.34V493.92H2559.73ZM2575.62 510H2573.46V499.35C2573.46 497.1 2572.23 495.87 2570.01 495.87H2564.28V494.13C2565.96 493.95 2567.49 493.89 2569.23 493.89H2570.67C2573.88 493.89 2575.62 495.69 2575.62 498.96V510ZM2585.36 510H2583.2V495.87H2579.06V493.92H2585.36V510ZM2601.7 510.48L2596.15 501.54C2594.5 502.14 2593.63 503.07 2593.39 504.54C2593.18 505.74 2593.06 508.29 2593 510.15H2590.78C2590.81 508.62 2590.93 506.85 2591.08 505.5C2591.41 502.95 2592.43 501.42 2594.53 500.43C2592.91 498.03 2591.74 496.14 2590.93 494.61C2591.35 494.37 2591.92 494.04 2592.73 493.62C2594.14 495.96 2595.58 498.21 2597.11 500.43C2597.77 500.55 2599.69 500.64 2600.95 500.61C2601.22 499.29 2601.55 496.53 2601.76 493.89H2603.95C2603.86 495.87 2603.38 499.5 2603.08 500.58C2602.75 501.18 2601.52 502.02 2600.83 502.11C2600.26 502.17 2599.66 502.2 2599.03 502.17L2603.59 509.61C2603.08 509.91 2602.36 510.24 2601.7 510.48ZM2610.28 510.3H2608.12L2611.9 495.84H2607.76V494.1C2611.06 493.95 2612.86 493.89 2614.03 493.89H2616.61C2620.69 493.89 2622.34 495.72 2622.4 500.31C2622.43 503.07 2622.31 508.23 2622.19 509.31C2621.8 509.64 2621.02 510.06 2620.48 510.18C2620.21 510.27 2619.76 510.3 2619.01 510.3C2617.72 510.3 2615.77 510.06 2614.75 509.76L2615.2 507.87C2616.91 508.14 2619.4 508.47 2620.24 508.47C2620.33 507.48 2620.36 505.35 2620.33 501.3C2620.3 497.07 2619.31 495.84 2615.95 495.84H2614.06L2610.28 510.3ZM2639.69 503.28H2637.53V495.87H2633.06V493.92H2639.69V503.28ZM2649.93 510H2647.77V495.87H2643.63V493.92H2649.93V510ZM2668.61 510H2654.18L2654.72 508.05H2664.02V499.38C2664.02 497.1 2662.85 495.87 2660.63 495.87H2654.93V494.13C2656.82 493.98 2658.38 493.89 2659.88 493.89H2661.32C2664.47 493.89 2666.18 495.69 2666.18 498.96V508.05H2668.61V510ZM2676.78 503.28H2674.62V495.87H2670.15V493.92H2676.78V503.28ZM2692.45 510H2690.29V499.35C2690.29 497.1 2689.06 495.87 2686.84 495.87H2681.11V494.13C2682.79 493.95 2684.32 493.89 2686.06 493.89H2687.5C2690.71 493.89 2692.45 495.69 2692.45 498.96V510Z" fill="#FDFCF8"/>
<g clip-path="url(#clip0_333_4866)">
<path d="M1229.99 656.364V686" stroke="#FDFCF8" stroke-miterlimit="10"/>
<path d="M1229.99 656.336C1239.99 656.336 1248.11 648.288 1248.11 638.36C1248.11 628.433 1239.99 620.385 1229.99 620.385C1219.98 620.385 1211.87 628.433 1211.87 638.36C1211.87 648.288 1219.98 656.336 1229.99 656.336Z" stroke="#FDFCF8" stroke-miterlimit="10"/>
<path d="M1180.51 656.364V686" stroke="#FDFCF8" stroke-miterlimit="10"/>
<path d="M1180.51 656.336C1190.52 656.336 1198.63 648.288 1198.63 638.36C1198.63 628.433 1190.52 620.385 1180.51 620.385C1170.51 620.385 1162.4 628.433 1162.4 638.36C1162.4 648.288 1170.51 656.336 1180.51 656.336Z" stroke="#FDFCF8" stroke-miterlimit="10"/>
<path d="M1279.46 656.28V686" stroke="#FDFCF8" stroke-miterlimit="10"/>
<path d="M1279.46 656.336C1289.46 656.336 1297.58 648.288 1297.58 638.36C1297.58 628.433 1289.46 620.385 1279.46 620.385C1269.45 620.385 1261.34 628.433 1261.34 638.36C1261.34 648.288 1269.45 656.336 1279.46 656.336Z" stroke="#FDFCF8" stroke-miterlimit="10"/>
</g>
<path d="M1661.82 681.337L1751.04 720.767L1767.26 785.663L1721.63 889.199L1647.44 938.24L1573.25 987.281L1678.49 880.722L1672.26 869.024L1576.37 826.736L1654.6 649.268L1665.89 654.229L1661.82 681.337Z" stroke="#FDFCF8" stroke-miterlimit="10"/>
<path d="M1476.24 681.994L1559.82 732.366L1567.7 798.806L1509.36 895.738L1355.17 1081.52L1467.67 881.905L1462.98 869.517L1373.16 815.432L1473.16 649.268L1483.69 655.609L1476.24 681.994Z" stroke="#FDFCF8" stroke-miterlimit="10"/>
<path d="M1132.17 683.9H1232.1L1270.74 736.736V849.9L1402.51 1150.03L1227.87 859.593L1217.46 851.379L1112.64 851.477V657.481H1124.95L1132.17 683.9Z" stroke="#FDFCF8" stroke-miterlimit="10"/>
<path d="M1333.51 683.9H1233.48L1194.97 736.736V849.9L1402.51 1150.03L1237.81 859.593L1248.25 851.379L1353.04 851.477V657.481H1340.73L1333.51 683.9Z" stroke="#FDFCF8" stroke-miterlimit="10"/>
<path d="M1293.39 992.21L1402.51 1150.03L1522.46 1104.29L1716.38 892.978L1489.8 1042.22L1366.5 1065.75" stroke="#FDFCF8" stroke-miterlimit="10"/>
<path d="M1998.16 859H1995.13V845.62H1986.82V842.92H2001.31L2000.71 845.62H1998.16V859ZM2010.9 859H2007.87V845.62H2003.88V842.92H2010.9V859ZM2018.71 859.36C2018.35 859.36 2017.12 859.06 2016.52 858.79L2015.68 844.63C2015.68 844.06 2015.68 843.49 2015.71 842.92H2024.92C2028.1 842.92 2029.81 844.69 2029.81 847.9C2029.81 854.05 2025.67 858.31 2018.71 859.36ZM2019.31 856.36L2019.64 856.45C2024.08 855.67 2026.72 852.67 2026.72 848.47C2026.72 846.52 2025.79 845.59 2023.9 845.59H2018.68L2019.31 856.36ZM2039.88 852.67H2036.82V845.62H2032.26V842.92H2039.88V852.67ZM2054.04 859.33C2052.69 859.33 2050.86 859.06 2049.99 858.73L2050.59 856.21C2052.39 856.51 2053.5 856.66 2054.04 856.72C2054.13 856.27 2054.19 855.43 2054.28 853.39C2054.4 851.11 2054.46 847.99 2054.43 845.62H2050.89V843.19C2053.62 843.01 2057.04 842.89 2059.35 842.89H2062.83C2065.92 842.89 2067.78 844.69 2067.78 847.72V859H2064.75V848.47C2064.75 846.67 2063.73 845.62 2061.99 845.62H2057.46C2057.46 849.61 2057.43 851.17 2057.22 854.41C2057.16 856.15 2056.98 858.01 2056.83 858.49C2056.41 858.79 2055.75 859.12 2055.33 859.21C2055.06 859.3 2054.67 859.33 2054.04 859.33ZM2078.11 859H2075.08V845.62H2071.09V842.92H2078.11V859ZM2089.16 852.67H2086.1V845.62H2081.54V842.92H2089.16V852.67ZM2096.11 859.33C2094.76 859.33 2092.93 859.06 2092.06 858.73L2092.66 856.21C2094.46 856.51 2095.57 856.66 2096.11 856.72C2096.2 856.27 2096.26 855.43 2096.35 853.39C2096.47 851.11 2096.53 847.99 2096.5 845.62H2092.96V843.19C2095.69 843.01 2099.11 842.89 2101.42 842.89H2104.9C2107.99 842.89 2109.85 844.69 2109.85 847.72V859H2106.82V848.47C2106.82 846.67 2105.8 845.62 2104.06 845.62H2099.53C2099.53 849.61 2099.5 851.17 2099.29 854.41C2099.23 856.15 2099.05 858.01 2098.9 858.49C2098.48 858.79 2097.82 859.12 2097.4 859.21C2097.13 859.3 2096.74 859.33 2096.11 859.33ZM2120.18 859H2117.15V845.62H2113.16V842.92H2120.18V859ZM2135.23 859.54L2130.04 850.99C2128.6 851.56 2127.91 852.4 2127.7 853.84C2127.58 854.65 2127.43 856.66 2127.31 859.06H2124.22C2124.31 856.57 2124.4 855.34 2124.55 854.53C2124.97 851.95 2125.93 850.51 2127.85 849.52C2126.56 847.69 2125.45 845.83 2124.37 843.82C2125.06 843.4 2125.81 843.01 2127.07 842.44C2129.11 845.77 2130.19 847.51 2131.3 849.13C2131.84 849.25 2133.73 849.37 2134.33 849.31C2134.48 849.07 2134.93 845.14 2135.08 842.92H2138.14C2138.14 844.72 2137.6 848.71 2137.21 849.58C2137 850.09 2135.83 850.93 2135.2 851.08C2134.6 851.14 2134.12 851.14 2133.58 851.14L2137.93 858.25C2136.46 859.03 2135.83 859.3 2135.23 859.54Z" fill="#FDFCF8"/>
<path d="M2113.71 897.631H2132.22L2140 906.882V926.696L2123.38 953L2131.86 928.394L2129.89 926.955L2110 926.967V893H2112.34L2113.71 897.631Z" stroke="#FDFCF8" stroke-miterlimit="10"/>
<path d="M2057.58 897.681H2075.48L2083 907.026V927.059L2075.87 983L2075.14 928.769L2073.22 927.321L2054 927.332V893H2056.26L2057.58 897.681Z" stroke="#FDFCF8" stroke-miterlimit="10"/>
<path d="M1988.49 897.724H2006.03L2013.23 907.16V927.369L2006.18 986.935L2005.58 929.1L2003.71 927.633L1985 927.645V893H1987.2L1988.49 897.724Z" stroke="#FDFCF8" stroke-miterlimit="10"/>
<path d="M2023.86 897.724H2006.3L1999.11 907.16V927.369L2006.18 986.935L2006.77 929.1L2008.63 927.633L2027.35 927.645V893H2025.15L2023.86 897.724Z" stroke="#FDFCF8" stroke-miterlimit="10"/>
<line x1="1746" y1="899.5" x2="1946" y2="899.5" stroke="white"/>
<defs>
<clipPath id="clip0_333_4866">
<rect width="138" height="67" fill="white" transform="translate(1161 619)"/>
</clipPath>
</defs>
</svg>
