<svg width="193" height="392" viewBox="0 0 193 392" fill="none" xmlns="http://www.w3.org/2000/svg">
<path d="M40 42C40 40.8954 40.8954 40 42 40H151C152.105 40 153 40.8954 153 42V350C153 351.105 152.105 352 151 352H42C40.8954 352 40 351.105 40 350V42Z" fill="black"/>
<path d="M42 40V41H151V40V39H42V40ZM153 42H152V350H153H154V42H153ZM151 352V351H42V352V353H151V352ZM40 350H41V42H40H39V350H40ZM42 352V351C41.4477 351 41 350.552 41 350H40H39C39 351.657 40.3431 353 42 353V352ZM153 350H152C152 350.552 151.552 351 151 351V352V353C152.657 353 154 351.657 154 350H153ZM151 40V41C151.552 41 152 41.4477 152 42H153H154C154 40.3431 152.657 39 151 39V40ZM42 40V39C40.3431 39 39 40.3431 39 42H40H41C41 41.4477 41.4477 41 42 41V40Z" fill="black" fill-opacity="0.1"/>
<path d="M90.2651 127.063L83.0453 125.388L80.918 120.775L82.8557 112.398L91.9111 102.783L86.1926 112.418L86.8235 113.204L94.5821 114.997L91.2577 129.355L90.3449 129.143L90.2651 127.063Z" stroke="#FDFCF8" stroke-miterlimit="10"/>
<path d="M109.414 85.4912L115 90.3638L114.716 95.4362L109.072 101.919L96.5654 106.15L106.135 100.334L105.948 99.3427L99.9397 94.1107L109.614 83L110.319 83.6166L109.414 85.4912Z" stroke="#FDFCF8" stroke-miterlimit="10"/>
<path d="M113.8 125.922L79.0948 97.5105L78 83.9086L113.618 113.234L113.8 125.922Z" stroke="#FDFCF8" stroke-miterlimit="10"/>
<rect x="40" y="4" width="28.3218" height="30" rx="3" fill="black"/>
<rect x="40.5" y="4.5" width="27.3218" height="29" rx="2.5" stroke="black" stroke-opacity="0.2"/>
<path d="M47.4375 24.25C47.2813 24.25 47.1419 24.237 47.0195 24.2109C46.8971 24.1875 46.8125 24.1641 46.7656 24.1406L47 23.3281C47.224 23.3854 47.4219 23.4063 47.5938 23.3906C47.7656 23.375 47.918 23.2982 48.0508 23.1602C48.1862 23.0247 48.3099 22.8047 48.4219 22.5L48.5938 22.0313L46.375 16H47.375L49.0313 20.7812H49.0938L50.75 16H51.75L49.2031 22.875C49.0885 23.1849 48.9466 23.4414 48.7773 23.6445C48.6081 23.8503 48.4115 24.0026 48.1875 24.1016C47.9661 24.2005 47.7161 24.25 47.4375 24.25Z" fill="white"/>
</svg>
