<svg width="193" height="392" viewBox="0 0 193 392" fill="none" xmlns="http://www.w3.org/2000/svg">
<path d="M40 58C40 56.8954 40.8954 56 42 56H151C152.105 56 153 56.8954 153 58V350C153 351.105 152.105 352 151 352H42C40.8954 352 40 351.105 40 350V58Z" fill="black"/>
<path d="M42 56V57H151V56V55H42V56ZM153 58H152V350H153H154V58H153ZM151 352V351H42V352V353H151V352ZM40 350H41V58H40H39V350H40ZM42 352V351C41.4477 351 41 350.552 41 350H40H39C39 351.657 40.3431 353 42 353V352ZM153 350H152C152 350.552 151.552 351 151 351V352V353C152.657 353 154 351.657 154 350H153ZM151 56V57C151.552 57 152 57.4477 152 58H153H154C154 56.3431 152.657 55 151 55V56ZM42 56V55C40.3431 55 39 56.3432 39 58H40H41C41 57.4477 41.4477 57 42 57V56Z" fill="black" fill-opacity="0.1"/>
<path d="M77.8506 89.1279H112.684L115.992 93.3837L110.487 103.057L109.632 130.971L105.655 102.472L84.7303 102.62L76.2744 102.626V87H77.2678L77.8506 89.1279Z" stroke="#FDFCF8" stroke-miterlimit="10"/>
<path d="M114.87 129.688V121.822L110.61 118.516H101.487L76 121.647L100.705 121.973L101.365 122.812L101.36 131.262H117V130.267L114.87 129.688Z" stroke="#FDFCF8" stroke-miterlimit="10"/>
<path d="M76 121.647V131.262H101.36L101.365 122.812L100.705 121.973L76 121.647Z" stroke="#FDFCF8" stroke-miterlimit="10"/>
<path d="M40 42C40 40.8954 40.8954 40 42 40H151C152.105 40 153 40.8954 153 42V350C153 351.105 152.105 352 151 352H42C40.8954 352 40 351.105 40 350V42Z" fill="black"/>
<path d="M42 40V41H151V40V39H42V40ZM153 42H152V350H153H154V42H153ZM151 352V351H42V352V353H151V352ZM40 350H41V42H40H39V350H40ZM42 352V351C41.4477 351 41 350.552 41 350H40H39C39 351.657 40.3431 353 42 353V352ZM153 350H152C152 350.552 151.552 351 151 351V352V353C152.657 353 154 351.657 154 350H153ZM151 40V41C151.552 41 152 41.4477 152 42H153H154C154 40.3431 152.657 39 151 39V40ZM42 40V39C40.3431 39 39 40.3431 39 42H40H41C41 41.4477 41.4477 41 42 41V40Z" fill="black" fill-opacity="0.1"/>
<path d="M77.8506 89.1279H112.684L115.992 93.3837L110.487 103.057L109.632 130.971L105.655 102.472L84.7303 102.62L76.2744 102.626V87H77.2678L77.8506 89.1279Z" stroke="#FDFCF8" stroke-miterlimit="10"/>
<path d="M114.87 129.688V121.822L110.61 118.516H101.487L76 121.647L100.705 121.973L101.365 122.812L101.36 131.262H117V130.267L114.87 129.688Z" stroke="#FDFCF8" stroke-miterlimit="10"/>
<path d="M76 121.647V131.262H101.36L101.365 122.812L100.705 121.973L76 121.647Z" stroke="#FDFCF8" stroke-miterlimit="10"/>
<rect x="43" y="43" width="27.4194" height="30" rx="3" fill="black"/>
<rect x="43.5" y="43.5" width="26.4194" height="29" rx="2.5" stroke="black" stroke-opacity="0.2"/>
<path d="M50.4375 63.25C50.2813 63.25 50.1419 63.237 50.0195 63.2109C49.8971 63.1875 49.8125 63.1641 49.7656 63.1406L50 62.3281C50.224 62.3854 50.4219 62.4063 50.5938 62.3906C50.7656 62.375 50.918 62.2982 51.0508 62.1602C51.1862 62.0247 51.3099 61.8047 51.4219 61.5L51.5938 61.0313L49.375 55H50.375L52.0313 59.7812H52.0938L53.75 55H54.75L52.2031 61.875C52.0885 62.1849 51.9466 62.4414 51.7773 62.6445C51.6081 62.8503 51.4115 63.0026 51.1875 63.1016C50.9661 63.2005 50.7161 63.25 50.4375 63.25Z" fill="white"/>
<rect x="40" y="20" width="27.4194" height="30" rx="3" fill="black"/>
<rect x="40.5" y="20.5" width="26.4194" height="29" rx="2.5" stroke="black" stroke-opacity="0.2"/>
<path d="M47.4375 40.25C47.2813 40.25 47.1419 40.237 47.0195 40.2109C46.8971 40.1875 46.8125 40.1641 46.7656 40.1406L47 39.3281C47.224 39.3854 47.4219 39.4063 47.5938 39.3906C47.7656 39.375 47.918 39.2982 48.0508 39.1602C48.1862 39.0247 48.3099 38.8047 48.4219 38.5L48.5938 38.0313L46.375 32H47.375L49.0313 36.7812H49.0938L50.75 32H51.75L49.2031 38.875C49.0885 39.1849 48.9466 39.4414 48.7773 39.6445C48.6081 39.8503 48.4115 40.0026 48.1875 40.1016C47.9661 40.2005 47.7161 40.25 47.4375 40.25Z" fill="white"/>
</svg>
