<svg width="329" height="877" viewBox="0 0 329 877" fill="none" xmlns="http://www.w3.org/2000/svg">
<path d="M40 42C40 40.8954 40.8954 40 42 40H287C288.105 40 289 40.8954 289 42V835C289 836.105 288.105 837 287 837H42C40.8954 837 40 836.105 40 835V42Z" fill="black"/>
<path d="M42 40V41H287V40V39H42V40ZM289 42H288V835H289H290V42H289ZM287 837V836H42V837V838H287V837ZM40 835H41V42H40H39V835H40ZM42 837V836C41.4477 836 41 835.552 41 835H40H39C39 836.657 40.3432 838 42 838V837ZM289 835H288C288 835.552 287.552 836 287 836V837V838C288.657 838 290 836.657 290 835H289ZM287 40V41C287.552 41 288 41.4477 288 42H289H290C290 40.3431 288.657 39 287 39V40ZM42 40V39C40.3431 39 39 40.3432 39 42H40H41C41 41.4477 41.4477 41 42 41V40Z" fill="black" fill-opacity="0.1"/>
<path d="M137.749 641.58V631.425L143.237 628.263H155.002L170.615 636.272L156.006 631.616L155.155 632.703L155.162 643.614H135V642.332L137.749 641.58Z" stroke="#FDFCF8" stroke-miterlimit="10"/>
<path d="M144.685 592.752H155.152L159.097 598.248V610.02L174.157 643.614L154.64 611.029L153.554 610.174L142.653 610.181V590H143.934L144.685 592.752Z" stroke="#FDFCF8" stroke-miterlimit="10"/>
<path d="M165.629 592.752H155.261L151.218 598.248V610.02L174.156 643.614L155.674 611.029L156.76 610.174L167.661 610.181V590H166.38L165.629 592.752Z" stroke="#FDFCF8" stroke-miterlimit="10"/>
<g clip-path="url(#clip0_119_41)">
<path d="M115.55 551.77V522.06L131.62 512.81H166.07L211.79 536.24L169.01 522.62L166.52 525.8L166.54 557.72H107.5V553.97L115.55 551.77Z" stroke="#FDFCF8" stroke-miterlimit="10"/>
<path d="M135.86 408.92H166.51L178.06 425V459.44L222.16 557.72L165.01 462.39L161.83 459.89L129.91 459.91V400.87H133.66L135.86 408.92Z" stroke="#FDFCF8" stroke-miterlimit="10"/>
<path d="M197.19 408.92H166.83L154.99 425V459.44L222.16 557.72L168.04 462.39L171.21 459.89L203.14 459.91V400.87H199.39L197.19 408.92Z" stroke="#FDFCF8" stroke-miterlimit="10"/>
<path d="M166.83 398.49V409.19" stroke="#FDFCF8" stroke-miterlimit="10"/>
<path d="M166.83 398.48C170.414 398.48 173.32 395.574 173.32 391.99C173.32 388.406 170.414 385.5 166.83 385.5C163.246 385.5 160.34 388.406 160.34 391.99C160.34 395.574 163.246 398.48 166.83 398.48Z" stroke="#FDFCF8" stroke-miterlimit="10"/>
<path d="M149.11 398.49V409.19" stroke="#FDFCF8" stroke-miterlimit="10"/>
<path d="M149.11 398.48C152.694 398.48 155.6 395.574 155.6 391.99C155.6 388.406 152.694 385.5 149.11 385.5C145.526 385.5 142.62 388.406 142.62 391.99C142.62 395.574 145.526 398.48 149.11 398.48Z" stroke="#FDFCF8" stroke-miterlimit="10"/>
<path d="M184.55 398.46V409.19" stroke="#FDFCF8" stroke-miterlimit="10"/>
<path d="M184.55 398.48C188.134 398.48 191.04 395.574 191.04 391.99C191.04 388.406 188.134 385.5 184.55 385.5C180.965 385.5 178.06 388.406 178.06 391.99C178.06 395.574 180.965 398.48 184.55 398.48Z" stroke="#FDFCF8" stroke-miterlimit="10"/>
</g>
<g clip-path="url(#clip1_119_41)">
<path d="M120.05 314.27V284.56L136.12 275.31H170.57L216.29 298.74L173.51 285.12L171.02 288.3L171.04 320.22H112V316.47L120.05 314.27Z" fill="#FDFCF8"/>
<path d="M140.36 171.42H171.01L182.56 187.5V221.94L226.66 320.22L169.51 224.89L166.33 222.39L134.41 222.41V163.37H138.16L140.36 171.42Z" fill="#FDFCF8"/>
<path d="M201.69 171.42H171.33L159.49 187.5V221.94L226.66 320.22L172.54 224.89L175.71 222.39L207.64 222.41V163.37H203.89L201.69 171.42Z" fill="#FDFCF8"/>
<path d="M171.33 160.99V171.69" stroke="#FDFCF8" stroke-miterlimit="10"/>
<path d="M171.33 160.98C174.914 160.98 177.82 158.074 177.82 154.49C177.82 150.906 174.914 148 171.33 148C167.746 148 164.84 150.906 164.84 154.49C164.84 158.074 167.746 160.98 171.33 160.98Z" fill="#FDFCF8"/>
<path d="M153.61 160.99V171.69" stroke="#FDFCF8" stroke-miterlimit="10"/>
<path d="M153.61 160.98C157.194 160.98 160.1 158.074 160.1 154.49C160.1 150.906 157.194 148 153.61 148C150.026 148 147.12 150.906 147.12 154.49C147.12 158.074 150.026 160.98 153.61 160.98Z" fill="#FDFCF8"/>
<path d="M189.05 160.96V171.69" stroke="#FDFCF8" stroke-miterlimit="10"/>
<path d="M189.05 160.98C192.634 160.98 195.54 158.074 195.54 154.49C195.54 150.906 192.634 148 189.05 148C185.465 148 182.56 150.906 182.56 154.49C182.56 158.074 185.465 160.98 189.05 160.98Z" fill="#FDFCF8"/>
</g>
<rect x="40" y="4" width="25.9263" height="30" rx="3" fill="black"/>
<rect x="40.5" y="4.5" width="24.9263" height="29" rx="2.5" stroke="black" stroke-opacity="0.2"/>
<path d="M47.4375 24.25C47.2813 24.25 47.1419 24.237 47.0195 24.2109C46.8971 24.1875 46.8125 24.1641 46.7656 24.1406L47 23.3281C47.224 23.3854 47.4219 23.4063 47.5938 23.3906C47.7656 23.375 47.918 23.2982 48.0508 23.1602C48.1862 23.0247 48.3099 22.8047 48.4219 22.5L48.5938 22.0313L46.375 16H47.375L49.0313 20.7812H49.0938L50.75 16H51.75L49.2031 22.875C49.0885 23.1849 48.9466 23.4414 48.7773 23.6445C48.6081 23.8503 48.4115 24.0026 48.1875 24.1016C47.9661 24.2005 47.7161 24.25 47.4375 24.25Z" fill="white"/>
<defs>
<clipPath id="clip0_119_41">
<rect width="115.61" height="173.22" fill="white" transform="translate(107 385)"/>
</clipPath>
<clipPath id="clip1_119_41">
<rect width="114.66" height="172.22" fill="white" transform="translate(112 148)"/>
</clipPath>
</defs>
</svg>
