<svg width="355" height="961" viewBox="0 0 355 961" fill="none" xmlns="http://www.w3.org/2000/svg">
<path d="M40 42C40 40.8954 40.8954 40 42 40H313C314.105 40 315 40.8954 315 42V919C315 920.105 314.105 921 313 921H42C40.8954 921 40 920.105 40 919V42Z" fill="black"/>
<path d="M42 40V41H313V40V39H42V40ZM315 42H314V919H315H316V42H315ZM313 921V920H42V921V922H313V921ZM40 919H41V42H40H39V919H40ZM42 921V920C41.4477 920 41 919.552 41 919H40H39C39 920.657 40.3431 922 42 922V921ZM315 919H314C314 919.552 313.552 920 313 920V921V922C314.657 922 316 920.657 316 919H315ZM313 40V41C313.552 41 314 41.4477 314 42H315H316C316 40.3431 314.657 39 313 39V40ZM42 40V39C40.3431 39 39 40.3432 39 42H40H41C41 41.4477 41.4477 41 42 41V40Z" fill="black" fill-opacity="0.1"/>
<g clip-path="url(#clip0_119_41)">
<path d="M147.95 112.71H177.88L190.16 128.79V163.23L178.13 264.74L177.1 166.18L173.93 163.68L142 163.7V104.66H145.75L147.95 112.71Z" fill="#FDFCF8"/>
<path d="M208.28 112.71H178.34L166.08 128.79V163.23L178.13 264.74L179.13 166.18L182.31 163.68L214.23 163.7V104.66H210.48L208.28 112.71Z" fill="#FDFCF8"/>
<path d="M178.24 101.99V112.69" stroke="#FDFCF8" stroke-miterlimit="10"/>
<path d="M178.24 101.98C181.824 101.98 184.73 99.0743 184.73 95.49C184.73 91.9057 181.824 89 178.24 89C174.656 89 171.75 91.9057 171.75 95.49C171.75 99.0743 174.656 101.98 178.24 101.98Z" fill="#FDFCF8"/>
<path d="M160.52 101.99V112.69" stroke="#FDFCF8" stroke-miterlimit="10"/>
<path d="M160.52 101.98C164.105 101.98 167.01 99.0743 167.01 95.49C167.01 91.9057 164.105 89 160.52 89C156.936 89 154.03 91.9057 154.03 95.49C154.03 99.0743 156.936 101.98 160.52 101.98Z" fill="#FDFCF8"/>
<path d="M195.96 101.96V112.69" stroke="#FDFCF8" stroke-miterlimit="10"/>
<path d="M195.96 101.98C199.544 101.98 202.45 99.0743 202.45 95.49C202.45 91.9057 199.544 89 195.96 89C192.375 89 189.47 91.9057 189.47 95.49C189.47 99.0743 192.375 101.98 195.96 101.98Z" fill="#FDFCF8"/>
</g>
<g clip-path="url(#clip1_119_41)">
<path d="M148.45 332.21H178.38L190.66 348.29V382.73L178.63 484.24L177.6 385.68L174.43 383.18L142.5 383.2V324.16H146.25L148.45 332.21Z" stroke="#FDFCF8" stroke-miterlimit="10"/>
<path d="M208.78 332.21H178.84L166.58 348.29V382.73L178.63 484.24L179.63 385.68L182.81 383.18L214.73 383.2V324.16H210.98L208.78 332.21Z" stroke="#FDFCF8" stroke-miterlimit="10"/>
<path d="M178.74 321.49V332.19" stroke="#FDFCF8" stroke-miterlimit="10"/>
<path d="M178.74 321.48C182.324 321.48 185.23 318.574 185.23 314.99C185.23 311.406 182.324 308.5 178.74 308.5C175.156 308.5 172.25 311.406 172.25 314.99C172.25 318.574 175.156 321.48 178.74 321.48Z" stroke="#FDFCF8" stroke-miterlimit="10"/>
<path d="M161.02 321.49V332.19" stroke="#FDFCF8" stroke-miterlimit="10"/>
<path d="M161.02 321.48C164.605 321.48 167.51 318.574 167.51 314.99C167.51 311.406 164.605 308.5 161.02 308.5C157.436 308.5 154.53 311.406 154.53 314.99C154.53 318.574 157.436 321.48 161.02 321.48Z" stroke="#FDFCF8" stroke-miterlimit="10"/>
<path d="M196.46 321.46V332.19" stroke="#FDFCF8" stroke-miterlimit="10"/>
<path d="M196.46 321.48C200.044 321.48 202.95 318.574 202.95 314.99C202.95 311.406 200.044 308.5 196.46 308.5C192.875 308.5 189.97 311.406 189.97 314.99C189.97 318.574 192.875 321.48 196.46 321.48Z" stroke="#FDFCF8" stroke-miterlimit="10"/>
</g>
<path d="M154.387 515.296H181.488L192.598 529.869V561.082L181.714 653.08L180.782 563.755L177.902 561.489L149 561.508V508H152.395L154.387 515.296Z" stroke="#FDFCF8" stroke-miterlimit="10"/>
<path d="M209.013 515.296H181.904L170.794 529.869V561.082L181.714 653.08L182.619 563.755L185.489 561.49L214.401 561.508V508H211.005L209.013 515.296Z" stroke="#FDFCF8" stroke-miterlimit="10"/>
<rect x="40" y="4" width="24.9702" height="30" rx="3" fill="black"/>
<rect x="40.5" y="4.5" width="23.9702" height="29" rx="2.5" stroke="black" stroke-opacity="0.2"/>
<path d="M47.4375 24.25C47.2813 24.25 47.1419 24.237 47.0195 24.2109C46.8971 24.1875 46.8125 24.1641 46.7656 24.1406L47 23.3281C47.224 23.3854 47.4219 23.4063 47.5938 23.3906C47.7656 23.375 47.918 23.2982 48.0508 23.1602C48.1862 23.0247 48.3099 22.8047 48.4219 22.5L48.5938 22.0313L46.375 16H47.375L49.0313 20.7812H49.0938L50.75 16H51.75L49.2031 22.875C49.0885 23.1849 48.9466 23.4414 48.7773 23.6445C48.6081 23.8503 48.4115 24.0026 48.1875 24.1016C47.9661 24.2005 47.7161 24.25 47.4375 24.25Z" fill="white"/>
<defs>
<clipPath id="clip0_119_41">
<rect width="72.23" height="175.74" fill="white" transform="translate(142 89)"/>
</clipPath>
<clipPath id="clip1_119_41">
<rect width="73.23" height="176.3" fill="white" transform="translate(142 308)"/>
</clipPath>
</defs>
</svg>
