<svg width="212" height="562" viewBox="0 0 212 562" fill="none" xmlns="http://www.w3.org/2000/svg">
<path d="M40 42C40 40.8954 40.8954 40 42 40H170C171.105 40 172 40.8954 172 42V520C172 521.105 171.105 522 170 522H42C40.8954 522 40 521.105 40 520V42Z" fill="black"/>
<path d="M42 40V41H170V40V39H42V40ZM172 42H171V520H172H173V42H172ZM170 522V521H42V522V523H170V522ZM40 520H41V42H40H39V520H40ZM42 522V521C41.4477 521 41 520.552 41 520H40H39C39 521.657 40.3431 523 42 523V522ZM172 520H171C171 520.552 170.552 521 170 521V522V523C171.657 523 173 521.657 173 520H172ZM170 40V41C170.552 41 171 41.4477 171 42H172H173C173 40.3431 171.657 39 170 39V40ZM42 40V39C40.3431 39 39 40.3431 39 42H40H41C41 41.4477 41.4477 41 42 41V40Z" fill="black" fill-opacity="0.1"/>
<path d="M74.0321 82.0865H89.2586L95.5008 90.2594V107.764L89.3858 159.363L88.8567 109.263L87.244 107.993L71 108.008V78H72.9129L74.0321 82.0865Z" stroke="#FDFCF8" stroke-miterlimit="10"/>
<path d="M104.719 82.0865H89.4922L83.25 90.2594V107.764L89.3854 159.363L89.8941 109.263L91.5068 107.993L107.751 108.008V78H105.838L104.719 82.0865Z" stroke="#FDFCF8" stroke-miterlimit="10"/>
<path d="M110.778 82.0865H126.004L132.247 90.2594V107.764L126.132 159.363L125.608 109.263L123.99 107.993L107.751 108.008V78H109.659L110.778 82.0865Z" stroke="#FDFCF8" stroke-miterlimit="10"/>
<path d="M141.47 82.0865H126.238L120.001 90.2594V107.764L126.131 159.363L126.64 109.263L128.258 107.993L144.497 108.008V78H142.589L141.47 82.0865Z" stroke="#FDFCF8" stroke-miterlimit="10"/>
<rect x="40" y="4" width="29.0576" height="30" rx="3" fill="black"/>
<rect x="40.5" y="4.5" width="28.0576" height="29" rx="2.5" stroke="black" stroke-opacity="0.2"/>
<path d="M47.4375 24.25C47.2813 24.25 47.1419 24.237 47.0195 24.2109C46.8971 24.1875 46.8125 24.1641 46.7656 24.1406L47 23.3281C47.224 23.3854 47.4219 23.4063 47.5938 23.3906C47.7656 23.375 47.918 23.2982 48.0508 23.1602C48.1862 23.0247 48.3099 22.8047 48.4219 22.5L48.5938 22.0313L46.375 16H47.375L49.0313 20.7812H49.0938L50.75 16H51.75L49.2031 22.875C49.0885 23.1849 48.9466 23.4414 48.7773 23.6445C48.6081 23.8503 48.4115 24.0026 48.1875 24.1016C47.9661 24.2005 47.7161 24.25 47.4375 24.25Z" fill="white"/>
</svg>
