<svg width="355" height="1213" viewBox="0 0 355 1213" fill="none" xmlns="http://www.w3.org/2000/svg">
<path d="M40 42C40 40.8955 40.8954 40 42 40H313C314.105 40 315 40.8954 315 42V1171C315 1172.1 314.105 1173 313 1173H42C40.8954 1173 40 1172.1 40 1171V42Z" fill="black"/>
<path d="M42 40V41H313V40V39H42V40ZM315 42H314V1171H315H316V42H315ZM313 1173V1172H42V1173V1174H313V1173ZM40 1171H41V42H40H39V1171H40ZM42 1173V1172C41.4477 1172 41 1171.55 41 1171H40H39C39 1172.66 40.3431 1174 42 1174V1173ZM315 1171H314C314 1171.55 313.552 1172 313 1172V1173V1174C314.657 1174 316 1172.66 316 1171H315ZM313 40V41C313.552 41 314 41.4477 314 42H315H316C316 40.3431 314.657 39 313 39V40ZM42 40V39C40.3431 39 39 40.3432 39 42H40H41C41 41.4477 41.4477 41 42 41V40Z" fill="black" fill-opacity="0.1"/>
<path d="M195.508 596.014L224.183 583.48L246.186 590.15L256.843 619.478L225.922 723.892L240.246 629.193L236.769 628.052L206.219 641.293L187.956 591.011L191.152 589.842L195.508 596.014Z" stroke="#FDFCF8" stroke-miterlimit="10"/>
<path d="M114.397 584.296H141.298L152.607 598.869V630.082L141.741 723.892L140.782 632.755L137.911 630.489L109 630.508V577H112.405L114.397 584.296Z" stroke="#FDFCF8" stroke-miterlimit="10"/>
<path d="M169.014 584.296H142.113L130.804 598.869V630.082L141.479 723.892L142.629 632.755L145.499 630.489L174.411 630.508V577H171.006L169.014 584.296Z" stroke="#FDFCF8" stroke-miterlimit="10"/>
<path d="M147.065 676.883H233.029L225.921 723.892H141.479L147.065 676.883Z" stroke="#FDFCF8" stroke-miterlimit="10"/>
<g clip-path="url(#clip0_119_41)">
<path d="M127.86 107.99V118.69" stroke="#FDFCF8" stroke-miterlimit="10"/>
<path d="M127.86 107.98C131.444 107.98 134.35 105.074 134.35 101.49C134.35 97.9057 131.444 95 127.86 95C124.276 95 121.37 97.9057 121.37 101.49C121.37 105.074 124.276 107.98 127.86 107.98Z" fill="#FDFCF8"/>
<path d="M110.14 107.99V118.69" stroke="#FDFCF8" stroke-miterlimit="10"/>
<path d="M110.14 107.98C113.725 107.98 116.63 105.074 116.63 101.49C116.63 97.9057 113.725 95 110.14 95C106.556 95 103.65 97.9057 103.65 101.49C103.65 105.074 106.556 107.98 110.14 107.98Z" fill="#FDFCF8"/>
<path d="M145.58 107.96V118.69" stroke="#FDFCF8" stroke-miterlimit="10"/>
<path d="M145.58 107.98C149.164 107.98 152.07 105.074 152.07 101.49C152.07 97.9057 149.164 95 145.58 95C141.996 95 139.09 97.9057 139.09 101.49C139.09 105.074 141.996 107.98 145.58 107.98Z" fill="#FDFCF8"/>
<path d="M187.54 130.52L219.21 116.68L243.51 124.04L255.28 156.41L221.12 271.62L236.94 167.12L233.11 165.86L199.37 180.47L179.19 124.99L182.72 123.71L187.54 130.52Z" fill="#FDFCF8"/>
<path d="M97.95 117.59H127.67L140.16 133.66V168.1L128.15 271.62L127.1 171.05L123.93 168.56L92 168.58V109.54H95.75L97.95 117.59Z" fill="#FDFCF8"/>
<path d="M158.28 117.59H128.57L116.08 133.66V168.1L127.86 271.62L129.13 171.05L132.31 168.56L164.23 168.58V109.54H160.48L158.28 117.59Z" fill="#FDFCF8"/>
<path d="M134.04 219.75H228.98L221.12 271.62H127.86L134.04 219.75Z" fill="#FDFCF8"/>
</g>
<g clip-path="url(#clip1_119_41)">
<path d="M128.36 364.49V375.19" stroke="#FDFCF8" stroke-miterlimit="10"/>
<path d="M128.36 364.48C131.944 364.48 134.85 361.574 134.85 357.99C134.85 354.406 131.944 351.5 128.36 351.5C124.776 351.5 121.87 354.406 121.87 357.99C121.87 361.574 124.776 364.48 128.36 364.48Z" stroke="#FDFCF8" stroke-miterlimit="10"/>
<path d="M110.64 364.48C114.225 364.48 117.13 361.574 117.13 357.99C117.13 354.406 114.225 351.5 110.64 351.5C107.056 351.5 104.15 354.406 104.15 357.99C104.15 361.574 107.056 364.48 110.64 364.48Z" stroke="#FDFCF8" stroke-miterlimit="10"/>
<path d="M146.08 364.46V375.19" stroke="#FDFCF8" stroke-miterlimit="10"/>
<path d="M146.08 364.48C149.664 364.48 152.57 361.574 152.57 357.99C152.57 354.406 149.664 351.5 146.08 351.5C142.496 351.5 139.59 354.406 139.59 357.99C139.59 361.574 142.496 364.48 146.08 364.48Z" stroke="#FDFCF8" stroke-miterlimit="10"/>
<path d="M188.04 388.02L219.71 374.18L244.01 381.54L255.78 413.91L221.62 529.12L237.44 424.62L233.61 423.36L199.87 437.97L179.69 382.49L183.22 381.21L188.04 388.02Z" stroke="#FDFCF8" stroke-miterlimit="10"/>
<path d="M98.45 375.09H128.17L140.66 391.16V425.6L128.65 529.12L127.6 428.55L124.43 426.06L92.5 426.08V367.04H96.25L98.45 375.09Z" stroke="#FDFCF8" stroke-miterlimit="10"/>
<path d="M158.78 375.09H129.07L116.58 391.16V425.6L128.36 529.12L129.63 428.55L132.81 426.06L164.73 426.08V367.04H160.98L158.78 375.09Z" stroke="#FDFCF8" stroke-miterlimit="10"/>
<path d="M134.54 477.25H229.48L221.62 529.12H128.36L134.54 477.25Z" stroke="#FDFCF8" stroke-miterlimit="10"/>
</g>
<rect x="40" y="4" width="28.311" height="30" rx="3" fill="black"/>
<rect x="40.5" y="4.5" width="27.311" height="29" rx="2.5" stroke="black" stroke-opacity="0.2"/>
<path d="M47.4375 24.25C47.2813 24.25 47.1419 24.237 47.0195 24.2109C46.8971 24.1875 46.8125 24.1641 46.7656 24.1406L47 23.3281C47.224 23.3854 47.4219 23.4063 47.5938 23.3906C47.7656 23.375 47.918 23.2982 48.0508 23.1602C48.1862 23.0247 48.3099 22.8047 48.4219 22.5L48.5938 22.0313L46.375 16H47.375L49.0313 20.7812H49.0938L50.75 16H51.75L49.2031 22.875C49.0885 23.1849 48.9466 23.4414 48.7773 23.6445C48.6081 23.8503 48.4115 24.0026 48.1875 24.1016C47.9661 24.2005 47.7161 24.25 47.4375 24.25Z" fill="white"/>
<defs>
<clipPath id="clip0_119_41">
<rect width="163.28" height="176.62" fill="white" transform="translate(92 95)"/>
</clipPath>
<clipPath id="clip1_119_41">
<rect width="164.31" height="178.62" fill="white" transform="translate(92 351)"/>
</clipPath>
</defs>
</svg>
