<svg width="193" height="471" viewBox="0 0 193 471" fill="none" xmlns="http://www.w3.org/2000/svg">
<path d="M40 42C40 40.8954 40.8954 40 42 40H151C152.105 40 153 40.8954 153 42V429C153 430.105 152.105 431 151 431H42C40.8954 431 40 430.105 40 429V42Z" fill="black"/>
<path d="M42 40V41H151V40V39H42V40ZM153 42H152V429H153H154V42H153ZM151 431V430H42V431V432H151V431ZM40 429H41V42H40H39V429H40ZM42 431V430C41.4477 430 41 429.552 41 429H40H39C39 430.657 40.3431 432 42 432V431ZM153 429H152C152 429.552 151.552 430 151 430V431V432C152.657 432 154 430.657 154 429H153ZM151 40V41C151.552 41 152 41.4477 152 42H153H154C154 40.3431 152.657 39 151 39V40ZM42 40V39C40.3431 39 39 40.3431 39 42H40H41C41 41.4477 41.4477 41 42 41V40Z" fill="black" fill-opacity="0.1"/>
<path d="M76.3875 78.2957H103.298L114.607 92.8689V124.082L90.4492 165.517L102.782 126.755L99.9112 124.489L71 124.508V71H74.3955L76.3875 78.2957Z" stroke="#FDFCF8" stroke-miterlimit="10"/>
<rect x="40" y="4" width="24.7178" height="30" rx="3" fill="black"/>
<rect x="40.5" y="4.5" width="23.7178" height="29" rx="2.5" stroke="black" stroke-opacity="0.2"/>
<path d="M47.4375 24.25C47.2813 24.25 47.1419 24.237 47.0195 24.2109C46.8971 24.1875 46.8125 24.1641 46.7656 24.1406L47 23.3281C47.224 23.3854 47.4219 23.4063 47.5938 23.3906C47.7656 23.375 47.918 23.2982 48.0508 23.1602C48.1862 23.0247 48.3099 22.8047 48.4219 22.5L48.5938 22.0313L46.375 16H47.375L49.0313 20.7812H49.0938L50.75 16H51.75L49.2031 22.875C49.0885 23.1849 48.9466 23.4414 48.7773 23.6445C48.6081 23.8503 48.4115 24.0026 48.1875 24.1016C47.9661 24.2005 47.7161 24.25 47.4375 24.25Z" fill="white"/>
</svg>
