<svg width="236" height="471" viewBox="0 0 236 471" fill="none" xmlns="http://www.w3.org/2000/svg">
<path d="M40 42C40 40.8954 40.8954 40 42 40H194C195.105 40 196 40.8954 196 42V429C196 430.105 195.105 431 194 431H42C40.8954 431 40 430.105 40 429V42Z" fill="black"/>
<path d="M42 40V41H194V40V39H42V40ZM196 42H195V429H196H197V42H196ZM194 431V430H42V431V432H194V431ZM40 429H41V42H40H39V429H40ZM42 431V430C41.4477 430 41 429.552 41 429H40H39C39 430.657 40.3431 432 42 432V431ZM196 429H195C195 429.552 194.552 430 194 430V431V432C195.657 432 197 430.657 197 429H196ZM194 40V41C194.552 41 195 41.4477 195 42H196H197C197 40.3431 195.657 39 194 39V40ZM42 40V39C40.3431 39 39 40.3431 39 42H40H41C41 41.4477 41.4477 41 42 41V40Z" fill="black" fill-opacity="0.1"/>
<path d="M83.6542 76.6166L144.972 76.958L150.468 87.4752L155 99.1695L142.015 199L141.319 99.1875L95.2388 99.5154L81 99.5244V73H82.6728L83.6542 76.6166Z" stroke="#FDFCF8" stroke-miterlimit="10"/>
<rect x="40" y="4" width="27.0327" height="30" rx="3" fill="black"/>
<rect x="40.5" y="4.5" width="26.0327" height="29" rx="2.5" stroke="black" stroke-opacity="0.2"/>
<path d="M47.4375 24.25C47.2813 24.25 47.1419 24.237 47.0195 24.2109C46.8971 24.1875 46.8125 24.1641 46.7656 24.1406L47 23.3281C47.224 23.3854 47.4219 23.4063 47.5938 23.3906C47.7656 23.375 47.918 23.2982 48.0508 23.1602C48.1862 23.0247 48.3099 22.8047 48.4219 22.5L48.5938 22.0313L46.375 16H47.375L49.0313 20.7812H49.0938L50.75 16H51.75L49.2031 22.875C49.0885 23.1849 48.9466 23.4414 48.7773 23.6445C48.6081 23.8503 48.4115 24.0026 48.1875 24.1016C47.9661 24.2005 47.7161 24.25 47.4375 24.25Z" fill="white"/>
</svg>
