<svg width="476" height="1448" viewBox="0 0 476 1448" fill="none" xmlns="http://www.w3.org/2000/svg">
<path d="M40 42C40 40.8954 40.8954 40 42 40H434C435.105 40 436 40.8954 436 42V1406C436 1407.1 435.105 1408 434 1408H42C40.8954 1408 40 1407.1 40 1406V42Z" fill="black"/>
<path d="M42 40V41H434V40V39H42V40ZM436 42H435V1406H436H437V42H436ZM434 1408V1407H42V1408V1409H434V1408ZM40 1406H41V42H40H39V1406H40ZM42 1408V1407C41.4477 1407 41 1406.55 41 1406H40H39C39 1407.66 40.3431 1409 42 1409V1408ZM436 1406H435C435 1406.55 434.552 1407 434 1407V1408V1409C435.657 1409 437 1407.66 437 1406H436ZM434 40V41C434.552 41 435 41.4477 435 42H436H437C437 40.3432 435.657 39 434 39V40ZM42 40V39C40.3432 39 39 40.3431 39 42H40H41C41 41.4477 41.4477 41 42 41V40Z" fill="black" fill-opacity="0.1"/>
<g clip-path="url(#clip0_119_41)">
<path d="M204.95 100.99H234.67L247.16 117.07V151.51L236.75 355.51L234.1 154.46L230.93 151.96L199 151.99V92.95H202.75L204.95 100.99Z" fill="#FDFCF8"/>
<path d="M220.44 90.82V101.51" stroke="#FDFCF8" stroke-miterlimit="10"/>
<path d="M220.44 90.82C222.876 90.82 224.85 88.8456 224.85 86.41C224.85 83.9744 222.876 82 220.44 82C218.005 82 216.03 83.9744 216.03 86.41C216.03 88.8456 218.005 90.82 220.44 90.82Z" fill="#FDFCF8"/>
<path d="M208.41 90.8V101.5" stroke="#FDFCF8" stroke-miterlimit="10"/>
<path d="M208.41 90.82C210.846 90.82 212.82 88.8456 212.82 86.41C212.82 83.9744 210.846 82 208.41 82C205.974 82 204 83.9744 204 86.41C204 88.8456 205.974 90.82 208.41 90.82Z" fill="#FDFCF8"/>
<path d="M232.46 90.79V101.51" stroke="#FDFCF8" stroke-miterlimit="10"/>
<path d="M232.46 90.82C234.895 90.82 236.87 88.8456 236.87 86.41C236.87 83.9744 234.895 82 232.46 82C230.024 82 228.05 83.9744 228.05 86.41C228.05 88.8456 230.024 90.82 232.46 90.82Z" fill="#FDFCF8"/>
</g>
<g clip-path="url(#clip1_119_41)">
<path d="M219.45 469.49H249.17L261.66 485.57V520.01L251.25 724.01L248.6 522.96L245.43 520.46L213.5 520.49V461.45H217.25L219.45 469.49Z" stroke="#FDFCF8" stroke-miterlimit="10"/>
<path d="M234.94 459.32V470.01" stroke="#FDFCF8" stroke-miterlimit="10"/>
<path d="M234.94 459.32C237.376 459.32 239.35 457.346 239.35 454.91C239.35 452.474 237.376 450.5 234.94 450.5C232.505 450.5 230.53 452.474 230.53 454.91C230.53 457.346 232.505 459.32 234.94 459.32Z" stroke="#FDFCF8" stroke-miterlimit="10"/>
<path d="M222.91 459.3V470" stroke="#FDFCF8" stroke-miterlimit="10"/>
<path d="M222.91 459.32C225.346 459.32 227.32 457.346 227.32 454.91C227.32 452.474 225.346 450.5 222.91 450.5C220.474 450.5 218.5 452.474 218.5 454.91C218.5 457.346 220.474 459.32 222.91 459.32Z" stroke="#FDFCF8" stroke-miterlimit="10"/>
<path d="M246.96 459.29V470.01" stroke="#FDFCF8" stroke-miterlimit="10"/>
<path d="M246.96 459.32C249.395 459.32 251.37 457.346 251.37 454.91C251.37 452.474 249.395 450.5 246.96 450.5C244.524 450.5 242.55 452.474 242.55 454.91C242.55 457.346 244.524 459.32 246.96 459.32Z" stroke="#FDFCF8" stroke-miterlimit="10"/>
</g>
<path d="M230.397 826.286H257.358L268.688 840.84V872.012L259.244 1056.65L256.84 874.682L253.965 872.419L225 872.437V819H228.402L230.397 826.286Z" stroke="#FDFCF8" stroke-miterlimit="10"/>
<rect x="40" y="4" width="24.6533" height="30" rx="3" fill="black"/>
<rect x="40.5" y="4.5" width="23.6533" height="29" rx="2.5" stroke="black" stroke-opacity="0.2"/>
<path d="M47.4375 24.25C47.2813 24.25 47.1419 24.237 47.0195 24.2109C46.8971 24.1875 46.8125 24.1641 46.7656 24.1406L47 23.3281C47.224 23.3854 47.4219 23.4063 47.5938 23.3906C47.7656 23.375 47.918 23.2982 48.0508 23.1602C48.1862 23.0247 48.3099 22.8047 48.4219 22.5L48.5938 22.0313L46.375 16H47.375L49.0313 20.7812H49.0938L50.75 16H51.75L49.2031 22.875C49.0885 23.1849 48.9466 23.4414 48.7773 23.6445C48.6081 23.8503 48.4115 24.0026 48.1875 24.1016C47.9661 24.2005 47.7161 24.25 47.4375 24.25Z" fill="white"/>
<defs>
<clipPath id="clip0_119_41">
<rect width="48.16" height="273.51" fill="white" transform="translate(199 82)"/>
</clipPath>
<clipPath id="clip1_119_41">
<rect width="49.16" height="274.04" fill="white" transform="translate(213 450)"/>
</clipPath>
</defs>
</svg>
