<svg width="433" height="1448" viewBox="0 0 433 1448" fill="none" xmlns="http://www.w3.org/2000/svg">
<path d="M40 42C40 40.8954 40.8954 40 42 40H391C392.105 40 393 40.8954 393 42V1406C393 1407.1 392.105 1408 391 1408H42C40.8954 1408 40 1407.1 40 1406V42Z" fill="black"/>
<path d="M42 40V41H391V40V39H42V40ZM393 42H392V1406H393H394V42H393ZM391 1408V1407H42V1408V1409H391V1408ZM40 1406H41V42H40H39V1406H40ZM42 1408V1407C41.4477 1407 41 1406.55 41 1406H40H39C39 1407.66 40.3431 1409 42 1409V1408ZM393 1406H392C392 1406.55 391.552 1407 391 1407V1408V1409C392.657 1409 394 1407.66 394 1406H393ZM391 40V41C391.552 41 392 41.4477 392 42H393H394C394 40.3431 392.657 39 391 39V40ZM42 40V39C40.3432 39 39 40.3431 39 42H40H41C41 41.4477 41.4477 41 42 41V40Z" fill="black" fill-opacity="0.1"/>
<g clip-path="url(#clip0_119_41)">
<path d="M187.67 102.48H217.38L229.87 118.56V153L254.29 235.97L216.81 155.95L213.64 153.45L181.71 153.47V94.43H185.47L187.67 102.48Z" fill="#FDFCF8"/>
<path d="M246.99 102.48H217.28L204.79 118.56V153L254.28 237.28L217.85 155.95L221.02 153.45L252.95 153.47V94.43H249.19L246.99 102.48Z" fill="#FDFCF8"/>
<path d="M186.05 260.33L254.08 259.08L254.23 242.87L254.52 210.92L218.16 113.98L215.83 207.21L212.63 209.67L180.7 209.27L180 268.31L183.75 268.35L186.05 260.33Z" fill="#FDFCF8"/>
<path d="M218 91.99V102.69" stroke="#FDFCF8" stroke-miterlimit="10"/>
<path d="M218 91.98C221.584 91.98 224.49 89.0743 224.49 85.49C224.49 81.9057 221.584 79 218 79C214.415 79 211.51 81.9057 211.51 85.49C211.51 89.0743 214.415 91.98 218 91.98Z" fill="#FDFCF8"/>
<path d="M200.28 91.99V102.69" stroke="#FDFCF8" stroke-miterlimit="10"/>
<path d="M200.28 91.98C203.864 91.98 206.77 89.0743 206.77 85.49C206.77 81.9057 203.864 79 200.28 79C196.696 79 193.79 81.9057 193.79 85.49C193.79 89.0743 196.696 91.98 200.28 91.98Z" fill="#FDFCF8"/>
<path d="M235.72 91.96V102.69" stroke="#FDFCF8" stroke-miterlimit="10"/>
<path d="M235.72 91.98C239.305 91.98 242.21 89.0743 242.21 85.49C242.21 81.9057 239.305 79 235.72 79C232.136 79 229.23 81.9057 229.23 85.49C229.23 89.0743 232.136 91.98 235.72 91.98Z" fill="#FDFCF8"/>
</g>
<g clip-path="url(#clip1_119_41)">
<path d="M188.17 349.98H217.89L230.37 366.06V400.5L254.8 483.47L217.32 403.45L214.14 400.95L182.22 400.97V341.93H185.97L188.17 349.98Z" stroke="#FDFCF8" stroke-miterlimit="10"/>
<path d="M247.5 349.98H217.79L205.3 366.06V400.5L254.79 484.78L218.35 403.45L221.53 400.95L253.45 400.97V341.93H249.7L247.5 349.98Z" stroke="#FDFCF8" stroke-miterlimit="10"/>
<path d="M186.55 507.83L254.58 506.58L254.73 490.37L255.03 458.42L218.67 361.48L216.33 454.71L213.13 457.17L181.21 456.77L180.51 515.81L184.26 515.85L186.55 507.83Z" stroke="#FDFCF8" stroke-miterlimit="10"/>
<path d="M218.51 339.49V350.19" stroke="#FDFCF8" stroke-miterlimit="10"/>
<path d="M218.51 339.48C222.094 339.48 225 336.574 225 332.99C225 329.406 222.094 326.5 218.51 326.5C214.925 326.5 212.02 329.406 212.02 332.99C212.02 336.574 214.925 339.48 218.51 339.48Z" stroke="#FDFCF8" stroke-miterlimit="10"/>
<path d="M200.79 339.49V350.19" stroke="#FDFCF8" stroke-miterlimit="10"/>
<path d="M200.79 339.48C204.374 339.48 207.28 336.574 207.28 332.99C207.28 329.406 204.374 326.5 200.79 326.5C197.205 326.5 194.3 329.406 194.3 332.99C194.3 336.574 197.205 339.48 200.79 339.48Z" stroke="#FDFCF8" stroke-miterlimit="10"/>
<path d="M236.23 339.46V350.19" stroke="#FDFCF8" stroke-miterlimit="10"/>
<path d="M236.23 339.48C239.815 339.48 242.72 336.574 242.72 332.99C242.72 329.406 239.815 326.5 236.23 326.5C232.646 326.5 229.74 329.406 229.74 332.99C229.74 336.574 232.646 339.48 236.23 339.48Z" stroke="#FDFCF8" stroke-miterlimit="10"/>
</g>
<path d="M186.945 581.277H213.846L225.156 595.831V627.003L247.267 702.1L213.33 629.673L210.46 627.419L181.549 627.437V574H184.953L186.945 581.277Z" stroke="#FDFCF8" stroke-miterlimit="10"/>
<path d="M240.657 581.277H213.755L202.446 595.831V627.003L247.257 703.285L214.272 629.673L217.142 627.419L246.053 627.437V574H242.649L240.657 581.277Z" stroke="#FDFCF8" stroke-miterlimit="10"/>
<path d="M185.478 724.148L247.076 723.017L247.212 708.345L247.484 679.436L214.561 591.686L212.443 676.078L209.545 678.295L180.634 677.933L180 731.371L183.405 731.407L185.478 724.148Z" stroke="#FDFCF8" stroke-miterlimit="10"/>
<rect x="40" y="4" width="25.7705" height="30" rx="3" fill="black"/>
<rect x="40.5" y="4.5" width="24.7705" height="29" rx="2.5" stroke="black" stroke-opacity="0.2"/>
<path d="M47.4375 24.25C47.2813 24.25 47.1419 24.237 47.0195 24.2109C46.8971 24.1875 46.8125 24.1641 46.7656 24.1406L47 23.3281C47.224 23.3854 47.4219 23.4063 47.5938 23.3906C47.7656 23.375 47.918 23.2982 48.0508 23.1602C48.1862 23.0247 48.3099 22.8047 48.4219 22.5L48.5938 22.0313L46.375 16H47.375L49.0313 20.7812H49.0938L50.75 16H51.75L49.2031 22.875C49.0885 23.1849 48.9466 23.4414 48.7773 23.6445C48.6081 23.8503 48.4115 24.0026 48.1875 24.1016C47.9661 24.2005 47.7161 24.25 47.4375 24.25Z" fill="white"/>
<defs>
<clipPath id="clip0_119_41">
<rect width="74.52" height="189.35" fill="white" transform="translate(180 79)"/>
</clipPath>
<clipPath id="clip1_119_41">
<rect width="75.53" height="190.35" fill="white" transform="translate(180 326)"/>
</clipPath>
</defs>
</svg>
