<svg width="476" height="1555" viewBox="0 0 476 1555" fill="none" xmlns="http://www.w3.org/2000/svg">
<path d="M40 42C40 40.8955 40.8954 40 42 40H434C435.105 40 436 40.8954 436 42V1513C436 1514.1 435.105 1515 434 1515H42C40.8954 1515 40 1514.1 40 1513V42Z" fill="black"/>
<path d="M42 40V41H434V40V39H42V40ZM436 42H435V1513H436H437V42H436ZM434 1515V1514H42V1515V1516H434V1515ZM40 1513H41V42H40H39V1513H40ZM42 1515V1514C41.4477 1514 41 1513.55 41 1513H40H39C39 1514.66 40.3431 1516 42 1516V1515ZM436 1513H435C435 1513.55 434.552 1514 434 1514V1515V1516C435.657 1516 437 1514.66 437 1513H436ZM434 40V41C434.552 41 435 41.4477 435 42H436H437C437 40.3432 435.657 39 434 39V40ZM42 40V39C40.3431 39 39 40.3432 39 42H40H41C41 41.4477 41.4477 41 42 41V40Z" fill="black" fill-opacity="0.1"/>
<g clip-path="url(#clip0_119_41)">
<path d="M174.59 108.95H205.09L216.79 125.03V159.47L235.83 234.39L203.73 162.42L200.56 159.93L168.63 159.95V100.91H172.39L174.59 108.95Z" fill="#FDFCF8"/>
<path d="M235.91 108.95H205.45L193.71 125.03V159.47L235.83 234.39L206.77 162.42L209.94 159.93L241.87 159.95V100.91H238.11L235.91 108.95Z" fill="#FDFCF8"/>
<path d="M284.9 107.75L313.3 116.49L320.5 135.53L310.37 168.45L261.55 247.77L297.02 167.42L294.72 164.1L264.2 154.73L281.58 98.3L285.17 99.41L284.9 107.75Z" fill="#FDFCF8"/>
<path d="M277.89 210.74L156 250.23V298.32L261.55 247.77" fill="#FDFCF8"/>
<path d="M205.46 97.99V108.69" stroke="#FDFCF8" stroke-miterlimit="10"/>
<path d="M205.46 97.98C209.044 97.98 211.95 95.0743 211.95 91.49C211.95 87.9057 209.044 85 205.46 85C201.875 85 198.97 87.9057 198.97 91.49C198.97 95.0743 201.875 97.98 205.46 97.98Z" fill="#FDFCF8"/>
<path d="M187.74 97.99V108.69" stroke="#FDFCF8" stroke-miterlimit="10"/>
<path d="M187.74 97.98C191.324 97.98 194.23 95.0743 194.23 91.49C194.23 87.9057 191.324 85 187.74 85C184.156 85 181.25 87.9057 181.25 91.49C181.25 95.0743 184.156 97.98 187.74 97.98Z" fill="#FDFCF8"/>
<path d="M223.18 97.96V108.69" stroke="#FDFCF8" stroke-miterlimit="10"/>
<path d="M223.18 97.98C226.765 97.98 229.67 95.0743 229.67 91.49C229.67 87.9057 226.765 85 223.18 85C219.596 85 216.69 87.9057 216.69 91.49C216.69 95.0743 219.596 97.98 223.18 97.98Z" fill="#FDFCF8"/>
</g>
<g clip-path="url(#clip1_119_41)">
<path d="M181.09 363.45H211.59L223.29 379.53V413.97L242.33 488.89L210.23 416.92L207.06 414.43L175.13 414.45V355.41H178.89L181.09 363.45Z" stroke="#FDFCF8" stroke-miterlimit="10"/>
<path d="M242.41 363.45H211.95L200.21 379.53V413.97L242.33 488.89L213.27 416.92L216.44 414.43L248.37 414.45V355.41H244.61L242.41 363.45Z" stroke="#FDFCF8" stroke-miterlimit="10"/>
<path d="M291.4 362.25L319.8 370.99L327 390.03L316.87 422.95L268.05 502.27L303.52 421.92L301.22 418.6L270.7 409.23L288.08 352.8L291.67 353.91L291.4 362.25Z" stroke="#FDFCF8" stroke-miterlimit="10"/>
<path d="M284.39 465.24L162.5 504.73V552.82L268.05 502.27" stroke="#FDFCF8" stroke-miterlimit="10"/>
<path d="M211.96 352.49V363.19" stroke="#FDFCF8" stroke-miterlimit="10"/>
<path d="M211.96 352.48C215.544 352.48 218.45 349.574 218.45 345.99C218.45 342.406 215.544 339.5 211.96 339.5C208.375 339.5 205.47 342.406 205.47 345.99C205.47 349.574 208.375 352.48 211.96 352.48Z" stroke="#FDFCF8" stroke-miterlimit="10"/>
<path d="M194.24 352.49V363.19" stroke="#FDFCF8" stroke-miterlimit="10"/>
<path d="M194.24 352.48C197.824 352.48 200.73 349.574 200.73 345.99C200.73 342.406 197.824 339.5 194.24 339.5C190.656 339.5 187.75 342.406 187.75 345.99C187.75 349.574 190.656 352.48 194.24 352.48Z" stroke="#FDFCF8" stroke-miterlimit="10"/>
<path d="M229.68 352.46V363.19" stroke="#FDFCF8" stroke-miterlimit="10"/>
<path d="M229.68 352.48C233.265 352.48 236.17 349.574 236.17 345.99C236.17 342.406 233.265 339.5 229.68 339.5C226.096 339.5 223.19 342.406 223.19 345.99C223.19 349.574 226.096 352.48 229.68 352.48Z" stroke="#FDFCF8" stroke-miterlimit="10"/>
</g>
<g clip-path="url(#clip2_119_41)">
<path d="M201.09 617.28H231.59L243.29 633.35V667.79L262.33 742.71L230.23 670.74L227.06 668.25L195.13 668.27V609.23H198.89L201.09 617.28Z" stroke="#FDFCF8" stroke-miterlimit="10"/>
<path d="M262.41 617.28H231.95L220.21 633.35V667.79L262.33 742.71L233.27 670.74L236.44 668.25L268.37 668.27V609.23H264.61L262.41 617.28Z" stroke="#FDFCF8" stroke-miterlimit="10"/>
<path d="M311.4 616.07L339.8 624.81L347 643.85L336.87 676.77L288.05 756.09L323.52 675.74L321.22 672.43L290.7 663.05L308.08 606.63L311.67 607.73L311.4 616.07Z" stroke="#FDFCF8" stroke-miterlimit="10"/>
<path d="M304.39 719.07L182.5 758.55V806.64L288.05 756.09" stroke="#FDFCF8" stroke-miterlimit="10"/>
</g>
<rect x="40" y="4" width="27.833" height="30" rx="3" fill="black"/>
<rect x="40.5" y="4.5" width="26.833" height="29" rx="2.5" stroke="black" stroke-opacity="0.2"/>
<path d="M47.4375 24.25C47.2813 24.25 47.1419 24.237 47.0195 24.2109C46.8971 24.1875 46.8125 24.1641 46.7656 24.1406L47 23.3281C47.224 23.3854 47.4219 23.4063 47.5938 23.3906C47.7656 23.375 47.918 23.2982 48.0508 23.1602C48.1862 23.0247 48.3099 22.8047 48.4219 22.5L48.5938 22.0313L46.375 16H47.375L49.0313 20.7812H49.0938L50.75 16H51.75L49.2031 22.875C49.0885 23.1849 48.9466 23.4414 48.7773 23.6445C48.6081 23.8503 48.4115 24.0026 48.1875 24.1016C47.9661 24.2005 47.7161 24.25 47.4375 24.25Z" fill="white"/>
<defs>
<clipPath id="clip0_119_41">
<rect width="164.5" height="213.32" fill="white" transform="translate(156 85)"/>
</clipPath>
<clipPath id="clip1_119_41">
<rect width="165.53" height="214.62" fill="white" transform="translate(162 339)"/>
</clipPath>
<clipPath id="clip2_119_41">
<rect width="165.53" height="201.44" fill="white" transform="translate(182 606)"/>
</clipPath>
</defs>
</svg>
