<svg width="476" height="1693" viewBox="0 0 476 1693" fill="none" xmlns="http://www.w3.org/2000/svg">
<path d="M40 42C40 40.8954 40.8954 40 42 40H434C435.105 40 436 40.8954 436 42V1651C436 1652.1 435.105 1653 434 1653H42C40.8954 1653 40 1652.1 40 1651V42Z" fill="black"/>
<path d="M42 40V41H434V40V39H42V40ZM436 42H435V1651H436H437V42H436ZM434 1653V1652H42V1653V1654H434V1653ZM40 1651H41V42H40H39V1651H40ZM42 1653V1652C41.4477 1652 41 1651.55 41 1651H40H39C39 1652.66 40.3431 1654 42 1654V1653ZM436 1651H435C435 1651.55 434.552 1652 434 1652V1653V1654C435.657 1654 437 1652.66 437 1651H436ZM434 40V41C434.552 41 435 41.4477 435 42H436H437C437 40.3432 435.657 39 434 39V40ZM42 40V39C40.3432 39 39 40.3431 39 42H40H41C41 41.4477 41.4477 41 42 41V40Z" fill="black" fill-opacity="0.1"/>
<g clip-path="url(#clip0_119_41)">
<path d="M175.95 123.03H205.92L218.16 139.11V173.55L202.41 373.5L205.1 176.5L201.93 174L170 174.02V114.98H173.75L175.95 123.03Z" fill="#FDFCF8"/>
<path d="M236.28 123.03H206.38L194.08 139.11V173.55L202.47 375L207.13 176.5L210.31 174L242.23 174.02V114.98H238.48L236.28 123.03Z" fill="#FDFCF8"/>
<path d="M214.31 222.33L296.18 176.5L293.01 174L261.08 174.02V114.98H264.84L267.04 123.03H297.41L309.24 139.11V173.55L214.05 222.92" fill="#FDFCF8"/>
<path d="M214.29 222.64L299.22 176.5L302.39 174L334.32 174.02V114.98H330.56L328.36 123.03H297.88L286.16 139.11V173.55L214.29 222.64Z" fill="#FDFCF8"/>
<path d="M212.77 241.94L309.24 173.55L214.29 222.64" fill="#FDFCF8"/>
<path d="M206.27 111.99V122.69" stroke="#FDFCF8" stroke-miterlimit="10"/>
<path d="M206.27 111.98C209.854 111.98 212.76 109.074 212.76 105.49C212.76 101.906 209.854 99 206.27 99C202.685 99 199.78 101.906 199.78 105.49C199.78 109.074 202.685 111.98 206.27 111.98Z" fill="#FDFCF8"/>
<path d="M188.55 111.98C192.134 111.98 195.04 109.074 195.04 105.49C195.04 101.906 192.134 99 188.55 99C184.966 99 182.06 101.906 182.06 105.49C182.06 109.074 184.966 111.98 188.55 111.98Z" fill="#FDFCF8"/>
<path d="M223.98 111.96V122.69" stroke="#FDFCF8" stroke-miterlimit="10"/>
<path d="M223.98 111.98C227.565 111.98 230.47 109.074 230.47 105.49C230.47 101.906 227.565 99 223.98 99C220.396 99 217.49 101.906 217.49 105.49C217.49 109.074 220.396 111.98 223.98 111.98Z" fill="#FDFCF8"/>
</g>
<g clip-path="url(#clip1_119_41)">
<path d="M161.45 451.53H191.42L203.66 467.61V502.05L187.91 702L190.6 505L187.43 502.5L155.5 502.52V443.48H159.25L161.45 451.53Z" stroke="#FDFCF8" stroke-miterlimit="10"/>
<path d="M221.78 451.53H191.88L179.58 467.61V502.05L187.97 703.5L192.63 505L195.81 502.5L227.73 502.52V443.48H223.98L221.78 451.53Z" stroke="#FDFCF8" stroke-miterlimit="10"/>
<path d="M199.81 550.83L281.68 505L278.51 502.5L246.58 502.52V443.48H250.34L252.54 451.53H282.91L294.74 467.61V502.05L199.55 551.42" stroke="#FDFCF8" stroke-miterlimit="10"/>
<path d="M199.79 551.14L284.72 505L287.89 502.5L319.82 502.52V443.48H316.06L313.86 451.53H283.38L271.66 467.61V502.05L199.79 551.14Z" stroke="#FDFCF8" stroke-miterlimit="10"/>
<path d="M198.27 570.44L294.74 502.05L199.79 551.14" stroke="#FDFCF8" stroke-miterlimit="10"/>
<path d="M191.77 440.49V451.19" stroke="#FDFCF8" stroke-miterlimit="10"/>
<path d="M191.77 440.48C195.354 440.48 198.26 437.574 198.26 433.99C198.26 430.406 195.354 427.5 191.77 427.5C188.185 427.5 185.28 430.406 185.28 433.99C185.28 437.574 188.185 440.48 191.77 440.48Z" stroke="#FDFCF8" stroke-miterlimit="10"/>
<path d="M174.05 440.49V451.19" stroke="#FDFCF8" stroke-miterlimit="10"/>
<path d="M174.05 440.48C177.634 440.48 180.54 437.574 180.54 433.99C180.54 430.406 177.634 427.5 174.05 427.5C170.466 427.5 167.56 430.406 167.56 433.99C167.56 437.574 170.466 440.48 174.05 440.48Z" stroke="#FDFCF8" stroke-miterlimit="10"/>
<path d="M209.48 440.46V451.19" stroke="#FDFCF8" stroke-miterlimit="10"/>
<path d="M209.48 440.48C213.065 440.48 215.97 437.574 215.97 433.99C215.97 430.406 213.065 427.5 209.48 427.5C205.896 427.5 202.99 430.406 202.99 433.99C202.99 437.574 205.896 440.48 209.48 440.48Z" stroke="#FDFCF8" stroke-miterlimit="10"/>
</g>
<g clip-path="url(#clip2_119_41)">
<path d="M148.45 764.55H178.42L190.66 780.62V815.07L174.91 1015.01L177.6 818.01L174.43 815.52L142.5 815.54V756.5H146.25L148.45 764.55Z" stroke="#FDFCF8" stroke-miterlimit="10"/>
<path d="M208.78 764.55H178.88L166.58 780.62V815.07L174.97 1016.52L179.63 818.01L182.81 815.52L214.73 815.54V756.5H210.98L208.78 764.55Z" stroke="#FDFCF8" stroke-miterlimit="10"/>
<path d="M186.81 863.85L268.68 818.01L265.51 815.52L233.58 815.54V756.5H237.34L239.54 764.55H269.91L281.74 780.62V815.07L186.55 864.43" stroke="#FDFCF8" stroke-miterlimit="10"/>
<path d="M186.79 864.16L271.72 818.01L274.89 815.52L306.82 815.54V756.5H303.06L300.86 764.55H270.38L258.66 780.62V815.07L186.79 864.16Z" stroke="#FDFCF8" stroke-miterlimit="10"/>
<path d="M185.27 883.46L281.74 815.07L186.79 864.16" stroke="#FDFCF8" stroke-miterlimit="10"/>
</g>
<rect x="40" y="4" width="26.5708" height="30" rx="3" fill="black"/>
<rect x="40.5" y="4.5" width="25.5708" height="29" rx="2.5" stroke="black" stroke-opacity="0.2"/>
<path d="M47.4375 24.25C47.2813 24.25 47.1419 24.237 47.0195 24.2109C46.8971 24.1875 46.8125 24.1641 46.7656 24.1406L47 23.3281C47.224 23.3854 47.4219 23.4063 47.5938 23.3906C47.7656 23.375 47.918 23.2982 48.0508 23.1602C48.1862 23.0247 48.3099 22.8047 48.4219 22.5L48.5938 22.0313L46.375 16H47.375L49.0313 20.7812H49.0938L50.75 16H51.75L49.2031 22.875C49.0885 23.1849 48.9466 23.4414 48.7773 23.6445C48.6081 23.8503 48.4115 24.0026 48.1875 24.1016C47.9661 24.2005 47.7161 24.25 47.4375 24.25Z" fill="white"/>
<defs>
<clipPath id="clip0_119_41">
<rect width="164.32" height="276" fill="white" transform="translate(170 99)"/>
</clipPath>
<clipPath id="clip1_119_41">
<rect width="165.32" height="276.53" fill="white" transform="translate(155 427)"/>
</clipPath>
<clipPath id="clip2_119_41">
<rect width="165.32" height="260.54" fill="white" transform="translate(142 756)"/>
</clipPath>
</defs>
</svg>
