<svg width="476" height="1448" viewBox="0 0 476 1448" fill="none" xmlns="http://www.w3.org/2000/svg">
<path d="M40 42C40 40.8954 40.8954 40 42 40H434C435.105 40 436 40.8954 436 42V1406C436 1407.1 435.105 1408 434 1408H42C40.8954 1408 40 1407.1 40 1406V42Z" fill="black"/>
<path d="M42 40V41H434V40V39H42V40ZM436 42H435V1406H436H437V42H436ZM434 1408V1407H42V1408V1409H434V1408ZM40 1406H41V42H40H39V1406H40ZM42 1408V1407C41.4477 1407 41 1406.55 41 1406H40H39C39 1407.66 40.3431 1409 42 1409V1408ZM436 1406H435C435 1406.55 434.552 1407 434 1407V1408V1409C435.657 1409 437 1407.66 437 1406H436ZM434 40V41C434.552 41 435 41.4477 435 42H436H437C437 40.3432 435.657 39 434 39V40ZM42 40V39C40.3432 39 39 40.3431 39 42H40H41C41 41.4477 41.4477 41 42 41V40Z" fill="black" fill-opacity="0.1"/>
<g clip-path="url(#clip0_119_41)">
<path d="M158.94 125.17H189.24L201.14 141.25V175.69L262.35 246.56L188.08 178.64L184.91 176.14L152.98 176.16V117.12H156.74L158.94 125.17Z" fill="#FDFCF8"/>
<path d="M220.26 125.17H189.74L178.06 141.25V175.69L262.35 246.56L191.12 178.64L194.29 176.14L226.22 176.16V117.12H222.46L220.26 125.17Z" fill="#FDFCF8"/>
<path d="M256.81 125.17H287.14L299.01 141.25V175.69L248.6 229.91L285.96 178.64L282.78 176.14L250.86 176.16V117.12H254.61L256.81 125.17Z" fill="#FDFCF8"/>
<path d="M318.14 125.17H287.6L275.94 141.25V175.69L249.81 227.51L288.99 178.64L292.16 176.14L324.09 176.16V117.12H320.34L318.14 125.17Z" fill="#FDFCF8"/>
<path d="M158.05 282.51L286.85 281.77L287 265.56L262.35 246.56L254.18 237.1L248.6 229.91L245.4 232.36L152.7 231.45L152 290.49L155.75 290.53L158.05 282.51Z" fill="#FDFCF8"/>
<path d="M190.07 115.99V126.69" stroke="#FDFCF8" stroke-miterlimit="10"/>
<path d="M190.07 115.98C193.654 115.98 196.56 113.074 196.56 109.49C196.56 105.906 193.654 103 190.07 103C186.486 103 183.58 105.906 183.58 109.49C183.58 113.074 186.486 115.98 190.07 115.98Z" fill="#FDFCF8"/>
<path d="M172.35 115.99V126.69" stroke="#FDFCF8" stroke-miterlimit="10"/>
<path d="M172.35 115.98C175.934 115.98 178.84 113.074 178.84 109.49C178.84 105.906 175.934 103 172.35 103C168.766 103 165.86 105.906 165.86 109.49C165.86 113.074 168.766 115.98 172.35 115.98Z" fill="#FDFCF8"/>
<path d="M207.78 115.96V126.69" stroke="#FDFCF8" stroke-miterlimit="10"/>
<path d="M207.78 115.98C211.364 115.98 214.27 113.074 214.27 109.49C214.27 105.906 211.364 103 207.78 103C204.196 103 201.29 105.906 201.29 109.49C201.29 113.074 204.196 115.98 207.78 115.98Z" fill="#FDFCF8"/>
</g>
<g clip-path="url(#clip1_119_41)">
<path d="M189.04 361.49V372.19" stroke="#FDFCF8" stroke-miterlimit="10"/>
<path d="M189.04 361.48C192.624 361.48 195.53 358.574 195.53 354.99C195.53 351.406 192.624 348.5 189.04 348.5C185.455 348.5 182.55 351.406 182.55 354.99C182.55 358.574 185.455 361.48 189.04 361.48Z" stroke="#FDFCF8" stroke-miterlimit="10"/>
<path d="M171.32 361.49V372.19" stroke="#FDFCF8" stroke-miterlimit="10"/>
<path d="M171.32 361.48C174.904 361.48 177.81 358.574 177.81 354.99C177.81 351.406 174.904 348.5 171.32 348.5C167.736 348.5 164.83 351.406 164.83 354.99C164.83 358.574 167.736 361.48 171.32 361.48Z" stroke="#FDFCF8" stroke-miterlimit="10"/>
<path d="M206.76 361.46V372.19" stroke="#FDFCF8" stroke-miterlimit="10"/>
<path d="M206.76 361.48C210.344 361.48 213.25 358.574 213.25 354.99C213.25 351.406 210.344 348.5 206.76 348.5C203.176 348.5 200.27 351.406 200.27 354.99C200.27 358.574 203.176 361.48 206.76 361.48Z" stroke="#FDFCF8" stroke-miterlimit="10"/>
<path d="M158.44 372.42H188.75L200.64 388.5V422.94L261.86 493.81L187.59 425.89L184.42 423.39L152.49 423.41V364.37H156.24L158.44 372.42Z" stroke="#FDFCF8" stroke-miterlimit="10"/>
<path d="M219.77 372.42H189.25L177.57 388.5V422.94L261.86 493.81L190.62 425.89L193.8 423.39L225.72 423.41V364.37H221.97L219.77 372.42Z" stroke="#FDFCF8" stroke-miterlimit="10"/>
<path d="M256.32 372.42H286.65L298.52 388.5V422.94L248.11 477.15L285.46 425.89L282.29 423.39L250.36 423.41V364.37H254.12L256.32 372.42Z" stroke="#FDFCF8" stroke-miterlimit="10"/>
<path d="M317.64 372.42H287.1L275.44 388.5V422.94L249.31 474.76L288.5 425.89L291.67 423.39L323.6 423.41V364.37H319.84L317.64 372.42Z" stroke="#FDFCF8" stroke-miterlimit="10"/>
<path d="M157.55 529.76L286.36 529.02L286.51 512.81L261.86 493.81L253.69 484.35L248.11 477.15L244.9 479.61L152.21 478.7L151.51 537.74L155.26 537.78L157.55 529.76Z" stroke="#FDFCF8" stroke-miterlimit="10"/>
</g>
<g clip-path="url(#clip2_119_41)">
<path d="M158.44 617.55H188.75L200.64 633.62V668.07L261.86 738.94L187.59 671.01L184.42 668.52L152.49 668.54V609.5H156.24L158.44 617.55Z" stroke="#FDFCF8" stroke-miterlimit="10"/>
<path d="M219.77 617.55H189.25L177.57 633.62V668.07L261.86 738.94L190.62 671.01L193.8 668.52L225.72 668.54V609.5H221.97L219.77 617.55Z" stroke="#FDFCF8" stroke-miterlimit="10"/>
<path d="M256.32 617.55H286.65L298.52 633.62V668.07L248.11 722.28L285.46 671.01L282.29 668.52L250.36 668.54V609.5H254.12L256.32 617.55Z" stroke="#FDFCF8" stroke-miterlimit="10"/>
<path d="M317.64 617.55H287.1L275.44 633.62V668.07L249.31 719.89L288.5 671.01L291.67 668.52L323.6 668.54V609.5H319.84L317.64 617.55Z" stroke="#FDFCF8" stroke-miterlimit="10"/>
<path d="M157.55 774.89L286.36 774.14L286.51 757.94L261.86 738.94L253.69 729.48L248.11 722.28L244.9 724.74L152.21 723.83L151.51 782.86L155.26 782.91L157.55 774.89Z" stroke="#FDFCF8" stroke-miterlimit="10"/>
</g>
<rect x="40" y="4" width="27.5483" height="30" rx="3" fill="black"/>
<rect x="40.5" y="4.5" width="26.5483" height="29" rx="2.5" stroke="black" stroke-opacity="0.2"/>
<path d="M47.4375 24.25C47.2813 24.25 47.1419 24.237 47.0195 24.2109C46.8971 24.1875 46.8125 24.1641 46.7656 24.1406L47 23.3281C47.224 23.3854 47.4219 23.4063 47.5938 23.3906C47.7656 23.375 47.918 23.2982 48.0508 23.1602C48.1862 23.0247 48.3099 22.8047 48.4219 22.5L48.5938 22.0313L46.375 16H47.375L49.0313 20.7812H49.0938L50.75 16H51.75L49.2031 22.875C49.0885 23.1849 48.9466 23.4414 48.7773 23.6445C48.6081 23.8503 48.4115 24.0026 48.1875 24.1016C47.9661 24.2005 47.7161 24.25 47.4375 24.25Z" fill="white"/>
<defs>
<clipPath id="clip0_119_41">
<rect width="172.09" height="187.53" fill="white" transform="translate(152 103)"/>
</clipPath>
<clipPath id="clip1_119_41">
<rect width="173.1" height="190.29" fill="white" transform="translate(151 348)"/>
</clipPath>
<clipPath id="clip2_119_41">
<rect width="173.1" height="174.41" fill="white" transform="translate(151 609)"/>
</clipPath>
</defs>
</svg>
