<svg width="265" height="471" viewBox="0 0 265 471" fill="none" xmlns="http://www.w3.org/2000/svg">
<path d="M40 42C40 40.8954 40.8954 40 42 40H223C224.105 40 225 40.8954 225 42V429C225 430.105 224.105 431 223 431H42C40.8954 431 40 430.105 40 429V42Z" fill="black"/>
<path d="M42 40V41H223V40V39H42V40ZM225 42H224V429H225H226V42H225ZM223 431V430H42V431V432H223V431ZM40 429H41V42H40H39V429H40ZM42 431V430C41.4477 430 41 429.552 41 429H40H39C39 430.657 40.3431 432 42 432V431ZM225 429H224C224 429.552 223.552 430 223 430V431V432C224.657 432 226 430.657 226 429H225ZM223 40V41C223.552 41 224 41.4477 224 42H225H226C226 40.3431 224.657 39 223 39V40ZM42 40V39C40.3431 39 39 40.3431 39 42H40H41C41 41.4477 41.4477 41 42 41V40Z" fill="black" fill-opacity="0.1"/>
<path d="M110.721 80.3307L150.484 80.5508L154.047 87.3288L156.986 94.8653L149.211 120.35L148.114 94.8769L118.233 95.0882L109 95.094V78H110.085L110.721 80.3307Z" stroke="#FDFCF8" stroke-miterlimit="10"/>
<path d="M148.988 110.596L135.757 110.578V121.699L149.173 121.094" stroke="#FDFCF8" stroke-miterlimit="10"/>
<path d="M114.326 103.308H122.92L126.533 107.964V117.935L123.521 177L122.755 118.789L121.838 118.066L112.602 118.071V100.977H113.689L114.326 103.308Z" stroke="#FDFCF8" stroke-miterlimit="10"/>
<rect x="40" y="4" width="28.5527" height="30" rx="3" fill="black"/>
<rect x="40.5" y="4.5" width="27.5527" height="29" rx="2.5" stroke="black" stroke-opacity="0.2"/>
<path d="M47.4375 24.25C47.2813 24.25 47.1419 24.237 47.0195 24.2109C46.8971 24.1875 46.8125 24.1641 46.7656 24.1406L47 23.3281C47.224 23.3854 47.4219 23.4063 47.5938 23.3906C47.7656 23.375 47.918 23.2982 48.0508 23.1602C48.1862 23.0247 48.3099 22.8047 48.4219 22.5L48.5938 22.0313L46.375 16H47.375L49.0313 20.7812H49.0938L50.75 16H51.75L49.2031 22.875C49.0885 23.1849 48.9466 23.4414 48.7773 23.6445C48.6081 23.8503 48.4115 24.0026 48.1875 24.1016C47.9661 24.2005 47.7161 24.25 47.4375 24.25Z" fill="white"/>
</svg>
