<svg width="476" height="1448" viewBox="0 0 476 1448" fill="none" xmlns="http://www.w3.org/2000/svg">
<path d="M40 42C40 40.8954 40.8954 40 42 40H434C435.105 40 436 40.8954 436 42V1406C436 1407.1 435.105 1408 434 1408H42C40.8954 1408 40 1407.1 40 1406V42Z" fill="black"/>
<path d="M42 40V41H434V40V39H42V40ZM436 42H435V1406H436H437V42H436ZM434 1408V1407H42V1408V1409H434V1408ZM40 1406H41V42H40H39V1406H40ZM42 1408V1407C41.4477 1407 41 1406.55 41 1406H40H39C39 1407.66 40.3431 1409 42 1409V1408ZM436 1406H435C435 1406.55 434.552 1407 434 1407V1408V1409C435.657 1409 437 1407.66 437 1406H436ZM434 40V41C434.552 41 435 41.4477 435 42H436H437C437 40.3432 435.657 39 434 39V40ZM42 40V39C40.3432 39 39 40.3431 39 42H40H41C41 41.4477 41.4477 41 42 41V40Z" fill="black" fill-opacity="0.1"/>
<g clip-path="url(#clip0_119_41)">
<path d="M305.79 410.36L332.97 422.36L337.91 442.11L324.01 473.62L278.81 503.46L310.87 471.04L308.97 467.48L279.76 454.61L303.59 400.59L307.03 402.11L305.79 410.36Z" stroke="#FDFCF8" stroke-miterlimit="10"/>
<path d="M249.26 410.56L274.72 425.89L277.12 446.1L259.35 475.61L212.38 532.15L246.65 471.4L245.22 467.62L217.86 451.17L248.32 400.59L251.53 402.53L249.26 410.56Z" stroke="#FDFCF8" stroke-miterlimit="10"/>
<path d="M144.45 411.14H174.89L186.66 427.22V461.66L226.8 552.99L173.6 464.6L170.43 462.11L138.5 462.13V403.09H142.25L144.45 411.14Z" stroke="#FDFCF8" stroke-miterlimit="10"/>
<path d="M205.78 411.14H175.31L163.58 427.22V461.66L226.8 552.99L176.63 464.6L179.81 462.11L211.73 462.13V403.09H207.98L205.78 411.14Z" stroke="#FDFCF8" stroke-miterlimit="10"/>
<path d="M193.56 504.97L226.8 552.99L263.34 539.08L322.41 474.77L253.39 520.19L215.83 527.35" stroke="#FDFCF8" stroke-miterlimit="10"/>
<path d="M175.27 400.49V411.19" stroke="#FDFCF8" stroke-miterlimit="10"/>
<path d="M175.27 400.48C178.854 400.48 181.76 397.574 181.76 393.99C181.76 390.406 178.854 387.5 175.27 387.5C171.685 387.5 168.78 390.406 168.78 393.99C168.78 397.574 171.685 400.48 175.27 400.48Z" stroke="#FDFCF8" stroke-miterlimit="10"/>
<path d="M157.55 400.49V411.19" stroke="#FDFCF8" stroke-miterlimit="10"/>
<path d="M157.55 400.48C161.134 400.48 164.04 397.574 164.04 393.99C164.04 390.406 161.134 387.5 157.55 387.5C153.966 387.5 151.06 390.406 151.06 393.99C151.06 397.574 153.966 400.48 157.55 400.48Z" stroke="#FDFCF8" stroke-miterlimit="10"/>
<path d="M192.99 400.46V411.19" stroke="#FDFCF8" stroke-miterlimit="10"/>
<path d="M192.99 400.48C196.574 400.48 199.48 397.574 199.48 393.99C199.48 390.406 196.574 387.5 192.99 387.5C189.406 387.5 186.5 390.406 186.5 393.99C186.5 397.574 189.406 400.48 192.99 400.48Z" stroke="#FDFCF8" stroke-miterlimit="10"/>
</g>
<g clip-path="url(#clip1_119_41)">
<path d="M360.29 101.61L387.47 113.61L392.41 133.36L378.51 164.87L333.31 194.71L365.37 162.29L363.47 158.73L334.26 145.86L358.09 91.84L361.53 93.36L360.29 101.61Z" fill="#FDFCF8"/>
<path d="M303.76 101.81L329.22 117.14L331.62 137.35L313.85 166.86L266.88 223.4L301.15 162.65L299.72 158.87L272.36 142.42L302.82 91.84L306.03 93.78L303.76 101.81Z" fill="#FDFCF8"/>
<path d="M198.95 102.39H229.39L241.16 118.47V152.91L281.3 244.24L228.1 155.86L224.93 153.36L193 153.38V94.34H196.75L198.95 102.39Z" fill="#FDFCF8"/>
<path d="M260.28 102.39H229.81L218.08 118.47V152.91L281.3 244.24L231.13 155.86L234.31 153.36L266.23 153.38V94.34H262.48L260.28 102.39Z" fill="#FDFCF8"/>
<path d="M248.06 196.22L281.3 244.24L317.84 230.33L376.91 166.02L307.89 211.44L270.33 218.6" fill="#FDFCF8"/>
<path d="M229.63 92.99V103.69" stroke="#FDFCF8" stroke-miterlimit="10"/>
<path d="M229.63 92.98C233.214 92.98 236.12 90.0743 236.12 86.49C236.12 82.9057 233.214 80 229.63 80C226.046 80 223.14 82.9057 223.14 86.49C223.14 90.0743 226.046 92.98 229.63 92.98Z" fill="#FDFCF8"/>
<path d="M211.92 92.99V103.69" stroke="#FDFCF8" stroke-miterlimit="10"/>
<path d="M211.92 92.98C215.505 92.98 218.41 90.0743 218.41 86.49C218.41 82.9057 215.505 80 211.92 80C208.336 80 205.43 82.9057 205.43 86.49C205.43 90.0743 208.336 92.98 211.92 92.98Z" fill="#FDFCF8"/>
<path d="M247.35 92.96V103.69" stroke="#FDFCF8" stroke-miterlimit="10"/>
<path d="M247.35 92.98C250.934 92.98 253.84 90.0743 253.84 86.49C253.84 82.9057 250.934 80 247.35 80C243.766 80 240.86 82.9057 240.86 86.49C240.86 90.0743 243.766 92.98 247.35 92.98Z" fill="#FDFCF8"/>
</g>
<g clip-path="url(#clip2_119_41)">
<path d="M372.79 670.45L399.97 682.45L404.91 702.2L391.01 733.71L345.81 763.56L377.87 731.13L375.97 727.57L346.76 714.7L370.59 660.69L374.03 662.2L372.79 670.45Z" stroke="#FDFCF8" stroke-miterlimit="10"/>
<path d="M316.26 670.65L341.72 685.98L344.12 706.2L326.35 735.7L279.38 792.24L313.65 731.49L312.22 727.72L284.86 711.26L315.32 660.69L318.53 662.62L316.26 670.65Z" stroke="#FDFCF8" stroke-miterlimit="10"/>
<path d="M211.45 671.23H241.89L253.66 687.31V721.75L293.8 813.09L240.6 724.7L237.43 722.2L205.5 722.23V663.19H209.25L211.45 671.23Z" stroke="#FDFCF8" stroke-miterlimit="10"/>
<path d="M272.78 671.23H242.31L230.58 687.31V721.75L293.8 813.09L243.63 724.7L246.81 722.2L278.73 722.23V663.19H274.98L272.78 671.23Z" stroke="#FDFCF8" stroke-miterlimit="10"/>
<path d="M260.56 765.06L293.8 813.09L330.34 799.17L389.41 734.86L320.39 780.28L282.83 787.44" stroke="#FDFCF8" stroke-miterlimit="10"/>
</g>
<rect x="40" y="4" width="29.106" height="30" rx="3" fill="black"/>
<rect x="40.5" y="4.5" width="28.106" height="29" rx="2.5" stroke="black" stroke-opacity="0.2"/>
<path d="M47.4375 24.25C47.2813 24.25 47.1419 24.237 47.0195 24.2109C46.8971 24.1875 46.8125 24.1641 46.7656 24.1406L47 23.3281C47.224 23.3854 47.4219 23.4063 47.5938 23.3906C47.7656 23.375 47.918 23.2982 48.0508 23.1602C48.1862 23.0247 48.3099 22.8047 48.4219 22.5L48.5938 22.0313L46.375 16H47.375L49.0313 20.7812H49.0938L50.75 16H51.75L49.2031 22.875C49.0885 23.1849 48.9466 23.4414 48.7773 23.6445C48.6081 23.8503 48.4115 24.0026 48.1875 24.1016C47.9661 24.2005 47.7161 24.25 47.4375 24.25Z" fill="white"/>
<defs>
<clipPath id="clip0_119_41">
<rect width="200.44" height="166.6" fill="white" transform="translate(138 387)"/>
</clipPath>
<clipPath id="clip1_119_41">
<rect width="199.41" height="164.24" fill="white" transform="translate(193 80)"/>
</clipPath>
<clipPath id="clip2_119_41">
<rect width="200.44" height="153.69" fill="white" transform="translate(205 660)"/>
</clipPath>
</defs>
</svg>
