<?xml version="1.0" encoding="UTF-8"?>
<svg id="Layer_4" data-name="Layer 4" xmlns="http://www.w3.org/2000/svg" viewBox="0 0 595.28 841.89">
  <defs>
    <style>
      .cls-1 {
        fill: none;
        stroke: #000;
        stroke-miterlimit: 10;
      }
    </style>
  </defs>
  <g>
    <polygon points="283.1 136.5 312.81 136.5 325.3 152.58 325.3 187.02 349.72 269.99 312.24 189.97 309.07 187.47 277.14 187.5 277.14 128.46 280.9 128.46 283.1 136.5"/>
    <polygon points="342.42 136.5 312.71 136.5 300.22 152.58 300.22 187.02 349.71 271.3 313.28 189.97 316.45 187.47 348.38 187.5 348.38 128.46 344.62 128.46 342.42 136.5"/>
    <polygon points="281.48 294.35 349.51 293.1 349.66 276.89 349.96 244.94 313.6 148 311.26 241.24 308.06 243.69 276.13 243.29 275.43 302.33 279.19 302.37 281.48 294.35"/>
  </g>
  <g>
    <polygon class="cls-1" points="283.1 466.66 312.81 466.66 325.3 482.74 325.3 517.18 349.72 600.15 312.24 520.13 309.07 517.64 277.14 517.66 277.14 458.62 280.9 458.62 283.1 466.66"/>
    <polygon class="cls-1" points="342.42 466.66 312.71 466.66 300.22 482.74 300.22 517.18 349.71 601.46 313.28 520.13 316.45 517.64 348.38 517.66 348.38 458.62 344.62 458.62 342.42 466.66"/>
    <polygon class="cls-1" points="281.48 624.51 349.51 623.26 349.66 607.05 349.96 575.11 313.6 478.16 311.26 571.4 308.06 573.85 276.13 573.45 275.43 632.49 279.19 632.53 281.48 624.51"/>
  </g>
</svg>