<?xml version="1.0" encoding="UTF-8"?>
<svg id="Layer_4" data-name="Layer 4" xmlns="http://www.w3.org/2000/svg" viewBox="0 0 595.28 841.89">
  <defs>
    <style>
      .cls-1 {
        fill: none;
        stroke: #000;
        stroke-miterlimit: 10;
      }
    </style>
  </defs>
  <g>
    <polygon points="309.91 177.89 341.58 164.06 365.88 171.42 377.65 203.78 343.49 318.99 359.31 214.5 355.48 213.24 321.74 227.85 301.57 172.36 305.09 171.08 309.91 177.89"/>
    <g>
      <polygon points="220.32 164.96 250.04 164.96 262.53 181.04 262.53 215.48 250.52 318.99 249.47 218.43 246.3 215.93 214.37 215.95 214.37 156.91 218.12 156.91 220.32 164.96"/>
      <polygon points="280.65 164.96 250.94 164.96 238.45 181.04 238.45 215.48 250.23 318.99 251.5 218.43 254.68 215.93 286.6 215.95 286.6 156.91 282.85 156.91 280.65 164.96"/>
    </g>
    <polygon points="256.41 267.12 351.35 267.12 343.49 318.99 250.23 318.99 256.41 267.12"/>
  </g>
  <g>
    <polygon class="cls-1" points="300.5 510.82 332.17 496.99 356.47 504.35 368.24 536.71 334.09 651.92 349.91 547.43 346.07 546.17 312.33 560.78 292.16 505.3 295.69 504.01 300.5 510.82"/>
    <g>
      <polygon class="cls-1" points="210.92 497.89 240.63 497.89 253.12 513.97 253.12 548.41 241.12 651.92 240.06 551.36 236.89 548.86 204.96 548.88 204.96 489.84 208.72 489.84 210.92 497.89"/>
      <polygon class="cls-1" points="271.24 497.89 241.53 497.89 229.04 513.97 229.04 548.41 240.83 651.92 242.1 551.36 245.27 548.86 277.2 548.88 277.2 489.84 273.44 489.84 271.24 497.89"/>
    </g>
    <polygon class="cls-1" points="247 600.05 341.94 600.05 334.09 651.92 240.83 651.92 247 600.05"/>
  </g>
</svg>