<?xml version="1.0" encoding="UTF-8"?>
<svg id="Layer_4" data-name="Layer 4" xmlns="http://www.w3.org/2000/svg" viewBox="0 0 595.28 841.89">
  <defs>
    <style>
      .cls-1 {
        fill: none;
        stroke: #000;
        stroke-miterlimit: 10;
      }
    </style>
  </defs>
  <g>
    <g>
      <polygon points="231.36 174.48 261.29 174.48 273.56 190.56 273.56 225 261.54 326.51 260.5 227.95 257.33 225.45 225.4 225.47 225.4 166.43 229.16 166.43 231.36 174.48"/>
      <polygon points="291.68 174.48 261.75 174.48 249.48 190.56 249.48 225 261.54 326.51 262.54 227.95 265.71 225.45 297.64 225.47 297.64 166.43 293.88 166.43 291.68 174.48"/>
    </g>
    <g>
      <polygon points="303.59 174.48 333.52 174.48 345.79 190.56 345.79 225 333.77 326.51 332.74 227.95 329.56 225.45 297.64 225.47 297.64 166.43 301.39 166.43 303.59 174.48"/>
      <polygon points="363.92 174.48 333.98 174.48 321.72 190.56 321.72 225 333.77 326.51 334.77 227.95 337.95 225.45 369.87 225.47 369.87 166.43 366.12 166.43 363.92 174.48"/>
    </g>
  </g>
  <g>
    <g>
      <polygon class="cls-1" points="231.36 494.95 261.29 494.95 273.56 511.03 273.56 545.47 261.54 646.99 260.5 548.42 257.33 545.92 225.4 545.95 225.4 486.91 229.16 486.91 231.36 494.95"/>
      <polygon class="cls-1" points="291.68 494.95 261.75 494.95 249.48 511.03 249.48 545.47 261.54 646.99 262.54 548.42 265.71 545.92 297.64 545.95 297.64 486.91 293.88 486.91 291.68 494.95"/>
    </g>
    <g>
      <polygon class="cls-1" points="303.59 494.95 333.52 494.95 345.79 511.03 345.79 545.47 333.77 646.99 332.74 548.42 329.56 545.92 297.64 545.95 297.64 486.91 301.39 486.91 303.59 494.95"/>
      <polygon class="cls-1" points="363.92 494.95 333.98 494.95 321.72 511.03 321.72 545.47 333.77 646.99 334.77 548.42 337.95 545.92 369.87 545.95 369.87 486.91 366.12 486.91 363.92 494.95"/>
    </g>
  </g>
</svg>