<?xml version="1.0" encoding="UTF-8"?>
<svg id="Layer_4" data-name="Layer 4" xmlns="http://www.w3.org/2000/svg" viewBox="0 0 595.28 841.89">
  <defs>
    <style>
      .cls-1 {
        fill: none;
        stroke: #000;
        stroke-miterlimit: 10;
      }
    </style>
  </defs>
  <g>
    <polygon class="cls-1" points="226.73 507.05 255.76 513.38 264.53 531.75 257.19 565.4 225.11 656.87 243.8 565.5 241.23 562.38 210.04 555.6 222.63 497.91 226.29 498.71 226.73 507.05"/>
    <polygon class="cls-1" points="269.34 512.3 380.95 513.06 393.27 536.47 403.42 562.51 376.54 650.53 372.75 562.55 269.46 563.27 263.38 563.3 263.38 504.26 267.14 504.26 269.34 512.3"/>
    <polygon class="cls-1" points="386.12 647.77 386.12 618.06 370.05 605.57 359.59 606.67 263.38 618.5 332.66 618.62 335.15 621.8 335.13 653.72 394.17 653.72 394.17 649.97 386.12 647.77"/>
    <polygon class="cls-1" points="263.38 653.72 335.13 653.72 335.15 621.8 332.66 618.62 263.38 618.5 263.38 653.72"/>
  </g>
  <g>
    <polygon points="204.5 203.85 233.53 210.19 242.3 228.56 234.96 262.2 202.89 353.67 221.57 262.3 219 259.19 187.81 252.4 200.4 194.72 204.07 195.52 204.5 203.85"/>
    <polygon points="247.11 209.11 358.72 209.87 371.04 233.28 381.19 259.31 354.31 347.33 350.52 259.35 247.23 260.08 241.15 260.1 241.15 201.06 244.91 201.06 247.11 209.11"/>
    <polygon points="363.89 344.57 363.89 314.86 347.82 302.37 337.36 303.47 241.15 315.3 310.43 315.43 312.92 318.6 312.9 350.53 371.94 350.53 371.94 346.77 363.89 344.57"/>
    <polygon points="241.15 350.53 312.9 350.53 312.92 318.6 310.43 315.43 241.15 315.3 241.15 350.53"/>
  </g>
</svg>