<?xml version="1.0" encoding="UTF-8"?>
<svg id="Layer_4" data-name="Layer 4" xmlns="http://www.w3.org/2000/svg" viewBox="0 0 595.28 841.89">
  <defs>
    <style>
      .cls-1 {
        fill: none;
        stroke: #000;
        stroke-miterlimit: 10;
      }
    </style>
  </defs>
  <g>
    <polygon points="225.11 330.79 225.11 360.5 241.19 372.99 275.63 372.99 371.83 361.16 278.57 359.94 276.08 356.76 276.1 324.84 217.06 324.84 217.06 328.59 225.11 330.79"/>
    <polygon points="276.1 324.84 370.5 324.9 371.83 361.16 278.57 359.94 276.08 356.76 276.1 324.84"/>
    <g>
      <polygon points="238.74 222.94 376.2 223.7 388.52 247.11 398.68 273.15 371.8 361.16 368.01 273.18 264.71 273.91 232.79 273.94 232.79 214.9 236.54 214.9 238.74 222.94"/>
      <polygon points="202.55 127.47 232.26 127.47 244.75 143.55 244.75 177.99 232.92 274.2 231.7 180.94 228.52 178.45 196.6 178.47 196.6 119.43 200.35 119.43 202.55 127.47"/>
    </g>
  </g>
  <g>
    <polygon class="cls-1" points="221.92 606.27 221.92 635.98 238 648.47 272.44 648.47 368.64 636.64 275.38 635.42 272.89 632.24 272.91 600.32 213.87 600.32 213.87 604.07 221.92 606.27"/>
    <polygon class="cls-1" points="272.91 600.32 367.31 600.38 368.64 636.64 275.38 635.42 272.89 632.24 272.91 600.32"/>
    <g>
      <polygon class="cls-1" points="235.55 498.42 373.01 499.18 385.33 522.59 395.49 548.63 368.61 636.64 364.82 548.66 261.52 549.39 229.59 549.42 229.59 490.38 233.35 490.38 235.55 498.42"/>
      <polygon class="cls-1" points="199.36 402.95 229.07 402.95 241.56 419.03 241.56 453.47 229.73 549.67 228.51 456.42 225.33 453.92 193.41 453.95 193.41 394.91 197.16 394.91 199.36 402.95"/>
    </g>
  </g>
</svg>