<?xml version="1.0" encoding="UTF-8"?>
<svg id="Layer_4" data-name="Layer 4" xmlns="http://www.w3.org/2000/svg" viewBox="0 0 595.28 841.89">
  <defs>
    <style>
      .cls-1 {
        fill: none;
        stroke: #000;
        stroke-miterlimit: 10;
      }
    </style>
  </defs>
  <g>
    <polygon points="207.61 57.32 345.07 58.08 357.39 81.49 367.55 107.52 340.67 195.54 336.88 107.56 233.58 108.29 201.65 108.31 201.65 49.27 205.41 49.27 207.61 57.32"/>
    <polyline points="339.9 161.85 294.16 161.79 294.16 200.2 340.54 198.11"/>
    <polygon points="220.06 136.68 249.78 136.68 262.27 152.76 262.27 187.2 251.86 391.2 249.21 190.15 246.04 187.65 214.11 187.67 214.11 128.63 217.87 128.63 220.06 136.68"/>
  </g>
  <g>
    <polygon class="cls-1" points="217.17 451.75 354.63 452.51 366.95 475.92 377.11 501.95 350.23 589.97 346.44 501.99 243.14 502.72 211.22 502.74 211.22 443.7 214.97 443.7 217.17 451.75"/>
    <polyline class="cls-1" points="349.46 556.28 303.72 556.22 303.72 594.63 350.1 592.54"/>
    <polygon class="cls-1" points="229.63 531.11 259.34 531.11 271.83 547.19 271.83 581.63 261.42 785.63 258.77 584.58 255.6 582.08 223.67 582.1 223.67 523.06 227.43 523.06 229.63 531.11"/>
  </g>
</svg>