<?xml version="1.0" encoding="UTF-8"?>
<svg id="Layer_4" data-name="Layer 4" xmlns="http://www.w3.org/2000/svg" viewBox="0 0 595.28 841.89">
  <defs>
    <style>
      .cls-1 {
        fill: none;
        stroke: #000;
        stroke-miterlimit: 10;
      }
    </style>
  </defs>
  <g>
    <g>
      <polygon class="cls-1" points="225.07 426.51 356.56 426.51 369.05 442.59 348.27 479.14 345.04 584.61 330.03 476.93 251.04 477.49 219.12 477.51 219.12 418.47 222.87 418.47 225.07 426.51"/>
      <polygon class="cls-1" points="364.81 579.76 364.81 550.04 348.73 537.55 314.29 537.55 218.08 549.38 311.34 550.61 313.83 553.78 313.81 585.71 372.85 585.71 372.85 581.95 364.81 579.76"/>
    </g>
    <polygon class="cls-1" points="218.08 549.38 218.08 585.71 313.81 585.71 313.83 553.78 311.34 550.61 218.08 549.38"/>
  </g>
  <g>
    <g>
      <polygon points="225.07 170.77 356.56 170.77 369.05 186.85 348.27 223.4 345.04 328.87 330.03 221.19 251.04 221.74 219.12 221.77 219.12 162.73 222.87 162.73 225.07 170.77"/>
      <polygon points="364.81 324.01 364.81 294.3 348.73 281.81 314.29 281.81 218.08 293.64 311.34 294.87 313.83 298.04 313.81 329.97 372.85 329.97 372.85 326.21 364.81 324.01"/>
    </g>
    <polygon points="218.08 293.64 218.08 329.97 313.81 329.97 313.83 298.04 311.34 294.87 218.08 293.64"/>
  </g>
</svg>