<?xml version="1.0" encoding="UTF-8"?>
<svg id="Layer_3" data-name="Layer 3" xmlns="http://www.w3.org/2000/svg" viewBox="0 0 595.28 841.89">
  <defs>
    <style>
      .cls-1 {
        fill: none;
        stroke: #000;
        stroke-miterlimit: 10;
      }
    </style>
  </defs>
  <g>
    <g>
      <polygon points="310.46 157.79 340.18 157.79 352.66 173.86 352.66 208.3 304.51 237.73 339.61 211.25 336.44 208.76 304.51 208.78 304.51 149.74 308.26 149.74 310.46 157.79"/>
      <polygon points="370.79 157.79 341.08 157.79 328.59 173.86 328.59 208.3 304.51 237.73 341.64 211.25 344.82 208.76 376.74 208.78 376.74 149.74 372.99 149.74 370.79 157.79"/>
    </g>
    <g>
      <polygon points="218.75 157.79 248.47 157.79 260.95 173.86 260.95 208.3 351.17 290.73 247.9 211.25 244.73 208.76 212.8 208.78 212.8 149.74 216.55 149.74 218.75 157.79"/>
      <polygon points="280.08 157.79 250.37 157.79 237.88 173.86 237.88 208.3 351.61 291.51 250.93 211.25 254.11 208.76 286.03 208.78 286.03 149.74 282.28 149.74 280.08 157.79"/>
    </g>
    <polygon points="221.79 312.25 351.42 311.51 351.57 295.3 351.87 263.35 264.18 211.25 313.17 259.64 309.97 262.1 216.45 261.19 215.74 320.23 219.5 320.27 221.79 312.25"/>
  </g>
  <g>
    <g>
      <polygon class="cls-1" points="320.2 506.69 349.91 506.69 362.4 522.77 362.4 557.21 314.25 586.63 349.35 560.15 346.17 557.66 314.25 557.68 314.25 498.64 318 498.64 320.2 506.69"/>
      <polygon class="cls-1" points="380.53 506.69 350.81 506.69 338.33 522.77 338.33 557.21 314.25 586.63 351.38 560.15 354.55 557.66 386.48 557.68 386.48 498.64 382.73 498.64 380.53 506.69"/>
    </g>
    <g>
      <polygon class="cls-1" points="228.49 506.69 258.2 506.69 270.69 522.77 270.69 557.21 360.91 639.63 257.64 560.15 254.46 557.66 222.54 557.68 222.54 498.64 226.29 498.64 228.49 506.69"/>
      <polygon class="cls-1" points="289.82 506.69 260.1 506.69 247.62 522.77 247.62 557.21 361.35 640.41 260.67 560.15 263.84 557.66 295.77 557.68 295.77 498.64 292.02 498.64 289.82 506.69"/>
    </g>
    <polygon class="cls-1" points="231.53 661.15 361.16 660.41 361.31 644.2 361.61 612.26 273.92 560.15 322.91 608.55 319.71 611 226.18 610.09 225.48 669.13 229.24 669.17 231.53 661.15"/>
  </g>
</svg>