<?xml version="1.0" encoding="UTF-8"?>
<svg id="Layer_4" data-name="Layer 4" xmlns="http://www.w3.org/2000/svg" viewBox="0 0 595.28 841.89">
  <defs>
    <style>
      .cls-1 {
        fill: none;
        stroke: #000;
        stroke-miterlimit: 10;
      }
    </style>
  </defs>
  <g>
    <polygon points="280.15 301.28 250.44 301.28 237.95 285.21 237.95 250.77 264.62 205.04 251 247.82 254.18 250.31 286.11 250.29 286.11 309.33 282.35 309.33 280.15 301.28"/>
    <polygon points="234.25 333.67 234.25 363.38 250.33 375.87 284.77 375.87 366.97 364.05 287.72 362.82 285.22 359.64 285.24 327.72 226.2 327.72 226.2 331.47 234.25 333.67"/>
    <polygon points="243.9 173.71 375.4 173.71 387.89 189.78 367.1 226.33 366.97 364.05 348.87 224.12 269.88 224.68 237.95 224.7 237.95 165.66 241.7 165.66 243.9 173.71"/>
    <polygon points="285.24 327.72 362.28 327.77 366.97 364.05 287.72 362.82 285.22 359.64 285.24 327.72"/>
  </g>
  <g>
    <polygon class="cls-1" points="280.92 596.96 251.2 596.96 238.71 580.89 238.71 546.44 265.39 500.72 251.77 543.5 254.94 545.99 286.87 545.97 286.87 605.01 283.12 605.01 280.92 596.96"/>
    <polygon class="cls-1" points="235.02 629.35 235.02 659.06 251.09 671.55 285.53 671.55 367.74 659.72 288.48 658.5 285.99 655.32 286.01 623.4 226.97 623.4 226.97 627.15 235.02 629.35"/>
    <polygon class="cls-1" points="244.67 469.39 376.16 469.39 388.65 485.46 367.87 522.01 367.74 659.72 349.63 519.8 270.64 520.36 238.71 520.38 238.71 461.34 242.47 461.34 244.67 469.39"/>
    <polygon class="cls-1" points="286.01 623.4 363.04 623.45 367.74 659.72 288.48 658.5 285.99 655.32 286.01 623.4"/>
  </g>
</svg>