<?xml version="1.0" encoding="UTF-8"?>
<svg id="Layer_4" data-name="Layer 4" xmlns="http://www.w3.org/2000/svg" viewBox="0 0 595.28 841.89">
  <defs>
    <style>
      .cls-1 {
        fill: none;
        stroke: #000;
        stroke-miterlimit: 10;
      }
    </style>
  </defs>
  <g>
    <polygon points="218.94 197.43 356.4 198.19 368.73 221.6 378.88 247.63 351.87 338.22 348.21 247.67 244.91 248.4 212.99 248.42 212.99 189.38 216.74 189.38 218.94 197.43"/>
    <polygon points="205.15 307.85 205.15 337.56 221.23 350.05 255.67 350.05 351.87 338.22 258.62 337 256.12 333.82 256.15 301.9 197.11 301.9 197.11 305.65 205.15 307.85"/>
    <polygon points="256.15 301.9 350.55 301.96 351.87 338.22 258.62 337 256.12 333.82 256.15 301.9"/>
  </g>
  <g>
    <polygon class="cls-1" points="218.94 514.53 356.4 515.29 368.73 538.7 378.88 564.74 351.87 655.33 348.21 564.77 244.91 565.5 212.99 565.52 212.99 506.48 216.74 506.48 218.94 514.53"/>
    <polygon class="cls-1" points="205.15 624.95 205.15 654.67 221.23 667.16 255.67 667.16 351.87 655.33 258.62 654.1 256.12 650.93 256.15 619 197.11 619 197.11 622.76 205.15 624.95"/>
    <polygon class="cls-1" points="256.15 619 350.55 619.06 351.87 655.33 258.62 654.1 256.12 650.93 256.15 619"/>
  </g>
</svg>