<?xml version="1.0" encoding="UTF-8"?>
<svg id="Layer_4" data-name="Layer 4" xmlns="http://www.w3.org/2000/svg" viewBox="0 0 595.28 841.89">
  <defs>
    <style>
      .cls-1 {
        fill: none;
        stroke: #000;
        stroke-miterlimit: 10;
      }
    </style>
  </defs>
  <g>
    <polygon points="362.12 111.8 389.31 123.8 394.24 143.55 380.34 175.06 335.14 204.91 367.2 172.48 365.31 168.92 336.09 156.05 359.92 102.04 363.36 103.55 362.12 111.8"/>
    <polygon points="305.6 112 331.05 127.33 333.45 147.55 315.68 177.05 268.71 233.59 302.98 172.84 301.55 169.06 274.19 152.61 304.65 102.04 307.86 103.97 305.6 112"/>
    <g>
      <polygon points="200.79 112.58 231.22 112.58 242.99 128.66 242.99 163.1 283.14 254.44 229.93 166.05 226.76 163.55 194.83 163.58 194.83 104.53 198.59 104.53 200.79 112.58"/>
      <polygon points="262.11 112.58 231.64 112.58 219.91 128.66 219.91 163.1 283.14 254.44 232.97 166.05 236.14 163.55 268.07 163.58 268.07 104.53 264.31 104.53 262.11 112.58"/>
    </g>
    <polyline points="249.89 206.41 283.14 254.44 319.68 240.52 378.74 176.21 309.73 221.63 272.16 228.79"/>
  </g>
  <g>
    <polygon class="cls-1" points="381.9 508.51 409.09 520.51 414.02 540.26 400.12 571.77 354.92 601.61 386.98 569.19 385.09 565.63 355.87 552.76 379.71 498.74 383.14 500.26 381.9 508.51"/>
    <polygon class="cls-1" points="325.38 508.71 350.83 524.04 353.23 544.26 335.46 573.76 288.49 630.3 322.76 569.55 321.33 565.77 293.97 549.32 324.43 498.74 327.65 500.68 325.38 508.71"/>
    <g>
      <polygon class="cls-1" points="220.57 509.29 251 509.29 262.77 525.37 262.77 559.81 302.92 651.14 249.71 562.76 246.54 560.26 214.61 560.28 214.61 501.24 218.37 501.24 220.57 509.29"/>
      <polygon class="cls-1" points="281.89 509.29 251.42 509.29 239.69 525.37 239.69 559.81 302.92 651.14 252.75 562.76 255.92 560.26 287.85 560.28 287.85 501.24 284.09 501.24 281.89 509.29"/>
    </g>
    <polyline class="cls-1" points="269.67 603.12 302.92 651.14 339.46 637.23 398.52 572.92 329.51 618.34 291.94 625.5"/>
  </g>
</svg>