<?xml version="1.0" encoding="UTF-8"?>
<svg id="Layer_4" data-name="Layer 4" xmlns="http://www.w3.org/2000/svg" viewBox="0 0 595.28 841.89">
  <defs>
    <style>
      .cls-1 {
        fill: none;
        stroke: #000;
        stroke-miterlimit: 10;
      }
    </style>
  </defs>
  <g>
    <polygon points="254.05 121.66 385.55 121.66 398.04 137.74 377.25 174.29 374.65 279.76 359.02 172.08 280.02 172.64 248.1 172.66 248.1 113.62 251.85 113.62 254.05 121.66"/>
    <polygon points="368.7 276.26 237.2 276.26 224.72 260.18 245.5 223.63 248.1 118.16 263.74 225.85 342.73 225.29 374.65 225.27 374.65 284.31 370.9 284.31 368.7 276.26"/>
  </g>
  <g>
    <polygon class="cls-1" points="254.05 520.43 385.55 520.43 398.04 536.51 377.25 573.06 374.65 678.53 359.02 570.84 280.02 571.4 248.1 571.42 248.1 512.38 251.85 512.38 254.05 520.43"/>
    <polygon class="cls-1" points="368.7 675.03 237.2 675.03 224.72 658.95 245.5 622.4 248.1 516.93 263.74 624.61 342.73 624.06 374.65 624.03 374.65 683.07 370.9 683.07 368.7 675.03"/>
  </g>
</svg>