<?xml version="1.0" encoding="UTF-8"?>
<svg id="Layer_4" data-name="Layer 4" xmlns="http://www.w3.org/2000/svg" viewBox="0 0 595.28 841.89">
  <defs>
    <style>
      .cls-1 {
        fill: none;
        stroke: #000;
        stroke-miterlimit: 10;
      }
    </style>
  </defs>
  <g id="Generative_Object_0_0_" data-name="Generative Object (0, 0)">
    <polygon points="261.09 352.15 232.14 345.44 223.61 326.96 231.38 293.41 267.69 254.89 244.76 293.49 247.29 296.63 278.4 303.82 265.07 361.33 261.41 360.49 261.09 352.15"/>
    <polygon points="337.87 185.61 360.27 205.13 359.13 225.46 336.5 251.43 286.35 268.37 324.72 245.07 323.97 241.11 299.88 220.15 338.67 175.64 341.5 178.1 337.87 185.61"/>
    <polygon points="355.46 347.59 216.3 233.77 211.91 179.28 354.73 296.76 355.46 347.59"/>
  </g>
  <g id="Generative_Object_0_0_-2" data-name="Generative Object (0, 0)">
    <polygon class="cls-1" points="261.09 613.15 232.14 606.44 223.61 587.96 231.38 554.4 267.69 515.88 244.76 554.48 247.29 557.63 278.4 564.81 265.07 622.33 261.41 621.48 261.09 613.15"/>
    <polygon class="cls-1" points="337.87 446.61 360.27 466.13 359.13 486.45 336.5 512.42 286.35 529.37 324.72 506.07 323.97 502.1 299.88 481.14 338.67 436.63 341.5 439.1 337.87 446.61"/>
    <polygon class="cls-1" points="355.46 608.58 216.3 494.76 211.91 440.27 354.73 557.75 355.46 608.58"/>
  </g>
</svg>