<?xml version="1.0" encoding="UTF-8"?>
<svg id="Layer_4" data-name="Layer 4" xmlns="http://www.w3.org/2000/svg" viewBox="0 0 595.28 841.89">
  <defs>
    <style>
      .cls-1 {
        fill: none;
        stroke: #000;
        stroke-miterlimit: 10;
      }
    </style>
  </defs>
  <g>
    <polygon points="237.81 119.51 369.3 119.51 381.79 135.59 361.01 172.14 357.78 277.61 342.77 169.93 263.78 170.48 231.86 170.51 231.86 111.47 235.61 111.47 237.81 119.51"/>
    <polygon points="144.27 276.99 275.77 276.99 288.26 260.98 267.47 224.57 264.25 119.52 249.24 226.78 170.25 226.22 138.32 226.2 138.32 285.01 142.07 285.01 144.27 276.99"/>
  </g>
  <g>
    <polygon class="cls-1" points="275.39 522.89 406.89 522.89 419.37 538.97 398.59 575.52 395.36 680.99 380.35 573.31 301.36 573.86 269.44 573.88 269.44 514.84 273.19 514.84 275.39 522.89"/>
    <polygon class="cls-1" points="181.85 680.37 313.35 680.37 325.84 664.36 305.05 627.95 301.83 522.9 286.82 630.16 207.83 629.6 175.9 629.58 175.9 688.38 179.66 688.38 181.85 680.37"/>
  </g>
</svg>