<?xml version="1.0" encoding="UTF-8"?>
<svg id="Layer_4" data-name="Layer 4" xmlns="http://www.w3.org/2000/svg" viewBox="0 0 595.28 841.89">
  <defs>
    <style>
      .cls-1 {
        fill: none;
        stroke: #000;
        stroke-miterlimit: 10;
      }
    </style>
  </defs>
  <g>
    <polygon points="230.12 171.45 361.62 171.45 374.11 187.53 353.32 224.08 350.1 329.55 335.09 221.86 256.1 222.42 224.17 222.44 224.17 163.4 227.92 163.4 230.12 171.45"/>
    <polygon points="263.37 329.43 233.66 329.43 221.17 313.36 221.17 278.92 247.84 233.19 234.22 275.97 237.4 278.46 269.32 278.44 269.32 337.48 265.57 337.48 263.37 329.43"/>
  </g>
  <g>
    <polygon class="cls-1" points="231.62 438.83 363.12 438.83 375.61 454.9 354.82 491.45 351.6 596.92 336.59 489.24 257.6 489.8 225.67 489.82 225.67 430.78 229.42 430.78 231.62 438.83"/>
    <polygon class="cls-1" points="264.87 596.81 235.16 596.81 222.67 580.73 222.67 546.29 249.34 500.57 235.72 543.35 238.9 545.84 270.82 545.82 270.82 604.86 267.07 604.86 264.87 596.81"/>
  </g>
</svg>