<?xml version="1.0" encoding="UTF-8"?>
<svg id="Layer_4" data-name="Layer 4" xmlns="http://www.w3.org/2000/svg" viewBox="0 0 595.28 841.89">
  <defs>
    <style>
      .cls-1 {
        fill: none;
        stroke: #000;
        stroke-miterlimit: 10;
      }
    </style>
  </defs>
  <g>
    <g>
      <polygon points="235.1 117.09 265.06 117.09 277.3 133.17 277.3 167.61 261.55 367.56 264.24 170.55 261.07 168.06 229.14 168.08 229.14 109.04 232.9 109.04 235.1 117.09"/>
      <polygon points="295.42 117.09 265.53 117.09 253.22 133.17 253.22 167.61 261.61 369.06 266.28 170.55 269.45 168.06 301.38 168.08 301.38 109.04 297.62 109.04 295.42 117.09"/>
    </g>
    <polyline points="273.46 216.39 355.33 170.55 352.15 168.06 320.23 168.08 320.23 109.04 323.98 109.04 326.18 117.09 356.55 117.09 368.38 133.17 368.38 167.61 273.19 216.98"/>
    <polyline points="273.43 216.7 358.36 170.55 361.53 168.06 393.46 168.08 393.46 109.04 389.71 109.04 387.51 117.09 357.03 117.09 345.31 133.17 345.31 167.61 273.43 216.7"/>
    <polyline points="271.91 236 368.38 167.61 273.43 216.7"/>
  </g>
  <g>
    <g>
      <polygon class="cls-1" points="244.58 487.44 274.55 487.44 286.79 503.52 286.79 537.96 271.03 737.91 273.73 540.91 270.56 538.41 238.63 538.43 238.63 479.39 242.38 479.39 244.58 487.44"/>
      <polygon class="cls-1" points="304.91 487.44 275.01 487.44 262.71 503.52 262.71 537.96 271.1 739.41 275.76 540.91 278.94 538.41 310.86 538.43 310.86 479.39 307.11 479.39 304.91 487.44"/>
    </g>
    <polyline class="cls-1" points="282.94 586.74 364.81 540.91 361.64 538.41 329.71 538.43 329.71 479.39 333.47 479.39 335.67 487.44 366.04 487.44 377.87 503.52 377.87 537.96 282.68 587.33"/>
    <polyline class="cls-1" points="282.92 587.05 367.85 540.91 371.02 538.41 402.95 538.43 402.95 479.39 399.19 479.39 396.99 487.44 366.51 487.44 354.79 503.52 354.79 537.96 282.92 587.05"/>
    <polyline class="cls-1" points="281.4 606.35 377.87 537.96 282.92 587.05"/>
  </g>
</svg>