<?xml version="1.0" encoding="UTF-8"?>
<svg id="Layer_4" data-name="Layer 4" xmlns="http://www.w3.org/2000/svg" viewBox="0 0 595.28 841.89">
  <defs>
    <style>
      .cls-1 {
        fill: none;
        stroke: #000;
        stroke-miterlimit: 10;
      }
    </style>
  </defs>
  <g>
    <polygon points="257.83 174.48 287.76 174.48 300.03 190.56 300.03 225 288.01 326.51 286.98 227.95 283.8 225.45 251.88 225.47 251.88 166.43 255.63 166.43 257.83 174.48"/>
    <polygon points="318.16 174.48 288.22 174.48 275.95 190.56 275.95 225 288.01 326.51 289.01 227.95 292.18 225.45 324.11 225.47 324.11 166.43 320.36 166.43 318.16 174.48"/>
  </g>
  <g>
    <polygon class="cls-1" points="257.83 499.98 287.76 499.98 300.03 516.06 300.03 550.5 288.01 652.01 286.98 553.45 283.8 550.95 251.88 550.97 251.88 491.93 255.63 491.93 257.83 499.98"/>
    <polygon class="cls-1" points="318.16 499.98 288.22 499.98 275.95 516.06 275.95 550.5 288.01 652.01 289.01 553.45 292.18 550.95 324.11 550.97 324.11 491.93 320.36 491.93 318.16 499.98"/>
  </g>
</svg>