<?xml version="1.0" encoding="UTF-8"?>
<svg id="Layer_4" data-name="Layer 4" xmlns="http://www.w3.org/2000/svg" viewBox="0 0 595.28 841.89">
  <defs>
    <style>
      .cls-1 {
        fill: none;
        stroke: #000;
        stroke-miterlimit: 10;
      }
    </style>
  </defs>
  <g>
    <g>
      <polygon points="222.03 162.62 370.15 163.44 382.47 186.85 392.62 212.88 365.62 303.47 361.95 212.92 258.66 213.65 217.53 213.68 222.03 162.62"/>
      <polygon points="217.53 274.53 219.28 302.81 235.32 315.3 269.67 315.3 365.62 303.47 272.61 302.25 270.12 299.07 270.14 267.15 217.3 265.67 217.3 269.8 217.53 274.53"/>
      <polygon points="269.89 267.15 364.29 267.21 365.62 303.47 272.36 302.25 269.87 299.07 269.89 267.15"/>
    </g>
    <polygon points="215.14 162.68 202.65 178.75 202.65 213.19 219.28 302.81 215.71 216.14 218.88 213.65 250.81 213.67 251.09 162.78 215.14 162.68"/>
  </g>
  <g>
    <g>
      <polygon class="cls-1" points="202.24 501.05 350.36 501.87 362.68 525.28 372.83 551.31 345.83 641.9 342.16 551.35 238.87 552.08 197.74 552.11 202.24 501.05"/>
      <polygon class="cls-1" points="197.74 612.96 199.49 641.24 215.53 653.73 249.88 653.73 345.83 641.9 252.82 640.68 250.33 637.5 250.35 605.58 197.51 604.1 197.51 608.23 197.74 612.96"/>
      <polygon class="cls-1" points="250.1 605.58 344.5 605.64 345.83 641.9 252.57 640.68 250.08 637.5 250.1 605.58"/>
    </g>
    <polygon class="cls-1" points="195.35 501.11 182.86 517.18 182.86 551.63 199.49 641.24 195.92 554.57 199.09 552.08 231.02 552.1 231.3 501.21 195.35 501.11"/>
  </g>
</svg>