<?xml version="1.0" encoding="UTF-8"?>
<svg id="Layer_4" data-name="Layer 4" xmlns="http://www.w3.org/2000/svg" viewBox="0 0 595.28 841.89">
  <defs>
    <style>
      .cls-1 {
        fill: none;
        stroke: #000;
        stroke-miterlimit: 10;
      }
    </style>
  </defs>
  <g>
    <polygon points="191.08 84.52 328.54 85.28 340.86 108.69 351.02 134.72 321.91 356.93 320.34 134.76 217.05 135.49 185.12 135.51 185.12 76.47 188.88 76.47 191.08 84.52"/>
    <polygon points="227.56 225.1 197.85 225.1 185.36 209.02 185.36 174.58 212.04 128.86 198.42 171.64 201.59 174.13 233.52 174.11 233.52 233.15 229.76 233.15 227.56 225.1"/>
  </g>
  <g>
    <polygon class="cls-1" points="171.5 487.44 308.96 488.2 321.29 511.61 331.44 537.64 302.34 759.85 300.77 537.68 197.48 538.41 165.55 538.43 165.55 479.39 169.3 479.39 171.5 487.44"/>
    <polygon class="cls-1" points="207.99 628.02 178.28 628.02 165.79 611.94 165.79 577.5 192.46 531.78 178.84 574.56 182.02 577.05 213.94 577.03 213.94 636.07 210.19 636.07 207.99 628.02"/>
  </g>
</svg>