<?xml version="1.0" encoding="UTF-8"?>
<svg id="Layer_4" data-name="Layer 4" xmlns="http://www.w3.org/2000/svg" viewBox="0 0 595.28 841.89">
  <defs>
    <style>
      .cls-1 {
        fill: none;
        stroke: #000;
        stroke-miterlimit: 10;
      }
    </style>
  </defs>
  <g>
    <g>
      <polygon points="247.62 176.31 278.12 176.31 289.83 192.39 289.83 226.83 308.87 301.75 276.77 229.77 273.6 227.28 241.67 227.3 241.67 168.26 245.43 168.26 247.62 176.31"/>
      <polygon points="308.95 176.31 278.49 176.31 266.75 192.39 266.75 226.83 308.87 301.75 279.8 229.77 282.98 227.28 314.9 227.3 314.9 168.26 311.15 168.26 308.95 176.31"/>
    </g>
    <polygon points="357.94 175.1 386.34 183.85 393.54 202.89 383.4 235.8 334.58 315.12 370.06 234.78 367.76 231.46 337.24 222.08 354.62 165.66 358.2 166.76 357.94 175.1"/>
    <polyline points="350.93 278.1 229.04 317.59 229.04 365.68 334.58 315.12"/>
  </g>
  <g>
    <g>
      <polygon class="cls-1" points="233.97 482.12 264.47 482.12 276.18 498.19 276.18 532.64 295.22 607.56 263.12 535.58 259.95 533.09 228.02 533.11 228.02 474.07 231.77 474.07 233.97 482.12"/>
      <polygon class="cls-1" points="295.3 482.12 264.84 482.12 253.1 498.19 253.1 532.64 295.22 607.56 266.15 535.58 269.33 533.09 301.25 533.11 301.25 474.07 297.5 474.07 295.3 482.12"/>
    </g>
    <polygon class="cls-1" points="344.29 480.91 372.68 489.66 379.89 508.7 369.75 541.61 320.93 620.93 356.41 540.59 354.11 537.27 323.59 527.89 340.97 471.47 344.55 472.57 344.29 480.91"/>
    <polyline class="cls-1" points="337.28 583.91 215.39 623.39 215.39 671.49 320.93 620.93"/>
  </g>
</svg>