<?xml version="1.0" encoding="UTF-8"?>
<svg id="Layer_4" data-name="Layer 4" xmlns="http://www.w3.org/2000/svg" viewBox="0 0 595.28 841.89">
  <defs>
    <style>
      .cls-1 {
        fill: none;
        stroke: #000;
        stroke-miterlimit: 10;
      }
    </style>
  </defs>
  <g>
    <polygon points="218.3 318.27 218.3 288.55 234.37 279.31 268.82 279.31 314.54 302.74 271.76 289.12 269.27 292.29 269.29 324.22 210.25 324.22 210.25 320.47 218.3 318.27"/>
    <g>
      <polygon points="238.61 175.42 269.26 175.42 280.81 191.5 280.81 225.94 324.91 324.22 267.76 228.88 264.58 226.39 232.66 226.41 232.66 167.37 236.41 167.37 238.61 175.42"/>
      <polygon points="299.94 175.42 269.58 175.42 257.74 191.5 257.74 225.94 324.91 324.22 270.79 228.88 273.97 226.39 305.89 226.41 305.89 167.37 302.14 167.37 299.94 175.42"/>
    </g>
  </g>
  <g>
    <polygon class="cls-1" points="218.3 574.01 218.3 544.3 234.37 535.05 268.82 535.05 314.54 558.48 271.76 544.86 269.27 548.04 269.29 579.96 210.25 579.96 210.25 576.21 218.3 574.01"/>
    <g>
      <polygon class="cls-1" points="238.61 431.16 269.26 431.16 280.81 447.24 280.81 481.68 324.91 579.96 267.76 484.63 264.58 482.13 232.66 482.15 232.66 423.11 236.41 423.11 238.61 431.16"/>
      <polygon class="cls-1" points="299.94 431.16 269.58 431.16 257.74 447.24 257.74 481.68 324.91 579.96 270.79 484.63 273.97 482.13 305.89 482.15 305.89 423.11 302.14 423.11 299.94 431.16"/>
    </g>
  </g>
</svg>