<svg preserveAspectRatio="none" width="100%" height="100%" overflow="visible" style="display: block;" viewBox="0 0 557.568 474.227" fill="none" xmlns="http://www.w3.org/2000/svg">
<path id="Vector" d="M63.9279 280.768L64.0704 281.027L73.4093 298.016H115.64C135.218 298.016 149.381 301.54 158.644 309.894C167.919 318.259 172.17 331.366 172.17 350.257C172.17 390.332 157.187 432.106 133.875 468.384L133.728 468.613H125.346L125.498 467.994C134.691 430.631 140.138 396.76 140.138 380.439C140.138 367.404 137.557 359.344 131.317 354.496C125.035 349.616 114.922 347.883 99.5489 347.883H82.5216V362.905C82.5215 425.753 49.6419 466.841 1.63586 473.495L0.783323 473.613L1.10364 472.814L22.3663 419.636L22.4562 419.409L22.6905 419.341C31.5942 416.755 38.5252 414.532 43.9161 412.377C49.3098 410.22 53.1328 408.142 55.839 405.856C61.1932 401.335 62.2697 395.927 62.2697 387.051C62.2696 377.395 60.8591 364.341 54.9464 347.883H34.1837L34.4288 347.211L58.5646 281.097L58.6847 280.768H63.9279ZM211.363 291.403L211.506 291.531C219.734 298.896 225.388 306.212 228.98 314.596C232.57 322.977 234.084 332.391 234.084 343.933C234.084 360.253 229.468 381.011 222.098 402.842C214.725 424.681 204.585 447.63 193.511 468.349L193.369 468.613H183.504L183.681 467.979C188.133 452.031 192.584 434.651 195.921 418.819C199.261 402.977 201.478 388.72 201.478 379.002C201.478 371.568 200.62 365.453 198.386 359.672C196.152 353.889 192.529 348.407 186.953 342.257L186.749 342.032L186.854 341.748L205.243 291.731L205.363 291.403H211.363ZM289.579 285.009L311.978 317.472L349.166 361.543H350.95C357.709 350.464 361.364 337.998 361.364 325.823C361.364 314.995 358.23 304.167 352.251 295.053L352.016 294.693L352.335 294.406L355.208 291.819L355.363 291.68L355.571 291.692C370.567 292.558 381.739 296.095 389.174 301.673C396.628 307.266 400.292 314.889 400.292 323.812C400.292 344.671 383.611 358.818 358.643 370.554C366.467 379.79 372.186 386.894 375.956 394.188C379.805 401.634 381.615 409.26 381.615 419.533C381.615 438.422 370.867 456.099 352.083 468.53L351.957 468.613H343.899L344.156 467.936C346.438 461.944 347.571 457.98 347.571 449.429C347.571 439.212 343.6 427.881 335.08 414.63C326.584 401.415 313.586 386.328 295.571 368.579H293.577L267.526 468.239L267.429 468.613H234.415L234.684 467.931L279.689 353.505L254.584 322.111L254.253 321.697L254.687 321.391L274.147 307.648L288.748 285.021L289.154 284.392L289.579 285.009ZM435.721 244.452L446.352 257.963L446.654 258.347L446.277 258.657L429.899 272.168L429.504 272.493L429.188 272.091L418.557 258.581L418.254 258.197L418.631 257.886L435.009 244.376L435.404 244.05L435.721 244.452ZM221.047 243.59L231.679 257.1L231.981 257.484L231.604 257.795L215.226 271.306L214.831 271.631L214.515 271.229L203.883 257.719L203.581 257.334L203.958 257.023L220.336 243.514L220.731 243.188L221.047 243.59ZM335.995 210.532L346.626 224.043L346.929 224.427L346.552 224.737L330.173 238.248L329.778 238.573L329.462 238.172L318.831 224.661L318.528 224.277L318.905 223.967L335.283 210.456L335.679 210.131L335.995 210.532ZM442.903 210.532L453.535 224.043L453.837 224.427L453.46 224.737L437.082 238.248L436.688 238.573L436.371 238.172L425.739 224.661L425.438 224.277L425.815 223.967L442.193 210.456L442.587 210.131L442.903 210.532ZM534.338 216.091L534.183 216.712L531.309 228.21L531.214 228.589H481.337L481.492 227.968L484.365 216.47L484.46 216.091H534.338ZM323.678 91.3359L323.709 91.8018L327.733 150.442L327.748 150.68L327.573 150.843L287.347 188.212L287.202 188.346H277.16L277.328 187.716C286.243 154.342 299.188 119.807 315.017 91.5908L315.159 91.3359H323.678ZM326.393 0.5L326.531 0.776367L335.014 17.7471H367.173C387.896 17.7471 402.916 21.2701 412.751 29.5791C422.608 37.9059 427.151 50.9442 427.151 69.7012C427.151 109.786 411.012 151.855 385.108 188.136L384.958 188.346H376.28L376.461 187.709C386.516 152.358 392.246 122.807 392.246 104.771C392.246 91.4503 389.665 82.2082 383.492 76.2783C377.313 70.3428 367.421 67.6143 352.519 67.6143H298.087L298.315 66.9521L321.014 0.837891L321.13 0.5H326.393ZM534.347 11.1357L534.488 11.2637C542.717 18.6288 548.371 25.9435 551.963 34.3271C555.554 42.7087 557.068 52.1236 557.068 63.665C557.068 79.9856 552.451 100.742 545.081 122.573C537.708 144.413 527.568 167.363 516.494 188.081L516.353 188.346H506.487L506.664 187.711C511.116 171.764 515.567 154.384 518.904 138.552C522.244 122.709 524.46 108.452 524.46 98.7344C524.46 91.2999 523.603 85.185 521.369 79.4033C519.135 73.6209 515.512 68.1387 509.936 61.9883L509.733 61.7646L509.837 61.4805L528.227 11.4629L528.347 11.1357H534.347ZM251.119 11.1357L251.219 11.1826C261.179 15.8038 268.372 21.168 273.072 27.6924C277.778 34.2242 279.955 41.8773 279.955 51.0166C279.955 62.1839 276.117 76.0566 269.494 90.6406C262.867 105.233 253.435 120.576 242.205 134.69L241.936 135.028L241.562 134.811L234.666 130.786L234.261 130.55L234.471 130.131C243.666 111.733 248.21 98.6046 248.21 89.5361C248.21 83.7202 247.007 78.7205 243.841 74.0049C240.667 69.2768 235.493 64.795 227.481 60.0713L227.12 59.8594L227.266 59.4668L245.08 11.4619L245.201 11.1357H251.119ZM464.937 11.1357L465.037 11.1826C474.997 15.8037 482.19 21.1682 486.89 27.6924C491.595 34.2242 493.773 41.8772 493.773 51.0166C493.773 62.1839 489.936 76.0566 483.313 90.6406C476.686 105.233 467.253 120.576 456.024 134.69L455.754 135.028L455.38 134.811L448.484 130.786L448.079 130.55L448.288 130.131C457.484 111.732 462.027 98.6047 462.027 89.5361C462.027 83.7203 460.825 78.7204 457.659 74.0049C454.485 69.2768 449.311 64.7949 441.299 60.0713L440.938 59.8594L441.084 59.4668L458.899 11.4619L459.02 11.1357H464.937Z" stroke="var(--stroke-0, #FDFCF8)"/>
</svg>
