<?xml version="1.0" encoding="UTF-8"?>
<svg id="Layer_4" data-name="Layer 4" xmlns="http://www.w3.org/2000/svg" viewBox="0 0 582.47 808.7">
  <defs>
    <style>
      .cls-1 {
        fill: none;
        stroke: #000;
        stroke-miterlimit: 10;
      }
    </style>
  </defs>
  <g>
    <polygon points="235.07 700.16 235.07 670.45 251.15 661.2 285.59 661.2 331.31 684.63 288.54 671.01 286.04 674.19 286.06 706.11 227.02 706.11 227.02 702.36 235.07 700.16"/>
    <g>
      <polygon points="255.38 557.31 286.04 557.31 297.59 573.39 297.59 607.83 341.68 706.11 284.53 610.78 281.36 608.28 249.43 608.31 249.43 549.27 253.19 549.27 255.38 557.31"/>
      <polygon points="316.71 557.31 286.35 557.31 274.51 573.39 274.51 607.83 341.68 706.11 287.56 610.78 290.74 608.28 322.66 608.31 322.66 549.27 318.91 549.27 316.71 557.31"/>
    </g>
  </g>
  <line class="cls-1" x1="286.35" y1="546.88" x2="286.35" y2="557.58"/>
  <circle cx="286.35" cy="540.39" r="6.49"/>
  <line class="cls-1" x1="268.64" y1="546.88" x2="268.64" y2="557.58"/>
  <circle cx="268.64" cy="540.39" r="6.49"/>
  <line class="cls-1" x1="304.07" y1="546.85" x2="304.07" y2="557.58"/>
  <circle cx="304.07" cy="540.39" r="6.49"/>
  <g>
    <polygon class="cls-1" points="225.85 265.34 225.85 235.63 241.93 226.38 276.37 226.38 322.09 249.82 279.32 236.2 276.82 239.37 276.84 271.3 217.8 271.3 217.8 267.54 225.85 265.34"/>
    <g>
      <polygon class="cls-1" points="246.16 122.5 276.81 122.5 288.37 138.57 288.37 173.01 332.46 271.3 275.31 175.96 272.14 173.47 240.21 173.49 240.21 114.45 243.96 114.45 246.16 122.5"/>
      <polygon class="cls-1" points="307.49 122.5 277.13 122.5 265.29 138.57 265.29 173.01 332.46 271.3 278.34 175.96 281.52 173.47 313.44 173.49 313.44 114.45 309.69 114.45 307.49 122.5"/>
    </g>
  </g>
  <line class="cls-1" x1="277.13" y1="112.06" x2="277.13" y2="122.76"/>
  <circle class="cls-1" cx="277.13" cy="105.57" r="6.49"/>
  <line class="cls-1" x1="259.42" y1="112.06" x2="259.42" y2="122.76"/>
  <circle class="cls-1" cx="259.42" cy="105.57" r="6.49"/>
  <line class="cls-1" x1="294.85" y1="112.04" x2="294.85" y2="122.76"/>
  <circle class="cls-1" cx="294.85" cy="105.57" r="6.49"/>
</svg>