<?xml version="1.0" encoding="UTF-8"?>
<svg id="Layer_4" data-name="Layer 4" xmlns="http://www.w3.org/2000/svg" viewBox="0 0 582.47 808.7">
  <defs>
    <style>
      .cls-1 {
        fill: none;
        stroke: #000;
        stroke-miterlimit: 10;
      }
    </style>
  </defs>
  <g>
    <polygon points="212.13 549.57 242.43 549.57 254.33 565.65 254.33 600.09 315.54 670.96 241.27 603.03 238.1 600.54 206.17 600.56 206.17 541.52 209.93 541.52 212.13 549.57"/>
    <polygon points="273.45 549.57 242.93 549.57 231.25 565.65 231.25 600.09 315.54 670.96 244.31 603.03 247.48 600.54 279.41 600.56 279.41 541.52 275.65 541.52 273.45 549.57"/>
  </g>
  <g>
    <polygon points="310 549.57 340.33 549.57 352.2 565.65 352.2 600.09 301.79 654.3 339.15 603.03 335.97 600.54 304.05 600.56 304.05 541.52 307.8 541.52 310 549.57"/>
    <polygon points="371.33 549.57 340.79 549.57 329.12 565.65 329.12 600.09 303 651.91 342.18 603.03 345.35 600.54 377.28 600.56 377.28 541.52 373.53 541.52 371.33 549.57"/>
  </g>
  <polygon points="211.24 706.91 340.04 706.16 340.19 689.96 315.54 670.96 307.37 661.5 301.79 654.3 298.59 656.76 205.89 655.85 205.19 714.89 208.94 714.93 211.24 706.91"/>
  <line class="cls-1" x1="243.26" y1="540.39" x2="243.26" y2="551.08"/>
  <circle cx="243.26" cy="533.89" r="6.49"/>
  <line class="cls-1" x1="225.54" y1="540.39" x2="225.54" y2="551.08"/>
  <circle cx="225.54" cy="533.89" r="6.49"/>
  <line class="cls-1" x1="260.97" y1="540.36" x2="260.97" y2="551.08"/>
  <circle cx="260.97" cy="533.89" r="6.49"/>
  <line class="cls-1" x1="189.58" y1="117.59" x2="189.58" y2="128.28"/>
  <circle class="cls-1" cx="189.58" cy="111.09" r="6.49"/>
  <line class="cls-1" x1="171.87" y1="117.59" x2="171.87" y2="128.28"/>
  <circle class="cls-1" cx="171.87" cy="111.09" r="6.49"/>
  <line class="cls-1" x1="207.3" y1="117.56" x2="207.3" y2="128.28"/>
  <circle class="cls-1" cx="207.3" cy="111.09" r="6.49"/>
  <g>
    <polygon class="cls-1" points="158.99 128.52 189.29 128.52 201.19 144.59 201.19 179.03 262.4 249.9 188.13 181.98 184.96 179.49 153.03 179.51 153.03 120.47 156.79 120.47 158.99 128.52"/>
    <polygon class="cls-1" points="220.31 128.52 189.79 128.52 178.11 144.59 178.11 179.03 262.4 249.9 191.17 181.98 194.34 179.49 226.27 179.51 226.27 120.47 222.51 120.47 220.31 128.52"/>
  </g>
  <g>
    <polygon class="cls-1" points="256.86 128.52 287.2 128.52 299.06 144.59 299.06 179.03 248.65 233.25 286.01 181.98 282.83 179.49 250.91 179.51 250.91 120.47 254.66 120.47 256.86 128.52"/>
    <polygon class="cls-1" points="318.19 128.52 287.65 128.52 275.99 144.59 275.99 179.03 249.86 230.86 289.04 181.98 292.21 179.49 324.14 179.51 324.14 120.47 320.39 120.47 318.19 128.52"/>
  </g>
  <polygon class="cls-1" points="158.1 285.86 286.9 285.11 287.05 268.91 262.4 249.9 254.23 240.45 248.65 233.25 245.45 235.71 152.75 234.8 152.05 293.83 155.8 293.88 158.1 285.86"/>
</svg>