<?xml version="1.0" encoding="UTF-8"?>
<svg id="Layer_4" data-name="Layer 4" xmlns="http://www.w3.org/2000/svg" viewBox="0 0 582.47 808.7">
  <defs>
    <style>
      .cls-1 {
        fill: none;
        stroke: #000;
        stroke-miterlimit: 10;
      }
    </style>
  </defs>
  <g>
    <g>
      <polygon class="cls-1" points="259.13 192.09 289.63 192.09 301.33 208.16 301.33 242.61 320.38 317.53 288.28 245.55 285.1 243.06 253.18 243.08 253.18 184.04 256.93 184.04 259.13 192.09"/>
      <polygon class="cls-1" points="320.46 192.09 290 192.09 278.26 208.16 278.26 242.61 320.38 317.53 291.31 245.55 294.48 243.06 326.41 243.08 326.41 184.04 322.66 184.04 320.46 192.09"/>
    </g>
    <polygon class="cls-1" points="369.44 190.88 397.84 199.63 405.05 218.67 394.91 251.58 346.09 330.9 381.57 250.56 379.27 247.24 348.75 237.86 366.12 181.44 369.71 182.54 369.44 190.88"/>
    <polyline class="cls-1" points="362.44 293.88 240.54 333.36 240.54 381.46 346.09 330.9"/>
  </g>
  <line class="cls-1" x1="290" y1="181.12" x2="290" y2="191.82"/>
  <circle class="cls-1" cx="290" cy="174.63" r="6.49"/>
  <line class="cls-1" x1="272.29" y1="181.12" x2="272.29" y2="191.82"/>
  <circle class="cls-1" cx="272.29" cy="174.63" r="6.49"/>
  <line class="cls-1" x1="307.72" y1="181.1" x2="307.72" y2="191.82"/>
  <circle class="cls-1" cx="307.72" cy="174.63" r="6.49"/>
  <g>
    <g>
      <polygon points="245.89 510.72 276.39 510.72 288.09 526.8 288.09 561.24 307.13 636.16 275.03 564.19 271.86 561.69 239.93 561.72 239.93 502.68 243.69 502.68 245.89 510.72"/>
      <polygon points="307.21 510.72 276.75 510.72 265.01 526.8 265.01 561.24 307.13 636.16 278.07 564.19 281.24 561.69 313.17 561.72 313.17 502.68 309.41 502.68 307.21 510.72"/>
    </g>
    <polygon points="356.2 509.52 384.6 518.26 391.8 537.3 381.67 570.22 332.85 649.54 368.32 569.19 366.02 565.87 335.5 556.5 352.88 500.07 356.47 501.18 356.2 509.52"/>
    <polyline points="349.19 612.51 227.3 652 227.3 700.09 332.85 649.54"/>
  </g>
  <line class="cls-1" x1="276.76" y1="499.76" x2="276.76" y2="510.46"/>
  <circle cx="276.76" cy="493.26" r="6.49"/>
  <line class="cls-1" x1="259.04" y1="499.76" x2="259.04" y2="510.46"/>
  <circle cx="259.04" cy="493.26" r="6.49"/>
  <line class="cls-1" x1="294.48" y1="499.73" x2="294.48" y2="510.46"/>
  <circle cx="294.48" cy="493.26" r="6.49"/>
</svg>