<?xml version="1.0" encoding="UTF-8"?>
<svg id="Layer_4" data-name="Layer 4" xmlns="http://www.w3.org/2000/svg" viewBox="0 0 582.47 808.7">
  <defs>
    <style>
      .cls-1 {
        fill: none;
        stroke: #000;
        stroke-miterlimit: 10;
      }
    </style>
  </defs>
  <g>
    <polygon points="271 569.73 300.93 569.73 313.2 585.81 313.2 620.25 301.18 721.76 300.15 623.19 296.97 620.7 265.05 620.72 265.05 561.68 268.8 561.68 271 569.73"/>
    <polygon points="331.33 569.73 301.39 569.73 289.12 585.81 289.12 620.25 301.18 721.76 302.18 623.19 305.35 620.7 337.28 620.72 337.28 561.68 333.53 561.68 331.33 569.73"/>
  </g>
  <line class="cls-1" x1="301.28" y1="559.01" x2="301.28" y2="569.71"/>
  <circle cx="301.28" cy="552.51" r="6.49"/>
  <line class="cls-1" x1="283.57" y1="559.01" x2="283.57" y2="569.71"/>
  <circle cx="283.57" cy="552.51" r="6.49"/>
  <line class="cls-1" x1="319" y1="558.98" x2="319" y2="569.71"/>
  <circle cx="319" cy="552.51" r="6.49"/>
  <g>
    <polygon class="cls-1" points="264.38 141.85 294.31 141.85 306.59 157.92 306.59 192.36 294.56 293.88 293.53 195.31 290.36 192.82 258.43 192.84 258.43 133.8 262.19 133.8 264.38 141.85"/>
    <polygon class="cls-1" points="324.71 141.85 294.78 141.85 282.51 157.92 282.51 192.36 294.56 293.88 295.56 195.31 298.74 192.82 330.66 192.84 330.66 133.8 326.91 133.8 324.71 141.85"/>
  </g>
  <line class="cls-1" x1="294.67" y1="131.12" x2="294.67" y2="141.82"/>
  <circle class="cls-1" cx="294.67" cy="124.63" r="6.49"/>
  <line class="cls-1" x1="276.95" y1="131.12" x2="276.95" y2="141.82"/>
  <circle class="cls-1" cx="276.95" cy="124.63" r="6.49"/>
  <line class="cls-1" x1="312.39" y1="131.1" x2="312.39" y2="141.82"/>
  <circle class="cls-1" cx="312.39" cy="124.63" r="6.49"/>
</svg>