<?xml version="1.0" encoding="UTF-8"?>
<svg id="Layer_4" data-name="Layer 4" xmlns="http://www.w3.org/2000/svg" viewBox="0 0 582.47 808.7">
  <defs>
    <style>
      .cls-1 {
        fill: none;
        stroke: #000;
        stroke-miterlimit: 10;
      }
    </style>
  </defs>
  <line class="cls-1" x1="240.09" y1="551.3" x2="240.09" y2="562"/>
  <circle cx="240.09" cy="544.81" r="6.49"/>
  <line class="cls-1" x1="222.37" y1="551.3" x2="222.37" y2="562"/>
  <circle cx="222.37" cy="544.81" r="6.49"/>
  <line class="cls-1" x1="257.81" y1="551.28" x2="257.81" y2="562"/>
  <circle cx="257.81" cy="544.81" r="6.49"/>
  <g>
    <polygon points="299.77 573.83 331.43 559.99 355.74 567.35 367.51 599.72 333.35 714.93 349.17 610.43 345.33 609.17 311.6 623.79 291.42 568.3 294.95 567.02 299.77 573.83"/>
    <g>
      <polygon points="210.18 560.9 239.89 560.9 252.38 576.97 252.38 611.42 240.38 714.93 239.33 614.36 236.15 611.87 204.23 611.89 204.23 552.85 207.98 552.85 210.18 560.9"/>
      <polygon points="270.5 560.9 240.79 560.9 228.3 576.97 228.3 611.42 240.09 714.93 241.36 614.36 244.53 611.87 276.46 611.89 276.46 552.85 272.7 552.85 270.5 560.9"/>
    </g>
    <polygon points="246.26 663.06 341.2 663.06 333.35 714.93 240.09 714.93 246.26 663.06"/>
  </g>
  <line class="cls-1" x1="257.54" y1="180.35" x2="257.54" y2="191.05"/>
  <circle class="cls-1" cx="257.54" cy="173.86" r="6.49"/>
  <line class="cls-1" x1="239.83" y1="180.35" x2="239.83" y2="191.05"/>
  <circle class="cls-1" cx="239.83" cy="173.86" r="6.49"/>
  <line class="cls-1" x1="275.26" y1="180.32" x2="275.26" y2="191.05"/>
  <circle class="cls-1" cx="275.26" cy="173.86" r="6.49"/>
  <g>
    <polygon class="cls-1" points="317.22 203.88 348.89 190.04 373.19 197.4 384.96 229.77 350.81 344.98 366.63 240.48 362.79 239.22 329.05 253.83 308.88 198.35 312.41 197.07 317.22 203.88"/>
    <g>
      <polygon class="cls-1" points="227.64 190.95 257.35 190.95 269.84 207.02 269.84 241.46 257.84 344.98 256.78 244.41 253.61 241.92 221.68 241.94 221.68 182.9 225.44 182.9 227.64 190.95"/>
      <polygon class="cls-1" points="287.96 190.95 258.25 190.95 245.76 207.02 245.76 241.46 257.54 344.98 258.82 244.41 261.99 241.92 293.92 241.94 293.92 182.9 290.16 182.9 287.96 190.95"/>
    </g>
    <polygon class="cls-1" points="263.72 293.11 358.66 293.11 350.81 344.98 257.54 344.98 263.72 293.11"/>
  </g>
</svg>