<?xml version="1.0" encoding="UTF-8"?>
<svg id="Layer_4" data-name="Layer 4" xmlns="http://www.w3.org/2000/svg" viewBox="0 0 582.47 808.7">
  <defs>
    <style>
      .cls-1 {
        fill: none;
        stroke: #000;
        stroke-miterlimit: 10;
      }
    </style>
  </defs>
  <g>
    <polygon points="268.19 456.85 297.9 456.85 310.39 472.93 310.39 507.37 334.81 590.34 297.33 510.32 294.16 507.82 262.23 507.84 262.23 448.8 265.99 448.8 268.19 456.85"/>
    <polygon points="327.51 456.85 297.8 456.85 285.31 472.93 285.31 507.37 334.8 591.65 298.37 510.32 301.54 507.82 333.47 507.84 333.47 448.8 329.71 448.8 327.51 456.85"/>
    <polygon points="266.57 614.7 334.6 613.45 334.75 597.24 335.04 565.29 298.69 468.35 296.35 561.59 293.15 564.04 261.22 563.64 260.52 622.68 264.27 622.72 266.57 614.7"/>
  </g>
  <line class="cls-1" x1="298.52" y1="446.36" x2="298.52" y2="457.06"/>
  <circle cx="298.52" cy="439.87" r="6.49"/>
  <line class="cls-1" x1="280.8" y1="446.36" x2="280.8" y2="457.06"/>
  <circle cx="280.8" cy="439.87" r="6.49"/>
  <line class="cls-1" x1="316.24" y1="446.33" x2="316.24" y2="457.06"/>
  <circle cx="316.24" cy="439.87" r="6.49"/>
  <g>
    <polygon class="cls-1" points="268.93 156.5 298.64 156.5 311.13 172.57 311.13 207.02 335.55 289.98 298.07 209.96 294.9 207.47 262.97 207.49 262.97 148.45 266.73 148.45 268.93 156.5"/>
    <polygon class="cls-1" points="328.25 156.5 298.54 156.5 286.05 172.57 286.05 207.02 335.54 291.29 299.11 209.96 302.28 207.47 334.21 207.49 334.21 148.45 330.45 148.45 328.25 156.5"/>
    <polygon class="cls-1" points="267.31 314.35 335.34 313.09 335.49 296.89 335.79 264.94 299.43 168 297.09 261.23 293.89 263.69 261.96 263.29 261.26 322.32 265.02 322.37 267.31 314.35"/>
  </g>
  <line class="cls-1" x1="299.26" y1="146.01" x2="299.26" y2="156.7"/>
  <circle class="cls-1" cx="299.26" cy="139.51" r="6.49"/>
  <line class="cls-1" x1="281.55" y1="146.01" x2="281.55" y2="156.7"/>
  <circle class="cls-1" cx="281.55" cy="139.51" r="6.49"/>
  <line class="cls-1" x1="316.98" y1="145.98" x2="316.98" y2="156.7"/>
  <circle class="cls-1" cx="316.98" cy="139.51" r="6.49"/>
</svg>