<?xml version="1.0" encoding="UTF-8"?>
<svg id="Layer_4" data-name="Layer 4" xmlns="http://www.w3.org/2000/svg" viewBox="0 0 582.47 808.7">
  <defs>
    <style>
      .cls-1 {
        fill: none;
        stroke: #000;
        stroke-miterlimit: 10;
      }
    </style>
  </defs>
  <polygon points="289.45 495.45 319.16 495.45 331.65 511.53 331.65 545.97 321.24 749.97 318.59 548.91 315.42 546.42 283.49 546.44 283.49 487.4 287.25 487.4 289.45 495.45"/>
  <line class="cls-1" x1="304.93" y1="485.27" x2="304.93" y2="495.97"/>
  <circle cx="304.93" cy="480.86" r="4.41"/>
  <line class="cls-1" x1="292.9" y1="485.26" x2="292.9" y2="495.96"/>
  <circle cx="292.9" cy="480.86" r="4.41"/>
  <line class="cls-1" x1="316.96" y1="485.25" x2="316.96" y2="495.97"/>
  <circle cx="316.96" cy="480.86" r="4.41"/>
  <polygon class="cls-1" points="265.37 134.68 295.08 134.68 307.57 150.75 307.57 185.19 297.16 389.2 294.52 188.14 291.34 185.65 259.42 185.67 259.42 126.63 263.17 126.63 265.37 134.68"/>
  <line class="cls-1" x1="280.85" y1="124.5" x2="280.85" y2="135.2"/>
  <circle class="cls-1" cx="280.85" cy="120.09" r="4.41"/>
  <line class="cls-1" x1="268.83" y1="124.49" x2="268.83" y2="135.19"/>
  <circle class="cls-1" cx="268.83" cy="120.09" r="4.41"/>
  <line class="cls-1" x1="292.88" y1="124.47" x2="292.88" y2="135.2"/>
  <circle class="cls-1" cx="292.88" cy="120.09" r="4.41"/>
</svg>