<?xml version="1.0" encoding="UTF-8"?>
<svg id="Layer_4" data-name="Layer 4" xmlns="http://www.w3.org/2000/svg" viewBox="0 0 582.47 808.7">
  <defs>
    <style>
      .cls-1 {
        fill: none;
        stroke: #000;
        stroke-miterlimit: 10;
      }
    </style>
  </defs>
  <g>
    <polygon points="337.71 491.42 364.89 503.42 369.83 523.17 355.93 554.68 310.73 584.53 342.79 552.1 340.89 548.54 311.68 535.67 335.51 481.66 338.95 483.17 337.71 491.42"/>
    <polygon points="281.18 491.62 306.64 506.95 309.04 527.17 291.27 556.67 244.3 613.21 278.57 552.46 277.14 548.69 249.78 532.23 280.24 481.66 283.45 483.59 281.18 491.62"/>
    <g>
      <polygon points="176.37 492.2 206.81 492.2 218.58 508.28 218.58 542.72 258.73 634.06 205.52 545.67 202.35 543.17 170.42 543.2 170.42 484.16 174.17 484.16 176.37 492.2"/>
      <polygon points="237.7 492.2 207.23 492.2 195.5 508.28 195.5 542.72 258.73 634.06 208.55 545.67 211.73 543.17 243.65 543.2 243.65 484.16 239.9 484.16 237.7 492.2"/>
    </g>
    <polyline points="225.48 586.04 258.73 634.06 295.26 620.14 354.33 555.83 285.31 601.25 247.75 608.41"/>
  </g>
  <g>
    <polygon class="cls-1" points="349.11 163.28 376.29 175.28 381.23 195.03 367.33 226.54 322.13 256.38 354.19 223.96 352.29 220.4 323.08 207.53 346.91 153.51 350.35 155.03 349.11 163.28"/>
    <polygon class="cls-1" points="292.58 163.48 318.04 178.81 320.44 199.03 302.67 228.53 255.7 285.07 289.97 224.32 288.54 220.54 261.18 204.09 291.64 153.51 294.85 155.45 292.58 163.48"/>
    <g>
      <polygon class="cls-1" points="187.77 164.06 218.21 164.06 229.98 180.14 229.98 214.58 270.13 305.91 216.92 217.53 213.75 215.03 181.82 215.05 181.82 156.01 185.57 156.01 187.77 164.06"/>
      <polygon class="cls-1" points="249.1 164.06 218.63 164.06 206.9 180.14 206.9 214.58 270.13 305.91 219.95 217.53 223.13 215.03 255.05 215.05 255.05 156.01 251.3 156.01 249.1 164.06"/>
    </g>
    <polyline class="cls-1" points="236.88 257.89 270.13 305.91 306.66 292 365.73 227.69 296.71 273.11 259.15 280.27"/>
  </g>
  <line class="cls-1" x1="207.05" y1="482.8" x2="207.05" y2="493.5"/>
  <circle cx="207.05" cy="476.31" r="6.49"/>
  <line class="cls-1" x1="189.34" y1="482.8" x2="189.34" y2="493.5"/>
  <circle cx="189.34" cy="476.31" r="6.49"/>
  <line class="cls-1" x1="224.77" y1="482.78" x2="224.77" y2="493.5"/>
  <circle cx="224.77" cy="476.31" r="6.49"/>
  <line class="cls-1" x1="218.59" y1="153.41" x2="218.59" y2="164.11"/>
  <circle class="cls-1" cx="218.59" cy="146.92" r="6.49"/>
  <line class="cls-1" x1="200.87" y1="153.41" x2="200.87" y2="164.11"/>
  <circle class="cls-1" cx="200.87" cy="146.92" r="6.49"/>
  <line class="cls-1" x1="236.31" y1="153.38" x2="236.31" y2="164.11"/>
  <circle class="cls-1" cx="236.31" cy="146.92" r="6.49"/>
</svg>