<?xml version="1.0" encoding="UTF-8"?>
<svg id="Layer_4" data-name="Layer 4" xmlns="http://www.w3.org/2000/svg" viewBox="0 0 582.47 808.7">
  <defs>
    <style>
      .cls-1 {
        fill: none;
        stroke: #000;
        stroke-miterlimit: 10;
      }
    </style>
  </defs>
  <g>
    <g>
      <polygon class="cls-1" points="215.03 152.83 244.99 152.83 257.23 168.91 257.23 203.35 241.48 403.3 244.18 206.3 241 203.8 209.08 203.82 209.08 144.78 212.83 144.78 215.03 152.83"/>
      <polygon class="cls-1" points="275.36 152.83 245.46 152.83 233.15 168.91 233.15 203.35 241.54 404.81 246.21 206.3 249.38 203.8 281.31 203.82 281.31 144.78 277.56 144.78 275.36 152.83"/>
    </g>
    <polyline class="cls-1" points="253.39 252.13 335.26 206.3 332.09 203.8 300.16 203.82 300.16 144.78 303.91 144.78 306.11 152.83 336.48 152.83 348.32 168.91 348.32 203.35 253.12 252.72"/>
    <polyline class="cls-1" points="253.37 252.44 338.29 206.3 341.47 203.8 373.39 203.82 373.39 144.78 369.64 144.78 367.44 152.83 336.96 152.83 325.24 168.91 325.24 203.35 253.37 252.44"/>
    <polyline class="cls-1" points="251.84 271.74 348.32 203.35 253.37 252.44"/>
  </g>
  <line class="cls-1" x1="245.34" y1="141.79" x2="245.34" y2="152.49"/>
  <circle class="cls-1" cx="245.34" cy="135.3" r="6.49"/>
  <line class="cls-1" x1="227.62" y1="141.79" x2="227.62" y2="152.49"/>
  <circle class="cls-1" cx="227.62" cy="135.3" r="6.49"/>
  <line class="cls-1" x1="263.06" y1="141.76" x2="263.06" y2="152.49"/>
  <circle class="cls-1" cx="263.06" cy="135.3" r="6.49"/>
  <g>
    <g>
      <polygon points="215.03 480.97 244.99 480.97 257.23 497.05 257.23 531.49 241.48 731.44 244.18 534.44 241 531.94 209.08 531.97 209.08 472.93 212.83 472.93 215.03 480.97"/>
      <polygon points="275.36 480.97 245.46 480.97 233.15 497.05 233.15 531.49 241.54 732.95 246.21 534.44 249.38 531.94 281.31 531.97 281.31 472.93 277.56 472.93 275.36 480.97"/>
    </g>
    <polyline points="253.39 580.27 335.26 534.44 332.09 531.94 300.16 531.97 300.16 472.93 303.91 472.93 306.11 480.97 336.48 480.97 348.32 497.05 348.32 531.49 253.12 580.86"/>
    <polyline points="253.37 580.58 338.29 534.44 341.47 531.94 373.39 531.97 373.39 472.93 369.64 472.93 367.44 480.97 336.96 480.97 325.24 497.05 325.24 531.49 253.37 580.58"/>
    <polyline points="251.84 599.88 348.32 531.49 253.37 580.58"/>
  </g>
  <line class="cls-1" x1="245.34" y1="469.93" x2="245.34" y2="480.63"/>
  <circle cx="245.34" cy="463.44" r="6.49"/>
  <line class="cls-1" x1="227.62" y1="469.93" x2="227.62" y2="480.63"/>
  <circle cx="227.62" cy="463.44" r="6.49"/>
  <line class="cls-1" x1="263.06" y1="469.91" x2="263.06" y2="480.63"/>
  <circle cx="263.06" cy="463.44" r="6.49"/>
</svg>